<?xml version="1.0" encoding="UTF-8" standalone="no"?>
<!-- Created with Inkscape (http://www.inkscape.org/) -->

<svg xmlns:dc="http://purl.org/dc/elements/1.1/" xmlns:cc="http://creativecommons.org/ns#" xmlns:rdf="http://www.w3.org/1999/02/22-rdf-syntax-ns#" xmlns:svg="http://www.w3.org/2000/svg" xmlns="http://www.w3.org/2000/svg" xmlns:sodipodi="http://sodipodi.sourceforge.net/DTD/sodipodi-0.dtd" xmlns:inkscape="http://www.inkscape.org/namespaces/inkscape" id="svg2985" version="1.1" inkscape:version="0.48.5 r10040" width="288" height="141" sodipodi:docname="7HD.png">
  <metadata id="metadata2991">
    <rdf:RDF>
      <cc:Work rdf:about="">
        <dc:format>image/svg+xml</dc:format>
        <dc:type rdf:resource="http://purl.org/dc/dcmitype/StillImage" />
        <dc:title></dc:title>
      </cc:Work>
    </rdf:RDF>
  </metadata>
  <defs id="defs2989" />
  <sodipodi:namedview pagecolor="#ffffff" bordercolor="#666666" borderopacity="1" objecttolerance="10" gridtolerance="10" guidetolerance="10" inkscape:pageopacity="0" inkscape:pageshadow="2" inkscape:window-width="1366" inkscape:window-height="706" id="namedview2987" showgrid="false" inkscape:zoom="6.0536379" inkscape:cx="254.59556" inkscape:cy="67.821073" inkscape:window-x="-8" inkscape:window-y="-8" inkscape:window-maximized="1" inkscape:current-layer="svg2985" />
  <g id="g3015">
    <path sodipodi:nodetypes="ccccc" inkscape:connector-curvature="0" id="rect2995" d="m 2.0848125,2.1779885 98.6733575,0 -28.68602,49.4298535 -40.365903,0 z" style="fill:#ee2e34;fill-opacity:1;fill-rule:evenodd;stroke:none" />
    <path sodipodi:nodetypes="ccccc" style="fill:#ee2e34;fill-opacity:1;fill-rule:evenodd;stroke:none" d="m 134.11554,51.347844 -51.127045,88.131696 -58.917346,0 L 104.30488,1.9743 z" id="path2998" inkscape:connector-curvature="0" />
    <path id="rect3002" d="M 144.375 35.90625 L 144.375 107 L 163.6875 107 L 163.6875 79.25 L 189.5625 79.25 L 189.5625 107 L 208.90625 107 L 208.90625 79.25 L 208.90625 62.125 L 208.90625 35.90625 L 189.5625 35.90625 L 189.5625 62.125 L 163.6875 62.125 L 163.6875 35.90625 L 144.375 35.90625 z " style="fill:#ee2e34;fill-opacity:1;fill-rule:evenodd;stroke:none" />
    <path sodipodi:nodetypes="cccccccccc" inkscape:connector-curvature="0" id="path3009" d="m 219.5,35.90625 0,71.09375 34.625,0 c 45.48079,-8.259062 44.69198,-65.689138 0,-71.09375 z m 19.65625,17.0625 14,0 c 18.08898,2.747236 18.0023,33.457563 0,36.125 l -14,0 z" style="fill:#ee2e34;fill-opacity:1;fill-rule:evenodd;stroke:none" />
  </g>
</svg>
