<?xml version="1.0" encoding="UTF-8"?>
<svg width="85px" height="18px" viewBox="0 0 85 18" version="1.1" xmlns="http://www.w3.org/2000/svg" xmlns:xlink="http://www.w3.org/1999/xlink">
    <g stroke="none" stroke-width="1" fill="none" fill-rule="evenodd">
        <g transform="translate(-215.000000, -2148.000000)" fill="#FFFFFF">
            <g transform="translate(0.000000, 2053.000000)">
                <path d="M256.654103,96.2820183 C257.59922,96.2820183 258.412604,96.4210391 259.094815,96.6979595 C259.777026,96.9754405 260.440738,97.4065171 261.085391,97.9911892 L260.298354,98.8460549 C259.713121,98.3516342 259.143024,97.9911892 258.588622,97.7669621 C258.03366,97.5416139 257.403582,97.4295004 256.698949,97.4295004 C255.739257,97.4295004 254.967355,97.6654994 254.382123,98.1380579 C253.79745,98.6100559 253.505395,99.244058 253.505395,100.038382 C253.505395,100.578209 253.613584,101.024982 253.831084,101.377018 C254.048585,101.729615 254.411833,102.044094 254.921949,102.321575 C255.431505,102.599616 256.159122,102.880461 257.104239,103.165229 C258.123912,103.480268 258.949067,103.81773 259.578585,104.177614 C260.208103,104.537499 260.695796,105.002209 261.040546,105.571746 C261.385295,106.141843 261.55795,106.862173 261.55795,107.731613 C261.55795,108.601614 261.347737,109.374077 260.928432,110.04844 C260.508006,110.723363 259.912123,111.248615 259.140221,111.623074 C258.367759,111.998094 257.471411,112.185324 256.451738,112.185324 C254.532355,112.185324 252.889891,111.540671 251.52603,110.250805 L252.290644,109.396499 C252.920162,109.936326 253.557527,110.34498 254.20218,110.622461 C254.846833,110.899942 255.589585,111.038402 256.429316,111.038402 C257.538679,111.038402 258.442314,110.745786 259.140221,110.160553 C259.837567,109.575881 260.18568,108.780996 260.18568,107.776459 C260.18568,107.146381 260.069642,106.629537 259.837567,106.224247 C259.604371,105.819517 259.229912,105.470844 258.712508,105.178788 C258.195104,104.886172 257.464124,104.590192 256.519567,104.289728 C254.944372,103.810442 253.819873,103.25548 253.14495,102.625402 C252.470026,101.995885 252.133125,101.141019 252.133125,100.060805 C252.133125,99.3410362 252.323718,98.6924594 252.706586,98.1156352 C253.088893,97.5382505 253.620872,97.0881146 254.303643,96.7652277 C254.985854,96.4434618 255.768967,96.2820183 256.654103,96.2820183 Z M266.349122,100.173479 L266.349122,108.451382 C266.349122,109.366229 266.540275,110.037228 266.922582,110.464381 C267.304889,110.892094 267.886198,111.10567 268.666508,111.10567 C270.03037,111.10567 271.177852,110.303498 272.107273,108.699153 L272.107273,100.173479 L273.412274,100.173479 L273.412274,111.938113 L272.287776,111.938113 L272.220508,109.846075 C271.289965,111.406135 270.007947,112.185324 268.373331,112.185324 C267.308813,112.185324 266.487582,111.874769 265.910758,111.251978 C265.332812,110.629748 265.044681,109.741249 265.044681,108.586479 L265.044681,100.173479 L266.349122,100.173479 Z M285.558655,97.2041522 L285.558655,100.173479 L288.59525,100.173479 L288.438291,101.23071 L285.558655,101.23071 L285.558655,109.014192 C285.558655,109.703691 285.701039,110.217731 285.986368,110.554632 C286.271137,110.892094 286.705577,111.060825 287.290809,111.060825 C287.890617,111.060825 288.490424,110.888731 289.090232,110.543421 L289.608196,111.443132 C288.857596,111.938113 288.033562,112.185324 287.13385,112.185324 C286.234139,112.185324 285.528945,111.919615 285.019389,111.386515 C284.508712,110.854536 284.254214,110.085998 284.254214,109.08146 L284.254214,101.23071 L282.27485,101.23071 L282.27485,100.173479 L284.254214,100.173479 L284.254214,97.3616717 L285.558655,97.2041522 Z M295.411753,99.9262689 C296.910711,99.9262689 298.050906,100.431901 298.830656,101.444847 C299.610405,102.456671 300,103.848 300,105.617152 C300,105.947326 299.984865,106.261805 299.955155,106.561709 L292.104404,106.561709 C292.17952,108.091498 292.543329,109.227769 293.195829,109.96996 C293.84833,110.712152 294.706559,111.083248 295.771077,111.083248 C296.38602,111.083248 296.929771,110.989633 297.401769,110.801843 C297.874327,110.614613 298.387807,110.318633 298.942769,109.913903 L299.550425,110.745786 C298.965192,111.226192 298.365385,111.585516 297.750442,111.825439 C297.13606,112.065362 296.453288,112.185324 295.703809,112.185324 C294.14431,112.185324 292.921712,111.653345 292.037136,110.588266 C291.152,109.523748 290.710272,108.046092 290.710272,106.156979 C290.710272,104.912518 290.901426,103.821654 291.283733,102.883824 C291.66604,101.947115 292.213715,101.219499 292.925636,100.702095 C293.638117,100.184691 294.466636,99.9262689 295.411753,99.9262689 Z M279.485465,100.173479 L279.485465,111.938113 L278.180463,111.938113 L278.180463,100.173479 L279.485465,100.173479 Z M224.177614,96.3341511 L228.879095,111.922978 L224.965212,111.922978 L221.883771,99.0108618 L218.824193,111.922978 L215,111.922978 L219.701481,96.3341511 L224.177614,96.3341511 Z M235.06496,96.3341511 C237.11944,96.3341511 238.716498,96.7618643 239.856132,97.6161694 C240.995766,98.4710351 241.566424,99.7390393 241.566424,101.417939 C241.566424,103.172516 241.006977,104.496017 239.890327,105.38844 C238.773115,106.280864 237.27696,106.726516 235.402422,106.726516 L233.715673,106.726516 L233.715673,111.922978 L230.026017,111.922978 L230.026017,96.3341511 L235.06496,96.3341511 Z M247.211901,96.3341511 L247.211901,111.922978 L243.522805,111.922978 L243.522805,96.3341511 L247.211901,96.3341511 Z M295.456599,101.005922 C294.481211,101.005922 293.693613,101.380942 293.094367,102.130421 C292.494559,102.880461 292.164385,104.020095 292.104404,105.549323 L298.717982,105.549323 L298.717982,105.212422 C298.717982,103.892846 298.444425,102.861401 297.89675,102.11921 C297.349636,101.377018 296.535692,101.005922 295.456599,101.005922 Z M235.020114,98.9660164 L233.715673,98.9660164 L233.715673,104.072227 L235.087383,104.072227 C235.956823,104.072227 236.621096,103.866499 237.077958,103.453921 C237.535942,103.041344 237.764654,102.363057 237.764654,101.417939 C237.764654,99.7838847 236.849247,98.9660164 235.020114,98.9660164 Z M278.810541,95 C279.111006,95 279.350368,95.0896908 279.530871,95.2696331 C279.710813,95.4495753 279.800504,95.6743629 279.800504,95.9445566 C279.800504,96.2147502 279.710813,96.4395378 279.530871,96.6194801 C279.350368,96.7994223 279.111006,96.8896737 278.810541,96.8896737 C278.525773,96.8896737 278.293698,96.7994223 278.113195,96.6194801 C277.933813,96.4395378 277.843562,96.2147502 277.843562,95.9445566 C277.843562,95.6743629 277.933813,95.4495753 278.113195,95.2696331 C278.293698,95.0896908 278.525773,95 278.810541,95 Z" id="Combined-Shape"></path>
            </g>
        </g>
    </g>
</svg>