<?xml version="1.0" encoding="UTF-8"?>
<svg width="428px" height="248px" viewBox="0 0 428 248" version="1.1" xmlns="http://www.w3.org/2000/svg" xmlns:xlink="http://www.w3.org/1999/xlink">
    <title>Wireframes / Portal</title>
    <g id="Wireframes-/-Portal" stroke="none" stroke-width="1" fill="none" fill-rule="evenodd">
        <g id="Portal">
            <rect id="Rectangle" fill="#51606E" x="0" y="0" width="428" height="248" rx="12"></rect>
            <path d="M0,16 L110,16 L110,248 L12,248 C5.372583,248 8.11624501e-16,242.627417 0,236 L0,16 L0,16 Z" id="Rectangle" fill="#F7F8F9"></path>
            <path d="M110,16 L428,16 L428,236 C428,242.627417 422.627417,248 416,248 L110,248 L110,248 L110,16 Z" id="Rectangle" fill="#035E86"></path>
            <rect id="Rectangle" fill="#19B3EE" x="20" y="40" width="54" height="15" rx="5"></rect>
            <path d="M72,155 L22,155 C20.9,155 20,154.1 20,153 L20,90 C20,88.9 20.9,88 22,88 L72,88 C73.1,88 74,88.9 74,90 L74,153 C74,154.1 73.1,155 72,155" id="Fill-9" fill="#DBDEE1"></path>
            <path d="M72,174 L22,174 C20.9,174 20,173.1 20,172 C20,170.9 20.9,170 22,170 L72,170 C73.1,170 74,170.9 74,172 C74,173.1 73.1,174 72,174" id="Fill-11" fill="#DBDEE1"></path>
            <path d="M58,184 L22,184 C20.9,184 20,183.1 20,182 C20,180.9 20.9,180 22,180 L58,180 C59.1,180 60,180.9 60,182 C60,183.1 59.1,184 58,184" id="Fill-13" fill="#FFFFFF"></path>
            <path d="M72,66 L22,66 C20.9,66 20,65.1 20,64 C20,62.9 20.9,62 22,62 L72,62 C73.1,62 74,62.9 74,64 C74,65.1 73.1,66 72,66" id="Fill-15" fill="#DBDEE1"></path>
            <path d="M54,74 L22,74 C20.9,74 20,73.1 20,72 C20,70.9 20.9,70 22,70 L54,70 C55.1,70 56,70.9 56,72 C56,73.1 55.1,74 54,74" id="Fill-17" fill="#DBDEE1"></path>
            <path d="M203,64 L144,64 C142.9,64 142,63.1 142,62 C142,60.9 142.9,60 144,60 L203,60 C204.1,60 205,60.9 205,62 C205,63.1 204.1,64 203,64" id="Fill-22" fill="#19A38A"></path>
            <path d="M390,64 L216,64 C214.9,64 214,63.1 214,62 C214,60.9 214.9,60 216,60 L390,60 C391.1,60 392,60.9 392,62 C392,63.1 391.1,64 390,64" id="Fill-24" fill="#BBECFF"></path>
            <path d="M173,77 L144,77 C142.9,77 142,76.1 142,75 C142,73.9 142.9,73 144,73 L173,73 C174.1,73 175,73.9 175,75 C175,76.1 174.1,77 173,77" id="Fill-26" fill="#BBECFF"></path>
            <path d="M215,77 L186,77 C184.9,77 184,76.1 184,75 C184,73.9 184.9,73 186,73 L215,73 C216.1,73 217,73.9 217,75 C217,76.1 216.1,77 215,77" id="Fill-28" fill="#19A38A"></path>
            <path d="M390,90 L144,90 C142.9,90 142,89.1 142,88 C142,86.9 142.9,86 144,86 L390,86 C391.1,86 392,86.9 392,88 C392,89.1 391.1,90 390,90" id="Fill-30" fill="#32C896"></path>
            <path d="M173,103 L144,103 C142.9,103 142,102.1 142,101 C142,99.9 142.9,99 144,99 L173,99 C174.1,99 175,99.9 175,101 C175,102.1 174.1,103 173,103" id="Fill-32" fill="#BBECFF"></path>
            <path d="M335,116 L306,116 C304.9,116 304,115.1 304,114 C304,112.9 304.9,112 306,112 L335,112 C336.1,112 337,112.9 337,114 C337,115.1 336.1,116 335,116" id="Fill-34" fill="#FFFFFF"></path>
            <path d="M293,116 L278,116 C276.9,116 276,115.1 276,114 C276,112.9 276.9,112 278,112 L293,112 C294.1,112 295,112.9 295,114 C295,115.1 294.1,116 293,116" id="Fill-36" fill="#BBECFF"></path>
            <path d="M320,103 L186,103 C184.9,103 184,102.1 184,101 C184,99.9 184.9,99 186,99 L320,99 C321.1,99 322,99.9 322,101 C322,102.1 321.1,103 320,103" id="Fill-38" fill="#FFFFFF"></path>
            <path d="M265,116 L144,116 C142.9,116 142,115.1 142,114 C142,112.9 142.9,112 144,112 L265,112 C266.1,112 267,112.9 267,114 C267,115.1 266.1,116 265,116" id="Fill-40" fill="#19A38A"></path>
            <path d="M320,129 L291,129 C289.9,129 289,128.1 289,127 C289,125.9 289.9,125 291,125 L320,125 C321.1,125 322,125.9 322,127 C322,128.1 321.1,129 320,129" id="Fill-42" fill="#BBECFF"></path>
            <path d="M278,129 L144,129 C142.9,129 142,128.1 142,127 C142,125.9 142.9,125 144,125 L278,125 C279.1,125 280,125.9 280,127 C280,128.1 279.1,129 278,129" id="Fill-44" fill="#FFFFFF"></path>
            <path d="M200,142 L144,142 C142.9,142 142,141.1 142,140 C142,138.9 142.9,138 144,138 L200,138 C201.1,138 202,138.9 202,140 C202,141.1 201.1,142 200,142" id="Fill-46" fill="#32C896"></path>
            <path d="M235,155 L144,155 C142.9,155 142,154.1 142,153 C142,151.9 142.9,151 144,151 L235,151 C236.1,151 237,151.9 237,153 C237,154.1 236.1,155 235,155" id="Fill-48" fill="#14DE2D"></path>
            <path d="M173,168 L144,168 C142.9,168 142,167.1 142,166 C142,164.9 142.9,164 144,164 L173,164 C174.1,164 175,164.9 175,166 C175,167.1 174.1,168 173,168" id="Fill-50" fill="#BBECFF"></path>
            <path d="M215,168 L186,168 C184.9,168 184,167.1 184,166 C184,164.9 184.9,164 186,164 L215,164 C216.1,164 217,164.9 217,166 C217,167.1 216.1,168 215,168" id="Fill-52" fill="#FFFFFF"></path>
        </g>
    </g>
</svg>