<?xml version="1.0" encoding="UTF-8"?>
<svg width="312px" height="377px" viewBox="0 0 312 377" version="1.1" xmlns="http://www.w3.org/2000/svg" xmlns:xlink="http://www.w3.org/1999/xlink">
    <title>Artboard</title>
    <defs>
        <linearGradient x1="63.9279771%" y1="91.4157195%" x2="35.782668%" y2="9.43609879%" id="linearGradient-1">
            <stop stop-color="#117D7D" offset="0%"></stop>
            <stop stop-color="#2FC0A7" offset="49.6640079%"></stop>
            <stop stop-color="#C8DC8C" offset="100%"></stop>
        </linearGradient>
        <path d="M24.506426,0.313605984 C25.028269,1.65166487 25.3594336,3.11514483 25.4999298,4.70408976 C25.640426,6.29303469 25.6303907,7.12930895 25.4698236,7.21293763 C26.955069,8.88551125 27.6976805,10.9134763 27.6976805,13.2968937 C27.6976805,14.8440243 27.5270806,16.2343303 27.1858756,17.4678533 C26.8446705,18.7013764 26.413153,19.7049055 25.89131,20.4784708 C25.3694671,21.2520361 24.7272085,21.9315089 23.9645149,22.5169097 C23.2018213,23.1023104 22.4993509,23.530901 21.8570827,23.8026942 C21.2148144,24.0744874 20.4822382,24.283556 19.6593319,24.4299062 C18.8364257,24.5762564 18.2142377,24.6598838 17.7927491,24.680791 C17.3712606,24.7016981 16.9196725,24.7121515 16.4379713,24.7121515 C16.317546,24.7121515 15.9562755,24.722605 15.354149,24.7435121 C14.7520225,24.7644193 14.2502579,24.7748727 13.8488403,24.7748727 C13.4474226,24.7748727 12.945658,24.7644193 12.3435315,24.7435121 C11.741405,24.722605 11.3801346,24.7121515 11.2597093,24.7121515 C10.7780081,24.7121515 10.32642,24.7016981 9.9049314,24.680791 C9.48344285,24.6598838 8.8612548,24.5762564 8.03834859,24.4299062 C7.21544237,24.283556 6.48286612,24.0744874 5.84059785,23.8026942 C5.19832958,23.530901 4.4958592,23.1023104 3.73316564,22.5169097 C2.97047207,21.9315089 2.32821344,21.2520361 1.80637047,20.4784708 C1.2845275,19.7049055 0.853009983,18.7013764 0.511804966,17.4678533 C0.170599949,16.2343303 0,14.8440243 0,13.2968937 C0,10.9134763 0.742611544,8.88551125 2.22785691,7.21293763 C2.06728984,7.12930895 2.05725455,6.29303469 2.19775074,4.70408976 C2.33824692,3.11514483 2.66941153,1.65166487 3.19125449,0.313605984 C5.03777576,0.522677686 7.32582214,1.60983423 10.0554623,3.57510822 C10.9787229,3.32422218 12.2431696,3.19878104 13.8488403,3.19878104 C15.5347945,3.19878104 16.7992411,3.32422218 17.6422182,3.57510822 C18.886613,2.69700707 20.0808127,1.98617395 21.224853,1.44258753 C22.3688934,0.899001103 23.2018225,0.585398255 23.7236655,0.501769575 L24.506426,0.313605984 Z M6.98463248,12.2933546 C6.30222245,12.4606119 5.74024614,12.7533079 5.29868671,13.1714513 C4.25500077,14.1331812 3.73316564,15.3875926 3.73316564,16.9347231 C3.73316564,19.5272122 4.57613009,21.2415745 6.26208429,22.0778613 C7.94803849,22.9141481 10.4568613,23.3322852 13.7886279,23.3322852 L13.9090526,23.3322852 C17.2408192,23.3322852 19.7596773,22.9141481 21.4657024,22.0778613 C23.1717275,21.2415745 24.0247272,19.5272122 24.0247272,16.9347231 C24.0247272,15.4294069 23.4828215,14.1749955 22.3989938,13.1714513 C21.8370091,12.6278649 21.1847152,12.2933552 20.4420925,12.1679122 C19.6994698,12.0424692 18.5654819,12.0424692 17.0400948,12.1679122 C15.5147076,12.2933552 14.4710373,12.3560758 13.9090526,12.3560758 L13.7886279,12.3560758 C13.1463596,12.3560758 12.3134305,12.3142621 11.2898154,12.2306334 C10.2662004,12.1470047 9.46337709,12.0947376 8.88132147,12.0738304 C8.29926585,12.0529232 7.66704251,12.1260972 6.98463248,12.2933546 Z M18.6658282,14.5513177 C19.1876711,14.5513177 19.6392592,14.8231068 20.020606,15.3666932 C20.4019528,15.9102796 20.5926233,16.5792991 20.5926233,17.3737715 C20.5926233,18.168244 20.4019528,18.8372634 20.020606,19.3808498 C19.6392592,19.9244362 19.1876711,20.1962254 18.6658282,20.1962254 C18.1038434,20.1962254 17.6321848,19.9244362 17.250838,19.3808498 C16.8694912,18.8372634 16.6788207,18.168244 16.6788207,17.3737715 C16.6788207,16.5792991 16.8694912,15.9102796 17.250838,15.3666932 C17.6321848,14.8231068 18.1038434,14.5513177 18.6658282,14.5513177 Z M9.09206469,14.5513177 C9.61390766,14.5513177 10.0654958,14.8231068 10.4468425,15.3666932 C10.8281893,15.9102796 11.0188599,16.5792991 11.0188599,17.3737715 C11.0188599,18.168244 10.8281893,18.8372634 10.4468425,19.3808498 C10.0654958,19.9244362 9.61390766,20.1962254 9.09206469,20.1962254 C8.53007996,20.1962254 8.05842127,19.9244362 7.67707449,19.3808498 C7.29572771,18.8372634 7.10505718,18.168244 7.10505718,17.3737715 C7.10505718,16.5792991 7.29572771,15.9102796 7.67707449,15.3666932 C8.05842127,14.8231068 8.53007996,14.5513177 9.09206469,14.5513177 Z" id="path-2"></path>
    </defs>
    <g id="Artboard" stroke="none" stroke-width="1" fill="none" fill-rule="evenodd">
        <g id="Group" transform="translate(8.263959, 40.841789)">
            <g id="Pirate-flag" transform="translate(258.892675, 252.397332) rotate(138.000000) translate(-258.892675, -252.397332) translate(243.392675, 224.897332)">
                <path d="M2.53119548,1.96691856 C15.089171,6.97649355 17.3487006,-0.0264764934 29.2949574,0.295440818 C28.3890368,4.75970918 26.3414298,8.92374569 23.1521366,12.7875503 C27.634832,16.625772 30.0823456,20.7914603 30.4946774,25.2846153 C19.8209196,20.8926372 8.85839434,26.8560409 2.85500768,23.1946859 C2.53265311,12.3197647 2.43219468,9.68842238 2.53119548,1.96691856 Z" id="Path-3" fill="#000000"></path>
                <path d="M15.7119727,16.2951099 L18.8030766,17.7737296 C18.8745052,17.80796 18.9172325,17.8740603 18.9172325,17.9504731 C18.9172325,18.007643 18.8933445,18.059012 18.8513761,18.0955905 L18.8035961,18.126906 C18.8034662,18.1270303 18.8032065,18.1271545 18.8030766,18.1272167 L14.9069727,19.9909447 C14.7910636,20.046344 14.6666805,20.080986 14.5402063,20.0948446 L14.4132714,20.1017744 L14.4132714,20.1017744 C14.243726,20.1017744 14.0741156,20.0648104 13.9195701,19.9909447 L10.9228169,18.5574272 C11.012687,18.533323 11.1005441,18.5010184 11.1850896,18.4605755 L15.7119727,16.2951099 Z M10.0711286,14.8392277 L13.977687,16.7079878 L11.0108688,18.1272167 C10.9225571,18.1694612 10.8293422,18.1996358 10.7340243,18.2177406 L10.5898204,18.2358454 L10.5898204,18.2358454 L10.4445624,18.2358454 C10.2994773,18.226793 10.1559616,18.1905834 10.0234662,18.1272167 C9.64710258,17.9471184 9.41327141,17.5851824 9.41327141,17.182555 L9.41327141,15.2281877 C9.41327141,15.076356 9.49385583,14.9381295 9.62885583,14.8583619 C9.76379089,14.778408 9.92911557,14.7712637 10.0711286,14.8392277 Z M9.56814154,9.4795186 C9.62262206,9.6005988 9.72041427,9.70155073 9.84924544,9.763178 L18.8030766,14.0462735 C19.1794402,14.2263718 19.4132714,14.5883077 19.4132714,14.9909351 L19.4132714,17.182555 C19.4132714,17.3389094 19.3779883,17.4891408 19.312808,17.625011 L19.2584013,17.7240923 L19.2584013,17.7240923 C19.2039208,17.60295 19.1061286,17.501998 18.9772974,17.4403708 L10.0234662,13.1572752 C9.64710258,12.977177 9.41327141,12.615241 9.41327141,12.2126136 L9.41327141,10.0209937 C9.41327141,9.82555077 9.46840128,9.63967496 9.56814154,9.4795186 Z M18.8030766,9.0763321 C19.1794402,9.25643035 19.4132714,9.61836634 19.4132714,10.0209937 L19.4132714,11.9753611 C19.4132714,12.1271928 19.332687,12.2654193 19.197687,12.3451868 C19.143713,12.3771684 19.0848766,12.3975004 19.0246148,12.4060358 L18.9335826,12.409973 C18.8727545,12.4066749 18.8122195,12.3915067 18.7554143,12.3643211 L14.8488558,10.495561 L17.815674,9.0763321 C17.9481415,9.01296535 18.0916414,8.97675577 18.2367224,8.96770338 L18.3819805,8.96770338 C18.5270655,8.97675577 18.6705812,9.01296535 18.8030766,9.0763321 Z M14.4132714,7.10177438 C14.5828169,7.10177438 14.7524273,7.13873832 14.9069727,7.21260407 L17.903726,8.64618367 C17.8138558,8.67022576 17.7259987,8.70253038 17.6414532,8.74297328 L13.1145701,10.908501 L10.0234662,9.42981918 C9.95203764,9.39558871 9.90931037,9.32955062 9.90931037,9.25307564 C9.90931037,9.19590578 9.93319836,9.14453678 9.9751667,9.10795821 L10.0232065,9.07646411 L10.0232065,9.07646411 L10.0234662,9.0763321 L13.9195701,7.21260407 C14.0741156,7.13873832 14.243726,7.10177438 14.4132714,7.10177438 Z" id="Combined-Shape" fill="url(#linearGradient-1)"></path>
                <rect id="Rectangle" fill="#7C6B42" x="0.69978989" y="1.22152606" width="2" height="53" rx="1"></rect>
            </g>
            <g fill-rule="nonzero" id="Path">
                <g>
                    <path d="M120.445122,255.863887 L132.396351,257.329844 C141.664651,258.465515 148.316079,266.981782 147.175326,276.250083 L146.05998,285.368484 C144.921768,294.634244 136.408041,301.288212 127.139741,300.15 L115.193593,298.684044 C105.922753,297.548372 99.2713245,289.034646 100.406996,279.763805 L101.529965,270.645403 C102.665636,261.379644 111.179363,254.725675 120.445122,255.863887" fill="#C2C2C2"></path>
                    <path d="M255.035366,182.961688 L261.414944,166.297549 C264.184255,159.069392 272.362615,155.418475 279.593312,158.187786 L293.592307,163.546022 C300.820463,166.312793 304.473922,174.493693 301.707151,181.72439 L295.327573,198.385989 C292.560802,205.616686 284.379902,209.267603 277.149205,206.498292 L263.15021,201.137516 C255.919513,198.370745 252.268595,190.192385 255.035366,182.961688" fill="#C2C2C2"></path>
                    <path d="M271.120122,53.2796475 L277.357424,61.646016 C283.200924,69.4839287 281.567285,80.680584 273.726831,86.5240846 L267.64705,91.0591492 C259.806597,96.9051905 248.609941,95.2690103 242.768981,87.4285569 L236.529139,79.0596478 C230.685638,71.221735 232.319278,60.0276204 240.157191,54.1815791 L246.242053,49.6490551 C254.079966,43.8055545 265.276621,45.439194 271.120122,53.2796475" fill="#D6D6D6"></path>
                    <path d="M132.761585,-4.5526366 L149.979587,-3.96066458 C157.886097,-3.68627412 164.131021,3.00834506 163.859171,10.9123148 L163.361203,25.282245 C163.089354,33.1862147 156.397275,39.4311384 148.490765,39.1592886 L131.272763,38.5622353 C123.368793,38.2929261 117.12387,31.6008476 117.395719,23.6917966 L117.891147,9.32694768 C118.165537,1.42297794 124.857616,-4.82194576 132.761585,-4.5526366" fill="#D6D6D6"></path>
                    <path d="M62.2858537,80.6957466 L55.850381,88.8461596 C48.4901109,98.1551101 34.8595106,99.7506399 25.5454787,92.3954511 C16.2416095,85.0402623 14.6435391,71.40204 22.0012686,62.0930894 L28.4418225,53.9477577 C35.7970113,44.6388072 49.4276117,43.0432774 58.7391029,50.3959256 C68.0480534,57.7511144 69.6435831,71.386796 62.2858537,80.6957466" fill="#D6D6D6"></path>
                    <path d="M149.666972,3.62170732 C68.7903825,3.62170732 3.21868365,69.1883248 3.21868365,150.069995 C3.21868365,230.951666 68.7903825,296.515742 149.666972,296.515742 C230.548642,296.515742 296.1178,230.951666 296.1178,150.069995 C296.1178,69.1883248 230.548642,3.62170732 149.666972,3.62170732" fill="#F6F6F6" transform="translate(149.668242, 150.068725) scale(-1, 1) rotate(-90.000000) translate(-149.668242, -150.068725) "></path>
                    <path d="M98.4401107,55.1137681 C91.9893902,55.1137681 86.7581836,62.8475189 86.755643,72.3978373 C86.755643,81.9430744 91.9868496,89.6819065 98.4401107,89.6844471 C104.893372,89.6819065 110.124578,81.945615 110.127119,72.4003779 C110.127119,62.8526002 104.898453,55.1163088 98.4401107,55.1137681" fill="#E3E3E3" transform="translate(98.441381, 72.399108) scale(-1, 1) rotate(-67.400190) translate(-98.441381, -72.399108) "></path>
                    <path d="M76.6810976,84.3554704 C72.9412572,75.381886 80.6775438,63.6186652 93.9626155,58.0851242 C103.782237,53.9972144 113.876249,54.4697758 119.983978,58.6212019 C114.38692,52.7497541 102.85744,51.4870498 91.6734876,56.1440658 C78.3909567,61.6699848 70.65467,73.4332056 74.3945104,82.4118713 C75.3675803,84.7492716 77.0342483,86.6573015 79.1861809,88.1181767 C78.1343508,87.0180742 77.2705289,85.7731545 76.6810976,84.3554704" fill="#E3E3E3"></path>
                    <path d="M114.396844,65.7574276 C113.792169,64.3041744 112.788611,63.0999052 111.492878,62.1598638 C113.182412,67.9906611 108.141758,75.2366019 99.7449013,78.7325396 C93.0782293,81.5120134 86.2210083,81.1232936 82.1991555,78.1939213 C82.2829971,78.4784744 82.3693792,78.7630274 82.4811679,79.0424992 C84.9633854,85.0003292 94.1173561,86.8550055 102.930879,83.1863033 C111.741862,79.5150606 116.876521,71.7127169 114.396844,65.7574276" fill-opacity="0.15" fill="#230753"></path>
                    <path d="M153.331872,21.7255105 C149.754634,21.7255105 146.858289,26.9033606 146.858289,33.2956414 C146.85575,39.6853815 149.754634,44.8657713 153.331872,44.8657713 C156.909111,44.8632306 159.805456,39.6879222 159.805456,33.2956414 C159.807995,26.9059012 156.909111,21.7229708 153.331872,21.7255105" fill="#E3E3E3" transform="translate(153.331872, 33.295641) scale(-1, 1) rotate(-83.690380) translate(-153.331872, -33.295641) "></path>
                    <path d="M195.089634,84.5399438 C192.274591,82.9139263 191.72581,78.5313008 193.610974,74.3443056 C193.344206,74.7127002 193.074897,75.0836355 192.838616,75.4926805 C190.221744,80.0252045 190.610464,85.1471598 193.707519,86.9332384 C196.807115,88.7218578 201.436184,86.4987869 204.050515,81.9662629 C204.289337,81.5572179 204.469723,81.1405509 204.662813,80.7238839 C201.974802,84.451021 197.907218,86.1659614 195.089634,84.5399438" fill="#E3E3E3"></path>
                    <path d="M137.481212,36.3488675 C136.848589,30.6603467 144.582336,25.1369683 154.752567,24.0114593 C159.053892,23.5388979 163.09607,23.9301584 166.383674,24.9692852 C162.773407,23.1984505 157.697183,22.3879823 152.19159,22.9951983 C142.023899,24.123248 134.290152,29.6415451 134.922775,35.3326065 C135.283548,38.6125888 138.360278,41.2243795 142.836907,42.6369823 C139.777962,41.1430787 137.768306,38.9555769 137.481212,36.3488675" fill-opacity="0.15" fill="#230753"></path>
                    <path d="M164.831335,32.0241689 C164.495969,28.9525201 160.352165,26.8107501 155.133665,26.7421525 C158.009684,27.6110556 159.996474,29.267561 160.227673,31.350896 C160.618934,34.9027281 155.786613,38.3554748 149.434982,39.0592355 C148.581322,39.1532397 147.740366,39.1888088 146.927358,39.1761055 C148.954798,39.7909434 151.421772,40.0221428 154.043725,39.7299678 C160.395356,39.0287477 165.225137,35.5785417 164.831335,32.0241689" fill-opacity="0.15" fill="#230753"></path>
                    <path d="M34.2826108,116.127266 C27.8293678,116.127266 22.6032571,123.728881 22.6007165,133.11149 C22.6007165,142.489018 27.8319084,150.095714 34.2826108,150.090636 C40.7358539,150.090636 45.9695865,142.489018 45.9670468,133.108949 C45.9670468,123.731422 40.7358539,116.127266 34.2826108,116.127266" fill="#E3E3E3" transform="translate(34.283882, 133.108951) scale(-1, 1) rotate(-31.999451) translate(-34.283882, -133.108951) "></path>
                    <path d="M40.8679796,124.067364 C46.881704,127.418484 55.2709385,124.204559 61.1855775,116.862073 C55.9188049,125.467263 47.0087367,129.656799 40.8679796,126.226918 C37.6870827,124.448461 35.850191,120.967768 35.4538492,116.775691 C36.3684841,119.971832 38.1875913,122.568379 40.8679796,124.067364" fill-opacity="0.15" fill="#230753" transform="translate(48.319713, 122.099989) scale(-1, 1) rotate(118.825523) translate(-48.319713, -122.099989) "></path>
                    <path d="M21.5944322,150.563644 C14.0969669,145.883762 13.0349742,133.851232 18.7311169,122.748581 C18.1264417,123.56159 17.531929,124.402546 16.9806074,125.289233 C9.61525599,137.070239 10.21485,150.731327 18.3246126,155.799929 C26.4318345,160.863449 38.9724949,155.418831 46.3353057,143.635285 C46.8891679,142.746056 47.3845952,141.844125 47.8495345,140.942193 C40.3698538,150.934579 29.0893569,155.251148 21.5944322,150.563644" fill-opacity="0.15" fill="#230753"></path>
                    <path d="M43.2814415,118.708944 C37.8088761,115.289225 29.3434222,118.965549 24.373906,126.917792 C23.5939257,128.167793 22.9638439,129.440659 22.4480915,130.721148 C27.4277702,125.207932 34.1630399,123.028053 38.7794053,125.911693 C43.3932302,128.797874 44.3917066,135.807534 41.6147735,142.700325 C42.539571,141.676442 43.4135554,140.548392 44.1884544,139.303472 C49.1605112,131.346149 48.7540068,122.128662 43.2814415,118.708944" fill-opacity="0.15" fill="#230753"></path>
                    <path d="M75.0869232,173.834352 C61.1108034,173.834352 49.7769599,183.095024 49.7769599,194.522871 C49.7744197,205.948177 61.1082627,215.206309 75.0869232,215.206309 C89.0655836,215.208849 100.394345,205.945636 100.396886,194.52033 C100.396886,183.095024 89.0630429,173.834352 75.0869232,173.834352" fill="#E3E3E3" transform="translate(75.086923, 194.520330) scale(-1, 1) rotate(-32.001666) translate(-75.086923, -194.520330) "></path>
                    <path d="M53.6218969,194.702399 C59.6762717,185.01235 74.1961003,183.160215 86.048244,190.568757 C91.9247731,194.242541 96.0330081,199.501691 97.9588226,205.053017 C101.60974,195.655143 96.7723379,183.681048 86.048244,176.978807 C74.1961003,169.572805 59.6762717,171.41986 53.6218969,181.109908 C50.5705733,185.995583 50.2580731,191.938169 52.2092941,197.583499 C52.598014,196.595185 53.0451688,195.624655 53.6218969,194.702399" fill-opacity="0.15" fill="#230753"></path>
                    <path d="M110.596028,197.232888 C110.817065,202.080453 109.793182,206.851799 107.328749,211.120095 C99.1656325,225.258826 78.5279127,228.62519 61.2336916,218.637885 C51.7519767,213.16532 45.2707723,204.814195 42.6691442,196.056566 C43.1747341,207.250681 50.4079716,218.879247 62.4760706,225.845716 C79.7702918,235.83048 100.405471,232.466657 108.571128,218.330466 C112.257615,211.943266 112.740338,204.450882 110.596028,197.232888" fill-opacity="0.15" fill="#230753"></path>
                    <path d="M97.0695942,260.307126 C101.711366,252.878258 114.058937,252.217689 124.650917,258.841169 C131.952752,263.404181 136.508142,270.228374 137.120439,276.463135 C137.697167,269.616076 132.963932,261.49107 124.650917,256.297976 C114.058937,249.682117 101.711366,250.337606 97.0695942,257.763933 C95.6290443,260.070845 95.1031293,262.761396 95.3749791,265.571358 C95.5350402,263.693816 96.0711178,261.902656 97.0695942,260.307126" fill-opacity="0.15" fill="#230753"></path>
                    <path d="M129.770332,270.629797 C129.574702,271.666383 129.267283,272.6674 128.700717,273.571872 C125.28354,279.039356 116.190545,279.52208 108.395823,274.65165 C104.549275,272.243111 101.752017,268.985995 100.296223,265.645037 C99.3053684,270.868618 102.788603,277.365066 109.297754,281.43011 C117.095017,286.305622 126.185471,285.822898 129.605189,280.352874 C131.332833,277.581022 131.266776,274.062218 129.770332,270.629797" fill-opacity="0.15" fill="#230753"></path>
                    <path d="M208.366532,173.602941 C187.439186,173.602941 170.472716,188.760467 170.470176,207.452039 C170.472716,226.148693 187.441727,241.301138 208.366532,241.301138 C229.296418,241.298598 246.260348,226.141071 246.262889,207.452039 C246.265429,188.755386 229.291337,173.6004 208.366532,173.602941" fill="#E3E3E3" transform="translate(208.366532, 207.452039) scale(-1, 1) rotate(-31.998576) translate(-208.366532, -207.452039) "></path>
                    <path d="M186.124544,207.204949 C196.030547,191.351278 218.449265,187.489486 236.195722,198.579434 C239.424891,200.596712 242.257719,202.972222 244.701826,205.599257 C243.014833,195.207988 236.586982,185.172411 226.302421,178.744561 C208.555964,167.657153 186.134706,171.516404 176.226162,187.370076 C168.12148,200.340106 170.918739,217.319287 181.924845,229.140942 C180.69771,221.597745 181.957874,213.871621 186.124544,207.204949" fill-opacity="0.15" fill="#230753"></path>
                    <path d="M254.811082,201.214091 C254.88222,210.411253 252.394922,219.829451 247.087499,228.317771 C232.732813,251.29035 203.253622,258.76495 181.249032,245.014939 C170.387742,238.223775 163.385704,227.53525 160.794239,215.685647 C160.913649,231.371635 168.497497,246.409757 182.369459,255.081004 C204.376591,268.831015 233.85324,261.356415 248.210467,238.378755 C255.481814,226.747648 257.471145,213.373653 254.811082,201.214091" fill-opacity="0.15" fill="#230753"></path>
                    <path d="M110.592528,122.991327 C107.457364,122.991327 104.924334,126.682894 104.924334,131.230661 C104.924334,135.778428 107.462445,139.467455 110.592528,139.467455 C113.725152,139.467455 116.260723,135.778428 116.258184,131.22812 C116.258184,126.680353 113.720071,122.991327 110.592528,122.991327" fill="#E3E3E3" transform="translate(110.591259, 131.229391) scale(-1, 1) rotate(-109.139023) translate(-110.591259, -131.229391) "></path>
                    <path d="M120.293698,129.100212 C121.144817,130.738933 121.39126,132.471658 120.837398,134.067188 C119.44512,138.076337 113.596538,139.68457 107.768282,137.662211 C105.085353,136.729791 102.880066,135.182534 101.411569,133.393915 C102.69968,135.873591 105.38769,138.129691 108.896331,139.346663 C114.719507,141.369023 120.570629,139.76079 121.960366,135.754181 C122.712399,133.594626 122.003557,131.186088 120.293698,129.100212" fill-opacity="0.15" fill="#230753"></path>
                    <path d="M104.831287,130.624603 C105.857711,127.667284 110.17682,126.480799 114.473063,127.974703 C115.646845,128.378667 116.68089,128.955395 117.570119,129.623586 C116.518289,128.056004 114.727129,126.663726 112.450704,125.876124 C108.15192,124.38222 103.835352,125.568705 102.808928,128.528565 C102.064517,130.675417 103.276408,133.160175 105.634134,134.93355 C104.701714,133.543813 104.348563,132.01434 104.831287,130.624603" fill-opacity="0.15" fill="#230753"></path>
                    <path d="M183.477184,123.67846 C180.436023,122.621548 177.31102,123.388825 175.59862,125.350209 C176.896894,125.126632 178.324741,125.223176 179.729721,125.713522 C183.5407,127.034662 185.740905,130.68812 184.63064,133.871557 C184.414684,134.496558 184.0844,135.058042 183.670273,135.545847 C185.862856,135.146965 187.687045,133.830907 188.378102,131.841576 C189.480745,128.653057 187.288162,125.00214 183.477184,123.67846" fill-opacity="0.15" fill="#230753"></path>
                    <path d="M181.32017,137.766377 C173.530529,135.629689 168.66518,128.617488 170.451259,122.113418 C170.7663,120.967584 171.292215,119.928457 171.942622,118.983334 C169.808474,120.454372 168.220566,122.522463 167.529508,125.032627 C165.738348,131.539238 170.603698,138.551439 178.395879,140.690668 C184.790701,142.4488 191.114385,140.340058 194.183493,135.939648 C190.799344,138.246561 186.07119,139.074814 181.32017,137.766377" fill-opacity="0.15" fill="#230753"></path>
                    <path d="M259.587509,134.85479 C259.658647,136.003165 259.305496,137.255706 258.469622,138.32024 C256.863929,140.365465 254.175919,140.939652 252.46606,139.595647 C252.138316,139.339041 251.876629,139.029082 251.668295,138.683553 C251.762299,139.68457 252.161182,140.601746 252.946243,141.214043 C254.653562,142.555507 257.339031,141.983861 258.944724,139.941176 C260.209969,138.327862 260.387814,136.308043 259.587509,134.85479" fill-opacity="0.15" fill="#230753"></path>
                    <path d="M196.27445,74.7266929 C198.596606,73.2480332 201.480247,73.6265904 202.712463,75.5651082 C203.32222,76.5305561 203.413683,77.6916343 203.065614,78.8044401 C204.229233,77.3130771 204.493461,75.3999658 203.571204,73.9467126 C202.338987,72.0081948 199.455347,71.6296376 197.133191,73.1057567 C195.96449,73.8476272 195.214998,74.9223232 194.856766,76.0452915 C195.248026,75.5549456 195.695181,75.0925469 196.27445,74.7266929" fill-opacity="0.15" fill="#230753"></path>
                    <path d="M258.456918,93.6052649 C257.770942,91.4101412 255.088013,90.2998761 252.460979,91.1205068 C251.322766,91.4761982 250.415754,92.1469304 249.767887,92.9573986 C250.24807,92.6169511 250.776526,92.3247761 251.381201,92.1367678 C254.005695,91.3161371 256.693706,92.4264022 257.379682,94.6189853 C257.768402,95.8740676 257.407629,97.1977475 256.551429,98.2622809 C258.159662,97.1342312 258.987915,95.2998801 258.456918,93.6052649" fill-opacity="0.15" fill="#230753"></path>
                    <path d="M201.068661,46.981498 C201.670796,44.0292598 206.498035,42.5277342 211.848649,43.6202148 C213.294281,43.9149305 214.612879,44.3773292 215.776498,44.9388134 C214.30292,43.2086291 211.602206,41.7172661 208.322224,41.0465339 C202.97161,39.9540533 198.146911,41.4581196 197.542236,44.407817 C197.102703,46.5673716 199.069168,48.8895279 202.242443,50.4164601 C201.302401,49.3188982 200.834921,48.1273322 201.068661,46.981498" fill-opacity="0.15" fill="#230753"></path>
                    <path d="M27.3236035,210.352818 C23.3322385,201.98899 17.122884,196.574859 13.5075355,198.350776 C12.773287,198.709008 12.4988965,199.364496 12.3591606,199.4585 C14.7727804,200.289293 19.6686177,205.050476 23.2052059,212.456478 C26.6071395,219.580467 26.1549034,226.201408 25.5044963,228.815739 C26.8205543,229.273056 27.8749251,228.686166 27.9638479,228.645515 C31.6046029,226.91025 31.3149685,218.719186 27.3236035,210.352818" fill-opacity="0.15" fill="#230753"></path>
                    <path d="M19.4370075,209.988408 C10.4583433,209.990952 3.17683463,211.835465 3.17937462,214.104267 C3.17937462,216.37307 10.4583433,218.20742 19.4370075,218.204882 C28.4182123,218.202339 35.6971803,216.357826 35.6946403,214.091564 C35.6946403,211.822762 28.4156717,209.98587 19.4370075,209.988408" fill="#C2C2C2" transform="translate(19.437007, 214.096645) scale(-1, 1) rotate(-64.465066) translate(-19.437007, -214.096645) "></path>
                    <path d="M23.1416896,212.326905 C22.765673,211.536762 22.3718719,210.792351 21.9831521,210.05048 C25.0420976,217.184632 26.0837651,223.274576 24.2341701,224.158723 C22.3871158,225.040329 18.3093686,220.401098 14.6863983,213.533715 C15.0141424,214.303532 15.3520492,215.075891 15.7306064,215.868574 C19.5949388,223.970715 24.3891499,229.748158 26.4369158,228.770007 C28.4872223,227.791856 27.0085626,220.429045 23.1416896,212.326905" fill-opacity="0.15" fill="#230753"></path>
                    <path d="M256.193197,100.305474 C252.222157,101.591044 248.1063,99.8761033 247.001117,96.471629 C246.386279,94.571221 246.863921,92.5641056 248.078353,90.9203034 C245.819713,92.6936788 244.729773,95.4579087 245.555485,97.9960205 C246.658129,101.400495 250.773986,103.115435 254.747566,101.829865 C256.500616,101.258218 257.903056,100.186063 258.863423,98.8852488 C258.096146,99.4873835 257.199296,99.9777294 256.193197,100.305474" fill-opacity="0.15" fill="#230753"></path>
                    <path d="M149.666181,235.78983 C79.2011856,235.78983 20.3723784,186.013367 6.3886274,119.70742 C4.32307696,129.504176 3.21789315,139.654082 3.21789315,150.070757 C3.21789315,230.947346 68.7845106,296.519045 149.666181,296.519045 C230.547851,296.519045 296.114469,230.947346 296.114469,150.070757 C296.114469,139.654082 295.011826,129.504176 292.946275,119.70742 C278.962524,186.013367 220.133717,235.78983 149.666181,235.78983" fill-opacity="0.15" fill="#230753"></path>
                </g>
            </g>
            <g id="Yellow-flag" transform="translate(238.699149, 17.265264) rotate(28.000000) translate(-238.699149, -17.265264) translate(217.199149, -28.234736)">
                <path d="M1.48880771,3.86937478 C19.8327091,11.2835458 23.1332881,0.9191501 40.5836292,1.39558772 C38.5986614,11.3062635 31.5200705,20.2906802 31.6105826,19.8839098 C33.9105965,33.3152021 43.5118494,33.4909634 42.3361049,38.379566 C26.7445502,31.8794384 10.7311822,40.7052759 1.96181221,35.2864704 C1.49093691,19.191587 1.34419356,15.2972004 1.48880771,3.86937478 Z" id="Path-3" fill="#C8DC8C"></path>
                <path d="M21.8142587,29.2336005 C22.4392587,29.2336005 22.9600921,28.7554755 22.9600921,28.1179755 L22.9600921,13.4023505 C22.9600921,12.7648505 22.4392587,12.2336005 21.8142587,12.2336005 L12.9600921,12.2336005 C12.3350921,12.2336005 11.8142587,12.7648505 11.8142587,13.4023505 L11.8142587,28.1179755 C11.8142587,28.7554755 12.3350921,29.2336005 12.9600921,29.2336005 L21.8142587,29.2336005 Z M8.4809254,27.0023505 C9.1059254,27.0023505 9.62675873,26.4711005 9.62675873,25.8336005 L9.62675873,15.6336005 C9.62675873,15.0492255 9.1059254,14.5179755 8.4809254,14.5179755 C7.90800873,14.5179755 7.3871754,15.0492255 7.3871754,15.6336005 L7.3871754,25.8336005 C7.3871754,26.4711005 7.90800873,27.0023505 8.4809254,27.0023505 Z M26.2934254,27.0023505 C26.8663421,27.0023505 27.3871754,26.4711005 27.3871754,25.8336005 L27.3871754,15.6336005 C27.3871754,15.0492255 26.8663421,14.5179755 26.2934254,14.5179755 C25.6684254,14.5179755 25.1475921,15.0492255 25.1475921,15.6336005 L25.1475921,25.8336005 C25.1475921,26.4711005 25.6684254,27.0023505 26.2934254,27.0023505 Z" id="a" fill="#19B3EE" fill-rule="nonzero"></path>
                <rect id="Rectangle" fill="#FFFFFF" x="0.259693565" y="0.975516647" width="2" height="90" rx="1"></rect>
            </g>
            <g id="Gray-flag" transform="translate(59.830013, 284.856439) rotate(43.000000) translate(-59.830013, -284.856439) translate(32.330013, 239.356439)">
                <path d="M1.30607399,44.005892 C23.4769683,33.6014276 28.0274987,49.3279472 51.9660519,40.7124426 C45.7670957,51.003624 41.8912683,59.208366 40.3385696,65.3266687 C47.0744473,73.0483755 51.707241,81.2563723 54.2369506,89.9506588 C30.3849692,92.7365865 16.826934,77.6774181 1.91900422,85.8326997 C1.30883307,64.4049523 1.11867963,59.2202031 1.30607399,44.005892 Z" id="Path-3" fill="#606060"></path>
                <g id="Icons-/-Social-icons-/-Github" transform="translate(21.426222, 63.664168) scale(1, -1) translate(-21.426222, -63.664168) translate(7.426222, 51.164168)">
                    <mask id="mask-3" fill="white">
                        <use xlink:href="#path-2"></use>
                    </mask>
                    <use id="Path" fill="#FFFFFF" xlink:href="#path-2"></use>
                    <g id="theme/colors/highlight" mask="url(#mask-3)" fill="#FFFFFF" fill-rule="nonzero">
                        <rect id="Rectangle" x="0" y="0" width="28" height="25"></rect>
                    </g>
                </g>
                <rect id="Rectangle" fill="#AEAEAE" x="0.464590711" y="0.0272632915" width="3" height="87" rx="1.5"></rect>
            </g>
            <g id="White-flag" transform="translate(49.453374, 30.529107) rotate(155.000000) translate(-49.453374, -30.529107) translate(17.953374, -37.970893)">
                <path d="M3.07552391,85.104521 C28.1746496,73.4515208 33.3261934,91.0652227 60.4264423,81.4158576 C53.4087561,92.9419808 51.3407137,102.131292 54.2223152,108.983791 C57.2084635,117.632102 60.1334488,126.825059 62.997271,136.56266 C35.9950279,139.682899 20.6463088,122.81663 3.76940719,131.950546 C3.07864739,107.951468 2.86337935,102.144549 3.07552391,85.104521 Z" id="Path-3" fill="#FFFFFF"></path>
                <path d="M20.2244316,117.303387 L20.8213728,115.529069 C20.0254512,115.208288 19.6116984,114.309434 19.5801142,112.832506 L19.5801142,112.832506 L19.5801142,110.667236 C19.5801142,109.163576 18.9958067,108.104331 17.8271917,107.489502 C18.9958067,106.874672 19.5801142,105.818769 19.5801142,104.321792 L19.5801142,104.321792 L19.5801142,102.146497 C19.6116984,100.669569 20.0254512,99.770715 20.8213728,99.4499343 L20.8213728,99.4499343 L20.2244316,97.6856402 C19.1126682,98.0197868 18.2709495,98.5577629 17.6992757,99.2995683 C17.1276019,100.041374 16.8322897,101.01374 16.8133392,102.216668 L16.8133392,102.216668 L16.8133392,104.321792 C16.8133392,105.678427 16.3016754,106.356745 15.2783476,106.356745 L15.2783476,106.356745 L15.2783476,108.632283 C16.3016754,108.632283 16.8133392,109.307259 16.8133392,110.657211 L16.8133392,110.657211 L16.8133392,112.642042 C16.8133392,115.07463 17.95037,116.628411 20.2244316,117.303387 L20.2244316,117.303387 Z M23.4811969,113.611703 C24.0109962,113.611703 24.4513918,113.436659 24.8023839,113.086573 C25.1533759,112.736486 25.3288719,112.288744 25.3288719,111.743346 C25.3288719,111.197948 25.1533759,110.750205 24.8023839,110.400119 C24.4513918,110.050032 24.0109962,109.874989 23.4811969,109.874989 C22.9447751,109.874989 22.5027238,110.051875 22.155043,110.405646 C21.8073622,110.759418 21.6335218,111.205318 21.6335218,111.743346 C21.6335218,112.281374 21.8073622,112.727273 22.155043,113.081045 C22.5027238,113.434817 22.9447751,113.611703 23.4811969,113.611703 Z M30.1706588,114.316146 C30.7004581,114.316146 31.1408537,114.141103 31.4918458,113.791016 C31.8428378,113.44093 32.0183338,112.993188 32.0183338,112.447789 C32.0183338,111.902391 31.8428378,111.454649 31.4918458,111.104562 C31.1408537,110.754476 30.7004581,110.579433 30.1706588,110.579433 C29.634237,110.579433 29.1921857,110.756318 28.8445049,111.11009 C28.4968241,111.463862 28.3229837,111.909762 28.3229837,112.447789 C28.3229837,112.985817 28.4968241,113.431717 28.8445049,113.785489 C29.1921857,114.13926 29.634237,114.316146 30.1706588,114.316146 Z M35.7898956,114.262822 C36.3196949,114.262822 36.7600906,114.087779 37.1110826,113.737692 C37.4620747,113.387606 37.6375707,112.939863 37.6375707,112.394465 C37.6375707,111.849067 37.4620747,111.401325 37.1110826,111.051238 C36.7600906,110.701152 36.3196949,110.526108 35.7898956,110.526108 C35.2534738,110.526108 34.8114226,110.702994 34.4637418,111.056766 C34.116061,111.410538 33.9422206,111.856437 33.9422206,112.394465 C33.9422206,112.932493 34.116061,113.378393 34.4637418,113.732165 C34.8114226,114.085936 35.2534738,114.262822 35.7898956,114.262822 Z M40.3322636,117.68564 C42.5621074,117.02403 43.6991382,115.517029 43.743356,113.164637 L43.743356,113.164637 L43.743356,111.02944 C43.743356,109.686171 44.2550199,109.014536 45.2783476,109.014536 L45.2783476,109.014536 L45.2783476,106.738997 C44.2550199,106.738997 43.743356,106.06068 43.743356,104.704045 L43.743356,104.704045 L43.743356,102.689141 C43.7370392,101.459481 43.4496231,100.465395 42.8811077,99.7068822 C42.3125923,98.9483694 41.4629776,98.4020397 40.3322636,98.0678931 L40.3322636,98.0678931 L39.7353225,99.8321872 C40.531244,100.152968 40.9449969,101.051822 40.9765811,102.52875 L40.9765811,102.52875 L40.9765811,104.704045 C40.9765811,106.207704 41.564047,107.263608 42.7389788,107.871754 C41.564047,108.479901 40.9765811,109.535805 40.9765811,111.039464 L40.9765811,111.039464 L40.9765811,113.214759 C40.9449969,114.691687 40.531244,115.590541 39.7353225,115.911322 L39.7353225,115.911322 L40.3322636,117.68564 Z" id="{...}" fill="#FF1515" fill-rule="nonzero" transform="translate(30.278348, 107.685640) scale(1, -1) translate(-30.278348, -107.685640) "></path>
                <rect id="Rectangle" fill="#6A6868" x="0.943340141" y="0.536133806" width="5" height="133" rx="2"></rect>
            </g>
        </g>
    </g>
</svg>