<?xml version="1.0" encoding="UTF-8"?>
<svg width="630px" height="200px" viewBox="0 0 630 200" version="1.1" xmlns="http://www.w3.org/2000/svg" xmlns:xlink="http://www.w3.org/1999/xlink">
    <title>Carousel 2</title>
    <defs>
        <linearGradient x1="18.0465265%" y1="49.9870165%" x2="118.046526%" y2="49.9870165%" id="linearGradient-1">
            <stop stop-color="#FF8849" offset="0%"></stop>
            <stop stop-color="#FF7E43" offset="100%"></stop>
        </linearGradient>
        <linearGradient x1="32.4780171%" y1="49.9686419%" x2="132.478017%" y2="49.9686419%" id="linearGradient-2">
            <stop stop-color="#FF825B" offset="0%"></stop>
            <stop stop-color="#E56E4B" offset="100%"></stop>
        </linearGradient>
        <linearGradient x1="0%" y1="49.9670373%" x2="100%" y2="49.9670373%" id="linearGradient-3">
            <stop stop-color="#FF825B" offset="0%"></stop>
            <stop stop-color="#E56E4B" offset="100%"></stop>
        </linearGradient>
    </defs>
    <g id="1.-Landing-page" stroke="none" stroke-width="1" fill="none" fill-rule="evenodd">
        <g id="1.1-MVP-Landing-view" transform="translate(-250.000000, -193.000000)">
            <g id="Carousel-2" transform="translate(250.000000, 200.000000)">
                <g id="Group" transform="translate(530.000000, 0.000000)" fill-rule="nonzero">
                    <g id="Path">
                        <path d="M97.77388,36.5891407 C105.085337,63.1192834 89.5223789,90.5894706 62.8877868,97.9009272 C36.3576441,105.212384 8.88745694,89.5449768 1.57600028,63.014834 C-5.73545638,36.4846913 9.93195074,9.01450414 36.4620935,1.70304748 C49.9360636,-1.95268085 63.5144831,0.136306772 74.6905669,6.61216838 C85.6577518,12.9835806 94.2226011,23.4285187 97.77388,36.5891407 Z" fill="url(#linearGradient-1)" transform="translate(49.678568, 49.804853) scale(-1, 1) translate(-49.678568, -49.804853) "></path>
                        <path d="M67.3271052,94.0018345 C68.5467551,96.1541578 71.5600077,101.319734 68.8337315,102.252407 C50.6107275,107.991936 32.746444,97.3020636 32.746444,97.3020636 C7.99472589,83.1684738 7.3490289,57.9145469 7.3490289,57.9145469 C8.56867877,57.0536176 10.1470492,57.0536176 11.5101873,56.8383853 C12.8733254,56.6231529 14.1647194,56.5514088 15.5996016,56.6231529 C18.0389014,56.7666412 20.406457,57.340594 22.343548,58.8472204 C24.3523831,60.3538467 25.9307535,62.6496582 27.580868,64.5150051 C29.4462149,66.5955843 31.0963295,68.8913958 32.6746999,71.1872074 C33.5356292,72.4068572 34.683535,73.4830189 35.6162084,74.5591806 C36.4771377,75.5635981 37.3380671,76.5680156 38.1989964,77.5006891 C40.0643433,79.366036 42.2166666,81.5183593 44.6559663,82.7380091 C47.0952661,83.957659 49.6780541,84.2446355 52.3325861,84.6751001 C53.4804919,84.8903325 54.7001418,84.8903325 55.8480476,85.3207971 C56.9242092,85.7512618 58.0003709,86.1099823 59.0765325,86.540447 C61.8745528,87.6883528 64.6725731,90.1993966 66.53792,92.7821846 C66.8248965,93.2126493 67.1118729,93.6431139 67.3271052,94.0018345 Z" fill="url(#linearGradient-2)" transform="translate(38.645233, 80.271094) scale(-1, 1) rotate(-54.785949) translate(-38.645233, -80.271094) "></path>
                        <path d="M45.1156549,49.2378735 C23.7915342,47.315957 6.8603654,32.2151849 1.55221519,12.629941 C13.7243527,20.0430473 29.3742439,11.6232229 30.6555215,10.3419452 C32.1198388,8.7861081 40.722703,1.64756126 54.6337173,0.0917241296 C68.6362515,-1.55563283 72.8461637,13.6366592 84.7437418,20.775206 C87.6723764,22.5140828 90.4179713,23.6123208 93.0720464,24.2529596 C84.3776624,39.4452516 68.0871325,49.512433 49.7831662,49.512433 C48.2273291,49.512433 46.671492,49.4209132 45.1156549,49.2378735 Z" fill="url(#linearGradient-3)" transform="translate(47.312131, 24.740104) scale(-1, 1) rotate(-180.000000) translate(-47.312131, -24.740104) "></path>
                        <path d="M88.0399988,79.2429044 C86.2770839,80.4038484 84.3851752,81.220809 82.6222603,82.2527592 C81.8052997,82.7257363 81.0313371,83.4567011 80.1713786,83.8006845 C79.3114201,84.1876658 78.4084637,84.1016699 77.5055072,84.0156741 C74.8396359,83.7576865 72.1307667,83.7146886 69.4648953,83.3277073 C68.6479348,83.1987135 67.357997,82.897728 66.6700302,82.338755 C66.0250613,81.8227799 66.0250613,81.0918152 65.079107,80.8338277 C64.1331527,80.5328422 62.9722087,80.618838 61.9832564,80.5328422 C60.4783291,80.3608505 59.1023955,80.4898443 57.640466,80.618838 C56.0925407,80.7908297 54.6736092,81.0918152 53.2976756,81.7367841 C52.6957047,81.9947716 49.5998541,83.4137031 49.2558707,82.5967426 C49.083879,82.0807675 50.4168147,80.9198235 50.7607981,80.618838 C51.7067524,79.6728837 52.8246985,78.8559231 53.9856424,78.2109543 C55.7485573,77.222002 57.7694598,76.9210165 59.7473643,76.7060269 C63.1442004,76.2760476 66.5410364,75.9750622 69.9808704,75.5450829 C72.7327376,75.2010995 75.5276027,74.9861099 78.0644803,73.8681639 C79.3114201,73.3521888 80.6013578,73.0942012 81.8482976,72.4492323 C83.2672291,71.7182676 84.7291586,69.7403631 85.9760984,68.4504253 C88.3409843,70.944305 90.4478826,73.6531742 92.2537954,76.5770331 C91.5228307,77.0930082 90.6628722,77.6949792 90.232893,77.9959646 C89.5449262,78.4689418 88.7279656,78.7699273 88.0399988,79.2429044 Z" fill-opacity="0.3" fill="#FABC69" transform="translate(70.747211, 76.269718) scale(-1, 1) rotate(-180.000000) translate(-70.747211, -76.269718) "></path>
                        <path d="M89.4869342,71.1414615 C87.2521683,70.5635048 85.1715243,69.1764088 82.9367584,68.8681652 C78.9295921,68.2902085 75.038017,69.1764088 71.0693811,69.5617132 C69.3740415,69.715835 68.1410673,69.715835 66.5227885,70.2167308 C65.0201012,70.6405657 62.2073786,72.2973749 60.7432217,71.8350095 C61.2826479,71.526766 61.8220742,71.1799919 62.3615004,70.8332179 C64.9045098,69.2534697 67.4475192,67.8278432 70.6455462,67.8663736 C73.3812079,67.8663736 76.1554,67.211356 78.5828181,65.8627904 C79.9313837,65.130712 80.4322794,64.0903899 81.5111319,63.0500679 C82.4743931,62.1253372 84.0156109,61.585911 85.2100547,61.0079543 C86.7512725,60.2758758 88.3310208,59.6593887 89.8722387,58.8502493 C90.8740302,58.2722926 92.9932048,55.9989963 94.4573617,55.1513265 C96.9618407,60.1988149 98.6186498,65.6701382 99.2736674,71.4497051 C96.3453535,72.0276617 91.5290478,71.6808877 89.4869342,71.1414615 Z" fill-opacity="0.3" fill="#F9B968" transform="translate(80.008445, 63.533517) scale(-1, 1) rotate(-180.000000) translate(-80.008445, -63.533517) "></path>
                        <path d="M0.758107236,55.8786675 C2.45544333,55.7938007 4.57711346,56.4727352 6.18958275,56.4303018 C8.09908586,56.3454349 9.96615557,56.3454349 11.8756587,56.1332679 C14.9732971,55.7513673 18.240669,53.8842976 20.8291066,52.2293949 C25.2421804,49.4287904 28.9763199,45.1005833 34.1956284,43.6154142 C35.7656643,43.1486468 37.3357001,43.06378 38.9481694,43.1062134 C39.8392709,43.1486468 41.5790404,42.8940464 42.0882412,43.912448 C42.8096091,45.4824839 41.112273,48.3255219 40.3060383,49.4712238 C39.4573703,50.5320588 38.7784358,51.6777607 37.7600342,52.5264287 C36.8264993,53.3750968 35.7656643,54.0540312 34.7048292,54.6905323 C33.0923599,55.6240671 30.673656,56.7273356 28.8065862,56.4727352 C28.7217194,56.4727352 28.467119,56.5151686 28.3398188,56.5151686 C29.4430873,55.3694667 31.2252902,55.0724329 31.9042246,53.4599636 C32.3709921,52.3566951 32.0739582,51.7626275 30.673656,51.6777607 C29.2309203,51.5928939 27.1092502,52.4415619 25.7513813,52.9931962 C24.3935124,53.5872638 23.0780769,54.3086316 21.8899417,55.1572997 C20.5745062,56.1332679 19.0893371,56.9395026 17.7314682,57.830604 C15.9492653,58.9763059 14.1670624,60.2917414 12.2999927,61.310143 C8.65072009,63.3045129 5.85011553,66.0626841 3.00707756,69.0754557 C2.37057653,69.7543901 1.73407549,70.3908912 1.09757446,71.0698256 C0.885407443,71.324426 0.588373626,71.7911934 0.291339809,72.2155275 C-0.217861021,68.5238214 -0.302727825,64.7472486 0.0367393941,60.885809 C0.206473004,59.1884729 0.418640016,57.4911368 0.758107236,55.8786675 Z" fill-opacity="0.3" fill="#FBBE6A" transform="translate(21.047884, 57.656044) scale(-1, 1) rotate(-180.000000) translate(-21.047884, -57.656044) "></path>
                        <path d="M17.7921555,39.9854782 C20.0264999,39.8718675 22.2987145,40.0990889 24.4951886,40.5535318 C29.1532285,41.4624177 34.1142304,44.9843503 38.9994918,44.1133347 C41.044485,43.7725025 42.8622566,42.598525 44.9829903,42.4091738 C47.0658537,42.1819523 49.2244575,42.0304713 51.2694507,42.4849142 C51.5345424,42.5227845 52.4434282,42.6363952 52.4812985,42.9393572 C52.5191687,43.2044489 51.951115,43.6210215 51.7996341,43.7346323 C51.3073209,44.1890752 50.8150077,44.5677776 50.2848243,44.9464801 C49.0729765,45.8553659 47.7096478,46.6885113 46.6114107,47.7110078 C45.5510439,48.7335044 44.8315093,50.2104439 43.7332722,51.2329405 C42.4835542,52.4447883 38.9237513,52.8992312 37.3332011,52.5962692 C34.833765,52.1039561 32.6751612,49.8696117 30.8573895,48.3169317 C29.7212822,47.4080459 28.0171212,46.2719386 26.578052,45.9311064 C24.9875018,45.552404 22.9425086,45.9689766 21.2762179,46.0068469 C19.7235379,46.0068469 18.0951175,46.0068469 16.5803077,46.3098088 C14.9897575,46.6127708 13.5885585,47.4459161 12.0358785,47.8246186 C10.2559771,48.2790615 8.66542686,47.0672137 9.8394044,45.3630527 C10.71042,44.151205 11.8465273,43.1665786 13.0205048,42.2198225 C14.4974443,41.0079748 15.7092921,40.0612187 17.7921555,39.9854782 Z" fill-opacity="0.3" fill="#FBBF6B" transform="translate(30.959675, 46.321842) scale(-1, 1) rotate(155.464163) translate(-30.959675, -46.321842) "></path>
                        <path d="M10.8525603,43.6997637 C13.807618,43.8904126 16.4767024,44.2717104 19.3364357,43.4137904 C22.4821424,42.5558704 25.2465512,41.411977 28.0109601,39.7914615 C30.5847201,38.170946 32.8725067,36.1691327 35.5415911,34.6439416 C38.6872977,32.8327771 41.6423555,31.0216127 45.1693599,30.2590172 C48.6010398,29.5917461 52.7953154,28.6385016 56.3223198,28.8291505 C63.1856797,29.1151239 70.3350129,31.1169372 77.1030484,29.8777194 C84.7290039,28.5431772 93.8801504,26.2553906 99.599617,20.7265728 C99.599617,22.3470884 99.5042926,23.9676039 99.4089682,25.6834439 C98.9323459,30.3543416 97.8837771,34.739266 96.2632615,38.9335415 C93.9754749,39.886786 88.8279549,34.9299149 85.7775728,34.2626438 C84.1570572,33.881346 81.2973239,33.5000483 79.7721328,34.2626438 C79.3908351,34.4532927 78.6282395,35.0252393 78.6282395,35.5018616 C78.6282395,36.6457549 79.4861595,36.0738082 80.0581062,36.8364038 C81.3926484,38.5522437 76.2451284,42.269897 74.7199373,42.9371681 C71.4789063,44.2717104 67.5706041,46.0828748 63.9482752,46.4641725 C61.3745153,46.8454703 58.0381597,46.1781992 55.5597242,45.4156037 C52.509342,44.5576837 48.410391,44.1763859 45.3600088,44.5576837 C42.9768977,44.7483326 41.4517066,45.0343059 39.4498933,46.2735237 C38.306,47.0361192 36.9714578,47.6080659 35.6369156,48.0846881 C32.5865334,49.2285814 28.6782312,49.8005281 25.4372001,49.133257 C22.196169,48.5613103 18.8598135,47.9893636 15.6187825,49.4192303 C13.5216447,50.3724747 11.5198314,50.3724747 9.23204475,50.1818258 C7.32555588,47.6080659 5.6097159,44.7483326 4.27517369,41.6979504 C5.41906701,41.5073015 9.04139586,43.5091148 10.8525603,43.6997637 Z" fill-opacity="0.3" fill="#FBBE6A" transform="translate(51.937395, 35.504010) scale(-1, 1) rotate(-180.000000) translate(-51.937395, -35.504010) "></path>
                        <path d="M74.8772662,9.19801791 C71.9655571,11.6866582 68.4565743,12.6572279 65.0720236,14.4241624 C62.3096329,15.8675738 57.9545125,17.0621211 54.7939394,16.3404154 C53.7487104,16.0915514 53.0518912,15.693369 51.9320031,15.7680282 C50.3143869,15.8924602 48.8958619,16.3404154 47.352905,16.7883707 C45.5361976,17.3109851 43.9683542,18.3064412 42.2760789,19.1028061 C40.2851667,20.0484894 38.2444817,20.7453087 36.3282287,21.7656512 C35.1585677,22.3878113 32.9934507,23.2339489 31.5500394,22.9850849 C30.4799241,22.8108801 30.6292425,21.6661056 30.9029929,20.7950815 C31.3509482,19.4512158 32.2468586,17.6593948 33.0929963,16.5146203 C34.1133388,15.0960953 36.4526607,14.274844 36.7264111,12.358591 C36.9006159,10.9649525 36.2535695,10.2681332 34.9594765,10.6165429 C33.4662924,11.0396117 31.9482218,11.6368854 30.6043561,12.3088182 C28.8871943,13.1798423 27.1451461,14.02598 25.4528708,14.9467769 C24.3827554,15.5440506 22.317184,16.066665 20.6995679,16.8132571 C25.8759396,10.6912021 32.5206091,5.81346716 40.1607347,2.72755325 C41.1313044,3.05107648 42.3009653,3.84744136 42.9480117,4.02164618 C44.1176727,4.37005581 45.3619928,4.54426063 45.8597208,5.78858076 C46.3574489,7.00801448 46.2081305,8.1776754 45.3868792,9.1731315 C44.9389239,9.74551876 43.4208534,11.0147253 43.7443766,11.8857494 C44.4163095,13.6029112 50.5383645,10.7907477 51.6582526,10.3676788 C54.8685986,9.1233587 58.1287173,7.67994735 60.8413352,5.53971673 C61.8616777,4.74335185 63.0811114,3.72300935 63.7779307,2.62800764 C64.1263403,2.05562038 65.0471372,0.562436224 65.4453196,-0.45790628 C70.6714642,0.238912991 75.6985175,1.75698355 80.3273884,3.97187337 C79.7798875,5.53971673 76.2460183,8.05324339 74.8772662,9.19801791 Z" fill-opacity="0.3" fill="#FCBF6B" transform="translate(50.513478, 11.285883) scale(-1, 1) rotate(11.214318) translate(-50.513478, -11.285883) "></path>
                        <path d="M56.5268191,98.5909142 C56.435142,97.7963795 57.0616021,96.6809751 56.2976264,96.0697946 C55.6253279,95.5350116 54.6932776,96.3906643 54.0362585,96.7268136 C53.4097985,97.0324039 51.8971267,97.6130254 51.3317847,96.9101678 C51.0261945,96.5434595 51.2706667,94.6793589 51.4081823,94.1598555 C51.8818472,92.417991 52.0957604,88.7814669 53.8681839,88.8578645 C58.161727,89.0412186 63.1275687,90.4774928 65.2972595,91.1497914 C65.6639678,91.2720275 66.1070737,91.4553817 66.4585025,91.5776178 C64.8541537,93.670911 62.7455809,95.5655706 60.8356418,97.3227146 C60.0563866,98.0408517 56.8018503,101.21899 56.5268191,98.5909142 Z" fill-opacity="0.3" fill="#FFC76F" transform="translate(58.821697, 94.235573) scale(-1, 1) rotate(-180.000000) translate(-58.821697, -94.235573) "></path>
                        <path d="M24.8130913,88.9780633 C25.6532867,88.9490911 26.2906763,89.5285362 27.1308717,89.5285362 C27.3047052,88.5145073 27.4495665,87.7612286 27.0729272,86.8341164 C26.4645098,85.3855037 25.8850647,83.8499742 25.1317861,82.4593059 C23.8859791,80.19947 22.3214773,78.1714121 20.81492,76.0274653 C20.0616414,74.9844641 19.9167801,73.9414629 20.0326692,72.6666837 C20.1195859,71.5947102 20.6700588,70.7545148 20.7569755,69.6535691 C20.9018368,68.2339286 19.8298634,68.2049564 19.4821963,67.0460662 C19.105557,65.7423147 20.351364,66.1768985 21.0466981,66.6404546 C22.7560611,67.7993448 22.7560611,69.4507633 23.3355062,71.2760154 C23.5093398,71.8554605 23.8570068,72.3479889 24.2336462,72.8405172 C24.552341,73.275101 24.7551467,73.6807126 25.0448693,74.1442687 C25.4794531,74.8396028 25.8271202,75.5928814 26.1747873,76.3171878 C26.4065653,76.8676607 26.6962878,77.360189 26.9570381,77.8816896 C27.3047052,78.5190792 27.6813445,79.1274966 28.0579838,79.7938584 C28.9271515,81.2424712 29.5065966,83.038751 29.9411804,84.6901696 C30.4916533,86.8051442 30.6365146,88.7462853 30.8682926,90.9192044 C31.0131539,92.1650114 31.592599,94.6276531 30.462681,95.5837375 C29.0140683,95.6996265 27.5944278,93.4687629 26.7252601,92.5126785 C25.8850647,91.6145386 24.784119,90.2818148 24.8130913,88.9780633 Z" fill-opacity="0.3" fill="#FEC66E" transform="translate(25.279212, 80.884281) scale(-1, 1) rotate(87.706100) translate(-25.279212, -80.884281) "></path>
                        <path d="M93.3726544,25.8623448 C95.1396247,52.7614758 75.1442572,76.312397 48.1465168,78.7863969 C27.1690035,80.7079878 9.73579691,77.1109385 0.762512654,59.3946796 C5.53748131,84.2980047 28.5244899,101.987892 54.3033431,99.6250212 C81.741832,97.1091964 101.944028,72.8282347 99.4282034,45.3897458 C98.8374856,38.927012 97.0248963,32.875671 94.261181,27.4168059 C94.5688465,29.0236989 93.344038,25.4267095 93.3726544,25.8623448 Z" fill-opacity="0.15" fill="#230753"></path>
                    </g>
                </g>
                <g id="Group" transform="translate(0.000000, 20.000000)">
                    <g id="astroboy" transform="translate(4.000000, -2.000000)">
                        <path d="M72.3911302,120.193844 C72.3911302,120.193844 146.065486,44.1148611 204.167583,92.2765591 C262.270872,140.438257 298.02555,189.134052 390.313416,168.238709" id="Path" stroke="#DDDDDD" stroke-width="2" stroke-linecap="round" stroke-linejoin="round"></path>
                        <path d="M33.1951359,94.5723978 C33.1951359,94.5723978 20.3148204,93.1942374 21.6095282,78.5304203 L16.2947886,73.6925528 C16.2947886,73.6925528 10.7201537,84.791751 19.2060928,94.6963846 C27.6979927,104.604595 36.7788298,100.855188 36.7788298,100.855188 L33.1951359,94.5723978 Z" id="Path" fill="#32C896" fill-rule="nonzero"></path>
                        <path d="M16.2951095,73.6939441 L17.2297789,74.5427764 C16.1138981,78.3994795 15.0957762,85.9865147 21.0876742,92.9822284 C26.833983,99.6882424 32.8437637,100.131733 36.1317968,99.7204313 L36.7791507,100.855387 C36.7791507,100.855387 27.6983137,104.605986 19.2052215,94.6977758 C10.7204746,84.7931423 16.2951095,73.6939441 16.2951095,73.6939441" id="Path" fill-opacity="0.1" fill="#230753" fill-rule="nonzero"></path>
                        <path d="M64.6572246,138.372253 C70.3701524,145.173641 80.5144142,146.061816 87.3181869,140.347696 L101.698265,128.278063 C108.504422,122.566327 109.38902,112.420873 103.677284,105.6171 L73.9121199,70.1711969 C68.211114,63.3626555 58.0632756,62.4792499 51.2618872,68.1897934 L36.8758481,80.2653872 C30.0756519,85.9759306 29.1850932,96.1190003 34.8992132,102.923965 L64.6572246,138.372253 Z" id="Path" fill="#DDDDDD" fill-rule="nonzero"></path>
                        <path d="M32.667321,85.7611926 C31.8661759,90.2879011 32.9927862,95.1209998 36.1818684,98.9192861 L65.9386876,134.367574 C71.6516154,141.170154 81.7958772,142.055944 88.59965,136.344209 L102.979728,124.274576 C104.832376,122.718781 106.228419,120.829175 107.190509,118.775048 C106.553885,122.361127 104.707197,125.754072 101.698134,128.279109 L87.3180562,140.348742 C80.5154756,146.062862 70.3712138,145.174688 64.6570939,138.3733 L34.9002746,102.92382 C30.7407577,97.9691185 30.0969804,91.2559514 32.667321,85.7611926" id="Path" fill-opacity="0.1" fill="#230753" fill-rule="nonzero"></path>
                        <path d="M44.9099782,-0.144711295 C65.8100809,-0.145903475 82.7557234,18.5498588 82.7581077,41.6018459 C82.7592999,64.6466798 65.8088887,83.3472108 44.9099782,83.3436352 C24.0039147,83.348403 7.05827223,64.6538329 7.05708005,41.6018459 C7.05827223,18.5462823 24.0051069,-0.144711295 44.9099782,-0.144711295" id="Path" fill="#DDDDDD" fill-rule="nonzero" transform="translate(44.907594, 41.599462) scale(-1, 1) rotate(85.283713) translate(-44.907594, -41.599462) "></path>
                        <path d="M47.2287972,10.1409482 C66.7626513,10.1409482 82.6031347,26.5191044 82.5983671,46.721771 C82.6007504,66.9172846 66.7614592,83.3014017 47.2287972,83.3002095 C27.6961352,83.2978251 11.8556518,66.9184768 11.8592277,46.7181945 C11.8568439,26.5179122 27.694943,10.1385639 47.2287972,10.1409482" id="Path" fill="#081624" fill-rule="nonzero" transform="translate(47.228797, 46.720579) scale(-1, 1) rotate(85.282413) translate(-47.228797, -46.720579) "></path>
                        <path d="M78.2855508,65.5770782 C71.0442479,79.1965454 55.6901584,89.1095243 32.9278607,84.0558722 C11.2766751,79.2454248 0.94047222,63.1569522 2.78477508,40.7892663 C3.34867634,34.0296042 5.46002758,27.7873484 8.73375456,22.4177685 C8.73375456,22.4177685 0.814101113,65.9490384 35.1035897,73.9628741 C66.3279828,81.2661704 78.2855508,65.5770782 78.2855508,65.5770782" id="Path" fill="#FFFFFF" fill-rule="nonzero"></path>
                        <path d="M18.2447496,77.8434069 L20.5873838,74.6948588 C21.9703129,72.7766408 20.1856191,69.1238005 16.6019252,66.534385 C13.0194236,63.9437773 8.9898543,63.4037196 7.60454084,65.3219376 L5.43119623,68.2690072 L18.2447496,77.8434069 Z" id="Path" fill="#DDDDDD" fill-rule="nonzero"></path>
                        <path d="M11.9183502,64.9507377 C14.2836327,64.9507377 16.2054247,68.535619 16.2066168,72.9574096 C16.2042325,77.3827767 14.2884014,80.9676579 11.9183502,80.9652748 C9.55545213,80.9640814 7.63127578,77.3815846 7.63722283,72.9562174 C7.63127578,68.5332346 9.55068341,64.9519299 11.9183502,64.9507377" id="Path" fill="#FFFFFF" fill-rule="nonzero" transform="translate(11.921920, 72.958006) scale(-1, 1) rotate(54.177656) translate(-11.921920, -72.958006) "></path>
                        <path d="M55.7929008,8.26414279 C55.7929008,8.26414279 59.7545137,13.7517456 58.933102,23.5812666 C58.933102,23.5812666 58.441924,31.3375873 55.7929008,30.8619076 C55.7929008,30.8619076 52.6825042,30.7462662 54.7700107,24.8509379 C54.7700107,24.8509379 58.1510321,15.7426856 55.7929008,8.26414279" id="Path" fill="#FFFFFF" fill-rule="nonzero" transform="translate(56.547185, 19.573534) scale(-1, 1) rotate(-105.347887) translate(-56.547185, -19.573534) "></path>
                        <path d="M129.585408,43.0350338 C125.173149,45.3609775 123.516018,50.8724268 125.877727,55.3550246 L128.041534,59.4489716 C130.400859,63.929185 135.890849,65.6673838 140.301916,63.3426323 C144.711791,61.0226496 146.366537,55.5004706 144.003636,51.0202572 L141.843405,46.9286945 C139.482888,42.4508655 133.990514,40.7067058 129.585408,43.0350338" id="Path" fill="#FFFFFF" fill-rule="nonzero"></path>
                        <path d="M141.180258,49.8889348 C139.643537,50.5040998 138.902001,52.2542205 139.524319,53.792133 C140.144253,55.3276612 141.893181,56.0691973 143.425133,55.445687 L151.766818,52.0718169 C153.310692,51.4530753 154.048651,49.7041469 153.426333,48.1686187 C152.805207,46.629514 151.06224,45.8915544 149.523135,46.5114882 L141.180258,49.8889348 Z" id="Path" fill="#FFFFFF" fill-rule="nonzero"></path>
                        <path d="M139.402289,44.3368148 C137.875106,45.3287088 137.373198,47.2600408 138.278063,48.6536995 C139.182928,50.0366286 141.147641,50.3513642 142.673632,49.3666233 L150.961669,43.9708155 C152.488852,42.9813058 152.988375,41.051166 152.087087,39.6575073 C151.178646,38.2686173 149.21274,37.949113 147.689134,38.9457757 L139.402289,44.3368148 Z" id="Path" fill="#FFFFFF" fill-rule="nonzero"></path>
                        <path d="M133.545637,42.3749677 C132.454792,43.8306198 132.640772,45.8179843 133.967668,46.8110704 C135.289796,47.8041566 137.248549,47.436965 138.339393,45.9825051 L144.285989,38.0843109 C145.388755,36.6286588 145.196814,34.6448709 143.877071,33.6458238 C142.546598,32.6503533 140.591422,33.018737 139.493424,34.4767735 L133.545637,42.3749677 Z" id="Path" fill="#FFFFFF" fill-rule="nonzero"></path>
                        <path d="M127.456652,47.1563725 C127.267096,48.7276661 128.448546,50.1642433 130.096139,50.3621452 C131.736579,50.558855 133.225613,49.4513195 133.416361,47.8764494 L134.446405,39.3297091 C134.645499,37.7560312 133.456896,36.319454 131.814071,36.1179755 C130.165286,35.9176892 128.682214,37.0371465 128.490273,38.6060557 L127.456652,47.1563725 Z" id="Path" fill="#FFFFFF" fill-rule="nonzero"></path>
                        <path d="M139.646638,54.4270812 C138.064615,54.3603191 136.723412,55.649066 136.650689,57.3061965 C136.576774,58.9573662 137.802335,60.3510249 139.383166,60.4249401 L147.979978,60.8004769 C149.569154,60.8767764 150.907973,59.584453 150.979504,57.9356677 C151.049842,56.2761528 149.827857,54.8789175 148.251795,54.8121554 L139.646638,54.4270812 Z" id="Path" fill="#FFFFFF" fill-rule="nonzero"></path>
                        <path d="M136.808193,39.1955183 L144.781497,39.1955183 C146.255032,39.2718179 147.268385,39.5031009 147.951505,40.3984286 C147.643922,38.8164049 146.026133,37.7613251 144.259321,38.0391032 L136.808193,39.1955183 Z" id="Path" fill-opacity="0.1" fill="#230753" fill-rule="nonzero" transform="translate(142.379849, 39.196578) scale(-1, 1) rotate(-118.166725) translate(-142.379849, -39.196578) "></path>
                        <path d="M134.179086,41.5348816 L133.675986,38.323148 C133.617569,37.6400287 133.422051,36.5527603 132.639981,36.3357835 C135.414184,37.4361659 134.233926,40.6216715 134.179086,41.5348816" id="Path" fill-opacity="0.1" fill="#230753" fill-rule="nonzero"></path>
                        <path d="M139.530783,62.3372349 C140.815953,61.6600765 141.859111,60.7075245 142.644758,59.5916438 L147.212,59.7919301 C148.799984,59.8718062 150.136418,58.5770984 150.211526,56.9295053 C150.235369,56.4013694 150.112575,55.9054224 149.902751,55.4655079 C150.591831,56.0389466 151.025785,56.9378505 150.980482,57.9368976 C150.907759,59.5844907 149.568941,60.8768141 147.979764,60.8005146 L143.414906,60.5990361 C142.628067,61.716109 141.587294,62.6662767 140.302123,63.3434351 C136.152144,65.532278 131.047228,64.1195444 128.493578,60.2115775 C131.211749,63.3350898 135.761109,64.3234072 139.530783,62.3372349" id="Path" fill-opacity="0.1" fill="#230753" fill-rule="nonzero"></path>
                        <path d="M143.014333,49.1445682 L150.188874,42.9631136 C151.532461,41.5980672 152.109477,40.386812 151.512194,39.0420327 C151.725595,39.2172832 151.925881,39.4163773 152.088017,39.6583899 C152.989306,41.0520486 152.489782,42.9821884 150.962599,43.9716981 L143.014333,49.1445682 Z" id="Path" fill-opacity="0.1" fill="#230753" fill-rule="nonzero"></path>
                        <path d="M147.486202,53.8083774 C147.485009,53.8071852 145.33074,54.6822455 145.325971,54.6822455 L150.998365,51.0663628 C152.462362,50.0875828 153.277813,48.6975006 152.65788,47.1607802 C152.634036,47.1119009 152.603039,47.066598 152.580388,47.0177186 C152.939234,47.3193402 153.239664,47.7020301 153.426836,48.1693647 C154.049154,49.7048929 153.311194,51.4538214 151.767321,52.0725629 L147.486202,53.8083774 Z" id="Path" fill-opacity="0.1" fill="#230753" fill-rule="nonzero"></path>
                        <path d="M128.380544,66.4838329 C128.380544,66.4838329 104.33546,83.5749291 95.8161399,76.3288575 L96.8044573,55.6349926 C96.8044573,55.6349926 107.230074,57.9466301 120.286832,50.8018938 C120.286832,50.8018938 119.538143,51.9225433 124.705052,60.7887878 L128.380544,66.4838329 Z" id="Path" fill="#FFFFFF" fill-rule="nonzero"></path>
                        <path d="M113.593247,86.8475398 L117.277082,86.8475398 C117.277082,86.8475398 118.620668,57.3768577 107.913703,54.141282 L105.69148,55.7316497 C113.773266,60.5492479 113.704119,82.1658502 113.593247,86.8475398" id="Path" fill-opacity="0.1" fill="#230753" fill-rule="nonzero" transform="translate(111.511320, 70.494411) scale(-1, 1) rotate(122.795368) translate(-111.511320, -70.494411) "></path>
                        <path d="M120.120744,50.8853599 C120.180353,50.8543632 120.231617,50.8340961 120.287649,50.8019073 C120.287649,50.8019073 120.235193,50.8841677 120.256652,51.1810206 C120.212542,51.0808774 120.164855,50.9771577 120.120744,50.8853599" id="Path" fill="#FFFFFF" fill-rule="nonzero"></path>
                        <path d="M121.706438,48.8398521 C120.166141,49.6994141 119.72265,51.8334168 120.716928,53.6181106 L127.096285,65.0880769 C128.089371,66.868002 130.138729,67.6131147 131.677833,66.7630901 C133.221707,65.9059125 133.662814,63.7671411 132.673304,61.9836395 L126.286794,50.5089045 C125.297285,48.7337481 123.250311,47.9898276 121.706438,48.8398521" id="Path" fill="#32C896" fill-rule="nonzero"></path>
                        <path d="M129.82882,66.8663277 C131.370309,66.0091501 131.811416,63.8679944 130.821906,62.0868771 L124.438973,50.6145265 C123.877456,49.6119029 122.979744,48.9550115 122.027192,48.7094224 C123.524571,48.1145245 125.364105,48.8548684 126.288044,50.5096146 L132.674554,61.9843496 C133.664064,63.7666591 133.222957,65.9066226 131.679084,66.7638002 C131.009078,67.1321839 130.243699,67.1846399 129.509316,66.9974676 C129.61542,66.9533569 129.723908,66.9223602 129.82882,66.8663277" id="Path" fill-opacity="0.1" fill="#230753" fill-rule="nonzero"></path>
                        <path d="M85.9533619,51.8274352 C85.9533619,51.8274352 83.0551717,50.3229037 78.3043334,52.0432198 C73.5678013,53.7683047 56.1333572,60.1607752 56.1333572,60.1607752 C56.1333572,60.1607752 50.7077448,61.9108958 47.5115095,68.069699 C44.3248117,74.2261179 37.9168428,84.9450106 37.9168428,84.9450106 C37.9168428,84.9450106 36.0534651,88.0470636 38.6857991,91.3327124 C41.3169409,94.6124003 64.4666972,120.392106 64.4666972,120.392106 C64.4666972,120.392106 68.6488655,123.886387 68.2542538,127.665598 C67.8644109,131.447194 71.3622678,131.238562 71.3622678,131.238562 C71.3622678,131.238562 73.9731425,130.708042 74.1948881,134.04257 C74.419018,137.373522 86.5792566,153.688509 94.7993395,144.47534 C103.01823,135.260978 128.009905,109.60049 128.009905,109.60049 C128.009905,109.60049 132.748821,104.893763 127.221874,99.5897529 C121.69135,94.2845507 120.583814,98.1674818 120.115287,91.7917018 C120.115287,91.7917018 120.027066,88.347493 117.531833,87.8956567 C115.046137,87.441436 116.095255,85.7843055 116.095255,85.7843055 C116.095255,85.7843055 117.659396,83.8422438 116.105985,82.0980841 C114.551382,80.3563088 117.615285,76.8751424 111.320573,76.3613127 L85.9533619,51.8274352 Z" id="Path" fill="#FFFFFF" fill-rule="nonzero"></path>
                        <path d="M116.096095,85.7850362 C116.096095,85.7850362 116.038871,85.8768341 115.981646,86.0234723 C115.416553,84.1803616 117.117794,81.4335783 111.580117,80.9841263 L86.2140973,56.4478645 C86.2140973,56.4478645 83.3135227,54.9445252 78.5662609,56.6648413 C73.82496,58.3863496 56.3929003,64.7812045 56.3929003,64.7812045 C56.3929003,64.7812045 50.967288,66.5313251 47.7734371,72.6889361 C44.5843549,78.8477393 38.176386,89.566632 38.176386,89.566632 C38.176386,89.566632 38.0500149,89.7776479 37.911722,90.1400707 C36.4822978,87.3360627 37.9164907,84.9457413 37.9164907,84.9457413 C37.9164907,84.9457413 44.3256517,74.2268486 47.5123496,68.0704298 C50.7085848,61.9116266 56.1341972,60.161506 56.1341972,60.161506 C56.1341972,60.161506 73.5686413,53.7690354 78.3051734,52.0427584 C83.0560118,50.3236345 85.954202,51.828166 85.954202,51.828166 L111.321413,76.3620435 C117.614933,76.874681 114.552222,80.3558473 116.105633,82.0976227 C117.660236,83.8417824 116.096095,85.7850362 116.096095,85.7850362" id="Path" fill-opacity="0.1" fill="#230753" fill-rule="nonzero"></path>
                        <path d="M127.481417,104.212566 C121.9497,98.9073643 120.845742,102.790295 120.37483,96.4133232 C120.37483,96.4133232 120.286609,92.9679223 117.792568,92.516086 C115.303296,92.0618653 116.354799,90.4059269 116.354799,90.4059269 C116.354799,90.4059269 117.347885,89.1362549 116.925853,87.7330588 C117.099911,87.7950521 117.296621,87.8510846 117.53148,87.8951953 C120.026714,88.3470316 120.114935,91.7924325 120.114935,91.7924325 C120.584654,98.1682126 121.690997,94.2852815 127.222714,99.5904836 C130.209125,102.451716 130.194819,105.135314 129.553426,107.004653 C129.136163,106.108133 128.481656,105.171079 127.481417,104.212566" id="Path" fill-opacity="0.1" fill="#230753" fill-rule="nonzero"></path>
                        <path d="M71.9364807,63.2205722 L70.3163077,71.7303549 C70.1482103,72.8140467 70.4188352,74.0002661 71.1532183,74.9909679 L86.5013469,97.1929408 C87.8890447,99.0575107 89.9205199,99.0181688 92.1057863,98.2635187 L112.649436,89.6237884 C113.667558,88.8691382 114.169466,87.6650362 114.119395,86.4156313 L114.858546,80.6419023" id="Path" fill="#CFCFCF" fill-rule="nonzero"></path>
                        <path d="M76.7380393,93.3520866 C78.5120033,93.350895 79.947388,95.357334 79.9509764,97.8322998 C79.9557333,100.304881 78.5143876,102.313705 76.7380393,102.316089 C74.9712285,102.314897 73.5322672,100.306073 73.5298828,97.8370685 C73.531075,95.3632949 74.9664598,93.3544715 76.7380393,93.3520866" id="Path" fill="#CFCFCF" fill-rule="nonzero" transform="translate(76.740430, 97.834088) scale(-1, 1) rotate(44.665902) translate(-76.740430, -97.834088) "></path>
                        <path d="M67.3241443,78.6537067 C68.8036387,78.6513249 69.9982023,80.3346819 70.0017788,82.3899989 C70.0017788,84.4572377 68.8000622,86.1298651 67.3241443,86.1286755 C65.8458421,86.1310573 64.6488941,84.4536611 64.6512749,82.3923833 C64.6524707,80.328721 65.8470343,78.6596701 67.3241443,78.6537067" id="Path" fill="#CFCFCF" fill-rule="nonzero" transform="translate(67.326527, 82.391191) scale(-1, 1) rotate(44.625160) translate(-67.326527, -82.391191) "></path>
                        <path d="M78.7128991,96.5480396 C76.9735081,94.7883815 74.5402682,94.3699263 73.2765571,95.6133703 C73.1275346,95.7588163 73.0071244,95.9281059 72.9010203,96.1057407 C72.9820886,95.5430316 73.1978732,95.0327785 73.5924849,94.6453199 C74.8538116,93.4018759 77.2858593,93.8215233 79.0264425,95.5799892 C80.557202,97.1298236 81.0364584,99.2077938 80.2651178,100.533498 C80.4475214,99.2876698 79.9074637,97.7592947 78.7128991,96.5480396" id="Path" fill-opacity="0.1" fill="#230753" fill-rule="nonzero"></path>
                        <path d="M68.9179461,81.4812655 C67.4670627,80.0148838 65.4439328,79.6643828 64.3912377,80.6991953 C64.2779805,80.810068 64.1921436,80.9352469 64.1122675,81.0616181 C64.1623391,80.5477884 64.3483192,80.0792615 64.7023967,79.7299527 C65.7574762,78.6963324 67.7806061,79.0456412 69.2314895,80.5132151 C70.5273894,81.8246134 70.9184246,83.5866558 70.2317287,84.6834617 C70.3330641,83.6701085 69.8788434,82.4528924 68.9179461,81.4812655" id="Path" fill-opacity="0.1" fill="#230753" fill-rule="nonzero"></path>
                        <path d="M89.3756795,89.3751826 C90.6227001,91.0466193 92.4693873,91.0668864 94.2564655,90.4552979 L113.594821,82.8015006 C115.039744,81.7225775 115.203073,79.496777 113.953668,77.8229559 L97.1129294,55.1834528 C95.8682932,53.5108239 94.140824,53.1972805 92.2416809,54.1021453 L72.9009406,61.7583269 C71.4464806,62.8348657 71.2867285,65.0642428 72.5289803,66.7380638 L89.3756795,89.3751826 Z" id="Path" fill="#DDDDDD" fill-rule="nonzero"></path>
                        <path d="M76.1516452,95.6748717 C75.3576532,96.503437 75.4256074,97.845832 76.2947068,98.6732051 C77.1602297,99.5005782 78.4942794,99.5017704 79.2823106,98.6767816 L85.6068268,92.0732952 C86.3924736,91.2483064 86.3376333,89.9047193 85.4661496,89.076154 C84.6006267,88.2487809 83.2570395,88.2452044 82.4678162,89.0749618 L76.1516452,95.6748717 Z" id="Path" fill="#DDDDDD" fill-rule="nonzero"></path>
                        <path d="M76.1520959,95.6753636 L82.4682669,89.0754537 C83.2574902,88.2456963 84.6010774,88.2492728 85.4666003,89.0766459 C85.6847692,89.2864696 85.8528667,89.5272901 85.9661238,89.784801 C85.1089462,89.1446002 83.9179581,89.1946718 83.189536,89.956475 L76.8745571,96.5611536 C76.2844279,97.1763186 76.1699786,98.0835678 76.5145187,98.8441788 C76.4406035,98.7893385 76.364304,98.7392669 76.2951575,98.673697 C75.4260581,97.8463239 75.3581038,96.5039289 76.1520959,95.6753636" id="Path" fill-opacity="0.1" fill="#230753" fill-rule="nonzero"></path>
                        <path d="M83.6597997,72.5543267 C84.3226519,73.4651524 85.7031967,73.5951001 86.7392013,72.8332969 L98.5703982,67.9775467 C99.6099794,67.2228966 99.9080244,65.8721564 99.2415957,64.9553698 L94.6612391,58.6773485 C93.9948104,57.7653306 93.0744472,57.7200278 91.5770688,58.395994 L79.7494485,63.2517442 C78.7122516,64.0099708 78.4130144,65.3595189 79.0794432,66.2739211 L83.6597997,72.5543267 Z" id="Path" fill="#081624" fill-rule="nonzero"></path>
                        <path d="M112.137625,132.209737 C112.137625,132.209737 113.55632,130.082888 108.829325,125.131763 C104.101138,120.181831 92.3665078,101.645812 70.3588602,124.278162 L100.679581,149.571459 C100.679581,149.571459 104.107099,151.171364 106.052737,148.685669 C108.00076,146.194012 112.137625,132.209737 112.137625,132.209737" id="Path" fill="#FFFFFF" fill-rule="nonzero"></path>
                        <path d="M100.374249,127.25938 L93.1186399,121.960139 C90.983445,120.401959 90.6353284,117.243874 92.3413384,114.906008 C92.7192595,114.392179 93.1687115,113.979684 93.6491601,113.637529 C100.656796,115.148021 105.320605,121.182837 108.099577,124.330193 C107.918366,124.851176 107.678737,125.366198 107.331813,125.846647 C105.623419,128.18332 102.509444,128.81756 100.374249,127.25938" id="Path" fill="#32C896" fill-rule="nonzero"></path>
                        <path d="M110.436816,136.009206 C110.436816,136.009206 111.854318,133.881164 107.1309,128.931232 C102.613729,124.207814 90.4964088,106.110517 70.359292,124.278152 C92.3669396,101.646995 104.10157,120.183013 108.829757,125.131753 C113.556751,130.082878 112.138057,132.209728 112.138057,132.209728 C112.138057,132.209728 112.484981,132.531616 110.436816,136.009206 C109.746543,136.765048 110.436816,136.009206 110.436816,136.009206" id="Path" fill-opacity="0.1" fill="#230753" fill-rule="nonzero"></path>
                        <path d="M136.263519,159.48329 C136.263519,159.48329 131.681971,162.786821 121.145481,154.889819 C121.145481,154.889819 113.392733,149.086286 106.342179,149.786096 C106.342179,149.786096 103.231781,150.75653 103.28066,147.152569 C103.325963,143.555761 111.129975,131.143973 111.129975,131.143973 C111.129975,131.143973 111.660495,129.696666 114.748242,130.987797 C117.834797,132.27416 122.737042,133.988515 127.948062,139.643026 C127.948062,139.643026 129.143819,137.778456 133.118548,129.528569 C137.096853,121.27272 142.080167,127.80706 142.080167,127.80706 L136.263519,159.48329 Z" id="Path" fill="#00B8E2" fill-rule="nonzero"></path>
                        <path d="M136.263519,159.48329 C136.263519,159.48329 131.681971,162.786821 121.145481,154.889819 C121.145481,154.889819 113.392733,149.086286 106.342179,149.786096 C106.342179,149.786096 103.231781,150.75653 103.28066,147.152569 C103.325963,143.555761 111.129975,131.143973 111.129975,131.143973 C111.129975,131.143973 111.660495,129.696666 114.748242,130.987797 C117.834797,132.27416 122.737042,133.988515 127.948062,139.643026 C127.948062,139.643026 129.143819,137.778456 133.118548,129.528569 C137.096853,121.27272 142.080167,127.80706 142.080167,127.80706 L136.263519,159.48329 Z" id="Path" fill="#32C896" fill-rule="nonzero"></path>
                        <path d="M140.105414,130.478682 C140.105414,130.478682 136.760156,126.10338 133.366019,129.049258 C137.299021,121.549252 142.080856,127.807006 142.080856,127.807006 L136.263017,159.483235 C136.263017,159.483235 135.743226,159.845658 134.67384,160.039984 L140.105414,130.478682 Z" id="Path" fill-opacity="0.1" fill="#230753" fill-rule="nonzero"></path>
                        <path d="M125.972117,142.313455 C120.758712,136.663713 115.855275,134.945781 112.769913,133.657034 C111.267765,133.029948 110.374822,133.051407 109.85384,133.240964 C110.615643,131.965331 111.130665,131.143918 111.130665,131.143918 C111.130665,131.143918 111.661185,129.696612 114.748932,130.987743 C117.76634,132.246685 122.530292,133.926467 127.618518,139.294855 C126.410839,141.626759 125.972117,142.313455 125.972117,142.313455" id="Path" fill-opacity="0.1" fill="#230753" fill-rule="nonzero"></path>
                        <path d="M132.551359,151.507023 C131.913543,155.543745 133.25713,159.113133 135.561614,159.481517 C137.858946,159.845132 140.24569,156.871834 140.887083,152.831535 L143.719704,135.091893 C144.355136,131.056363 143.007972,127.488167 140.710641,127.119784 C138.409733,126.752592 136.027757,129.728274 135.382787,133.766189 L132.551359,151.507023 Z" id="Path" fill="#DDDDDD" fill-rule="nonzero"></path>
                        <path d="M142.357442,129.529706 C140.060111,129.158938 137.67575,132.13462 137.031973,136.172535 L134.199353,153.914561 C133.898923,155.829203 134.051522,157.625819 134.534355,159.03736 C132.884378,157.917903 132.018855,154.892149 132.550567,151.508742 L135.383188,133.767907 C136.026965,129.729993 138.408941,126.754311 140.711041,127.12031 C141.919912,127.314636 142.853389,128.407865 143.387486,129.973197 C143.066789,129.757413 142.731787,129.586931 142.357442,129.529706" id="Path" fill-opacity="0.1" fill="#230753" fill-rule="nonzero"></path>
                        <path d="M56.6809728,138.88107 C57.0565096,133.814303 53.1807316,129.38893 48.0328972,129.013394 L43.3214009,128.665277 C38.16999,128.290932 33.6909687,132.091603 33.3178163,137.16433 C32.9458561,142.234673 36.8204419,146.655277 41.9742372,147.032006 L46.6785805,147.374162 C51.8323757,147.759236 56.3078204,143.952604 56.6809728,138.88107" id="Path" fill="#FFFFFF" fill-rule="nonzero"></path>
                        <path d="M44.486123,145.199231 C44.777015,143.534947 43.6623265,141.950539 41.9980428,141.657263 C40.3373357,141.362795 38.751736,142.473907 38.4572675,144.139382 L36.866899,153.176109 C36.5676618,154.843969 37.6823503,156.429569 39.3454418,156.722845 C41.0121098,157.016121 42.5953251,155.905009 42.8933702,154.24311 L44.486123,145.199231 Z" id="Path" fill="#FFFFFF" fill-rule="nonzero"></path>
                        <path d="M50.2414878,146.661461 C50.2140677,144.808812 48.8096794,143.330509 47.1191677,143.36389 C45.4334249,143.394887 44.0898377,144.923262 44.1256031,146.777102 L44.3115832,156.859371 C44.3401956,158.71798 45.7374308,160.193899 47.4279424,160.16171 C49.1196462,160.129521 50.4536959,158.605915 50.427468,156.74969 L50.2414878,146.661461 Z" id="Path" fill="#FFFFFF" fill-rule="nonzero"></path>
                        <path d="M55.1044349,142.666896 C54.4344296,140.932274 52.6163547,140.021448 51.0402924,140.62946 C49.4606536,141.232703 48.7274627,143.12827 49.3926993,144.856931 L53.0061977,154.273963 C53.6714342,156.009777 55.4883169,156.915834 57.0679558,156.314975 C58.6487868,155.706963 59.384362,153.813781 58.7155489,152.081543 L55.1044349,142.666896 Z" id="Path" fill="#FFFFFF" fill-rule="nonzero"></path>
                        <path d="M54.2692418,134.815442 C53.0079151,133.799705 51.129039,134.045294 50.0656142,135.357884 C49.0069581,136.672859 49.1690946,138.558888 50.4184995,139.57701 L57.2508846,145.087268 C58.5086348,146.110158 60.3851265,145.860993 61.4473591,144.548402 C62.5107839,143.229851 62.3510317,141.346206 61.0980503,140.330468 L54.2692418,134.815442 Z" id="Path" fill="#FFFFFF" fill-rule="nonzero"></path>
                        <path d="M41.3776824,141.421361 C42.2932768,140.09208 41.9117792,138.234663 40.5157361,137.27615 C39.1304226,136.321214 37.2598918,136.619259 36.3383365,137.952116 L31.3633682,145.183882 C30.448966,146.514355 30.8364246,148.365811 32.2265067,149.3279 C33.6213576,150.286413 35.482351,149.983599 36.4039064,148.648358 L41.3776824,141.421361 Z" id="Path" fill="#FFFFFF" fill-rule="nonzero"></path>
                        <path d="M59.3971946,143.866866 C60.4594272,142.547123 60.2984828,140.663478 59.0478857,139.646548 L54.5104477,135.98417 C54.0013867,133.012065 52.0211753,130.496565 49.3030043,129.214971 C53.0619487,130.010155 55.9291422,132.99299 56.5645743,136.666097 L61.0972436,140.33086 C62.3514172,141.346597 62.5099772,143.230242 61.4477446,144.548793 C60.385512,145.861384 58.5090203,146.110549 57.2512701,145.087659 L57.1630488,145.01732 C57.9939984,144.968441 58.8154106,144.582174 59.3971946,143.866866" id="Path" fill-opacity="0.1" fill="#230753" fill-rule="nonzero"></path>
                        <path d="M55.0159321,155.630109 C56.595571,155.023289 56.9556094,154.055239 56.6659096,151.399061 L55.4880355,143.665388 C55.7145497,143.848983 55.2317167,143.56286 55.4880355,143.665388 L58.7164596,152.08218 C59.3852728,153.814418 58.6485054,155.707601 57.0676743,156.315612 C56.0614742,156.698302 54.9610918,156.464635 54.1206047,155.797014 C54.4210342,155.786284 54.723848,155.744558 55.0159321,155.630109" id="Path" fill-opacity="0.1" fill="#230753" fill-rule="nonzero"></path>
                        <path d="M41.132993,154.175649 L44.1372873,147.340879 L42.8378108,154.491577 C42.1928413,156.496824 40.4832548,156.926009 39.3459148,156.72453 C38.8165868,156.632732 38.3540208,156.396681 37.9641779,156.081945 C39.3649897,156.017567 40.385496,155.392865 41.132993,154.175649" id="Path" fill-opacity="0.1" fill="#230753" fill-rule="nonzero"></path>
                        <path d="M35.4224496,148.231438 L38.0977021,146.190426 L36.2414774,148.864486 C35.0123396,150.285565 33.1942647,149.994673 32.2262143,149.328244 C32.1654131,149.286518 32.1165337,149.23287 32.0593091,149.189951 C32.958213,149.155378 33.752205,149.456999 35.4224496,148.231438" id="Path" fill-opacity="0.1" fill="#230753" fill-rule="nonzero"></path>
                        <path d="M48.3754881,156.065255 L50.2495954,147.089329 L50.4284225,156.749566 C50.4546504,158.605791 49.1206007,160.129397 47.4277048,160.162778 C46.7088201,160.1747 46.0507366,159.904075 45.5214085,159.460584 C47.1427737,159.344942 47.7984728,158.725009 48.3754881,156.065255" id="Path" fill-opacity="0.1" fill="#230753" fill-rule="nonzero"></path>
                        <path d="M51.7759657,125.266415 L37.0191584,126.275 C37.0191584,126.275 33.1350352,121.348911 34.0279782,101.820998 L34.9984129,91.6183194 C35.5658907,85.5942326 40.9223566,81.1748204 46.9440591,81.7458747 C52.9705303,82.3181212 57.3887503,87.6662419 56.8212725,93.6939053 C56.8212725,93.6939053 57.2421121,106.92949 51.7759657,125.266415" id="Path" fill="#FFFFFF" fill-rule="nonzero"></path>
                        <path d="M51.9222243,94.6214763 C52.4908943,88.5950051 48.0702899,83.2445001 42.0450109,82.6722536 C41.8494934,82.6531787 41.6527836,82.6543709 41.457266,82.6472178 C43.1251262,81.9021051 44.9992336,81.5599494 46.9436796,81.7459295 C52.9701508,82.318176 57.3883708,87.6662967 56.8220852,93.6939601 C56.8220852,93.6939601 57.2429248,106.929545 51.7755862,125.26647 L47.0545524,125.591935 C52.3311422,107.568554 51.9222243,94.6214763 51.9222243,94.6214763" id="Path" fill-opacity="0.1" fill="#230753" fill-rule="nonzero"></path>
                        <path d="M34.5078684,96.7506307 C35.4055801,96.0901628 36.5298061,95.6800528 37.7744423,95.6776505 C40.6654794,95.6705153 43.0176511,97.8069024 43.0271885,100.451158 L43.0450826,109.431852 C43.0510321,112.0773 40.7107823,114.226801 37.8173608,114.228085 C36.3390573,114.236338 35.0085841,113.676014 34.0548399,112.781879 C33.877205,109.769239 33.8259413,106.1772 34.0286119,101.820973 L34.5078684,96.7506307 Z" id="Path" fill="#32C896" fill-rule="nonzero"></path>
                        <path d="M33.9007153,129.713735 C34.0485457,131.468625 35.8117803,132.754987 37.8372945,132.590466 L50.922665,131.510351 C52.9517558,131.34583 54.4801309,129.785266 54.3370693,128.032761 C54.1928155,126.273103 52.4307731,124.987933 50.3992979,125.151261 L37.311543,126.230185 C35.2824522,126.395898 33.7564615,127.954077 33.9007153,129.713735" id="Path" fill="#32C896" fill-rule="nonzero"></path>
                        <path d="M53.2157399,129.442677 C53.0714861,127.687788 51.3094437,126.397849 49.2803529,126.563562 L36.192598,127.641293 C35.3902607,127.709247 34.6761447,127.99537 34.1015139,128.419787 C34.5760016,127.249066 35.8027551,126.353738 37.3120553,126.230944 L50.3998102,125.150828 C52.4312853,124.988692 54.1933277,126.273862 54.3375815,128.032328 C54.4246107,129.093368 53.8928983,130.075725 53.0142615,130.727848 C53.1787823,130.328467 53.2515053,129.892129 53.2157399,129.442677" id="Path" fill-opacity="0.1" fill="#230753" fill-rule="nonzero"></path>
                        <path d="M155.565379,102.054841 C155.565379,102.054841 136.304515,82.0691308 114.479271,94.8493032 C106.610881,99.4546955 103.657851,102.379114 103.657851,102.379114 L113.648321,120.891289 C113.648321,120.891289 133.285914,115.961623 146.813584,120.724383 C146.813584,120.724383 149.902523,121.556525 151.299758,119.604926 L155.565379,102.054841 Z" id="Path" fill="#FFFFFF" fill-rule="nonzero"></path>
                        <path d="M137.1731,98.6086361 L146.153782,98.6086361 C148.65855,98.6062511 150.690022,96.4996714 150.898653,93.8232303 C143.894604,92.4033455 137.190983,93.5752571 132.616594,94.8914224 C133.217452,97.0385361 135.015257,98.6098276 137.1731,98.6086361" id="Path" fill="#32C896" fill-rule="nonzero" transform="translate(141.757623, 95.892359) scale(-1, 1) rotate(-19.551048) translate(-141.757623, -95.892359) "></path>
                        <path d="M115.644259,96.9521887 C109.719123,99.6810893 105.259177,101.096207 103.658079,102.380185 C103.658079,102.380185 106.609917,99.4557672 114.479499,94.8491827 C136.304743,82.0702025 155.565607,102.05472 155.565607,102.05472 L154.774,105.310564 C151.278527,102.040414 134.807365,88.1133643 115.644259,96.9521887" id="Path" fill-opacity="0.1" fill="#230753" fill-rule="nonzero"></path>
                        <path d="M181.386552,128.907086 C181.386552,128.907086 176.803811,132.210617 166.268514,124.317192 C166.268514,124.317192 159.976187,120.861061 152.91848,121.562063 C152.91848,121.562063 149.879612,121.721815 149.93326,118.121431 C149.979756,114.518662 154.464738,101.795714 154.464738,101.795714 C154.464738,101.795714 155.000027,100.347215 158.09135,101.640731 C161.170752,102.931862 167.855306,103.415887 173.066326,109.064437 C173.066326,109.064437 174.266852,107.199867 178.241581,98.9511723 C182.221078,90.7024771 187.205584,97.2332405 187.205584,97.2332405 L181.386552,128.907086 Z" id="Path" fill="#32C896" fill-rule="nonzero"></path>
                        <path d="M186.233252,99.5654478 C186.233252,99.5654478 181.246362,93.0358766 177.270441,101.285764 C173.293328,109.533267 173.045354,110.762405 173.045354,110.762405 C167.836719,105.109086 160.203188,105.265262 157.117826,103.97413 C155.106618,103.133643 154.188639,103.453148 153.788066,103.775036 C154.195792,102.567358 154.465225,101.796017 154.465225,101.796017 C154.465225,101.796017 155.000514,100.347518 158.091837,101.641034 C161.172431,102.932165 167.855793,103.41619 173.068006,109.065932 C173.068006,109.065932 174.267339,107.20017 178.242068,98.951475 C182.221566,90.7027798 187.206071,97.2335432 187.206071,97.2335432 L181.387039,128.907388 C181.387039,128.907388 181.184369,129.046873 180.789757,129.195896 L186.233252,99.5654478 Z" id="Path" fill-opacity="0.1" fill="#230753" fill-rule="nonzero"></path>
                        <path d="M177.668956,120.931725 C177.032331,124.96964 178.378303,128.535451 180.670866,128.906219 C182.980119,129.27341 185.368056,126.296536 186.005872,122.253853 L188.832532,104.520172 C189.477501,100.477488 188.127953,96.9104851 185.833006,96.5468701 C183.529714,96.1784864 181.147738,99.1529762 180.501576,103.189699 L177.668956,120.931725 Z" id="Path" fill="#DDDDDD" fill-rule="nonzero"></path>
                        <path d="M187.268065,99.1589144 C184.965965,98.7893385 182.583988,101.766213 181.937827,105.801743 L179.104014,123.541385 C178.836966,125.253356 178.939493,126.860415 179.300724,128.193272 C177.88799,126.905718 177.175067,124.071905 177.668629,120.932895 L180.502442,103.190868 C181.147411,99.1541456 183.529387,96.1796559 185.83268,96.5480396 C187.154807,96.7566711 188.149086,98.0513789 188.641456,99.870646 C188.236115,99.5010701 187.781894,99.2399826 187.268065,99.1589144" id="Path" fill-opacity="0.1" fill="#230753" fill-rule="nonzero"></path>
                        <path d="M66.5971388,80.4373891 C65.9426318,81.1324302 65.9927034,82.2495031 66.7139724,82.9397755 C67.438818,83.6264713 68.5535066,83.6252792 69.2115901,82.9409677 L74.4738737,77.4319027 C75.1379181,76.7452069 75.0830778,75.6305183 74.3594244,74.9366694 C73.6369632,74.2475892 72.5222746,74.2463971 71.862999,74.9330929 L66.5971388,80.4373891 Z" id="Path" fill="#DDDDDD" fill-rule="nonzero"></path>
                        <path d="M74.6797533,76.0258486 C73.957292,75.3331919 72.8426035,75.3319997 72.1833278,76.0198877 L66.9174676,81.5253762 C66.62896,81.8305743 66.5025889,82.2204173 66.483514,82.6126446 C66.0233324,81.934294 66.0328699,81.0365823 66.5967711,80.4381078 L71.8626313,74.9338115 C72.521907,74.2471157 73.6365956,74.2483079 74.3590568,74.9373881 C74.7655903,75.327231 74.9384564,75.8470216 74.9134206,76.352506 C74.8371211,76.2392489 74.7810886,76.1212231 74.6797533,76.0258486" id="Path" fill-opacity="0.1" fill="#230753" fill-rule="nonzero"></path>
                        <path d="M86.0212827,77.5580843 C86.1697206,76.1891385 87.5423016,75.2133539 89.0973641,75.381643 C90.5036107,75.5316623 91.5706058,76.5613538 91.650873,77.7710003 L91.6507914,77.7713376 L91.6516381,77.7830259 C91.6591468,77.9063481 91.6563977,78.0315131 91.6427066,78.1577815 C91.6416447,78.1679018 91.6405152,78.1780006 91.6393185,78.1880776 L91.6186025,78.8645669 C91.4540816,80.4215543 90.0592307,81.5422037 88.5082042,81.378875 C86.9536011,81.213162 85.8305673,79.8195032 85.9962804,78.2660924 L85.9962804,78.2660924 L86.0103607,77.8799757 C86.006241,77.7737528 86.0097385,77.6662972 86.0212827,77.5580843 Z M93.0042864,74.7360585 C93.1528234,73.3683249 94.5267485,72.3928952 96.079536,72.5600047 C97.6325767,72.7247453 98.7743887,73.9665775 98.6279693,75.3369353 C98.6261733,75.353473 98.6241982,75.3699529 98.6220458,75.3863737 L98.6000045,76.0434891 C98.437868,77.6004765 97.0406327,78.7187416 95.4907984,78.5577973 C93.9350032,78.3885077 92.8131615,76.9960412 92.9776824,75.4438225 L92.9776824,75.4438225 L92.9922994,75.0240195 C92.99006,74.928872 92.9939528,74.8327725 93.0042864,74.7360585 L93.0020639,74.7653547 L93.0039104,74.7356674 Z M99.4622279,72.1333082 C99.6114726,70.7644482 100.984842,69.7895962 102.536394,69.9570768 C104.09188,70.1213869 105.234115,71.3639017 105.087368,72.7318286 C105.085265,72.7514405 105.082909,72.770971 105.080304,72.7904178 L105.061044,73.4403895 C104.896523,74.9938003 103.502864,76.115642 101.950646,75.9546976 C100.396043,75.785408 99.2742011,74.3929415 99.4363376,72.841915 L99.4363376,72.841915 L99.4509008,72.4329818 C99.4479428,72.334011 99.4516033,72.2339928 99.4622279,72.1333082 Z" id="Combined-Shape" fill="#19B3EE" fill-rule="nonzero"></path>
                        <path d="M88.5697992,80.3381544 C90.1095371,80.5000339 91.4794124,79.5399337 91.639438,78.1870698 L91.6186025,78.8645669 C91.4540816,80.4215543 90.0592307,81.5422037 88.5082042,81.378875 C86.9536011,81.213162 85.8305673,79.8195032 85.9962804,78.2660924 L85.9962804,78.2660924 L86.010363,77.8800349 C86.0583116,79.1154795 87.1366675,80.184163 88.5697992,80.3381544 Z" id="Combined-Shape" fill-opacity="0.1" fill="#230753" fill-rule="nonzero"></path>
                        <path d="M94.2925002,84.8335662 C94.4069842,83.7655318 95.4812419,83.0054023 96.6903373,83.1350068 C97.9079841,83.2631349 98.7977873,84.2349887 98.685547,85.3044625 C98.6837116,85.321408 98.6816344,85.3382766 98.6793188,85.355066 L98.6626645,85.8597031 C98.533909,87.0709583 97.4466406,87.9472107 96.2353855,87.8196475 C95.0181694,87.6873154 94.1443013,86.6000471 94.2706724,85.3875997 L94.2706724,85.3875997 L94.2829536,85.0431502 C94.2819219,84.973835 94.2850398,84.9039019 94.2925002,84.8335662 Z M103.050667,81.1859703 C103.167331,80.1169679 104.240179,79.3563947 105.450501,79.4857669 C106.668062,79.6147152 107.557097,80.5849944 107.445047,81.6556891 C107.443032,81.6743505 107.440723,81.6929178 107.438125,81.7113878 L107.422941,82.2097746 C107.292993,83.4210298 106.206917,84.2984745 104.992085,84.1685268 C103.778446,84.0385792 102.902194,82.9501186 103.029757,81.7376713 L103.029757,81.7376713 L103.041191,81.3790179 C103.040781,81.3151322 103.04389,81.2507275 103.050667,81.1859703 L103.048527,81.22043 L103.050024,81.1856918 Z" id="Combined-Shape" fill="#FF1515" fill-rule="nonzero"></path>
                        <path d="M96.2814022,87.005939 C97.4749366,87.1326944 98.5357049,86.3963399 98.6793188,85.355066 L98.6626645,85.8597031 C98.533909,87.0709583 97.4466406,87.9472107 96.2353855,87.8196475 C95.0181694,87.6873154 94.1443013,86.6000471 94.2706724,85.3875997 L94.2706724,85.3875997 L94.2829694,85.044189 C94.2981888,86.0271026 95.1477741,86.8855425 96.2814022,87.005939 Z" id="Combined-Shape" fill-opacity="0.1" fill="#230753" fill-rule="nonzero"></path>
                        <path d="M105.041657,83.3555124 C106.230853,83.4826265 107.29191,82.7510808 107.438125,81.7113878 L107.422941,82.2097746 C107.292993,83.4210298 106.206917,84.2984745 104.992085,84.1685268 C103.778446,84.0385792 102.902194,82.9501186 103.029757,81.7376713 L103.029757,81.7376713 L103.041194,81.3794164 C103.047772,82.3693118 103.899166,83.2345156 105.041657,83.3555124 Z" id="Combined-Shape" fill-opacity="0.1" fill="#230753" fill-rule="nonzero"></path>
                        <path d="M102.011638,74.9114865 C103.541206,75.074234 104.90485,74.1280744 105.081104,72.7843799 L105.061044,73.4403895 C104.896523,74.9938003 103.502864,76.115642 101.950646,75.9546976 C100.396043,75.785408 99.2742011,74.3929415 99.4363376,72.841915 L99.4363376,72.841915 L99.4505485,72.4199 C99.4804872,73.6690021 100.565136,74.7542341 102.011638,74.9114865 Z" id="Combined-Shape" fill-opacity="0.1" fill="#230753" fill-rule="nonzero"></path>
                        <path d="M95.5536519,77.5154856 C97.0833962,77.6765679 98.443994,76.7306113 98.6216484,75.3893891 L98.6000045,76.0434891 C98.437868,77.6004765 97.0406327,78.7187416 95.4907984,78.5577973 C93.9350032,78.3885077 92.8131615,76.9960412 92.9776824,75.4438225 L92.9776824,75.4438225 L92.9922956,75.0238591 C93.0216143,76.2734422 94.1085914,77.3588561 95.5536519,77.5154856 Z" id="Combined-Shape" fill-opacity="0.1" fill="#230753" fill-rule="nonzero"></path>
                        <path d="M40.0498093,16.8216929 C38.883857,16.8216929 37.9396502,17.7658997 37.9396502,18.9330441 C37.9396502,20.0989964 38.883857,21.0432032 40.0498093,21.0432032 C41.2157615,21.0432032 42.1599683,20.0989964 42.1599683,18.9330441 C42.1599683,17.7658997 41.2157615,16.8216929 40.0498093,16.8216929" id="Path" fill="#FFFFFF" fill-rule="nonzero" transform="translate(40.049809, 18.932448) scale(-1, 1) rotate(-90.000000) translate(-40.049809, -18.932448) "></path>
                    </g>
                    <g id="exhaust" transform="translate(408.000000, 78.000000)">
                        <circle id="Oval" fill="#2B464A" cx="122" cy="7" r="7"></circle>
                        <circle id="Oval" fill="#5E99AC" cx="125.5" cy="40.5" r="5.5"></circle>
                        <circle id="Oval" fill="#32C896" cx="12" cy="67" r="2"></circle>
                        <circle id="Oval" fill="#344E7B" cx="23" cy="78" r="6"></circle>
                        <circle id="Oval" fill="#32C896" cx="62" cy="87" r="2"></circle>
                        <circle id="Oval" fill="#DDDDDD" cx="11" cy="76" r="1"></circle>
                        <circle id="Oval" fill="#DDDDDD" cx="31" cy="66" r="1"></circle>
                        <circle id="Oval" fill="#DDDDDD" cx="81" cy="26" r="1"></circle>
                        <circle id="Oval" fill="#DDDDDD" cx="1" cy="86" r="1"></circle>
                        <circle id="Oval" fill="#32C896" cx="83" cy="22" r="2"></circle>
                        <circle id="Oval" fill="#32C896" cx="28" cy="76" r="2"></circle>
                    </g>
                </g>
            </g>
        </g>
    </g>
</svg>