<?xml version="1.0" encoding="UTF-8"?>
<svg width="500px" height="500px" viewBox="0 0 500 500" version="1.1" xmlns="http://www.w3.org/2000/svg" xmlns:xlink="http://www.w3.org/1999/xlink">
    <title>Icons / Family / Cloud</title>
    <g id="Icons-/-Family-/-Cloud" stroke="none" stroke-width="1" fill="none" fill-rule="evenodd">
        <path d="M344.995,278.848 L140.357,278.848 C120.412,278.848 104.184,262.621 104.184,242.676 C104.184,223.723 119.009,207.892 137.933,206.636 C140.605,206.458 143.078,205.015 144.547,202.776 C146.017,200.535 146.356,197.693 145.453,195.174 C143.529,189.782 142.555,184.248 142.555,178.726 C142.555,151.729 164.518,129.765 191.516,129.765 C200.177,129.765 208.724,132.107 216.262,136.543 L216.265,136.542 L216.698,136.732 C231.589,145.681 240.478,161.381 240.478,178.726 C240.478,183.464 244.333,187.319 249.071,187.319 C253.809,187.319 257.664,183.464 257.664,178.726 C257.664,159.079 248.958,140.541 233.779,127.865 L233.015,127.226 L233.649,126.459 C245.364,112.304 262.64,104.184 281.046,104.184 C315.096,104.184 342.798,131.886 342.798,165.936 C342.798,167.771 342.699,169.703 342.496,171.844 C341.284,184.246 336.51,195.757 328.685,205.23 C325.67,208.882 326.187,214.309 329.84,217.327 C331.376,218.595 333.317,219.294 335.306,219.294 C337.883,219.294 340.3,218.156 341.935,216.173 C349.652,206.829 355.185,195.615 357.937,183.742 L358.179,182.703 L359.199,183.009 C379.989,189.244 393.958,208.082 393.958,229.886 C393.958,256.884 371.993,278.848 344.995,278.848 M259.664,384.644 C259.664,390.484 254.912,395.236 249.071,395.236 C243.23,395.236 238.478,390.484 238.478,384.644 C238.478,378.803 243.23,374.051 249.071,374.051 C254.912,374.051 259.664,378.803 259.664,384.644 M357.785,374.051 C363.626,374.051 368.378,378.803 368.378,384.644 C368.378,390.484 363.626,395.236 357.785,395.236 C351.945,395.236 347.193,390.484 347.193,384.644 C347.193,378.803 351.945,374.051 357.785,374.051 M140.357,395.236 C134.516,395.236 129.765,390.484 129.765,384.644 C129.765,378.803 134.516,374.051 140.357,374.051 C146.197,374.051 150.949,378.803 150.949,384.644 C150.949,390.484 146.197,395.236 140.357,395.236 M394.017,185.483 C385.093,175.638 373.584,168.774 360.735,165.634 L359.985,165.451 L359.973,164.678 C359.302,121.846 323.895,87 281.046,87 C256.422,87 233.694,98.167 218.69,117.638 L218.217,118.253 L217.504,117.947 C209.219,114.385 200.475,112.579 191.516,112.579 C155.043,112.579 125.37,142.253 125.37,178.726 C125.37,182.572 125.721,186.459 126.411,190.28 L126.571,191.17 L125.702,191.419 C102.915,197.936 87,219.014 87,242.676 C87,272.097 110.936,296.033 140.357,296.033 L189.319,296.033 L189.319,359.265 L162.69,368.142 L162.256,367.585 C156.933,360.774 148.952,356.867 140.357,356.867 C125.041,356.867 112.58,369.327 112.58,384.644 C112.58,399.96 125.041,412.421 140.357,412.421 C155.395,412.421 167.85,400.186 168.122,385.147 L168.135,384.441 L200.628,373.611 C204.142,372.438 206.504,369.161 206.504,365.458 L206.504,296.033 L240.478,296.033 L240.478,358.221 L239.812,358.457 C228.736,362.388 221.294,372.911 221.294,384.644 C221.294,399.96 233.755,412.421 249.071,412.421 C264.388,412.421 276.849,399.96 276.849,384.644 C276.849,372.911 269.406,362.388 258.33,358.457 L257.664,358.221 L257.664,296.033 L291.639,296.033 L291.639,365.458 C291.639,369.161 294,372.438 297.515,373.611 L330.008,384.441 L330.02,385.147 C330.292,400.186 342.747,412.421 357.785,412.421 C373.101,412.421 385.562,399.96 385.562,384.644 C385.562,369.327 373.101,356.867 357.785,356.867 C349.19,356.867 341.209,360.774 335.887,367.585 L335.452,368.142 L308.823,359.265 L308.823,296.033 L344.995,296.033 C381.469,296.033 411.142,266.36 411.142,229.886 C411.142,213.432 405.06,197.663 394.017,185.483" id="Primary-shape" fill="#19B3EE" fill-rule="nonzero"></path>
    </g>
</svg>