<?xml version="1.0" encoding="UTF-8"?>
<svg width="500px" height="500px" viewBox="0 0 500 500" version="1.1" xmlns="http://www.w3.org/2000/svg" xmlns:xlink="http://www.w3.org/1999/xlink">
    <title>Icons / Family / Data-Cloud</title>
    <defs>
        <polygon id="path-1" points="178.1665 376.3211 178.1665 288.0561 160.7565 288.0561 160.7565 376.3211 141.3315 356.8921 129.0215 369.2021 169.4615 409.6501 209.9015 369.2021 197.5915 356.8921"></polygon>
    </defs>
    <g id="Icons-/-Family-/-Data-Cloud" stroke="none" stroke-width="1" fill="none" fill-rule="evenodd">
        <path d="M254.2717,158.9803 C282.7187,158.9803 309.0767,175.3083 321.8877,200.7203 C326.0897,199.7183 330.4027,199.2113 334.7337,199.2113 C365.4147,199.2113 390.3757,224.1723 390.3757,254.8533 C390.3757,257.9613 390.1057,261.0933 389.5747,264.1903 C403.7627,271.3183 412.8477,285.9073 412.8477,301.7893 C412.8477,325.0753 393.9027,344.0213 370.6167,344.0213 L370.6167,344.0213 L187.6547,344.0213 L187.6547,326.6103 L370.6187,326.6103 C384.3037,326.6103 395.4387,315.4753 395.4387,301.7893 C395.4387,290.6613 387.8707,280.8573 377.0347,277.9483 L377.0347,277.9483 L368.1507,275.5583 L371.0227,266.8143 C372.3117,262.9103 372.9657,258.8863 372.9657,254.8523 C372.9657,233.7713 355.8147,216.6213 334.7347,216.6213 C329.7917,216.6213 324.9517,217.5723 320.3497,219.4463 L320.3497,219.4463 L312.0387,222.8373 L308.9007,214.4233 C300.4407,191.6733 278.4877,176.3903 254.2717,176.3903 C223.9087,176.3903 198.9457,199.1693 196.2057,229.3773 L196.2057,229.3773 L194.0967,252.5343 L180.4777,233.6883 C175.7197,227.1033 168.3997,223.3263 160.3987,223.3263 C146.7127,223.3263 135.5777,234.4613 135.5777,248.1473 C135.5777,253.4533 137.3407,258.5963 140.6757,263.0193 L140.6757,263.0193 L151.2177,276.9683 L129.2307,276.9683 C115.5447,276.9683 104.4097,288.1033 104.4097,301.7903 C104.4097,315.4763 115.5447,326.6113 129.2307,326.6113 L129.2307,326.6113 L151.3397,326.6113 L151.3397,344.0213 L129.2307,344.0213 C105.9447,344.0213 86.9997,325.0763 86.9997,301.7903 C86.9997,281.7833 100.7697,264.8053 120.0697,260.5593 C118.8067,256.5453 118.1677,252.3813 118.1677,248.1483 C118.1677,224.8623 137.1127,205.9173 160.3987,205.9173 C168.0317,205.9173 175.4457,207.9893 182.0047,211.9333 C186.6007,197.1773 195.7607,183.9963 208.0047,174.5893 C221.2987,164.3773 237.2977,158.9803 254.2717,158.9803 Z M363.9115,90 L404.3525,130.441 L392.0425,142.751 L372.6165,123.326 L372.6165,191.477 L355.2065,191.477 L355.2065,123.326 L335.7815,142.751 L323.4715,130.441 L363.9115,90 Z" id="Primary-shape" fill="#19B3EE" fill-rule="nonzero"></path>
        <mask id="mask-2" fill="white">
            <use xlink:href="#path-1"></use>
        </mask>
        <use id="Secondary-shape" fill="#14DE2D" xlink:href="#path-1"></use>
    </g>
</svg>