<?xml version="1.0" encoding="UTF-8"?>
<svg width="500px" height="500px" viewBox="0 0 500 500" version="1.1" xmlns="http://www.w3.org/2000/svg" xmlns:xlink="http://www.w3.org/1999/xlink">
    <title>Icons / Family / OpenSource</title>
    <g id="Icons-/-Family-/-OpenSource" stroke="none" stroke-width="1" fill="none" fill-rule="evenodd">
        <path d="M295.455155,291.347793 C304.264155,279.096793 307.773155,264.150793 305.339155,249.260793 C302.906155,234.369793 294.819155,221.318793 282.569155,212.510793 C270.338155,203.717793 255.395155,200.215793 240.486155,202.651793 C225.579155,205.087793 212.526155,213.164793 203.732155,225.395793 C194.925155,237.644793 191.414155,252.591793 193.848155,267.482793 C196.097155,281.243793 203.233155,293.521793 214.013155,302.243793 L179.762155,362.843793 C165.150155,353.046793 152.547155,340.061793 143.225155,325.177793 C125.454155,296.809793 119.807155,263.169793 127.321155,230.455793 C134.835155,197.740793 154.597155,169.937793 182.964155,152.167793 C211.376155,134.369793 245.021155,128.700793 277.700155,136.205793 C310.378155,143.711793 338.176155,163.493793 355.975155,191.908793 C373.774155,220.321793 379.443155,253.964793 371.936155,286.642793 C364.728155,318.023793 346.120155,345.004793 319.439155,362.843793 L285.184155,302.236793 C289.077155,299.076793 292.527155,295.420793 295.455155,291.347793 M320.643155,132.650793 C251.232155,93.4647932 162.881155,118.047793 123.695155,187.454793 C104.740155,221.023793 100.009155,260.020793 110.371155,297.260793 C120.734155,334.500793 144.930155,365.449793 178.496155,384.401793 C179.927155,385.213793 181.547155,385.643793 183.180155,385.643793 C184.031155,385.643793 184.887155,385.527793 185.725155,385.296793 C188.175155,384.618793 190.215155,383.028793 191.471155,380.814793 L234.852155,304.010793 C236.103155,301.796793 236.417155,299.228793 235.735155,296.780793 C235.056155,294.331793 233.461155,292.293793 231.240155,291.038793 C225.239155,287.669793 220.287155,282.716793 216.918155,276.716793 C212.019155,267.993793 210.812155,257.884793 213.517155,248.252793 C216.223155,238.619793 222.517155,230.618793 231.240155,225.721793 C239.946155,220.831793 250.052155,219.628793 259.696155,222.338793 C269.340155,225.046793 277.344155,231.334793 282.234155,240.043793 C287.133155,248.766793 288.341155,258.875793 285.635155,268.507793 C282.930155,278.140793 276.631155,286.144793 267.891155,291.050793 C265.683155,292.303793 264.094155,294.342793 263.416155,296.795793 C262.738155,299.246793 263.055155,301.813793 264.306155,304.019793 L307.755155,380.807793 C309.003155,383.008793 311.025155,384.594793 313.436155,385.271793 C314.274155,385.512793 315.143155,385.635793 316.058155,385.635793 C317.659155,385.618793 319.246155,385.193793 320.643155,384.402793 C343.559155,371.461793 362.510155,352.510793 375.445155,329.597793 C414.634155,260.191793 390.050155,171.841793 320.643155,132.650793" id="Primary-shape" fill="#19B3EE" fill-rule="nonzero"></path>
    </g>
</svg>