<?xml version="1.0" encoding="UTF-8"?>
<svg width="500px" height="500px" viewBox="0 0 500 500" version="1.1" xmlns="http://www.w3.org/2000/svg" xmlns:xlink="http://www.w3.org/1999/xlink">
    <title>Icons / Family / Packages</title>
    <g id="Icons-/-Family-/-Packages" stroke="none" stroke-width="1" fill="none" fill-rule="evenodd">
        <path d="M413.9629,120.0002 L413.9629,379.4722 L154.4899,379.4722 L154.4899,360.5992 L395.0899,360.5992 L395.0899,138.8722 L348.3449,138.8722 L348.3449,204.4902 L220.1079,204.4902 L220.1079,138.8722 L173.3629,138.8722 L173.3629,206.3162 L154.4899,206.3162 L154.4899,120.0002 L413.9629,120.0002 Z M217.108,316.854 L217.108,335.726 L110.745,335.726 L110.745,316.854 L217.108,316.854 Z M238.981,273.109 L238.981,291.981 L154.49,291.981 L154.49,273.109 L238.981,273.109 Z M260.854,229.363 L260.854,248.236 L198.237,248.236 L198.237,229.363 L260.854,229.363 Z M329.4709,138.8722 L238.9809,138.8722 L238.9809,185.6172 L329.4709,185.6172 L329.4709,138.8722 Z" id="Primary-shape" fill="#19B3EE" fill-rule="nonzero"></path>
        <path d="M85.872,316.854 L85.872,335.726 L67,335.726 L67,316.854 L85.872,316.854 Z M129.618,273.109 L129.618,291.981 L110.745,291.981 L110.745,273.109 L129.618,273.109 Z M173.363,229.363 L173.363,248.236 L154.49,248.236 L154.49,229.363 L173.363,229.363 Z" id="Secondary-shape" fill="#14DE2D"></path>
    </g>
</svg>