<?xml version="1.0" encoding="UTF-8"?>
<svg width="500px" height="500px" viewBox="0 0 500 500" version="1.1" xmlns="http://www.w3.org/2000/svg" xmlns:xlink="http://www.w3.org/1999/xlink">
    <title>Icons / Family / ROI</title>
    <g id="Icons-/-Family-/-ROI" stroke="none" stroke-width="1" fill="none" fill-rule="evenodd">
        <path d="M242.4084,100.7973 C245.1684,100.7973 247.7584,102.0133 249.5204,104.1383 L249.5204,104.1383 L274.5794,137.5673 C276.6364,140.3103 276.9614,143.9193 275.4284,146.9863 C273.8954,150.0523 270.8124,151.9573 267.3844,151.9573 L267.3844,151.9573 L263.8884,151.9573 L263.8884,164.1283 C270.9304,161.3513 278.3064,159.6883 285.8674,159.1733 L285.8674,159.1733 L285.8674,155.4533 C285.8554,152.0613 287.8174,148.8973 290.8664,147.3963 C293.8844,145.8793 297.5734,146.2193 300.2644,148.2643 L300.2644,148.2643 L333.5784,173.2363 C335.8104,174.9313 337.1444,177.6063 337.1554,180.4003 C337.1674,183.1913 335.8524,185.8783 333.6394,187.5853 L333.6394,187.5853 L300.2564,212.6053 C297.5144,214.6623 293.9064,214.9873 290.8384,213.4543 C287.7724,211.9213 285.8674,208.8393 285.8674,205.4103 L285.8674,205.4103 L285.8674,202.4123 C264.9704,205.8363 263.8884,226.2393 263.8884,230.3893 L263.8884,230.3893 L263.8884,253.8683 L327.3334,253.8683 C333.6684,253.8683 338.8244,259.0233 338.8244,265.3593 L338.8244,265.3593 L338.8244,285.3413 C338.8244,291.5503 333.8764,296.6253 327.7154,296.8283 L327.7154,296.8283 L310.2824,388.3193 C308.7974,396.0943 301.9764,401.7403 294.0624,401.7443 L294.0624,401.7443 L190.7504,401.7443 C182.8354,401.7403 176.0134,396.0943 174.5294,388.3203 L174.5294,388.3203 L165.6364,341.5093 C165.2044,339.2373 166.0234,336.8863 167.7754,335.3763 C169.5274,333.8653 171.9734,333.3993 174.1584,334.1613 C176.3414,334.9223 177.9674,336.8083 178.4004,339.0813 L178.4004,339.0813 L187.2884,385.8953 C187.5904,387.5613 189.0204,388.7513 190.6974,388.7513 L190.6974,388.7513 L294.0614,388.7513 C295.7454,388.7583 297.2174,387.5743 297.5214,385.9073 L297.5214,385.9073 L314.4854,296.8343 L287.3674,296.8343 C283.7854,296.8343 280.8714,293.9193 280.8714,290.3373 C280.8714,286.7553 283.7854,283.8413 287.3674,283.8413 L287.3674,283.8413 L325.8334,283.8413 L325.8334,266.8593 L158.9784,266.8593 L158.9784,283.8413 L197.4444,283.8413 C201.0264,283.8413 203.9404,286.7553 203.9404,290.3373 C203.9404,293.9193 201.0264,296.8343 197.4444,296.8343 L197.4444,296.8343 L170.3244,296.8343 L173.6434,314.0983 C173.9634,315.7873 173.5904,317.5643 172.6234,318.9793 C171.6404,320.4133 170.1584,321.3783 168.4484,321.6973 C168.0584,321.7743 167.6174,321.8133 167.2264,321.8123 C164.1224,321.8073 161.4424,319.5863 160.8604,316.5313 L160.8604,316.5313 L157.0954,296.8283 C150.9364,296.6253 145.9874,291.5503 145.9874,285.3413 L145.9874,285.3413 L145.9874,265.3593 C145.9874,259.0233 151.1424,253.8683 157.4784,253.8683 L157.4784,253.8683 L220.3414,253.8683 C218.9264,244.5713 214.2364,230.5963 198.9444,227.5063 L198.9444,227.5063 L198.9444,230.3893 C198.9514,233.8243 197.0444,236.9153 193.9674,238.4513 C190.8904,239.9873 187.2754,239.6533 184.5304,237.5813 L184.5304,237.5813 L151.2324,212.6053 C149.0034,210.9103 147.6714,208.2363 147.6604,205.4463 C147.6484,202.6563 148.9594,199.9713 151.1654,198.2643 L151.1654,198.2643 L184.5544,173.2363 C187.2974,171.1803 190.9084,170.8553 193.9724,172.3873 C197.0394,173.9213 198.9444,177.0033 198.9444,180.4323 L198.9444,180.4323 L198.9444,184.1523 C206.5044,184.6663 213.8804,186.3293 220.9224,189.1073 L220.9224,189.1073 L220.9224,151.9573 L217.4264,151.9573 C213.9994,151.9573 210.9164,150.0523 209.3824,146.9863 C207.8494,143.9193 208.1744,140.3103 210.2324,137.5673 L210.2324,137.5673 L235.2104,104.2463 C237.0004,102.0483 239.5964,100.8093 242.3714,100.7973 L242.3714,100.7973 Z M242.4054,116.3103 L225.4214,138.9663 L227.4194,138.9663 C231.0004,138.9663 233.9144,141.8803 233.9144,145.4613 L233.9144,145.4613 L233.9144,199.5653 C233.9144,201.9093 232.6444,204.0793 230.5994,205.2273 C228.5564,206.3753 226.0444,206.3323 224.0414,205.1133 C214.4944,199.5133 203.5894,196.6713 192.4814,196.9183 C188.8674,196.9183 185.9534,194.0043 185.9534,190.4233 L185.9534,190.4233 L185.9534,188.4263 L163.2964,205.4103 L185.9534,222.3943 L185.9534,220.3973 C185.9534,216.8153 188.8674,213.9013 192.4484,213.9013 C219.2754,213.9013 231.1654,234.2933 233.4624,253.8683 L233.4624,253.8683 L250.8974,253.8683 L250.8974,230.3893 C250.8974,225.8553 251.7204,214.2033 259.3454,203.9453 C266.6514,194.1183 278.0684,188.9233 292.3634,188.9233 C295.9444,188.9233 298.8584,191.8373 298.8584,195.4183 L298.8584,195.4183 L298.8584,197.4163 L321.5144,180.4323 L298.8584,163.4483 L298.8584,165.4443 C298.8584,169.0263 295.9444,171.9403 292.3634,171.9403 C281.2544,171.6963 270.3194,174.5333 260.7494,180.1473 C258.7674,181.3533 256.2544,181.3973 254.2104,180.2493 C252.1674,179.1013 250.8974,176.9313 250.8974,174.5863 L250.8974,174.5863 L250.8974,145.4613 C250.8974,141.8803 253.8114,138.9663 257.3924,138.9663 L257.3924,138.9663 L259.3894,138.9663 L242.4054,116.3103 Z M342.3203,228.889 C345.9023,228.889 348.8163,231.803 348.8163,235.385 L348.8163,235.385 L348.8163,245.376 C348.8163,248.958 345.9023,251.872 342.3203,251.872 C338.7383,251.872 335.8243,248.958 335.8243,245.376 L335.8243,245.376 L335.8243,235.385 C335.8243,231.803 338.7383,228.889 342.3203,228.889 Z M362.3027,218.8978 C365.8847,218.8978 368.7987,221.8118 368.7987,225.3938 C368.7987,228.9748 365.8847,231.8888 362.3027,231.8888 L362.3027,231.8888 L352.3117,231.8888 C348.7307,231.8888 345.8167,228.9748 345.8167,225.3938 C345.8167,221.8118 348.7307,218.8978 352.3117,218.8978 L352.3117,218.8978 Z M332.3291,218.8978 C335.9101,218.8978 338.8241,221.8118 338.8241,225.3938 C338.8241,228.9748 335.9101,231.8888 332.3291,231.8888 L332.3291,231.8888 L322.3371,231.8888 C318.7561,231.8888 315.8421,228.9748 315.8421,225.3938 C315.8421,221.8118 318.7561,218.8978 322.3371,218.8978 L322.3371,218.8978 Z M342.3202,198.9147 C345.9022,198.9147 348.8162,201.8287 348.8162,205.4107 L348.8162,205.4107 L348.8162,215.4017 C348.8162,218.9837 345.9022,221.8977 342.3202,221.8977 C338.7382,221.8977 335.8242,218.9837 335.8242,215.4017 L335.8242,215.4017 L335.8242,205.4107 C335.8242,201.8287 338.7382,198.9147 342.3202,198.9147 Z M157.4785,128.9745 C161.0605,128.9745 163.9745,131.8885 163.9745,135.4705 L163.9745,135.4705 L163.9745,145.4615 C163.9745,149.0435 161.0605,151.9575 157.4785,151.9575 C153.8965,151.9575 150.9825,149.0435 150.9825,145.4615 L150.9825,145.4615 L150.9825,135.4705 C150.9825,131.8885 153.8965,128.9745 157.4785,128.9745 Z M177.4606,118.9829 C181.0426,118.9829 183.9566,121.8969 183.9566,125.4789 C183.9566,129.0609 181.0426,131.9749 177.4606,131.9749 L177.4606,131.9749 L167.4696,131.9749 C163.8886,131.9749 160.9746,129.0609 160.9746,125.4789 C160.9746,121.8969 163.8886,118.9829 167.4696,118.9829 L167.4696,118.9829 Z M147.4874,118.9829 C151.0684,118.9829 153.9824,121.8969 153.9824,125.4789 C153.9824,129.0609 151.0684,131.9749 147.4874,131.9749 L147.4874,131.9749 L137.4954,131.9749 C133.9144,131.9749 131.0004,129.0609 131.0004,125.4789 C131.0004,121.8969 133.9144,118.9829 137.4954,118.9829 L137.4954,118.9829 Z M157.4785,99.0003 C161.0605,99.0003 163.9745,101.9143 163.9745,105.4963 L163.9745,105.4963 L163.9745,115.4873 C163.9745,119.0693 161.0605,121.9833 157.4785,121.9833 C153.8965,121.9833 150.9825,119.0693 150.9825,115.4873 L150.9825,115.4873 L150.9825,105.4963 C150.9825,101.9143 153.8965,99.0003 157.4785,99.0003 Z" id="Primary-shape" fill="#19B3EE" fill-rule="nonzero"></path>
        <path d="M260.8887,346.5399 C260.8887,351.4639 255.9457,356.0599 248.9017,357.8979 L248.9017,335.1729 C255.9457,337.0199 260.8887,341.6189 260.8887,346.5399 M223.9227,309.0719 C223.9227,304.1469 228.8667,299.5519 235.9097,297.7129 L235.9097,320.4459 C228.8667,318.5909 223.9227,313.9889 223.9227,309.0719 M223.9227,346.5399 C223.9227,342.9579 221.0087,340.0439 217.4267,340.0439 C213.8457,340.0439 210.9317,342.9579 210.9317,346.5399 C210.9317,358.5559 221.3587,368.7629 235.9097,371.2009 L235.9097,375.2659 C235.9097,378.8469 238.8247,381.7609 242.4067,381.7609 C245.9877,381.7609 248.9017,378.8469 248.9017,375.2659 L248.9017,371.2009 C263.4527,368.7629 273.8797,358.5559 273.8797,346.5399 C273.8797,334.5239 263.4527,324.3169 248.9017,321.8789 L248.9017,297.7029 C255.9457,299.5419 260.8887,304.1379 260.8887,309.0609 C260.8887,312.6439 263.8027,315.5579 267.3847,315.5579 C270.9657,315.5579 273.8797,312.6439 273.8797,309.0609 C273.8797,297.0459 263.4527,286.8389 248.9017,284.3999 L248.9017,280.3469 C248.9017,276.7649 245.9877,273.8509 242.4067,273.8509 C238.8247,273.8509 235.9097,276.7649 235.9097,280.3469 L235.9097,284.4109 C221.3587,286.8489 210.9317,297.0559 210.9317,309.0719 C210.9317,321.0879 221.3587,331.2949 235.9097,333.7319 L235.9097,357.9059 C228.8667,356.0599 223.9227,351.4609 223.9227,346.5399" id="Secondary-shape" fill="#14DE2D"></path>
    </g>
</svg>