<?xml version="1.0" encoding="UTF-8"?>
<svg width="500px" height="500px" viewBox="0 0 500 500" version="1.1" xmlns="http://www.w3.org/2000/svg" xmlns:xlink="http://www.w3.org/1999/xlink">
    <title>Icons / Family / Sandbox</title>
    <g id="Icons-/-Family-/-Sandbox" stroke="none" stroke-width="1" fill="none" fill-rule="evenodd">
        <path d="M387.667,149 C411.165,149.028 430.305,168.167 430.334,191.665 L430.334,191.665 L430.334,308.333 C430.305,331.832 411.165,350.972 387.668,351 L387.668,351 L112.666,351 C89.168,350.972 70.028,331.832 70,308.334 C70,303.187 74.188,299 79.334,299 C84.48,299 88.667,303.187 88.667,308.333 C88.667,321.566 99.434,332.333 112.667,332.333 L112.667,332.333 L387.667,332.333 C400.9,332.333 411.667,321.566 411.667,308.333 L411.667,308.333 L411.667,191.667 C411.667,178.433 400.9,167.667 387.667,167.667 L387.667,167.667 L112.667,167.667 C99.434,167.667 88.667,178.433 88.667,191.667 L88.667,191.667 L88.667,241.667 C88.667,246.813 84.48,251 79.334,251 C74.188,251 70,246.813 70,241.667 L70,241.667 L70,191.667 C70.028,168.167 89.168,149.028 112.666,149 L112.666,149 Z M229.334,282.333 C234.48,282.333 238.667,286.521 238.667,291.667 C238.667,296.813 234.48,301 229.334,301 L229.334,301 L212.667,301 C207.521,301 203.334,296.813 203.334,291.667 C203.334,286.521 207.521,282.333 212.667,282.333 L212.667,282.333 Z M371,282.333 C376.146,282.333 380.334,286.52 380.334,291.667 C380.334,296.813 376.146,301 371,301 L371,301 L262.667,301 C257.521,301 253.334,296.813 253.334,291.667 C253.334,286.52 257.521,282.333 262.667,282.333 L262.667,282.333 Z M79.334,265.667 C84.48,265.667 88.667,269.854 88.667,275 C88.667,280.146 84.48,284.333 79.334,284.333 C74.188,284.333 70,280.146 70,275 C70,269.854 74.188,265.667 79.334,265.667 Z M371,240.6665 C376.146,240.6665 380.334,244.8535 380.334,249.9995 C380.334,255.1465 376.146,259.3335 371,259.3335 L371,259.3335 L362.667,259.3335 C357.521,259.3335 353.334,255.1465 353.334,249.9995 C353.334,244.8535 357.521,240.6665 362.667,240.6665 L362.667,240.6665 Z M329.334,240.666 C334.48,240.666 338.667,244.854 338.667,250 C338.667,255.146 334.48,259.333 329.334,259.333 L329.334,259.333 L212.667,259.333 C207.521,259.333 203.334,255.146 203.334,250 C203.334,244.854 207.521,240.666 212.667,240.666 L212.667,240.666 Z M229.334,198.9995 C234.48,198.9995 238.667,203.1875 238.667,208.3335 C238.667,213.4795 234.48,217.6665 229.334,217.6665 L229.334,217.6665 L212.667,217.6665 C207.521,217.6665 203.334,213.4795 203.334,208.3335 C203.334,203.1875 207.521,198.9995 212.667,198.9995 L212.667,198.9995 Z M371,199 C376.146,199 380.334,203.187 380.334,208.333 C380.334,213.479 376.146,217.667 371,217.667 L371,217.667 L262.667,217.667 C257.521,217.667 253.334,213.479 253.334,208.333 C253.334,203.187 257.521,199 262.667,199 L262.667,199 Z" id="Primary-shape" fill="#19B3EE" fill-rule="nonzero"></path>
        <path d="M146,207.333 C169.526,207.333 188.667,226.474 188.667,250 C188.667,273.526 169.526,292.667 146,292.667 L146,292.667 C122.501,292.638 103.362,273.498 103.334,250.001 C103.334,226.474 122.474,207.333 146,207.333 Z M146,226 C132.767,226 122,236.766 122,250 C122,263.233 132.767,274 146,274 C159.233,274 170,263.233 170,250 C170,236.766 159.233,226 146,226 Z M146,240.666 C151.146,240.666 155.334,244.854 155.334,250 C155.334,255.146 151.146,259.333 146,259.333 C140.854,259.333 136.667,255.146 136.667,250 C136.667,244.854 140.854,240.666 146,240.666 Z" id="Secondary-shape" fill="#14DE2D"></path>
    </g>
</svg>