<?xml version="1.0" encoding="UTF-8"?>
<svg width="500px" height="500px" viewBox="0 0 500 500" version="1.1" xmlns="http://www.w3.org/2000/svg" xmlns:xlink="http://www.w3.org/1999/xlink">
    <title>Icons / Family / Shield</title>
    <g id="Icons-/-Family-/-Shield" stroke="none" stroke-width="1" fill="none" fill-rule="evenodd">
        <path d="M250.05067,101.000233 L250.527462,101.002403 C257.267462,101.092937 263.745462,103.674937 268.764462,108.272937 L268.764462,108.272937 L269.143462,108.629937 C288.550462,127.541937 311.335462,137.108937 340.863462,138.757937 C361.244462,139.892937 377.446462,156.753937 377.748462,177.143937 C377.790462,180.205937 377.869462,182.933937 377.989462,185.485937 L377.989462,185.485937 L378.003462,185.946937 C378.639462,219.460937 379.430462,261.145937 365.168462,299.824937 C357.186462,321.457937 345.095462,340.280937 329.229462,355.774937 C311.323462,373.260937 288.016462,387.101937 259.956462,396.914937 C258.658462,397.367937 257.317462,397.734937 255.970462,398.007937 C254.160462,398.364937 252.327462,398.559937 250.516462,398.584937 L250.516462,398.584937 L250.143462,398.584937 C248.235462,398.584937 246.293462,398.394937 244.371462,398.018937 C243.029462,397.748937 241.695462,397.385937 240.398462,396.939937 C212.267462,387.128937 188.919462,373.289937 170.998462,355.804937 C155.119462,340.306937 143.028462,321.483937 135.062462,299.860937 C120.850462,261.294937 121.644462,219.686937 122.282462,186.253937 L122.282462,186.253937 L122.299462,185.521937 C122.419462,182.942937 122.498462,180.214937 122.542462,177.148937 C122.844462,156.755937 139.046462,139.892937 159.428462,138.757937 C188.959462,137.108937 211.740462,127.541937 231.122462,108.647937 L231.122462,108.647937 L231.507462,108.289937 C236.743462,103.488937 243.529462,100.909937 250.527462,101.002403 Z M250.132462,118.805937 L250.132462,120.305937 C248.089462,120.305937 246.113462,121.086937 244.567462,122.504937 L244.567462,122.504937 L244.481462,122.583937 C221.611462,144.838937 194.918462,156.110937 160.503462,158.030937 C150.193462,158.605937 141.997462,167.126937 141.844462,177.429937 C141.798462,180.652937 141.714462,183.541937 141.589462,186.261937 L141.589462,186.261937 L141.583462,186.639937 C140.975462,218.445937 140.219462,258.029937 153.175462,293.186937 C160.142462,312.094937 170.674462,328.514937 184.480462,341.989937 C200.363462,357.484937 221.300462,369.835937 246.710462,378.696937 C247.166462,378.854937 247.661462,378.988937 248.137462,379.085937 C248.787462,379.212937 249.483462,379.280937 250.143462,379.280937 L250.143462,379.280937 L250.319462,379.280937 C250.918462,379.270937 251.556462,379.201937 252.193462,379.077937 C252.646462,378.984937 253.133462,378.850937 253.591462,378.689937 C278.960462,369.818937 299.871462,357.462937 315.743462,341.963937 C329.539462,328.490937 340.075462,312.065937 347.057462,293.144937 C360.061462,257.874937 359.309462,218.229937 358.704462,186.373937 C358.576462,183.606937 358.493462,180.696937 358.446462,177.423937 C358.293462,167.124937 350.096462,158.605937 339.787462,158.030937 C305.357462,156.109937 278.650462,144.826937 255.741462,122.522937 L255.741462,122.522937 L255.669462,122.453937 C254.180462,121.104937 252.249462,120.333937 250.257462,120.307937 L250.257462,120.307937 L250.132462,118.805937 Z M250.411662,170.788737 C293.827662,170.943737 329.144662,206.384737 329.144662,249.792737 C329.144662,293.202737 293.827662,328.645737 250.416662,328.800737 L250.416662,328.800737 L250.139662,328.800737 C206.575662,328.800737 171.132662,293.358737 171.132662,249.792737 C171.132662,206.229737 206.575662,170.788737 250.139662,170.788737 L250.139662,170.788737 Z M250.358662,190.092737 L250.139662,190.092737 C217.219662,190.092737 190.436662,216.873737 190.436662,249.792737 C190.436662,282.713737 217.219662,309.496737 250.139662,309.496737 L250.139662,309.496737 L250.383662,309.496737 C283.165662,309.379737 309.840662,282.596737 309.840662,249.792737 C309.840662,216.997737 283.157662,190.216737 250.358662,190.092737 L250.358662,190.092737 Z" id="Primary-shape" fill="#19B3EE" fill-rule="nonzero"></path>
        <path d="M282.680762,227.201137 C280.858762,225.374137 278.432762,224.368137 275.851762,224.368137 L275.847762,224.368137 C273.265762,224.368137 270.838762,225.373137 269.013762,227.200137 L237.860762,258.353137 L230.177762,250.671137 C228.351762,248.845137 225.924762,247.840137 223.342762,247.840137 C220.760762,247.840137 218.333762,248.846137 216.509762,250.671137 C212.744762,254.440137 212.744762,260.571137 216.510762,264.338137 L231.023762,278.856137 C232.849762,280.680137 235.278762,281.685137 237.860762,281.685137 C240.443762,281.685137 242.869762,280.680137 244.695762,278.855137 L282.679762,240.868137 C284.504762,239.044137 285.510762,236.618137 285.510762,234.035137 C285.510762,231.453137 284.505762,229.027137 282.680762,227.201137" id="Secondary-shape" fill="#14DE2D"></path>
    </g>
</svg>