<?xml version="1.0" encoding="UTF-8"?>
<svg width="500px" height="500px" viewBox="0 0 500 500" version="1.1" xmlns="http://www.w3.org/2000/svg" xmlns:xlink="http://www.w3.org/1999/xlink">
    <title>Icons / Family / Support</title>
    <g id="Icons-/-Family-/-Support" stroke="none" stroke-width="1" fill="none" fill-rule="evenodd">
        <path d="M277.4385,368.749 L246.6895,368.749 C242.3465,368.749 238.8145,365.216 238.8145,360.874 C238.8145,356.532 242.3465,352.999 246.6895,352.999 L277.4385,352.999 C281.7815,352.999 285.3135,356.532 285.3135,360.874 C285.3135,365.216 281.7815,368.749 277.4385,368.749 L277.4385,368.749 Z M139.5005,272.189 C139.5115,264.929 145.4285,259.012 152.6875,259 L169.3755,259 L169.3755,313.312 L152.6895,313.312 C145.4285,313.301 139.5115,307.384 139.5005,300.125 L139.5005,272.189 Z M331.6265,313.312 L331.6265,258.936 L336.8675,258.936 C337.1775,258.975 337.4915,259 337.8115,259 C338.1315,259 338.4455,258.975 338.7555,258.936 L348.3095,258.936 C355.5715,258.949 361.4885,264.866 361.5005,272.124 L361.5005,300.125 C361.4875,307.386 355.5715,313.301 348.3125,313.312 L331.6265,313.312 Z M345.5615,243.437 L345.5615,211.062 C345.5615,158.645 302.9175,116 250.5005,116 C198.0835,116 155.4385,158.645 155.4385,211.062 L155.4385,243.437 L152.6865,243.437 C136.8815,243.45 124.0135,256.318 124.0005,272.124 L124.0005,300.126 C124.0135,315.934 136.8815,328.802 152.6875,328.812 L177.1295,328.812 C181.3895,328.801 184.8645,325.326 184.8755,321.062 L184.8755,251.191 C184.8815,249.147 184.0575,247.146 182.6135,245.702 C181.1715,244.262 179.1795,243.437 177.1435,243.437 L177.1215,243.437 L170.9385,243.437 L170.9385,211.062 C170.9385,167.192 206.6295,131.5 250.5005,131.5 C294.3705,131.5 330.0615,167.192 330.0615,211.062 L330.0615,243.437 L323.8735,243.437 C319.6135,243.449 316.1385,246.924 316.1265,251.186 L316.1265,321.066 C316.1385,325.326 319.6135,328.801 323.8765,328.812 L330.0615,328.812 L330.0615,335.623 C330.0455,345.258 322.1955,353.108 312.5635,353.124 L300.2645,353.125 C300.0195,353.133 299.7755,353.149 299.5335,353.175 C296.2785,343.879 287.3815,337.499 277.4435,337.499 L246.6895,337.499 C233.8005,337.499 223.3145,347.985 223.3145,360.874 C223.3145,373.763 233.8005,384.249 246.6895,384.249 L277.4415,384.249 C287.3525,384.229 296.2435,377.858 299.5225,368.597 C299.7895,368.621 300.0545,368.63 300.3125,368.624 L312.5645,368.624 C330.7445,368.608 345.5455,353.806 345.5615,335.625 L345.5615,328.812 L348.3135,328.812 C364.1215,328.802 376.9895,315.934 377.00055,300.125 L377.00055,272.189 C377.0175,256.355 364.1495,243.457 348.3145,243.437 L345.5615,243.437 Z" id="Primary-shape" fill="#19B3EE" fill-rule="nonzero"></path>
        <path d="M147.438,279.46978 C147.443155,275.994305 150.215975,273.161745 153.617682,273.156 L161.438,273.156 L161.438,299.156 L153.618619,299.156 C150.215975,299.150734 147.443155,296.318174 147.438,292.843178 L147.438,279.46978 Z" id="Secondary-shape" fill="#14DE2D"></path>
    </g>
</svg>