<?xml version="1.0" encoding="UTF-8"?>
<svg width="500px" height="500px" viewBox="0 0 500 500" version="1.1" xmlns="http://www.w3.org/2000/svg" xmlns:xlink="http://www.w3.org/1999/xlink">
    <title>Icons / Family / Team</title>
    <g id="Icons-/-Family-/-Team" stroke="none" stroke-width="1" fill="none" fill-rule="evenodd">
        <path d="M156.2545,353.1252 C167.0145,353.1252 176.3925,360.4512 178.9955,370.8932 L178.9955,370.8932 L184.4395,392.7232 C185.3595,396.4202 182.5645,400.0002 178.7535,400.0002 L178.7535,400.0002 L105.8615,400.0002 C102.0525,400.0002 99.2555,396.4202 100.1775,392.7232 L100.1775,392.7232 L105.6205,370.8932 C108.2235,360.4512 117.6015,353.1252 128.3615,353.1252 L128.3615,353.1252 Z M371.6393,353.1252 C382.3993,353.1252 391.7773,360.4512 394.3793,370.8932 L394.3793,370.8932 L399.8233,392.7232 C400.7443,396.4202 397.9483,400.0002 394.1383,400.0002 L394.1383,400.0002 L321.2463,400.0002 C317.4363,400.0002 314.6393,396.4202 315.5613,392.7232 L315.5613,392.7232 L321.0043,370.8932 C323.6083,360.4512 332.9863,353.1252 343.7453,353.1252 L343.7453,353.1252 Z M228.3136,374.0553 C242.7046,376.9783 257.2976,376.9783 271.6876,374.0553 C276.4426,373.0873 281.0846,376.1613 282.0516,380.9173 C283.0176,385.6743 279.9446,390.3133 275.1876,391.2803 C266.8316,392.9793 258.4156,393.8283 250.0006,393.8283 C241.5856,393.8283 233.1696,392.9793 224.8136,391.2803 C220.0556,390.3143 216.9826,385.6753 217.9496,380.9173 C218.9156,376.1603 223.5546,373.0853 228.3136,374.0553 Z M142.3082,288.6721 C155.2522,288.6721 165.7452,299.1651 165.7452,312.1091 C165.7452,325.0541 155.2522,335.5471 142.3082,335.5471 C129.3642,335.5471 118.8712,325.0541 118.8712,312.1091 C118.8712,299.1651 129.3642,288.6721 142.3082,288.6721 Z M357.693,288.6721 C370.636,288.6721 381.13,299.1651 381.13,312.1091 C381.13,325.0541 370.636,335.5471 357.693,335.5471 C344.749,335.5471 334.255,325.0541 334.255,312.1091 C334.255,299.1651 344.749,288.6721 357.693,288.6721 Z M173.3511,178.7584 C176.7841,182.1894 176.7841,187.7554 173.3511,191.1874 C152.9401,211.5994 141.6641,238.7354 141.6021,267.5964 C141.5911,272.4454 137.6591,276.3674 132.8131,276.3674 L132.7931,276.3674 C127.9401,276.3564 124.0131,272.4134 124.023081,267.5594 C124.0951,234.0164 137.2001,202.4804 160.9221,178.7584 C164.3541,175.3254 169.9191,175.3254 173.3511,178.7584 Z M339.0781,178.7584 C362.8001,202.4794 375.9051,234.0164 375.977119,267.5594 C375.9871,272.4134 372.0601,276.3574 367.2071,276.3674 L367.1881,276.3674 C362.3421,276.3674 358.4101,272.4454 358.3991,267.5964 C358.3361,238.7354 347.0611,211.5994 326.6481,191.1874 C323.2161,187.7554 323.2161,182.1904 326.6481,178.7584 C330.0811,175.3254 335.6451,175.3254 339.0781,178.7584 Z M263.9469,164.4533 C274.7069,164.4533 284.0849,171.7803 286.6869,182.2213 L286.6869,182.2213 L292.1309,204.0513 C293.0519,207.7483 290.2559,211.3283 286.4459,211.3283 L286.4459,211.3283 L213.5539,211.3283 C209.7439,211.3283 206.9479,207.7483 207.8689,204.0513 L207.8689,204.0513 L213.3119,182.2213 C215.9159,171.7803 225.2939,164.4533 236.0539,164.4533 L236.0539,164.4533 Z M250.0006,100.0002 C262.9446,100.0002 273.4376,110.4942 273.4376,123.4372 C273.4376,136.3822 262.9446,146.8752 250.0006,146.8752 C237.0566,146.8752 226.5636,136.3822 226.5636,123.4372 C226.5636,110.4942 237.0566,100.0002 250.0006,100.0002 Z" id="Primary-shape" fill="#19B3EE" fill-rule="nonzero"></path>
        <path d="M236.4332,308.9318 C234.1842,308.9318 231.9352,308.0738 230.2192,306.3578 L214.4892,290.6268 C211.0562,287.1958 211.0562,281.6298 214.4892,278.1978 C217.9202,274.7658 223.4862,274.7658 226.9182,278.1978 L236.4332,287.7128 L273.0822,251.0638 C276.5142,247.6318 282.0792,247.6318 285.5122,251.0638 C288.9452,254.4948 288.9452,260.0608 285.5122,263.4938 L242.6492,306.3568 C240.9322,308.0738 238.6832,308.9318 236.4332,308.9318" id="Secondary-shape" fill="#14DE2D"></path>
    </g>
</svg>