<svg id="Calque_1" data-name="Calque 1" xmlns="http://www.w3.org/2000/svg" viewBox="0 0 700 700"><title>safari-pinned-tab</title><g id="iPad"><path id="Combined-Shape" d="M87.5,0h525A87.5,87.5,0,0,1,700,87.5v525A87.5,87.5,0,0,1,612.5,700H87.5A87.5,87.5,0,0,1,0,612.5V87.5A87.5,87.5,0,0,1,87.5,0ZM221.67,303.33H175V466.67h46.67V303.33Zm140,0H315V466.67h46.67V303.33ZM560,513.33H116.67V560H560V513.33Zm-58.33-210H455V466.67h46.67V303.33Zm-163.33-210L116.67,210v46.67H560V210Z"/><polyline points="338.33 146.07 216.77 210 459.9 210 338.33 146.07"/></g></svg>