
<svg width="68px" height="68px" viewBox="0 0 68 68" version="1.1" xmlns="http://www.w3.org/2000/svg" xmlns:xlink="http://www.w3.org/1999/xlink">
    <defs>
        <path d="M17.5828,27.5503 C17.5828,27.1143 17.2298,26.7623 16.7938,26.7623 C16.3578,26.7623 16.0038,27.1143 16.0038,27.5503 C16.0038,27.9853 16.3578,28.3393 16.7938,28.3393 C17.2298,28.3393 17.5828,27.9853 17.5828,27.5503 Z M19.5828,27.5503 C19.5828,29.0898233 18.3344164,30.3393 16.7938,30.3393 C15.2537767,30.3393 14.0038,29.0904159 14.0038,27.5503 C14.0038,26.0085404 15.2544132,24.7623 16.7938,24.7623 C18.3337767,24.7623 19.5828,26.0091359 19.5828,27.5503 Z M10.2758956,66 L57.7241044,66 C62.2951159,66 66,62.2941427 66,57.7241044 L66,10.2758956 C66,5.70488413 62.2951159,2 57.7241044,2 L10.2758956,2 C5.70488413,2 2,5.70488413 2,10.2758956 L2,57.7241044 C2,62.2941427 5.70488413,66 10.2758956,66 Z M10.2758956,68 C4.60061435,68 -1.77635684e-15,63.3990119 -1.77635684e-15,57.7241044 L-1.77635684e-15,10.2758956 C-1.77635684e-15,4.60031463 4.60031463,3.55271368e-15 10.2758956,3.55271368e-15 L57.7241044,3.55271368e-15 C63.3996854,3.55271368e-15 68,4.60031463 68,10.2758956 L68,57.7241044 C68,63.3990119 63.3993856,68 57.7241044,68 L10.2758956,68 Z M17.5828,41.2753 C17.5828,40.8383 17.2298,40.4863 16.7938,40.4863 C16.3578,40.4863 16.0038,40.8383 16.0038,41.2753 C16.0038,41.7113 16.3578,42.0643 16.7938,42.0643 C17.2298,42.0643 17.5828,41.7113 17.5828,41.2753 Z M19.5828,41.2753 C19.5828,42.8158695 18.3343695,44.0643 16.7938,44.0643 C15.2538223,44.0643 14.0038,42.8164631 14.0038,41.2753 C14.0038,39.733089 15.2538672,38.4863 16.7938,38.4863 C18.3343232,38.4863 19.5828,39.7336835 19.5828,41.2753 Z M52.6998,41.2753 L48.7618,41.2753 L52.6998,41.2753 Z M52.6998,42.2753 L48.7618,42.2753 C47.4284667,42.2753 47.4284667,40.2753 48.7618,40.2753 L52.6998,40.2753 C54.0331333,40.2753 54.0331333,42.2753 52.6998,42.2753 Z M52.6998,34.4123 L48.7618,34.4123 L52.6998,34.4123 Z M52.6998,35.4123 L48.7618,35.4123 C47.4284667,35.4123 47.4284667,33.4123 48.7618,33.4123 L52.6998,33.4123 C54.0331333,33.4123 54.0331333,35.4123 52.6998,35.4123 Z M52.6998,27.5503 L48.7618,27.5503 L52.6998,27.5503 Z M52.6998,28.5503 L48.7618,28.5503 C47.4284667,28.5503 47.4284667,26.5503 48.7618,26.5503 L52.6998,26.5503 C54.0331333,26.5503 54.0331333,28.5503 52.6998,28.5503 Z M43.8828,41.2753 L22.6238,41.2753 L43.8828,41.2753 Z M43.8828,42.2753 L22.6238,42.2753 C21.2904667,42.2753 21.2904667,40.2753 22.6238,40.2753 L43.8828,40.2753 C45.2161333,40.2753 45.2161333,42.2753 43.8828,42.2753 Z M43.8828,34.4123 L22.6238,34.4123 L43.8828,34.4123 Z M43.8828,35.4123 L22.6238,35.4123 C21.2904667,35.4123 21.2904667,33.4123 22.6238,33.4123 L43.8828,33.4123 C45.2161333,33.4123 45.2161333,35.4123 43.8828,35.4123 Z M43.8828,27.5503 L22.6238,27.5503 L43.8828,27.5503 Z M43.8828,28.5503 L22.6238,28.5503 C21.2904667,28.5503 21.2904667,26.5503 22.6238,26.5503 L43.8828,26.5503 C45.2161333,26.5503 45.2161333,28.5503 43.8828,28.5503 Z M58.6288,48.2013 C58.6288,50.8434758 56.4861938,52.9853 53.8438,52.9853 L14.9658,52.9853 C12.3235153,52.9853 10.1818,50.8435847 10.1818,48.2013 L10.1818,20.6233 C10.1818,17.9810153 12.3235153,15.8393 14.9658,15.8393 L53.8438,15.8393 C56.4861938,15.8393 58.6288,17.9811242 58.6288,20.6233 L58.6288,48.2013 Z M56.6288,48.2013 L56.6288,20.6233 C56.6288,19.0858572 55.3817877,17.8393 53.8438,17.8393 L14.9658,17.8393 C13.4280847,17.8393 12.1818,19.0855847 12.1818,20.6233 L12.1818,48.2013 C12.1818,49.7390153 13.4280847,50.9853 14.9658,50.9853 L53.8438,50.9853 C55.3817877,50.9853 56.6288,49.7387428 56.6288,48.2013 Z" id="path-1"></path>
        <linearGradient x1="100%" y1="50%" x2="0%" y2="50%" id="linearGradient-3">
            <stop stop-color="#2DB7BA" offset="0%"></stop>
            <stop stop-color="#14BC7D" offset="51.6663656%"></stop>
            <stop stop-color="#14DE2D" offset="100%"></stop>
        </linearGradient>
    </defs>
    <g id="API-Products---detail-page" stroke="none" stroke-width="1" fill="none" fill-rule="evenodd">
        <g id="API-Product-page-scroll-1" transform="translate(-477.000000, -346.000000)">
            <g id="Threesome" transform="translate(0.000000, 200.000000)">
                <g id="Some-2" transform="translate(361.000000, 94.000000)">
                    <g id="Icons-/-BNPPF-/-Account-Statement" transform="translate(116.000000, 52.000000)">
                        <mask id="mask-2" fill="white">
                            <use xlink:href="#path-1"></use>
                        </mask>
                        <use id="Path" fill="#15A748" fill-rule="nonzero" xlink:href="#path-1"></use>
                        <g id="colours-/-gradient" mask="url(#mask-2)" fill="url(#linearGradient-3)" fill-rule="nonzero">
                            <rect id="Rectangle" x="0" y="0" width="68" height="68"></rect>
                        </g>
                    </g>
                </g>
            </g>
        </g>
    </g>
</svg>
