
<svg width="68px" height="68px" viewBox="0 0 68 68" version="1.1" xmlns="http://www.w3.org/2000/svg" xmlns:xlink="http://www.w3.org/1999/xlink">
    <defs>
        <path d="M49.0628967,22.0493812 C49.4933579,21.703373 50.1228106,21.7718356 50.4688188,22.2022967 C50.814827,22.6327579 50.7463644,23.2622106 50.3159033,23.6082188 L38.5519033,33.0642188 C38.2478419,33.3086258 37.8294087,33.3538995 37.4801074,33.1801851 L28.5261074,28.7271851 C28.0315999,28.4812568 27.8300866,27.8810149 28.0760149,27.3865074 C28.3219432,26.8919999 28.9221851,26.6904866 29.4166926,26.9364149 L37.7976882,31.1044485 L49.0628967,22.0493812 Z M16.2484,32.2848 C16.2484,32.8370847 15.8006847,33.2848 15.2484,33.2848 C14.6961153,33.2848 14.2484,32.8370847 14.2484,32.2848 C14.2484,19.2085153 24.8491153,8.6078 37.9254,8.6078 C51.0023462,8.6078 61.6024,19.2081767 61.6024,32.2848 C61.6024,45.3620847 51.0026847,55.9618 37.9254,55.9618 C37.3731153,55.9618 36.9254,55.5140847 36.9254,54.9618 C36.9254,54.4095153 37.3731153,53.9618 37.9254,53.9618 C49.8981153,53.9618 59.6024,44.2575153 59.6024,32.2848 C59.6024,20.3127326 49.8977631,10.6078 37.9254,10.6078 C25.9536847,10.6078 16.2484,20.3130847 16.2484,32.2848 Z M19.4551573,52.831502 C19.9037771,52.509386 20.5285819,52.6119376 20.850698,53.0605573 C21.172814,53.5091771 21.0702624,54.1339819 20.6216427,54.456098 C20.2271636,54.7393401 20.1174,54.9963052 20.1174,55.5208 C20.1174,56.7758921 23.5176839,58.2178 27.8354,58.2178 C32.1539501,58.2178 35.5544,56.775936 35.5544,55.5208 C35.5544,55.2816416 35.3181242,54.9555646 34.7278683,54.5270012 C34.2809589,54.2025164 34.1817141,53.5771778 34.5061988,53.1302683 C34.8306836,52.6833589 35.4560222,52.5841141 35.9029317,52.9085988 C36.9590199,53.6753863 37.5544,54.4970522 37.5544,55.5208 C37.5544,58.3497079 33.1487464,60.2178 27.8354,60.2178 C22.5229103,60.2178 18.1174,58.3496207 18.1174,55.5208 C18.1174,54.3961619 18.4896156,53.5247761 19.4551573,52.831502 Z M19.6626546,49.2018632 C20.1110749,48.8794696 20.7359431,48.9816343 21.0583368,49.4300546 C21.3807304,49.8784749 21.2785657,50.5033431 20.8301454,50.8257368 C20.2829141,51.219171 20.0414,51.5888565 20.0414,51.8908 C20.0414,53.1448712 23.4429075,54.5868 27.7604,54.5868 C32.0785585,54.5868 35.4794,53.1450394 35.4794,51.8908 C35.4794,51.592448 35.2438091,51.2281142 34.7081644,50.8384896 C34.2615374,50.513616 34.1628368,49.8881913 34.4877104,49.4415644 C34.812584,48.9949374 35.4380087,48.8962368 35.8846356,49.2211104 C36.8914829,49.9534847 37.4794,50.8626799 37.4794,51.8908 C37.4794,54.7189137 33.0734085,56.5868 27.7604,56.5868 C22.4480347,56.5868 18.0414,54.718789 18.0414,51.8908 C18.0414,50.8532511 18.6398393,49.9372207 19.6626546,49.2018632 Z M27.7604,43.2628 C33.0737464,43.2628 37.4794,45.1308921 37.4794,47.9598 C37.4794,50.7879137 33.0734085,52.6558 27.7604,52.6558 C22.4480347,52.6558 18.0414,50.787789 18.0414,47.9598 C18.0414,45.1310168 22.4476968,43.2628 27.7604,43.2628 Z M27.7604,45.2628 C23.4425159,45.2628 20.0414,46.7048322 20.0414,47.9598 C20.0414,49.2138712 23.4429075,50.6558 27.7604,50.6558 C32.0785585,50.6558 35.4794,49.2140394 35.4794,47.9598 C35.4794,46.704664 32.0789501,45.2628 27.7604,45.2628 Z M8.90815733,50.148502 C9.35677711,49.826386 9.98158194,49.9289376 10.303698,50.3775573 C10.625814,50.8261771 10.5232624,51.4509819 10.0746427,51.773098 C9.52706669,52.1662661 9.2854,52.5358135 9.2854,52.8368 C9.2854,54.0917678 12.6865159,55.5338 17.0044,55.5338 C17.7196104,55.5338 18.4241093,55.4951385 19.1055866,55.4198478 C19.6545312,55.3591995 20.1487039,55.7550419 20.2093522,56.3039866 C20.2700005,56.8529312 19.8741581,57.3471039 19.3252134,57.4077522 C18.5706749,57.4911148 17.7928563,57.5338 17.0044,57.5338 C11.6916968,57.5338 7.2854,55.6655832 7.2854,52.8368 C7.2854,51.7996176 7.88449116,50.8835104 8.90815733,50.148502 Z M8.90885769,46.2479996 C9.35775495,45.9262704 9.98247115,46.0293604 10.3042004,46.4782577 C10.6259296,46.9271549 10.5228396,47.5518711 10.0739423,47.8736004 C9.52732031,48.2653699 9.2854,48.6354522 9.2854,48.9368 C9.2854,50.1911644 12.6873036,51.6338 17.0044,51.6338 C17.3730113,51.6338 17.6036519,51.6240502 17.8454175,51.6008032 C17.9848726,51.5873938 18.6343748,51.5088584 18.629365,51.5094386 C19.1779833,51.4459065 19.6742293,51.8391466 19.7377614,52.387765 C19.8012935,52.9363833 19.4080534,53.4326293 18.859435,53.4961614 C18.8899519,53.4926275 18.2048931,53.5754623 18.0368452,53.591621 C17.7272783,53.6213874 17.4336474,53.6338 17.0044,53.6338 C11.6925381,53.6338 7.2854,51.7648774 7.2854,48.9368 C7.2854,47.8992463 7.88523103,46.9816433 8.90885769,46.2479996 Z M8.84815733,42.449502 C9.29677711,42.127386 9.92158194,42.2299376 10.243698,42.6785573 C10.565814,43.1271771 10.4632624,43.7519819 10.0146427,44.074098 C9.44563022,44.4826578 9.2834,44.7195351 9.2834,44.9958 C9.2834,46.2505989 12.6832876,47.6918 17.0014,47.6918 C17.6638918,47.6918 18.3094384,47.6598682 18.9305346,47.5968999 C19.4800027,47.5411935 19.9705936,47.9414664 20.0263001,48.4909346 C20.0820065,49.0404027 19.6817336,49.5309936 19.1322654,49.5867001 C18.4433983,49.6565391 17.73055,49.6918 17.0014,49.6918 C11.6884066,49.6918 7.2834,47.8245323 7.2834,44.9958 C7.2834,43.9618348 7.80732479,43.1968361 8.84815733,42.449502 Z M8.82865461,38.6768632 C9.27707491,38.3544696 9.90194309,38.4566343 10.2243368,38.9050546 C10.5467304,39.3534749 10.4445657,39.9783431 9.99614539,40.3007368 C9.44995676,40.6934214 9.2084,41.0637692 9.2084,41.3658 C9.2084,42.6203325 12.6096375,44.0628 16.9274,44.0628 C21.2443285,44.0628 24.6454,42.6202887 24.6454,41.3658 C24.6454,41.0674058 24.4098777,40.7027261 23.8758683,40.3150012 C23.4289589,39.9905164 23.3297141,39.3651778 23.6541988,38.9182683 C23.9786836,38.4713589 24.6040222,38.3721141 25.0509317,38.6965988 C26.0571689,39.4271913 26.6454,40.3380007 26.6454,41.3658 C26.6454,44.1939149 22.2390485,46.0628 16.9274,46.0628 C11.6148948,46.0628 7.2084,44.1940021 7.2084,41.3658 C7.2084,40.3288928 7.80669359,39.4116064 8.82865461,38.6768632 Z M24.6454,37.4348 C24.6454,36.1797079 21.2451161,34.7378 16.9274,34.7378 C12.6088499,34.7378 9.2084,36.179664 9.2084,37.4348 C9.2084,38.689936 12.6088499,40.1318 16.9274,40.1318 C21.2451161,40.1318 24.6454,38.6898921 24.6454,37.4348 Z M26.6454,37.4348 C26.6454,40.2636207 22.2398897,42.1318 16.9274,42.1318 C11.6140536,42.1318 7.2084,40.2637079 7.2084,37.4348 C7.2084,34.6058921 11.6140536,32.7378 16.9274,32.7378 C22.2398897,32.7378 26.6454,34.6059793 26.6454,37.4348 Z M10.2758956,66 L57.7241044,66 C62.2951159,66 66,62.2941427 66,57.7241044 L66,10.2758956 C66,5.70488413 62.2951159,2 57.7241044,2 L10.2758956,2 C5.70488413,2 2,5.70488413 2,10.2758956 L2,57.7241044 C2,62.2941427 5.70488413,66 10.2758956,66 Z M10.2758956,68 C4.60061435,68 1.42108547e-14,63.3990119 1.42108547e-14,57.7241044 L1.42108547e-14,10.2758956 C1.42108547e-14,4.60031463 4.60031463,0 10.2758956,0 L57.7241044,0 C63.3996854,0 68,4.60031463 68,10.2758956 L68,57.7241044 C68,63.3990119 63.3993856,68 57.7241044,68 L10.2758956,68 Z" id="path-1"></path>
        <linearGradient x1="100%" y1="50%" x2="0%" y2="50%" id="linearGradient-3">
            <stop stop-color="#2DB7BA" offset="0%"></stop>
            <stop stop-color="#14BC7D" offset="51.6663656%"></stop>
            <stop stop-color="#14DE2D" offset="100%"></stop>
        </linearGradient>
    </defs>
    <g id="API-Products---detail-page" stroke="none" stroke-width="1" fill="none" fill-rule="evenodd">
        <g id="API-Product-page-scroll-1" transform="translate(-780.000000, -346.000000)">
            <g id="Threesome" transform="translate(0.000000, 200.000000)">
                <g id="Some-3" transform="translate(662.000000, 94.000000)">
                    <g id="Icons-/-BNPPF-/-Achieve-Efficiency" transform="translate(118.000000, 52.000000)">
                        <mask id="mask-2" fill="white">
                            <use xlink:href="#path-1"></use>
                        </mask>
                        <use id="Stroke-1" fill="#15A748" fill-rule="nonzero" xlink:href="#path-1"></use>
                        <g id="colours-/-gradient" mask="url(#mask-2)" fill="url(#linearGradient-3)" fill-rule="nonzero">
                            <rect id="Rectangle" x="0" y="0" width="68" height="68"></rect>
                        </g>
                    </g>
                </g>
            </g>
        </g>
    </g>
</svg>
