
<svg width="68px" height="68px" viewBox="0 0 68 68" version="1.1" xmlns="http://www.w3.org/2000/svg" xmlns:xlink="http://www.w3.org/1999/xlink">
    <defs>
        <path d="M34.3788,56.283 C31.4977502,56.283 29.5508,54.8942069 29.5508,51.231 C29.5508,50.2050293 29.4378504,48.3390409 29.2266601,45.6183165 C29.2004146,45.2802014 29.172598,44.9279931 29.1424897,44.5519319 C29.0917865,43.9186357 28.8986925,41.5587509 28.859534,41.0657962 C28.7688808,39.9245903 28.7278,39.3196848 28.7278,39.049 C28.7278,38.6133254 28.1273733,37.9522712 27.395664,37.8825593 C25.5061663,37.7038962 24.2078,36.4051201 24.2078,34.606 C24.2078,33.1028067 24.9697269,30.1292446 26.3632782,26.2722668 C27.9395897,21.9083852 30.6589577,19.3 34.3788,19.3 C38.0986423,19.3 40.8180103,21.9083852 42.3942952,26.272193 C43.7871568,30.127262 44.5488,33.1018772 44.5488,34.606 C44.5488,36.4054846 43.2519481,37.7039755 41.3626427,37.8824923 C40.5799743,37.9570588 40.0298,38.5397434 40.0298,39.049 C40.0298,39.3196848 39.9887192,39.9245903 39.898066,41.0657962 C39.8589075,41.5587509 39.6658135,43.9186357 39.6151103,44.5519319 C39.585002,44.9279931 39.5571854,45.2802014 39.5309399,45.6183165 C39.3197496,48.3390409 39.2068,50.2050293 39.2068,51.231 C39.2068,54.8942069 37.2598498,56.283 34.3788,56.283 Z M34.3788,54.283 C36.2722526,54.283 37.2068,53.6163713 37.2068,51.231 C37.2068,50.1336766 37.3214411,48.2397423 37.5369381,45.4635364 C37.5633163,45.1237116 37.5912586,44.7699121 37.6214897,44.3923181 C37.6723985,43.756453 37.8654241,41.3974043 37.9043465,40.9074225 C37.9886481,39.846175 38.0298,39.2402214 38.0298,39.049 C38.0298,37.4920111 39.3796886,36.0623564 41.1737308,35.8914343 C42.0744727,35.8063249 42.5488,35.3313981 42.5488,34.606 C42.5488,33.4020516 41.831148,30.5992451 40.5132782,26.9517332 C39.193458,23.2979258 37.1105235,21.3 34.3788,21.3 C31.6470765,21.3 29.564142,23.2979258 28.2442952,26.951807 C26.9257846,30.6010923 26.2078,33.4031613 26.2078,34.606 C26.2078,35.3306002 26.683333,35.8062834 27.5846427,35.8915077 C29.343959,36.0591217 30.7278,37.5826947 30.7278,39.049 C30.7278,39.2402214 30.7689519,39.846175 30.8532535,40.9074225 C30.8921759,41.3974043 31.0852015,43.756453 31.1361103,44.3923181 C31.1663414,44.7699121 31.1942837,45.1237116 31.2206619,45.4635364 C31.4361589,48.2397423 31.5508,50.1336766 31.5508,51.231 C31.5508,53.6163713 32.4853474,54.283 34.3788,54.283 Z M37.8038,11.938 C37.8038,10.0465454 36.270776,8.514 34.3788,8.514 C32.488324,8.514 30.9548,10.0470453 30.9548,11.938 C30.9548,13.8307153 32.4880847,15.364 34.3788,15.364 C36.2710153,15.364 37.8038,13.8312153 37.8038,11.938 Z M39.8038,11.938 C39.8038,14.9357847 37.3755847,17.364 34.3788,17.364 C31.3835153,17.364 28.9548,14.9352847 28.9548,11.938 C28.9548,8.94233594 31.3838943,6.514 34.3788,6.514 C37.3752057,6.514 39.8038,8.9418361 39.8038,11.938 Z M10.2758956,66 L57.7241044,66 C62.2951159,66 66,62.2941427 66,57.7241044 L66,10.2758956 C66,5.70488413 62.2951159,2 57.7241044,2 L10.2758956,2 C5.70488413,2 2,5.70488413 2,10.2758956 L2,57.7241044 C2,62.2941427 5.70488413,66 10.2758956,66 Z M10.2758956,68 C4.60061435,68 7.10542736e-15,63.3990119 7.10542736e-15,57.7241044 L7.10542736e-15,10.2758956 C7.10542736e-15,4.60031463 4.60031463,0 10.2758956,0 L57.7241044,0 C63.3996854,0 68,4.60031463 68,10.2758956 L68,57.7241044 C68,63.3990119 63.3993856,68 57.7241044,68 L10.2758956,68 Z M24.942055,47.0973595 C25.4655329,46.9213215 26.0326025,47.2029772 26.2086405,47.726455 C26.3846785,48.2499329 26.1030228,48.8170025 25.579545,48.9930405 C21.8702319,50.2404284 19.7308,52.1440248 19.7308,53.9862 C19.7308,57.2716062 26.2344703,60.3112 34.4048,60.3112 C42.5753126,60.3112 49.0798,57.2714922 49.0798,53.9862 C49.0798,52.1446598 46.9403718,50.2417454 43.2309826,48.9940161 C42.7075182,48.8179381 42.4259058,48.250847 42.6019839,47.7273826 C42.7780619,47.2039182 43.345153,46.9223058 43.8686174,47.0983839 C48.2996958,48.5888681 51.0798,51.0616317 51.0798,53.9862 C51.0798,58.7912229 43.5476132,62.3112 34.4048,62.3112 C25.2621853,62.3112 17.7308,58.7912872 17.7308,53.9862 C17.7308,51.0611951 20.51101,48.5874554 24.942055,47.0973595 Z" id="path-1"></path>
        <linearGradient x1="100%" y1="50%" x2="0%" y2="50%" id="linearGradient-3">
            <stop stop-color="#2DB7BA" offset="0%"></stop>
            <stop stop-color="#14BC7D" offset="51.6663656%"></stop>
            <stop stop-color="#14DE2D" offset="100%"></stop>
        </linearGradient>
    </defs>
    <g id="API-Products---detail-page" stroke="none" stroke-width="1" fill="none" fill-rule="evenodd">
        <g id="API-Product-page-scroll-1" transform="translate(-177.000000, -346.000000)">
            <g id="Threesome" transform="translate(0.000000, 200.000000)">
                <g id="Some-1" transform="translate(60.000000, 94.000000)">
                    <g id="Icons-/-BNPPF-/-Client-Centric" transform="translate(117.000000, 52.000000)">
                        <mask id="mask-2" fill="white">
                            <use xlink:href="#path-1"></use>
                        </mask>
                        <use id="Stroke-1" fill="#15A748" fill-rule="nonzero" xlink:href="#path-1"></use>
                        <g id="colours-/-gradient" mask="url(#mask-2)" fill="url(#linearGradient-3)" fill-rule="nonzero">
                            <rect id="Rectangle" x="0" y="0" width="68" height="68"></rect>
                        </g>
                    </g>
                </g>
            </g>
        </g>
    </g>
</svg>
