<?xml version="1.0" encoding="UTF-8"?>
<svg width="31px" height="31px" viewBox="0 0 31 31" version="1.1" xmlns="http://www.w3.org/2000/svg" xmlns:xlink="http://www.w3.org/1999/xlink">
    <!-- Generator: Sketch 52.6 (67491) - http://www.bohemiancoding.com/sketch -->
    <title>facebook</title>
    <desc>Created with Sketch.</desc>
    <g id="Page-1" stroke="none" stroke-width="1" fill="none" fill-rule="evenodd">
        <g id="Newsletter_BNP_Commercial_1_topic" transform="translate(-484.000000, -1425.000000)">
            <g id="SHARES" transform="translate(484.000000, 1425.000000)">
                <g id="SOME/28_Facebook-Copy">
                    <g id="Youtube" fill="#E6E6E6">
                        <rect id="Rectangle-14-Copy-3" x="0" y="0" width="31" height="31"></rect>
                    </g>
                    <g id="facebook-logo" transform="translate(11.071429, 6.642857)" fill="#A6A6A6">
                        <path d="M9.58905996,0.00391611343 L7.19908091,0 C4.51402141,0 2.778818,1.81805566 2.778818,4.63197897 L2.778818,6.76763143 L0.375800958,6.76763143 C0.168151755,6.76763143 0,6.93954881 0,7.15160635 L0,10.2459234 C0,10.4579809 0.16834349,10.6297025 0.375800958,10.6297025 L2.778818,10.6297025 L2.778818,18.4376495 C2.778818,18.649707 2.94696976,18.8214286 3.15461896,18.8214286 L6.28987267,18.8214286 C6.49752187,18.8214286 6.66567363,18.6495112 6.66567363,18.4376495 L6.66567363,10.6297025 L9.475361,10.6297025 C9.6830102,10.6297025 9.85116196,10.4579809 9.85116196,10.2459234 L9.85231237,7.15160635 C9.85231237,7.0497874 9.81262318,6.95227618 9.74225637,6.88021969 C9.67188956,6.8081632 9.57602197,6.76763143 9.47631967,6.76763143 L6.66567363,6.76763143 L6.66567363,4.95721219 C6.66567363,4.08705178 6.86872119,3.64531419 7.97867616,3.64531419 L9.58867649,3.64472677 C9.79613396,3.64472677 9.96428571,3.47280939 9.96428571,3.26094765 L9.96428571,0.38769523 C9.96428571,0.176029299 9.79632569,0.00430772478 9.58905996,0.00391611343 Z" id="Shape" fill-rule="nonzero"></path>
                    </g>
                </g>
            </g>
        </g>
    </g>
</svg>