<?xml version="1.0" encoding="UTF-8"?>
<svg width="46px" height="46px" viewBox="0 0 46 46" version="1.1" xmlns="http://www.w3.org/2000/svg" xmlns:xlink="http://www.w3.org/1999/xlink">
    <!-- Generator: Sketch 52.5 (67469) - http://www.bohemiancoding.com/sketch -->
    <title>Logo icon</title>
    <desc>Created with Sketch.</desc>
    <g id="API-Products" stroke="none" stroke-width="1" fill="none" fill-rule="evenodd">
        <g id="API-Products-page-scroll-3" transform="translate(-60.000000, -524.000000)">
            <g id="Footer" transform="translate(0.000000, 118.000000)">
                <g id="Group-3" transform="translate(60.000000, 406.000000)">
                    <g id="Logo-icon">
                        <path d="M34.88864,13.00736 C32.2016,14.58848 31.37888,14.72096 28.45664,16.46816 C30.15776,14.62304 30.74912,13.83776 31.80224,12.29312 C29.10848,12.4352 25.1936,12.75968 22.39904,13.37888 C24.83168,12.07904 29.65568,10.63424 32.2016,10.29056 C31.6112,9.47456 26.83232,6.88736 25.64384,6.38816 C29.42624,6.68288 34.05152,8.09696 36.29312,9.46688 C37.17536,9.19136 38.09216,9.17888 39.73376,9.03296 C39.3152,9.75008 39.29792,10.1648 37.68704,11.23328 C38.13344,12.42656 37.06688,18.98912 36.18656,20.72672 C36.15488,17.98112 35.91488,14.51456 34.88864,13.00736" id="Fill-1" fill="#FFFFFE" fill-rule="evenodd"></path>
                        <path d="M15.21344,36.54848 C13.6688,35.97728 12.55712,35.30912 11.33312,34.1648 C11.69984,33.15296 12.11744,32.36288 12.8,31.34912 C11.54432,31.53728 10.61984,31.6784 9.53792,31.88288 C8.6576,30.34208 8.25824,28.85792 7.80992,26.78624 C7.56992,28.97984 7.47872,30.54464 7.78784,32.29088 C6.7952,32.56736 6.09248,32.80832 5.27552,33.17792 C6.41984,33.87776 7.34432,34.41632 8.62208,35.01248 C9.30944,36.48608 10.01984,37.48064 11.17184,38.61632 C10.90112,37.64864 10.83008,36.87968 10.94048,35.864 C12.36896,36.28064 13.59104,36.49856 15.21344,36.54848" id="Fill-2" fill="#FFFFFE" fill-rule="evenodd"></path>
                        <path d="M19.23296,14.7248 C18.752,15.3488 18.19424,16.51328 18.04352,17.05376 C22.02272,17.59328 25.21664,19.63712 25.21664,19.63712 C21.73664,19.01984 19.90208,19.0976 18.60416,19.21376 C17.31392,19.33568 17.04896,19.48736 17.04896,19.48736 C16.11008,21.54368 15.54656,25.07648 15.54656,25.07648 C14.91392,23.54816 13.99904,20.49344 13.99904,20.49344 C12.2432,21.43232 8.20448,25.22912 8.20448,25.22912 C10.424,20.7824 12.67808,18.76064 12.67808,18.76064 C11.9024,17.9744 9.86912,17.58176 8.38208,17.51648 C9.15392,17.2016 11.13536,16.832 12.65696,16.76384 C14.18048,16.71968 15.10208,16.80608 15.10208,16.80608 C16.46048,15.73376 18.52256,14.82944 19.23296,14.7248" id="Fill-3" fill="#FFFFFE" fill-rule="evenodd"></path>
                        <g id="Group-7" stroke-width="1" fill-rule="evenodd" transform="translate(17.480000, 33.120000)" fill="#FFFFFE">
                            <path d="M5.97504,0.67136 C5.27232,1.62464 4.66752,2.37344 3.88896,3.24416 C2.54976,3.61952 1.48128,3.75968 0.17568,3.75968 C0.97728,4.17344 1.75296,4.42016 2.58912,4.59584 C1.75296,5.35232 1.0464,5.89184 0.23424,6.40832 C1.59552,6.08576 3.384,5.50784 4.71648,4.7216 C5.41248,4.74752 6.0624,4.7024 6.53952,4.60832 C6.41568,4.20512 6.33984,3.90368 6.23808,3.37856 C7.4928,2.408 8.40288,1.52864 9.4464,0.47168 C8.33568,1.24736 7.3776,1.82528 6.09216,2.43296 C6.03648,1.8416 6.0048,1.33856 5.97504,0.67136" id="Fill-4"></path>
                        </g>
                        <rect id="Rectangle" stroke="#FFFFFF" stroke-width="1" fill-rule="nonzero" x="0.5" y="0.5" width="45" height="45"></rect>
                    </g>
                </g>
            </g>
        </g>
    </g>
</svg>