
<svg width="222px" height="50px" viewBox="0 0 222 50" version="1.1" xmlns="http://www.w3.org/2000/svg" xmlns:xlink="http://www.w3.org/1999/xlink">
    <g id="Profile-&amp;-Settings" stroke="none" stroke-width="1" fill="none" fill-rule="evenodd">
        <g id="Backup-Codes" transform="translate(-384.000000, -105.000000)">
            <g id="logo" transform="translate(384.000000, 105.000000)">
                <g id="FORTIS_BL_R" stroke-width="1" fill-rule="evenodd" transform="translate(5.000000, 4.000000)" fill="#FFFFFE">
                    <path d="M32.9224348,10.1384348 C30.0017391,11.8570435 29.1074783,12.0010435 25.9311304,13.9001739 C27.7801739,11.8946087 28.4229565,11.0410435 29.5676522,9.36208696 C26.6396522,9.51652174 22.3843478,9.86921739 19.3467826,10.5422609 C21.9909565,9.1293913 27.2344348,7.55895652 30.0017391,7.1853913 C29.36,6.29843478 24.1655652,3.48626087 22.8737391,2.94365217 C26.9850435,3.264 32.0125217,4.80104348 34.4490435,6.29008696 C35.408,5.9906087 36.4045217,5.97704348 38.1888696,5.81843478 C37.733913,6.59791304 37.7151304,7.04869565 35.9641739,8.21008696 C36.4493913,9.50713043 35.290087,16.6403478 34.3332174,18.5290435 C34.2987826,15.5446957 34.037913,11.7766957 32.9224348,10.1384348" id="Fill-1"></path>
                    <path d="M11.5363478,35.7266087 C9.8573913,35.1057391 8.64904348,34.3794783 7.3186087,33.1356522 C7.71721739,32.0358261 8.17113043,31.1770435 8.91304348,30.0751304 C7.54817391,30.2796522 6.54330435,30.4330435 5.36730435,30.6553043 C4.41043478,28.9805217 3.97634783,27.3673043 3.48904348,25.1154783 C3.22817391,27.4998261 3.12904348,29.2006957 3.46504348,31.0987826 C2.38608696,31.3993043 1.62226087,31.6612174 0.73426087,32.0629565 C1.97808696,32.8236522 2.98295652,33.4090435 4.37182609,34.0570435 C5.11895652,35.6587826 5.89113043,36.7398261 7.14330435,37.9742609 C6.84904348,36.9224348 6.77182609,36.0866087 6.89182609,34.9826087 C8.44452174,35.4354783 9.77286957,35.6723478 11.5363478,35.7266087" id="Fill-2"></path>
                    <path d="M15.9053913,12.0052174 C15.3826087,12.6834783 14.7763478,13.9492174 14.6125217,14.5366957 C18.9377391,15.1231304 22.4093913,17.3446957 22.4093913,17.3446957 C18.6267826,16.6737391 16.6326957,16.7582609 15.221913,16.8845217 C13.8194783,17.0170435 13.5314783,17.181913 13.5314783,17.181913 C12.5109565,19.4170435 11.8984348,23.2570435 11.8984348,23.2570435 C11.2107826,21.5958261 10.2163478,18.2754783 10.2163478,18.2754783 C8.30782609,19.296 3.91791304,23.4229565 3.91791304,23.4229565 C6.33043478,18.5895652 8.78052174,16.392 8.78052174,16.392 C7.9373913,15.5373913 5.72730435,15.1106087 4.11095652,15.0396522 C4.94991304,14.6973913 7.10365217,14.2956522 8.75756522,14.2215652 C10.4135652,14.1735652 11.4153043,14.2674783 11.4153043,14.2674783 C12.8918261,13.101913 15.1332174,12.1189565 15.9053913,12.0052174" id="Fill-3"></path>
                    <g id="Group-7" transform="translate(14.000000, 32.000000)">
                        <path d="M6.4946087,0.72973913 C5.73078261,1.76591304 5.0733913,2.57982609 4.22713043,3.52626087 C2.77147826,3.93426087 1.61008696,4.0866087 0.190956522,4.0866087 C1.06226087,4.53634783 1.9053913,4.80452174 2.81426087,4.99547826 C1.9053913,5.81773913 1.1373913,6.40417391 0.254608696,6.96556522 C1.73426087,6.61495652 3.67826087,5.98678261 5.1266087,5.13217391 C5.88313043,5.16034783 6.58956522,5.11130435 7.10817391,5.00904348 C6.97356522,4.57078261 6.89113043,4.24313043 6.78052174,3.67234783 C8.14434783,2.6173913 9.13356522,1.66156522 10.2678261,0.512695652 C9.06052174,1.35582609 8.01913043,1.984 6.62191304,2.64452174 C6.5613913,2.00173913 6.52695652,1.45495652 6.4946087,0.72973913" id="Fill-4"></path>
                    </g>
                    <g id="Group" transform="translate(54.000000, 0.000000)">
                        <path d="M5.78575719,2.78762598 C8.8911433,2.79723687 10.0455183,3.43582727 10.0455183,5.13161583 C10.0455183,5.58546353 9.90562638,5.97951011 9.62797838,6.31055196 C9.03530668,7.02389375 7.85530268,7.39017553 6.38270039,7.31542415 L6.31222052,7.31542415 L5.45578322,9.56437296 L6.32183141,9.56437296 C8.03257025,9.51097911 9.51905493,10.0481212 10.2772475,10.9846493 C10.6328506,11.4139358 10.8079824,11.9030234 10.8079824,12.4305546 C10.8079824,14.2096376 9.25422145,15.117333 6.19475405,15.117333 C5.68217313,15.117333 4.84922913,15.1141293 4.31849429,15.082093 C4.20850297,12.7402389 4.20316359,9.55582994 4.20316359,8.61289461 C4.20316359,7.49375959 4.24908229,5.00667423 4.32490156,2.88693853 C4.66769005,2.82713742 5.25395448,2.77908296 5.78575719,2.78762598 Z M0.0427150771,1.16018154 C0.168724554,2.84529133 0.256290463,7.06233732 0.256290463,8.61289461 C0.256290463,10.02356 0.240272309,14.7745445 0.0213575385,16.8302076 L0,16.9967964 L7.43562704,17 C11.0653407,17 14.9449376,15.8488287 14.9449376,12.6120937 C14.9449376,10.578856 13.4723353,9.07848895 10.7225522,8.25515584 C12.7387039,7.71801375 14.1130615,6.31695922 14.1130615,4.70553294 C14.1130615,2.07214843 11.0749516,1.06620837 8.23333111,1.00640726 C8.22692385,1.00640726 0.029900554,1 0.029900554,1 L0.0427150771,1.16018154 Z" id="Fill-9"></path>
                        <path d="M32.0791881,1 L28.4736596,1 L28.6242906,5.02109902 C28.6905255,7.02844361 28.7556921,9.07531548 28.8902985,11.0591574 C28.6424518,10.4577018 28.4426788,10.1222541 27.3615544,8.52941176 C27.3273686,8.47279161 23.5786873,2.67937504 22.2753555,1.04166388 L22.2390332,1 L18.0288442,1 L18.0416639,1.15383588 C18.1602457,2.83641584 18.2499833,7.05194632 18.2499833,8.60953462 C18.2499833,10.0250384 18.235027,14.7800628 18.0170929,16.8333445 L18,17 L21.7347933,17 L21.7262469,16.8408226 C21.5072444,12.9244174 21.5072444,8.98664619 21.5072444,5.17813981 L21.5072444,5.16745677 C21.6333044,5.6257595 21.8127796,6.04133004 22.4003472,6.91520331 C22.4612406,7.01348735 28.8774788,16.3825199 29.2065167,16.93697 L29.2385658,17 L32.243707,17 L32.2223409,16.8333445 C32.0022701,14.7768578 31.9862456,10.0250384 31.9862456,8.60953462 C31.9862456,7.05194632 32.0791881,2.83321092 32.1977699,1.15383588 L32.208453,1 L32.0791881,1" id="Fill-10"></path>
                        <path d="M41.4921546,2.92615344 C43.5753489,2.89410429 45.0431996,3.3235628 45.7482807,4.18888963 C46.0644989,4.58523069 46.2279495,5.07237765 46.2279495,5.64498898 C46.2279495,7.96000534 43.6351739,8.44928891 41.4601055,8.44928891 L40.5766175,8.41723977 C40.5766175,8.41723977 40.3608199,8.38732724 40.2230086,8.36596114 C40.2112573,7.83501369 40.2037791,7.14168392 40.2037791,6.34259197 C40.2037791,5.32556587 40.2187354,4.14722575 40.2539895,3.03725713 C40.5285438,2.98063698 41.0135541,2.93897309 41.4921546,2.92615344 Z M36.038459,1.15917741 C36.1602457,2.84923549 36.248915,7.06156106 36.248915,8.61594445 C36.248915,10.0314482 36.2318221,14.7832677 36.0128197,16.8365494 L36,17 L40.4516258,17 L40.4334646,16.8365494 C40.2785605,15.3719036 40.2230086,12.5611938 40.2037791,10.3914669 C40.3885958,10.4010817 41.0210322,10.4331308 41.0210322,10.4331308 L41.6481271,10.4641116 C47.5173933,10.4641116 50.3665621,8.89049876 50.3665621,5.64498898 C50.3665621,1.93583495 46.3700341,1.07584964 43.0208987,1.00640983 L36.0299125,1 L36.038459,1.15917741 Z" id="Fill-11"></path>
                        <path d="M64.4964279,2.92615344 C66.5785538,2.89410429 68.0496094,3.3235628 68.7546905,4.18888963 C69.0677038,4.58523069 69.2300861,5.07237765 69.2300861,5.64498898 C69.2300861,7.96000534 66.6415838,8.44928891 64.4611738,8.44928891 L63.5798224,8.41723977 C63.5798224,8.41723977 63.3629565,8.38732724 63.2294184,8.36596114 C63.2133939,7.83501369 63.2027108,7.1374107 63.2027108,6.33404554 C63.2027108,5.31381452 63.2187354,4.14722575 63.2603993,3.03725713 C63.5338853,2.98063698 64.0199639,2.93897309 64.4964279,2.92615344 Z M59.0416639,1.15917741 C59.1645189,2.84923549 59.2531882,7.06156106 59.2531882,8.61594445 C59.2531882,10.0314482 59.2360953,14.7832677 59.0149563,16.8365494 L59,17 L63.4548307,17 L63.434533,16.8365494 C63.283902,15.3719036 63.2251452,12.5611938 63.206984,10.3914669 C63.3928691,10.4010817 64.0199639,10.4331308 64.0199639,10.4331308 L64.6502637,10.4641116 C70.5152567,10.4641116 73.3719036,8.89049876 73.3719036,5.64498898 C73.3719036,1.93583495 69.3743073,1.07584964 66.0198304,1.00640983 L59.0352541,1 L59.0416639,1.15917741 Z" id="Fill-12"></path>
                        <path d="M80.2772251,5.71229218 C80.6340389,6.45903719 81.5474394,8.60953462 82.5740803,11.1339387 C82.4202444,11.1360753 82.2386326,11.1424851 82.2386326,11.1424851 L80.2772251,11.1702611 C80.2772251,11.1702611 78.250651,11.1360753 77.9344328,11.1253923 C78.7602324,9.09561327 79.5764172,7.26347066 80.2772251,5.71229218 Z M79.1918275,1 L79.1191827,1 L79.0882019,1.08546438 C78.2591974,3.35774855 72.93263,14.994792 72.1004206,16.7788609 L72,17 L75.8181211,17 L75.8437604,16.9070575 C76.1770715,15.8141817 76.6043934,14.5760166 77.1075649,13.2374307 C77.2475129,13.2342258 80.2601322,13.189357 80.2601322,13.189357 L82.8625225,13.2203379 C82.8625225,13.2203379 83.3218936,13.2342258 83.4340656,13.2342258 C84.1209855,14.9584697 84.6316352,16.2650063 84.8570475,16.9102624 L84.8880283,17 L89.3097416,17 L82.1820124,1 L79.1918275,1 Z" id="Fill-13"></path>
                        <path d="M91.0469866,1.15377428 C91.164453,2.83568044 91.260562,7.05272642 91.260562,8.60648735 C91.260562,10.0214243 91.2413402,14.7713409 91.0181539,16.8238003 L91,16.9935927 L95.4562504,16.9935927 L95.4380965,16.8270039 C95.2149102,14.7649336 95.2020957,10.0214243 95.2020957,8.60648735 C95.2020957,7.49375959 95.2501502,5.00133485 95.3270373,3.02042315 C95.694387,2.97343656 96.1930855,2.93178936 96.5283989,2.9253821 C98.609691,2.88693853 100.080158,3.32476807 100.783888,4.18761263 C101.102116,4.57738771 101.265501,5.06433958 101.265501,5.63672162 C101.265501,7.47987719 99.5280651,8.41320163 97.9134352,8.50290329 C97.3816325,8.52639658 96.9704999,8.45484883 96.9683641,8.45484883 L96.6640192,8.40145498 L96.8605086,8.687646 C98.4206768,10.9963959 100.78816,15.0158847 101.786625,16.930588 L101.824001,17 L106.592071,17 L106.452179,16.7607956 C106.28559,16.5013015 103.163118,11.9211773 101.834679,9.96162317 C101.834679,9.96162317 101.786625,9.8954148 101.749249,9.84202096 C104.176533,9.11159314 105.37042,7.73296403 105.37042,5.63672162 C105.37042,1.93225656 101.368017,1.07475138 98.0180872,1.00640726 L91.0331042,1 L91.0469866,1.15377428" id="Fill-14"></path>
                        <path d="M112.301282,1 L108.027778,1 L108.041667,1.15491453 C108.165598,2.8482906 108.255342,7.06730769 108.255342,8.61645299 C108.255342,10.0277778 108.236111,14.7745726 108.014957,16.8365385 L108,17 L112.452991,17 L112.432692,16.8365385 C112.217949,14.7745726 112.196581,10.0277778 112.196581,8.61645299 C112.196581,7.06410256 112.290598,2.84508547 112.407051,1.15491453 L112.422009,1 L112.301282,1" id="Fill-15"></path>
                        <path d="M121.787893,2.78762598 C124.890075,2.79723687 126.048722,3.43582727 126.048722,5.13161583 C126.048722,5.58546353 125.903491,5.97951011 125.625843,6.31055196 C125.041714,7.02389375 123.857438,7.39017553 122.384836,7.31542415 L122.305813,7.31542415 L121.456851,9.56437296 L122.323967,9.56437296 C124.038978,9.51097911 125.512648,10.0481212 126.27618,10.9846493 C126.630715,11.4139358 126.805847,11.9030234 126.805847,12.4305546 C126.805847,14.2096376 125.256357,15.117333 122.199026,15.117333 C121.677902,15.117333 120.840686,15.1141293 120.313155,15.082093 C120.207435,12.7402389 120.201028,9.55582994 120.201028,8.61289461 C120.201028,7.49162384 120.249082,5.00133485 120.328105,2.88693853 C120.663419,2.82713742 121.249683,2.77908296 121.787893,2.78762598 Z M116.041647,1.16018154 C116.165521,2.8420877 116.253087,7.06233732 116.253087,8.61289461 C116.253087,10.02356 116.236001,14.7745445 116.017086,16.8302076 L116,16.9967964 L123.433491,17 C127.067476,17 130.94387,15.8488287 130.94387,12.6120937 C130.94387,10.578856 129.473403,9.07848895 126.716145,8.25515584 C128.739772,7.71801375 130.111994,6.31695922 130.111994,4.70553294 C130.111994,2.07214843 127.081359,1.06620837 124.232263,1.00640726 L116.032036,1 L116.041647,1.16018154 Z" id="Fill-16"></path>
                        <path d="M140.284188,5.71367521 C140.638889,6.46794872 141.54594,8.60790598 142.581197,11.1292735 C142.42735,11.1324786 142.247863,11.1442308 142.247863,11.1442308 L140.282051,11.1762821 C140.282051,11.1762821 138.263889,11.1324786 137.940171,11.1292735 C138.764957,9.09401709 139.581197,7.27136752 140.284188,5.71367521 Z M142.121795,1 L139.123932,1 L139.09188,1.08653846 C138.215812,3.5042735 132.573718,15.7745726 132.103632,16.7852564 L132,17 L135.826923,17 L135.851496,16.9081197 C136.181624,15.8162393 136.611111,14.5801282 137.114316,13.2393162 C137.25,13.232906 140.264957,13.1912393 140.264957,13.1912393 L142.873932,13.2264957 C142.873932,13.2264957 143.327991,13.232906 143.443376,13.2393162 C144.133547,14.9626068 144.636752,16.2606838 144.862179,16.9134615 L144.891026,17 L149.313034,17 L142.191239,1 L142.121795,1 Z" id="Fill-17"></path>
                        <path d="M150,5.35827783 C150,8.11194101 152.777735,9.22659372 155.220552,10.2198382 C157.124358,10.9849191 159.086775,11.7866318 159.086775,13.0928164 C159.086775,13.4957659 158.992578,13.8139391 158.782207,14.0598953 C158.33216,14.5978592 157.39334,14.8260228 155.919696,14.7558991 C154.484776,14.6847288 152.833206,14.2179353 151.012084,13.3733111 L150.247003,13.0226927 L150.251189,13.6276403 L150.251189,16.4451475 L150.746242,16.5508563 L151.046622,16.6147003 C151.968696,16.834491 153.708183,17.25 155.468601,17.25 C160.065366,17.25 162.81275,15.4246908 162.81275,12.3832065 C162.81275,9.5594196 159.97745,8.42802093 157.477069,7.43163654 C155.627688,6.69481446 153.722835,5.93392008 153.722835,4.73030447 C153.722835,4.37654615 153.722835,3.32678402 156.087155,3.32678402 C157.855947,3.32678402 159.584967,4.04581351 160.521694,4.43411037 L161.420742,4.80566127 L161.412369,4.21327307 L161.412369,1.36436727 L160.521694,1.20842055 C159.632065,1.03363463 158.150048,0.75 156.610466,0.75 C152.655281,0.75 150,2.59938154 150,5.35827783" id="Fill-18"></path>
                    </g>
                    <path d="M105.372157,27 L105.372157,29.2849769 C103.239366,29.1316963 99.4785154,29.1010401 99.450049,29.1010401 C99.1150212,29.1010401 98.7745191,29.1010401 98.4909499,29.1316963 C98.4909499,30.4039259 98.4909499,31.9597247 98.4405862,32.9472902 L103.239366,32.8443732 L103.239366,35.0516149 L98.4405862,35.0516149 L98.4405862,35.3395636 C98.4624835,37.0245562 98.5150368,39.3872683 98.6989736,41 L94.048,41 C94.2560238,38.8683037 94.2560238,34.8676781 94.2560238,33.6720888 C94.2560238,32.3505904 94.2045653,28.5809807 94.1027431,27 L105.372157,27" id="Fill-19"></path>
                    <path d="M114.436208,28.5131501 C112.446075,28.5131501 111.193905,30.4548742 111.193905,33.9994621 C111.193905,37.548353 112.446075,39.435214 114.436208,39.435214 C116.398371,39.435214 117.624724,37.548353 117.624724,33.9994621 C117.624724,30.4548742 116.398371,28.5131501 114.436208,28.5131501 Z M114.436208,41.25 C110.147203,41.25 106.93287,38.3121337 106.93287,33.9994621 C106.93287,29.6620484 110.147203,26.75 114.436208,26.75 C118.697244,26.75 121.913729,29.6620484 121.913729,33.9994621 C121.913729,38.3121337 118.697244,41.25 114.436208,41.25 Z" id="Fill-20"></path>
                    <path d="M131.502785,27 C134.567303,27 138.230711,28.0926722 138.230711,31.3400328 C138.230711,33.0786737 136.932205,34.3235317 134.907805,35.1282553 C135.320568,35.8596231 138.724494,40.2719168 139.400024,41 L134.385556,41 C133.503097,39.3117228 131.815915,36.407054 130.153915,33.9359506 C132.150943,34.1921483 133.893963,33.2352389 133.893963,31.3115664 C133.893963,29.4689137 131.762267,28.9214828 130.726527,28.9214828 C130.254642,28.9214828 129.373278,28.9214828 129.063432,28.9477594 C128.982412,30.6612184 128.958325,32.7162743 128.958325,33.6480019 C128.958325,34.8676781 128.958325,38.8683037 129.191531,41 L124.517565,41 C124.749676,38.9230468 124.803324,36.4530382 124.803324,33.6480019 C124.803324,31.2841949 124.778142,28.4277 124.567929,27 L131.502785,27" id="Fill-21"></path>
                    <path d="M152.903636,27 L152.903636,29.2849769 C150.85077,29.0758583 150.074513,28.975131 148.438789,28.9477594 C148.359959,30.5834832 148.331493,32.7370767 148.331493,33.6480019 C148.331493,34.8435911 148.331493,38.8683037 148.590975,41 L143.890732,41 C144.123938,38.8683037 144.15131,34.8435911 144.15131,33.6480019 C144.15131,32.7644483 144.07248,30.4291077 144.07248,28.9477594 C142.464127,28.975131 141.604661,29.0550559 139.556174,29.2849769 L139.556174,27 L152.903636,27" id="Fill-22"></path>
                    <path d="M159.959203,27 C159.853001,28.5809807 159.777456,32.3275983 159.777456,33.6720888 C159.777456,34.9202315 159.777456,39.0763275 159.959203,41 L155.336696,41 C155.572091,38.8683037 155.597273,34.8676781 155.597273,33.6720888 C155.597273,32.3505904 155.518443,28.5809807 155.413336,27 L159.959203,27" id="Fill-23"></path>
                    <path d="M169.432714,26.75 C171.197378,26.75 172.913533,27.0087168 173.985052,27.3407367 L173.985052,30.8485057 C172.476948,29.9774924 170.994716,29.2336815 169.026313,29.2336815 C167.466466,29.2336815 167.360823,29.8513679 167.360823,30.3095123 C167.360823,32.6336518 175.213957,32.6573675 175.213957,36.8270203 C175.213957,39.540313 172.681766,41.25 168.464681,41.25 C166.569581,41.25 164.780123,40.8673147 163.552296,40.4307301 L163.552296,37.0835811 C166.443456,38.4386105 167.975275,38.8751952 169.304433,38.8751952 C170.378108,38.8751952 171.173662,38.3868671 171.173662,37.4684224 C171.173662,34.8338228 163.347478,35.0893056 163.347478,30.6188945 C163.347478,28.1589287 165.803132,26.75 169.432714,26.75" id="Fill-24"></path>
                </g>
                <rect id="Rectangle" fill="#FFFFFF" fill-rule="nonzero" x="59" y="25" width="162" height="2"></rect>
                <rect id="Rectangle" stroke="#FFFFFF" stroke-width="1" fill-rule="nonzero" x="0.5" y="0.5" width="49" height="49"></rect>
            </g>
        </g>
    </g>
</svg>