<?xml version="1.0" encoding="UTF-8"?>
<svg width="31px" height="31px" viewBox="0 0 31 31" version="1.1" xmlns="http://www.w3.org/2000/svg" xmlns:xlink="http://www.w3.org/1999/xlink">
    <!-- Generator: Sketch 52.6 (67491) - http://www.bohemiancoding.com/sketch -->
    <title>linkedin</title>
    <desc>Created with Sketch.</desc>
    <g id="Page-1" stroke="none" stroke-width="1" fill="none" fill-rule="evenodd">
        <g id="Newsletter_BNP_Commercial_1_topic" transform="translate(-532.000000, -1425.000000)">
            <g id="SHARES" transform="translate(484.000000, 1425.000000)">
                <g id="SOME/28_linkedin-Copy" transform="translate(48.000000, 0.000000)">
                    <g id="Youtube" fill="#E6E6E6">
                        <rect id="Rectangle-14-Copy-3" x="0" y="0" width="31" height="31"></rect>
                    </g>
                    <g id="linkedin-logo" transform="translate(7.750000, 7.750000)" fill="#A6A6A6">
                        <path d="M16.6071429,9.5030377 L16.6071429,15.5 L13.0476944,15.5 L13.0476944,9.90467808 C13.0476944,8.4990876 12.5328586,7.53982706 11.2444562,7.53982706 C10.2609244,7.53982706 9.67562397,8.18629836 9.41812884,8.81165055 C9.32422748,9.03521151 9.30005714,9.34637909 9.30005714,9.65931918 L9.30005714,15.5 L5.73941177,15.5 C5.73941177,15.5 5.78736633,6.0233612 5.73941177,5.04151075 L9.29970965,5.04151075 L9.29970965,6.52395974 C9.29248944,6.53504727 9.28310702,6.5470022 9.27631153,6.55775033 L9.29970965,6.55775033 L9.29970965,6.52395974 C9.77273003,5.81235858 10.6174948,4.79581243 12.5083408,4.79581243 C14.8509712,4.79577472 16.6071429,6.29059348 16.6071429,9.5030377 Z M2.01482512,0 C0.796732965,0 0,0.780389147 0,1.80662746 C0,2.81050214 0.773682344,3.61457487 1.96756555,3.61457487 L1.99134978,3.61457487 C3.2330331,3.61457487 4.00524824,2.81065299 4.00524824,1.80662746 C3.98185012,0.780389147 3.2330331,0 2.01482512,0 Z M0.211471115,15.5 L3.77076511,15.5 L3.77076511,5.04151075 L0.211471115,5.04151075 L0.211471115,15.5 Z" id="LinkedIn" fill-rule="nonzero"></path>
                    </g>
                </g>
            </g>
        </g>
    </g>
</svg>