<?xml version="1.0" standalone="no"?>
<!DOCTYPE svg PUBLIC "-//W3C//DTD SVG 20010904//EN"
 "http://www.w3.org/TR/2001/REC-SVG-20010904/DTD/svg10.dtd">
<svg version="1.0" xmlns="http://www.w3.org/2000/svg"
 width="700.000000pt" height="700.000000pt" viewBox="0 0 700.000000 700.000000"
 preserveAspectRatio="xMidYMid meet">
<metadata>
Created by potrace 1.11, written by Peter Selinger 2001-2013
</metadata>
<g transform="translate(0.000000,700.000000) scale(0.100000,-0.100000)"
fill="#000000" stroke="none">
<path d="M1024 6988 c-3 -4 -12 -5 -22 -2 -14 5 -14 4 -2 -4 9 -7 19 -7 26 -2
10 10 24 4 24 -10 0 -4 -30 -8 -67 -9 -61 -2 -89 -13 -78 -31 2 -4 -15 -7 -38
-8 -81 -4 -101 -8 -105 -22 -2 -9 0 -11 5 -5 12 15 36 18 31 4 -2 -7 -16 -14
-31 -16 -15 -2 -38 -4 -52 -6 -14 -2 -25 -6 -25 -10 0 -4 0 -10 0 -13 0 -4 6
-1 13 5 10 8 14 7 14 -2 0 -7 -15 -13 -33 -14 -32 -2 -82 -22 -56 -23 6 0 12
-4 12 -10 0 -12 -22 -9 -32 5 -5 6 -8 5 -8 -2 0 -7 -10 -13 -21 -13 -16 0 -20
-5 -16 -20 4 -16 0 -20 -19 -20 -18 0 -24 -5 -24 -22 0 -12 -3 -18 -6 -15 -13
12 -43 -13 -37 -30 5 -13 2 -15 -15 -11 -12 4 -25 2 -28 -4 -3 -5 -12 -7 -18
-5 -7 3 -13 -1 -13 -8 0 -8 8 -12 20 -9 11 2 17 0 13 -3 -7 -8 -31 -14 -59
-16 -10 -1 -17 -8 -16 -17 1 -8 0 -18 -1 -22 -1 -5 -3 -13 -4 -20 0 -6 -8 -13
-16 -15 -9 -3 -11 -1 -5 4 15 12 15 30 0 30 -7 0 -14 -9 -14 -19 -1 -10 -1
-27 -2 -39 0 -15 -6 -19 -22 -17 -18 2 -21 -1 -19 -21 3 -20 0 -23 -17 -18
-11 3 -20 2 -19 -2 2 -21 -3 -41 -11 -37 -5 3 -14 -1 -21 -9 -7 -8 -9 -15 -5
-15 4 0 2 -7 -5 -15 -7 -8 -17 -12 -23 -8 -6 3 -7 1 -3 -5 4 -7 2 -12 -5 -12
-7 0 -9 -3 -6 -6 4 -4 13 -1 22 6 11 9 15 9 15 1 0 -6 -8 -15 -17 -19 -19 -8
-25 -22 -26 -63 0 -19 -5 -25 -15 -22 -10 4 -11 8 -2 13 7 4 9 13 6 19 -11 18
-21 5 -24 -30 -3 -34 -18 -52 -36 -42 -5 3 -6 1 -2 -5 4 -6 12 -9 20 -6 7 3
13 -2 13 -10 0 -9 -8 -13 -20 -10 -15 2 -18 -1 -14 -16 3 -10 -2 -29 -11 -41
-8 -12 -11 -19 -5 -16 7 4 10 -4 9 -22 -1 -24 -4 -28 -18 -20 -14 8 -17 4 -18
-28 -2 -125 -9 -159 -25 -134 -3 6 -1 11 4 11 6 0 11 7 11 16 0 29 -24 8 -26
-23 -2 -23 1 -30 11 -27 7 3 16 0 20 -6 3 -6 3 -10 -2 -9 -4 1 -14 1 -21 0
-10 -1 -12 -480 -12 -2431 1 -1434 4 -2430 10 -2430 5 0 12 4 15 10 3 5 2 10
-3 10 -5 0 -9 6 -9 14 0 30 23 4 24 -27 3 -105 8 -155 15 -151 4 3 8 0 8 -6 0
-6 4 -8 10 -5 8 5 16 -48 11 -78 -1 -4 6 -7 15 -5 10 2 18 -4 19 -15 2 -9 -1
-15 -6 -11 -5 3 -6 10 -3 16 5 7 2 8 -5 4 -9 -6 -9 -12 3 -25 9 -10 16 -26 16
-35 0 -13 5 -16 17 -12 14 6 14 3 -3 -15 -19 -22 -19 -22 1 -11 18 9 21 7 23
-15 1 -14 7 -32 13 -39 9 -11 8 -14 -1 -14 -8 0 -10 -3 -6 -7 4 -5 15 1 23 12
15 20 15 20 10 -2 -3 -13 -1 -25 3 -28 5 -3 7 -14 5 -24 -3 -15 1 -19 16 -16
15 3 19 -2 19 -21 0 -13 5 -24 11 -24 5 0 7 6 3 13 -5 8 -2 8 9 -2 9 -7 17
-22 17 -32 0 -13 7 -19 21 -19 11 0 17 -4 14 -10 -4 -6 -1 -17 5 -25 6 -8 8
-19 4 -26 -4 -7 -2 -10 7 -7 8 3 14 10 14 15 0 6 3 14 6 18 4 3 6 -2 6 -12 0
-39 3 -45 20 -39 17 6 17 5 1 -7 -10 -8 -15 -17 -11 -20 3 -4 12 -2 20 4 13
12 17 1 14 -41 0 -10 1 -11 5 -2 3 6 11 9 17 5 7 -4 6 1 -2 10 -9 11 -10 17
-2 17 6 0 11 -4 11 -9 0 -5 7 -17 16 -26 14 -13 19 -14 26 -3 6 9 8 5 6 -12
-2 -20 1 -25 19 -24 12 0 20 -3 17 -8 -3 -4 0 -8 5 -8 6 0 10 -6 9 -12 -2 -7
5 -12 14 -12 11 1 18 -5 18 -16 0 -10 7 -21 16 -24 14 -5 15 -4 5 8 -8 10 -9
16 -1 21 6 4 10 3 9 -2 -1 -4 3 -19 9 -33 7 -17 11 -20 11 -8 1 11 6 15 16 12
13 -5 13 -9 3 -22 -9 -11 -9 -13 -1 -9 6 4 15 2 18 -4 4 -5 13 -8 21 -5 8 3
14 1 14 -4 0 -5 6 -7 14 -4 8 3 17 0 22 -7 5 -8 3 -10 -7 -4 -12 7 -12 6 -1
-7 7 -9 26 -14 47 -13 32 1 34 0 20 -15 -14 -15 -13 -17 15 -15 17 1 33 -2 35
-6 3 -4 18 -6 33 -5 18 1 29 -3 29 -11 0 -7 -5 -13 -10 -13 -6 0 -8 -2 -5 -5
10 -10 38 7 31 19 -3 6 -2 7 3 3 5 -5 9 -14 9 -20 0 -7 16 -12 36 -12 20 -1
44 -7 53 -14 14 -12 16 -11 9 5 -6 16 -4 17 9 7 8 -7 18 -10 21 -6 4 3 7 1 7
-4 0 -6 -6 -14 -12 -16 -7 -3 1093 -6 2445 -6 1548 -1 2456 3 2452 9 -3 5 -12
7 -19 4 -8 -3 -17 -1 -21 5 -4 7 0 8 11 4 13 -5 15 -3 9 8 -6 11 -5 11 5 2 8
-7 22 -8 41 -3 20 6 29 5 29 -3 0 -8 3 -8 12 1 16 16 31 15 22 -1 -4 -6 3 -3
16 8 13 11 21 16 18 10 -4 -6 7 -9 25 -8 51 3 53 3 34 14 -9 5 -22 7 -29 3 -6
-4 -8 -3 -5 3 9 15 67 22 67 9 0 -8 3 -8 8 -1 4 6 16 11 27 11 12 0 20 6 19
15 -1 14 13 19 64 22 19 1 23 6 19 23 -3 15 0 21 9 17 7 -3 12 -10 11 -15 -1
-6 5 -13 13 -15 12 -3 12 -2 2 5 -11 7 -11 11 0 20 13 10 18 12 38 12 6 0 10
10 10 21 0 18 3 19 15 9 12 -10 16 -9 21 5 5 13 9 14 15 3 7 -10 9 -11 9 0 0
7 5 10 10 7 6 -4 10 -3 9 2 -3 17 1 33 9 32 25 -4 33 2 27 22 -6 18 -4 19 12
11 14 -8 25 -6 43 9 14 11 18 17 9 13 -10 -3 -20 -1 -23 4 -3 5 8 12 25 16 26
5 29 9 20 20 -10 11 -9 14 3 12 9 -1 19 -6 23 -11 4 -4 2 -5 -4 -1 -9 5 -11 2
-6 -9 8 -22 23 2 15 24 -3 9 -2 13 3 9 4 -4 16 -3 27 3 16 9 17 13 6 27 -10
12 -10 14 0 8 6 -4 12 -3 12 3 0 5 9 8 21 6 17 -3 19 -1 9 10 -8 10 -8 15 0
20 6 4 9 14 6 22 -3 8 -1 11 4 8 6 -3 10 -2 10 4 0 6 8 7 17 4 12 -5 15 -2 10
10 -6 16 15 41 26 30 6 -6 11 11 8 30 0 4 3 8 9 8 5 1 14 2 19 3 14 2 26 16
13 16 -15 0 -4 28 20 52 15 15 24 51 19 81 0 4 6 7 15 7 14 0 14 -3 4 -15 -7
-9 -10 -18 -6 -22 3 -3 6 -1 6 6 0 7 4 10 8 7 7 -4 12 23 16 86 1 15 6 31 10
35 5 4 6 2 2 -4 -4 -7 -2 -13 4 -13 6 0 9 -4 5 -9 -3 -5 -1 -12 3 -15 5 -3 9
11 10 32 2 83 6 112 13 101 4 -7 6 -21 3 -32 -2 -11 0 -16 4 -13 4 4 7 11 7
14 0 4 4 13 8 20 5 7 3 12 -5 12 -9 0 -10 2 -1 8 6 4 13 40 15 85 2 47 9 82
17 89 11 10 12 10 7 1 -4 -7 -2 -13 3 -13 15 0 14 13 -1 29 -10 11 -10 12 -1
7 10 -6 13 488 12 2431 0 1341 -3 2432 -6 2425 -2 -6 -10 -9 -16 -5 -7 4 -6
-1 2 -10 9 -12 10 -17 2 -17 -18 0 -26 31 -11 40 8 5 15 16 16 24 1 9 -2 14
-7 10 -5 -3 -7 -10 -4 -15 4 -5 1 -9 -4 -9 -7 0 -12 25 -12 60 -2 76 -2 80
-11 80 -5 0 -11 0 -15 0 -4 0 -2 -5 5 -12 7 -7 12 -16 12 -22 0 -7 -4 -6 -10
0 -12 12 -20 45 -22 91 -1 26 -4 30 -17 23 -16 -8 -20 7 -24 96 -1 22 -24 30
-24 8 0 -7 5 -10 10 -7 6 4 7 1 3 -6 -13 -21 -22 -5 -25 43 -1 16 -9 27 -23
32 l-21 6 24 15 c24 14 24 14 1 8 -16 -5 -23 -3 -21 7 3 25 -1 38 -12 38 -5 0
-7 -6 -4 -12 4 -7 0 -5 -8 4 -8 10 -17 16 -21 13 -3 -3 -2 1 4 7 15 18 12 28
-10 28 -18 0 -25 10 -21 33 0 4 -8 7 -19 7 -13 0 -20 7 -20 20 0 12 -7 20 -17
21 -11 0 -13 3 -5 6 15 6 16 33 1 33 -5 0 -8 -4 -5 -9 3 -5 -1 -11 -9 -14 -9
-4 -12 -1 -8 9 3 8 -3 22 -13 30 -11 9 -13 13 -6 9 6 -3 12 -2 12 3 0 5 -9 12
-20 15 -13 3 -18 1 -13 -5 3 -7 1 -8 -6 -4 -6 4 -10 15 -9 23 3 16 -17 24 -57
25 -11 0 -15 2 -8 5 21 8 2 33 -26 34 -22 0 -23 1 -7 8 18 7 16 9 -12 22 -18
8 -32 20 -32 26 0 7 -3 13 -7 14 -5 0 -17 3 -28 5 -11 3 -26 6 -32 6 -7 1 -13
10 -13 20 0 12 -7 18 -22 17 -29 -1 -55 5 -64 14 -4 3 6 4 22 2 16 -2 23 -2
16 1 -6 3 -10 9 -8 13 3 4 -5 7 -17 5 -12 -1 -33 5 -46 13 -13 8 -21 10 -17 5
7 -12 -32 -8 -43 4 -3 4 2 4 12 1 13 -5 17 -3 15 5 -4 12 -26 16 -95 21 -20 1
-21 3 -8 17 13 15 13 17 0 17 -8 0 -12 -4 -10 -8 3 -4 -2 -9 -10 -13 -8 -3
-17 0 -21 6 -4 7 -3 8 4 4 7 -4 12 -2 12 3 0 7 -26 12 -62 12 -35 1 -79 2 -99
2 -35 1 -53 23 -18 23 10 0 16 -3 14 -6 -2 -4 11 -7 30 -7 19 0 35 4 35 9 0 4
-3 7 -7 7 -5 -1 -10 0 -13 1 -24 9 -116 8 -128 -3 -13 -9 -14 -9 -8 1 6 9
-462 12 -2326 12 -1853 0 -2337 -3 -2347 -12 -11 -10 -13 -10 -7 -1 5 10 -9
12 -59 10 -37 -1 -69 -5 -71 -9z m83 -13 c0 -5 -10 -10 -22 -10 -13 0 -21 5
-18 10 2 6 12 11 22 11 10 0 18 -5 18 -11z m3018 -714 c3 -5 2 -12 -3 -15 -5
-3 -9 1 -9 9 0 17 3 19 12 6z m256 -37 c9 -11 8 -14 -5 -14 -11 0 -14 4 -10
13 5 7 1 7 -12 -3 -10 -8 -20 -15 -22 -16 -2 -1 10 -2 25 -2 15 0 36 5 47 10
11 6 16 6 13 1 -6 -9 37 -14 135 -16 44 0 46 -1 36 -21 -11 -21 -11 -21 11 -2
16 14 20 16 16 5 -5 -13 5 -16 52 -18 45 -1 61 -6 74 -23 12 -16 18 -18 24 -8
5 8 4 11 -2 7 -6 -4 -13 -1 -16 7 -4 10 4 14 34 13 21 -1 33 -4 27 -8 -7 -4
-16 -5 -20 -3 -4 3 -8 0 -8 -5 0 -10 34 -14 103 -14 15 0 20 -8 19 -27 0 -5
54 -11 120 -14 20 0 34 -4 31 -8 -6 -11 5 -10 26 1 13 7 18 6 18 -4 0 -8 -3
-12 -7 -10 -3 2 -12 -1 -20 -7 -13 -8 -12 -9 1 -5 9 3 22 0 28 -6 8 -8 11 -8
11 2 0 7 5 9 11 5 7 -4 21 -7 33 -8 11 -1 21 -8 21 -16 0 -15 24 -20 108 -23
30 -1 46 -5 43 -13 -2 -6 0 -17 5 -25 7 -11 9 -11 9 -1 0 8 5 10 12 6 6 -4 23
-8 37 -9 20 -1 25 -6 23 -21 -2 -18 -2 -18 8 -1 12 19 30 23 30 6 0 -5 -4 -7
-10 -4 -5 3 -10 1 -10 -4 0 -10 17 -14 63 -14 9 0 17 -5 17 -11 0 -6 5 -4 10
4 7 12 10 8 10 -15 0 -23 3 -27 10 -15 5 8 10 10 10 4 0 -6 15 -10 34 -9 18 1
42 -4 52 -12 19 -14 19 -14 0 -11 -10 2 -20 -3 -22 -10 -1 -7 0 -8 2 -3 3 6
14 7 27 2 12 -4 28 -6 35 -4 6 3 12 0 12 -6 0 -6 5 -11 11 -11 5 0 7 6 3 13
-5 8 -2 8 9 -2 9 -7 17 -19 17 -26 0 -8 10 -12 25 -10 22 2 25 -1 19 -19 -5
-18 -4 -19 7 -6 8 8 13 14 12 12 -5 -11 24 -28 39 -24 17 4 23 -8 18 -33 -1
-5 2 -7 6 -3 4 4 14 2 23 -4 10 -8 9 -4 -3 10 -11 12 -16 25 -13 29 4 3 7 2 7
-4 0 -6 7 -13 14 -16 9 -4 13 -1 10 6 -3 10 10 13 48 12 34 0 53 4 53 12 0 6
4 15 9 20 5 4 7 3 3 -2 -3 -6 -2 -17 4 -25 6 -11 9 -12 9 -2 0 7 5 10 10 7 9
-6 15 8 11 29 -1 5 4 4 12 -2 8 -7 17 -9 20 -5 13 13 77 10 77 -4 0 -7 5 -13
11 -13 5 0 8 4 4 9 -3 5 -1 12 5 16 5 3 10 0 10 -7 0 -10 2 -10 9 1 6 9 11 10
15 2 4 -6 13 -8 19 -4 18 11 186 13 193 2 3 -5 0 -9 -6 -9 -6 0 -8 -5 -5 -10
4 -6 1 -17 -5 -25 -10 -11 -10 -15 -1 -15 7 0 9 -5 5 -12 -5 -7 -11 -5 -21 7
-12 18 -13 18 -14 -3 -2 -34 -3 -40 -11 -48 -4 -4 -3 -13 3 -21 7 -7 7 -13 2
-13 -6 0 -14 10 -20 22 -6 15 -12 18 -17 10 -4 -7 -3 -12 3 -12 5 0 5 -12 -2
-30 -6 -16 -15 -30 -20 -30 -4 0 -6 4 -2 9 3 5 1 13 -5 16 -6 4 -9 3 -8 -2 1
-4 -1 -18 -6 -30 -7 -21 -18 -28 -39 -24 -5 1 -6 -3 -2 -9 3 -5 2 -10 -4 -10
-5 0 -8 -9 -6 -20 2 -12 0 -18 -6 -15 -5 4 -7 10 -4 15 3 5 1 11 -5 15 -6 3
-10 -3 -10 -15 0 -14 -5 -20 -13 -17 -8 3 -20 1 -28 -4 -11 -7 -11 -9 4 -9 9
0 17 -4 17 -10 0 -5 -7 -7 -15 -4 -8 4 -15 1 -15 -5 0 -6 -7 -8 -15 -5 -8 4
-15 1 -15 -5 0 -6 -6 -8 -14 -5 -8 3 -17 1 -21 -5 -3 -6 0 -9 8 -5 8 3 17 -1
20 -10 3 -8 -1 -17 -9 -20 -9 -4 -12 -2 -8 5 4 7 1 10 -7 7 -9 -3 -13 -16 -10
-39 8 -75 8 -100 -1 -105 -4 -3 -5 -11 -1 -17 10 -17 11 -67 1 -73 -5 -3 -5
-11 -1 -17 4 -6 6 -31 6 -54 -1 -24 2 -41 6 -39 4 3 13 0 21 -5 13 -9 13 -10
0 -8 -8 1 -22 1 -30 0 -13 -1 -13 -2 0 -11 8 -5 11 -10 5 -10 -6 0 -10 -37
-10 -93 1 -50 -3 -98 -8 -104 -6 -8 -6 -13 1 -13 6 0 9 -7 6 -15 -4 -8 -10
-15 -16 -15 -5 0 -7 4 -4 9 3 5 -1 12 -10 15 -10 4 -13 2 -8 -6 4 -6 6 -34 5
-61 -2 -37 1 -47 11 -42 7 3 6 1 -2 -7 -8 -7 -15 -29 -15 -48 0 -19 -4 -41 -9
-47 -5 -8 -4 -13 3 -13 7 0 8 -8 1 -25 -6 -16 -6 -25 1 -25 6 0 6 -6 1 -17 -5
-10 -7 -25 -5 -33 3 -11 2 -12 -4 -3 -5 7 -8 26 -7 43 1 17 -1 32 -5 34 -4 3
-7 -5 -8 -17 -3 -97 -9 -143 -18 -149 -7 -5 -6 -8 1 -8 14 0 10 -61 -5 -86
-11 -18 -12 -17 -6 3 3 12 1 24 -5 28 -9 6 -12 -41 -12 -165 0 -29 -18 -45
-31 -27 -5 7 -7 0 -6 -18 0 -16 1 -50 0 -74 -1 -37 -3 -42 -16 -31 -8 7 -12
17 -8 23 3 6 1 7 -6 3 -8 -5 -6 -15 9 -36 15 -21 17 -31 9 -36 -7 -4 -9 -3 -6
3 4 6 1 16 -6 22 -11 8 -14 0 -16 -42 -1 -28 -6 -54 -12 -55 -5 -2 -7 -7 -4
-12 3 -4 -3 -14 -13 -21 -15 -13 -16 -12 -4 3 8 10 9 19 3 22 -5 4 -14 -2 -20
-11 -6 -10 -11 -13 -11 -6 0 6 5 15 10 18 14 9 11 136 -4 154 -8 11 -8 13 1 8
8 -5 11 16 9 80 -1 49 -5 93 -9 100 -4 6 -2 14 3 16 6 3 5 4 -2 3 -14 -3 -18
-24 -9 -41 3 -5 6 -19 8 -30 1 -11 -1 -14 -3 -7 -3 6 -11 9 -17 5 -7 -4 -6 1
2 10 7 9 9 17 4 17 -5 0 -9 20 -9 45 -1 25 3 45 7 45 5 0 7 -6 5 -12 -1 -7 -1
-10 1 -5 3 4 8 5 12 3 4 -3 8 1 8 9 0 8 -3 14 -6 13 -23 -2 -31 5 -31 28 0 17
4 23 13 18 9 -6 9 -5 0 7 -8 10 -13 53 -14 117 -1 74 -5 102 -14 106 -8 3 -15
0 -18 -7 -2 -7 -4 13 -4 43 -2 160 -2 159 -21 155 -11 -2 -19 3 -19 11 0 9 4
11 12 4 7 -5 15 -7 18 -3 9 9 9 23 0 22 -28 -5 -33 4 -33 61 0 54 -2 60 -20
60 -12 0 -20 6 -19 13 1 6 1 35 0 62 -2 41 -4 46 -11 28 -11 -26 -16 -28 -26
-11 -4 7 -3 8 4 4 7 -4 12 -1 12 8 0 9 -4 16 -10 16 -5 0 -10 9 -10 20 0 16
-7 20 -32 21 -18 1 -37 0 -43 -1 -5 -1 -18 -2 -28 -3 -10 -1 -15 -7 -12 -15 5
-14 -9 -22 -49 -26 -14 -1 -29 -6 -34 -10 -4 -4 -2 -7 3 -6 20 4 35 0 35 -10
0 -6 -6 -10 -12 -9 -41 5 -66 -2 -71 -21 -4 -15 -14 -20 -41 -20 -29 0 -36 -4
-36 -20 0 -17 -7 -20 -40 -20 -33 0 -40 -3 -40 -19 0 -16 -8 -20 -42 -23 -35
-2 -42 -6 -40 -20 2 -14 -4 -18 -30 -18 -18 0 -42 -8 -53 -17 -16 -13 -17 -15
-2 -10 9 4 17 2 17 -3 0 -6 -20 -10 -45 -10 -38 0 -45 -3 -43 -17 2 -15 -5
-19 -40 -21 -33 -3 -42 -7 -40 -20 2 -13 -7 -18 -39 -22 -39 -6 -71 -20 -45
-20 7 0 12 -4 12 -10 0 -5 -14 -10 -31 -10 -21 0 -28 -4 -23 -12 6 -10 5 -10
-8 -1 -8 7 -18 10 -21 6 -4 -3 1 -11 9 -18 13 -9 13 -12 3 -12 -50 -3 -79 -8
-79 -16 0 -4 -5 -5 -12 -1 -7 4 -8 3 -4 -4 4 -6 13 -9 21 -5 8 3 15 0 15 -6 0
-6 -3 -10 -7 -10 -5 1 -24 1 -43 0 -27 -1 -31 -4 -20 -11 13 -8 12 -10 -3 -10
-10 0 -16 -4 -13 -8 2 -4 -4 -8 -14 -9 -11 -1 -19 4 -17 10 1 7 -6 11 -15 11
-10 -1 -15 3 -12 8 3 5 12 7 19 4 8 -3 17 3 20 14 4 11 20 23 38 28 22 6 32
14 32 28 0 10 7 19 15 19 8 0 14 8 14 18 -1 9 2 17 8 17 5 0 6 5 3 10 -3 6 -1
10 5 10 6 0 8 5 5 11 -4 6 0 9 11 7 14 -2 19 3 18 20 -1 17 4 22 22 22 17 0
22 5 19 20 -3 14 2 20 15 20 21 0 35 26 17 34 -7 2 -2 5 11 5 12 1 26 9 29 19
4 9 11 20 17 24 8 5 7 8 -1 8 -7 0 -10 7 -7 15 4 8 10 15 16 15 5 0 7 -4 3 -9
-3 -5 -2 -12 3 -15 8 -5 10 1 14 44 2 14 10 20 26 20 13 0 20 4 17 10 -3 5 0
19 8 31 11 15 16 17 20 7 3 -7 6 -1 6 14 1 15 6 30 11 33 6 4 7 11 4 17 -5 7
-1 9 9 5 16 -6 32 18 21 34 -3 5 4 9 14 9 23 0 32 27 21 59 -6 14 -13 20 -21
14 -21 -12 -38 -12 -38 0 0 8 -3 7 -9 -1 -4 -8 -12 -14 -16 -14 -4 0 -12 6
-16 14 -5 7 -9 8 -9 2 0 -6 -11 -10 -24 -9 -16 2 -23 -1 -20 -9 3 -9 -4 -13
-23 -12 -18 1 -27 6 -25 14 1 8 -2 11 -8 7 -6 -3 -8 -10 -5 -15 3 -5 -61 -9
-142 -9 -105 -1 -149 -5 -155 -14 -5 -8 -8 -8 -8 -1 0 6 -11 12 -25 12 -20 0
-23 -3 -15 -13 8 -10 8 -15 -1 -21 -8 -4 -9 -3 -5 4 4 7 3 12 -3 12 -5 0 -12
-4 -16 -9 -3 -5 -24 -9 -48 -9 -137 1 -277 -5 -277 -13 0 -9 14 -13 40 -10 13
2 13 0 1 -8 -17 -11 -51 3 -51 22 0 8 -4 7 -10 -3 -6 -9 -5 -17 3 -22 7 -4 -1
-6 -18 -5 -17 1 -36 11 -43 22 -13 19 -13 19 -9 -2 5 -23 4 -23 -94 -23 -80 0
-99 -3 -99 -14 0 -8 -4 -17 -9 -20 -5 -4 -7 2 -4 13 4 16 0 18 -26 17 -17 -1
-36 -8 -43 -15 -8 -9 -9 -11 -1 -7 6 3 14 2 18 -3 3 -6 -27 -9 -79 -8 -69 2
-86 -1 -90 -13 -2 -8 -4 0 -3 18 1 31 3 32 44 32 24 0 43 5 43 10 0 6 -5 10
-12 10 -8 0 -8 3 -2 9 5 6 33 11 62 12 28 2 52 7 52 11 0 5 4 6 10 3 6 -3 7 1
4 9 -5 12 1 16 27 17 19 1 37 1 41 0 4 0 10 8 13 19 4 11 11 20 16 20 6 0 7
-4 4 -10 -3 -5 -2 -10 4 -10 5 0 12 4 15 8 2 4 19 9 37 10 31 2 53 18 44 32
-2 4 2 7 10 7 8 0 11 -5 8 -11 -5 -7 -2 -7 8 0 8 6 22 10 32 9 15 -3 21 6 18
27 0 4 11 5 24 2 14 -2 25 -1 25 4 0 5 16 8 35 7 21 -1 36 3 39 11 3 8 0 14
-6 14 -6 0 -9 2 -6 5 3 3 17 1 31 -4 20 -8 25 -7 21 3 -3 9 6 12 36 11 22 -1
40 2 40 5 0 4 11 5 25 2 15 -2 25 0 25 7 0 7 -4 9 -10 6 -5 -3 -10 -2 -10 3 0
5 9 12 20 15 13 3 18 1 13 -6 -5 -9 -3 -9 8 -1 8 6 29 10 47 9 29 -1 36 5 33
27 0 4 11 5 24 2 14 -2 25 -1 25 4 0 5 27 8 61 8 33 -1 63 3 66 8 4 5 1 6 -5
2 -7 -4 -12 -3 -12 3 0 6 -8 8 -17 4 -10 -3 -15 -3 -11 1 3 4 12 8 20 10 7 1
19 6 27 10 10 6 12 5 7 -2 -4 -7 -2 -12 3 -12 6 0 11 4 11 8 0 5 18 7 40 6 28
-1 38 2 33 10 -4 6 1 5 10 -3 12 -10 17 -10 17 -2 0 7 8 10 18 7 10 -4 27 0
37 8 18 13 18 14 -8 9 -15 -3 -27 -1 -27 3 0 5 15 9 34 9 19 0 32 -4 29 -9 -4
-5 -1 -6 8 0 8 5 38 9 68 9 39 1 56 5 59 15 3 13 2 13 -7 0 -8 -11 -11 -12
-11 -2 0 7 -5 10 -12 6 -6 -4 -8 -3 -5 4 4 5 15 9 25 8 9 -2 20 2 24 8 5 8 8
7 8 -2 0 -7 5 -10 12 -6 6 4 27 8 47 9 21 1 36 6 35 13 -3 33 -4 34 -21 21
-11 -10 -14 -10 -9 -1 4 6 3 12 -3 12 -6 0 -8 6 -5 14 3 7 -2 16 -10 19 -11 4
-13 1 -10 -11 4 -12 2 -11 -8 3 -7 11 -20 20 -28 20 -9 0 -14 7 -12 18 2 10
-2 17 -10 16 -27 -3 -36 2 -41 23 -4 12 -9 19 -13 15 -4 -4 -14 -1 -22 6 -9 6
-13 7 -10 2 4 -6 -2 -11 -14 -11 -19 0 -19 1 4 20 15 12 17 17 6 13 -10 -3
-20 -2 -23 3 -4 6 -11 10 -16 10 -6 0 -7 -6 -3 -12 5 -9 2 -8 -10 1 -9 8 -14
21 -12 28 4 11 0 13 -15 8 -15 -5 -19 -4 -14 5 4 7 1 11 -6 9 -27 -3 -39 1
-39 15 0 7 -8 16 -17 19 -10 2 -27 8 -37 13 -15 6 -17 4 -11 -7 7 -12 6 -12
-6 -1 -8 7 -14 18 -14 25 0 7 -10 13 -22 15 -13 2 -23 10 -23 20 0 13 -2 13
-15 -4 -14 -18 -14 -18 -8 3 4 18 1 22 -14 19 -24 -5 -38 4 -38 24 0 10 -8 14
-22 12 -13 -2 -23 1 -23 6 0 6 -9 8 -19 5 -14 -3 -19 0 -18 14 2 13 -4 18 -20
17 -13 -1 -23 3 -23 8 0 5 -4 6 -10 3 -5 -3 -10 -2 -10 4 0 5 6 12 13 15 6 3
2 3 -10 0 -13 -3 -23 -2 -23 3 0 5 -15 10 -32 11 -18 2 -37 8 -43 13 -7 8 -3
9 13 4 14 -4 22 -2 22 5 0 6 -4 9 -9 5 -5 -3 -12 -1 -16 5 -3 6 -17 8 -31 6
-19 -4 -24 0 -24 15 0 10 -5 19 -11 19 -6 0 -8 -8 -5 -17 6 -17 5 -17 -7 -1
-8 10 -28 19 -46 20 -18 1 -35 6 -37 10 -3 4 5 5 16 3 14 -3 20 0 17 8 -2 7
-11 11 -21 9 -9 -2 -16 1 -16 7 0 5 -8 7 -19 4 -10 -3 -22 0 -26 7 -5 8 -11 7
-23 -2 -15 -11 -15 -11 -5 3 7 9 10 18 7 22 -3 3 44 6 104 6 84 0 114 -4 123
-15z m263 -40 c3 -8 2 -12 -4 -9 -6 3 -10 10 -10 16 0 14 7 11 14 -7z m289
-68 c4 -10 1 -13 -8 -9 -8 3 -12 9 -9 14 7 12 11 11 17 -5z m47 -12 c0 -2 -7
-4 -15 -4 -8 0 -15 4 -15 10 0 5 7 7 15 4 8 -4 15 -8 15 -10z m1970 -38 c0 -2
-7 -7 -16 -10 -8 -3 -12 -2 -9 4 6 10 25 14 25 6z m-1732 -28 c8 -10 4 -13
-14 -14 -20 -2 -23 1 -13 12 14 17 14 17 27 2z m347 -128 c3 -6 -1 -7 -9 -4
-18 7 -21 14 -7 14 6 0 13 -4 16 -10z m1425 -16 c0 -8 -19 -13 -24 -6 -3 5 1
9 9 9 8 0 15 -2 15 -3z m0 -34 c0 -5 -2 -10 -4 -10 -3 0 -8 5 -11 10 -3 6 -1
10 4 10 6 0 11 -4 11 -10z m-867 -456 c4 -4 3 -12 0 -18 -11 -18 -10 -46 1
-46 7 0 7 -3 1 -8 -13 -9 -18 -32 -7 -32 4 0 8 -9 8 -20 0 -11 -3 -20 -6 -20
-4 0 -7 -7 -7 -15 0 -8 5 -15 11 -15 6 0 5 -4 -2 -9 -8 -4 -14 -12 -14 -16 0
-4 6 -12 14 -16 11 -7 11 -9 -1 -9 -10 0 -11 -3 -3 -13 7 -8 7 -18 2 -27 -10
-15 -11 -13 -14 29 0 11 -4 23 -8 27 -4 4 -4 12 -1 18 12 19 13 76 2 76 -8 0
-8 4 -2 13 6 6 9 33 8 60 -2 44 3 56 18 41z m-1080 -144 c-7 -7 -93 -7 -93 1
0 3 22 5 49 5 27 -1 47 -3 44 -6z m37 6 c0 -3 -4 -8 -10 -11 -5 -3 -10 -1 -10
4 0 6 5 11 10 11 6 0 10 -2 10 -4z m-1235 -26 c3 -5 1 -10 -4 -10 -6 0 -11 5
-11 10 0 6 2 10 4 10 3 0 8 -4 11 -10z m23 -98 c-6 -7 -14 -9 -17 -5 -4 4 -10
11 -14 14 -5 4 3 6 16 5 20 -1 23 -4 15 -14z m-221 -16 c-3 -7 -1 -19 4 -25 6
-8 5 -8 -3 -1 -8 6 -17 5 -27 -3 -12 -9 -13 -9 -7 1 4 7 2 12 -6 12 -10 0 -9
3 2 9 8 6 18 7 22 5 4 -3 8 0 8 5 0 6 3 11 6 11 3 0 4 -6 1 -14z m-650 -251
c0 -8 -4 -12 -9 -9 -5 3 -6 10 -3 15 9 13 12 11 12 -6z m20 -7 c-3 -8 -6 -5
-6 6 -1 11 2 17 5 13 3 -3 4 -12 1 -19z m-127 -22 c0 -2 -8 -10 -17 -17 -16
-13 -17 -12 -4 4 13 16 21 21 21 13z m135 -7 c4 -6 0 -9 -11 -7 -11 2 -18 -2
-16 -9 1 -7 -3 -13 -9 -13 -6 0 -9 -9 -6 -20 4 -15 0 -20 -14 -20 -13 0 -20
-8 -21 -22 0 -13 -1 -30 -2 -38 -1 -8 -9 -16 -19 -18 -15 -3 -22 -20 -18 -44
0 -5 -5 -8 -11 -8 -9 0 -8 -4 2 -10 13 -8 11 -11 -7 -16 -22 -6 -26 -17 -26
-66 0 -11 -7 -18 -20 -18 -11 0 -17 -3 -13 -7 4 -5 13 -8 19 -8 7 0 13 -6 13
-12 1 -7 3 -15 4 -18 1 -3 3 -9 4 -14 0 -5 4 -13 8 -17 4 -3 6 2 4 13 -3 14 2
19 18 19 13 0 23 -5 23 -12 0 -7 -7 -10 -15 -6 -10 3 -13 1 -8 -7 4 -6 13 -11
19 -10 7 1 45 1 85 0 55 -1 71 -4 66 -13 -6 -10 -4 -10 7 0 20 18 34 15 18 -5
-10 -11 -10 -14 -1 -9 6 4 12 2 12 -3 0 -6 5 -11 11 -11 6 0 8 10 5 23 -3 12
-3 16 0 8 5 -11 8 -11 16 0 6 10 7 7 3 -8 -6 -22 -3 -23 52 -24 32 -1 62 -1
67 0 5 1 6 -6 2 -15 -5 -13 -2 -15 14 -11 11 3 20 2 20 -1 0 -4 15 -7 33 -6
42 0 57 -5 57 -22 0 -13 5 -15 48 -17 9 -1 20 -6 24 -12 5 -6 8 -6 8 2 0 6 9
9 20 6 11 -3 18 -8 16 -12 -3 -4 0 -13 5 -21 8 -13 10 -13 19 0 5 8 10 10 10
4 0 -11 6 -12 55 -15 13 -1 22 -6 19 -11 -3 -5 -12 -7 -20 -4 -7 3 -16 0 -20
-6 -4 -7 -3 -8 4 -4 7 4 12 3 12 -2 0 -5 14 -8 32 -6 37 5 67 -14 46 -28 -10
-7 -10 -9 2 -5 8 2 14 11 14 20 -1 9 2 14 7 11 5 -3 9 -13 9 -23 0 -11 8 -17
23 -18 48 -1 57 -4 57 -18 0 -14 11 -19 38 -16 6 1 12 -3 12 -8 0 -6 7 -7 17
-4 9 4 14 2 11 -3 -9 -14 13 -29 46 -31 36 -3 38 -6 39 -40 0 -15 2 -22 4 -15
7 17 30 15 37 -4 4 -11 2 -15 -8 -11 -7 3 -19 0 -25 -6 -8 -8 -11 -8 -11 2 0
10 -3 11 -13 3 -8 -7 -18 -7 -27 -2 -8 6 -10 10 -5 10 6 0 12 10 12 22 2 16 0
19 -6 9 -5 -8 -14 -10 -21 -6 -9 5 -10 1 -5 -16 l7 -24 -17 23 c-17 23 -42 32
-29 10 6 -10 4 -10 -7 -3 -8 6 -40 11 -71 10 -53 0 -63 5 -59 28 1 5 -3 6 -9
2 -6 -3 -8 -11 -5 -16 4 -5 -4 -7 -17 -5 -13 2 -29 -2 -37 -8 -12 -8 -13 -8
-7 2 6 9 1 12 -16 9 -12 -2 -17 -2 -10 0 6 3 12 9 12 14 0 9 -10 10 -255 13
-82 1 -155 5 -162 9 -6 4 -14 4 -16 -1 -3 -4 -69 -7 -146 -7 -133 0 -146 -3
-142 -28 1 -5 -3 -6 -9 -2 -6 3 -8 11 -5 16 4 5 -8 9 -24 9 -17 0 -31 -4 -31
-10 0 -5 6 -7 14 -4 8 3 17 1 21 -5 4 -7 0 -8 -11 -4 -13 5 -15 3 -9 -8 7 -11
6 -12 -7 -2 -8 7 -17 11 -20 8 -3 -3 -31 -7 -64 -9 -32 -2 -62 -5 -66 -5 -7
-1 -24 -70 -20 -84 1 -5 -2 -5 -8 -2 -6 4 -9 13 -6 21 3 7 2 16 -3 18 -4 3 -8
0 -8 -7 0 -25 -14 -111 -19 -119 -3 -4 0 -8 7 -8 7 0 9 -3 6 -6 -4 -4 -14 -1
-24 7 -15 12 -16 12 -10 -3 3 -10 3 -18 -1 -18 -4 0 -7 -24 -7 -54 0 -30 -3
-52 -6 -50 -15 9 -28 -25 -30 -79 -2 -50 -5 -57 -20 -52 -14 5 -18 1 -17 -17
0 -13 0 -51 -1 -85 -1 -58 -2 -61 -23 -55 -19 5 -20 4 -7 -10 7 -9 17 -14 21
-11 4 2 5 -3 2 -12 -6 -14 -7 -14 -18 0 -9 12 -12 2 -14 -52 -2 -38 -8 -71
-15 -75 -9 -6 -9 -8 1 -8 15 0 16 -26 0 -36 -7 -5 -8 -2 -3 7 6 11 5 12 -6 1
-7 -7 -15 -33 -16 -59 -6 -85 -38 -86 -42 -2 -3 61 -6 70 -25 63 -10 -4 -14 4
-14 32 0 37 -17 58 -37 46 -5 -3 -4 1 3 10 8 10 9 17 3 20 -5 1 -11 29 -12 61
-1 32 -7 61 -12 64 -6 4 -8 -2 -5 -14 3 -11 0 -20 -6 -20 -6 0 -12 22 -14 51
-3 54 -17 80 -36 69 -6 -3 -6 0 2 8 14 16 16 33 2 24 -9 -5 -13 27 -13 106 0
11 -6 15 -18 12 -16 -4 -18 3 -21 58 l-3 62 -37 2 c-30 1 -38 -3 -38 -16 0
-12 -11 -19 -40 -24 -30 -5 -40 -11 -40 -26 0 -12 -7 -19 -20 -19 -13 0 -20
-7 -20 -19 0 -14 -5 -18 -20 -14 -11 3 -21 0 -21 -6 -1 -6 -3 -15 -4 -21 -1
-5 -3 -13 -4 -16 0 -3 -6 -2 -11 1 -8 5 -8 11 -1 19 8 9 7 13 -4 13 -7 0 -14
-3 -13 -6 2 -22 -5 -31 -22 -31 -13 0 -20 -7 -20 -19 0 -14 -6 -19 -20 -16
-15 3 -20 -2 -20 -20 0 -18 -5 -23 -20 -20 -15 3 -20 -2 -20 -16 0 -11 -4 -17
-10 -14 -5 3 -10 2 -10 -3 0 -5 -7 -9 -15 -10 -46 -5 -43 -2 -47 -52 -3 -27
-18 -25 -18 3 0 17 -2 19 -9 7 -6 -8 -7 -18 -5 -22 3 -4 -6 -12 -20 -18 -15
-5 -25 -15 -24 -22 2 -8 -5 -12 -19 -10 -25 4 -30 -7 -11 -26 9 -9 5 -12 -21
-12 -26 0 -32 -3 -27 -16 4 -10 -3 -18 -24 -26 -32 -11 -38 -23 -17 -32 6 -3
1 -4 -12 -3 -19 1 -26 -4 -31 -23 -4 -17 -8 -21 -14 -12 -4 6 -4 17 0 24 5 7
3 8 -5 4 -7 -5 -10 -14 -7 -22 5 -12 -9 -18 -35 -16 -3 1 -6 -6 -6 -13 0 -10
4 -12 12 -5 8 7 12 5 12 -3 0 -13 -11 -17 -52 -18 l-20 0 20 -16 c20 -15 20
-15 -2 -8 -19 5 -22 3 -16 -11 4 -12 3 -15 -6 -10 -6 4 -19 5 -28 2 -12 -5
-13 -9 -3 -21 11 -13 8 -15 -19 -15 -17 0 -31 -4 -31 -10 0 -5 6 -10 13 -10
20 0 -15 -20 -36 -20 -10 0 -15 5 -12 10 4 6 12 8 18 4 7 -3 4 1 -6 9 -17 14
-16 15 10 22 15 4 22 10 16 12 -10 3 -9 8 2 20 12 12 13 18 4 29 -11 13 -2 19
17 12 12 -5 30 67 19 74 -5 4 0 8 13 8 21 0 26 9 23 38 -1 7 5 12 15 10 9 -2
19 3 22 11 3 10 0 12 -11 8 -9 -3 -19 -2 -22 3 -4 6 6 10 20 10 15 0 25 5 24
13 -1 6 0 23 1 37 2 18 4 20 7 8 8 -30 29 -21 27 11 -2 33 5 46 26 46 10 0 14
8 12 23 -2 12 2 22 8 22 6 0 9 4 5 9 -3 5 0 13 6 17 7 4 9 3 5 -4 -3 -6 -2
-13 4 -17 5 -3 10 2 10 12 0 11 6 25 13 32 10 11 10 13 0 7 -7 -4 -13 -2 -13
3 0 6 5 11 11 11 5 0 7 6 3 13 -5 8 -2 8 9 -2 9 -7 17 -11 17 -8 0 3 3 13 7
23 5 12 3 15 -6 9 -8 -4 -6 4 4 19 19 28 27 34 19 12 -3 -8 -1 -17 5 -21 7 -4
11 5 11 25 0 22 4 29 13 24 9 -6 9 -4 -1 8 -10 13 -10 17 4 22 9 3 19 4 24 1
4 -2 7 5 6 18 -1 15 4 22 17 21 15 -2 22 14 18 39 0 4 3 7 9 7 5 0 7 8 3 18
-5 14 -3 13 11 -3 12 -14 16 -16 15 -5 -4 43 2 60 21 60 15 0 20 7 20 24 0 14
5 28 12 32 7 5 8 3 3 -6 -5 -8 -3 -11 6 -8 7 2 16 15 19 27 3 12 8 22 13 22
23 -2 27 1 27 23 0 13 8 30 18 37 15 13 16 12 4 -3 -8 -9 -9 -19 -3 -22 11 -7
32 49 23 60 -4 4 -2 4 5 1 6 -4 14 -1 17 5 3 7 3 2 0 -11 -4 -16 -3 -21 5 -17
6 4 11 18 11 30 0 16 5 23 17 22 10 0 18 7 20 19 l3 20 -9 -20 -10 -20 0 20
c-1 17 -3 17 -11 5 -7 -11 -10 -7 -10 17 0 24 -4 31 -15 27 -14 -6 -49 19 -40
28 5 5 -6 7 -55 10 -16 1 -26 6 -23 11 4 6 0 8 -10 4 -12 -4 -17 -1 -17 9 0
11 -6 15 -20 11 -11 -3 -20 -2 -20 3 0 4 -17 8 -37 9 -61 1 -72 4 -67 13 3 5
9 6 14 3 5 -3 11 -2 14 3 3 5 0 9 -7 9 -7 1 -32 2 -57 4 -25 1 -51 7 -59 13
-11 8 -13 8 -8 -1 5 -8 0 -11 -13 -10 -17 1 -23 8 -22 27 0 3 -25 6 -56 6
-100 2 -112 4 -112 15 0 5 4 8 9 4 5 -3 13 0 17 6 4 8 3 9 -4 5 -7 -4 -12 -2
-12 3 0 7 29 11 75 11 42 0 75 4 75 10 0 5 -6 8 -12 6 -7 -1 -9 -1 -4 2 4 2 2
8 -5 13 -8 5 -9 9 -3 9 6 0 17 -7 24 -15 14 -17 30 -20 30 -4 0 5 -4 7 -10 4
-5 -3 -10 -2 -10 3 0 5 42 11 93 12 50 1 98 2 105 3 6 0 12 5 12 10 0 5 -6 7
-13 4 -8 -3 -14 1 -14 8 0 10 5 11 18 5 12 -7 19 -6 23 3 3 6 3 2 0 -10 -3
-13 -1 -23 5 -23 6 0 11 10 11 23 0 18 2 19 10 7 6 -10 10 -11 10 -2 0 6 5 12
11 12 5 0 8 -4 5 -8 -3 -5 1 -9 9 -9 8 0 12 4 9 9 -3 4 0 8 5 8 6 0 11 -6 12
-12 0 -10 2 -10 6 0 3 9 70 12 287 12 212 0 285 3 295 13 11 10 13 10 7 0 -4
-7 -2 -13 5 -13 6 0 9 8 6 20 -4 16 0 20 18 20 14 0 25 7 28 20 3 12 14 20 27
20 17 0 21 4 16 18 -5 14 -4 14 9 -2 8 -11 18 -17 21 -13 4 4 2 12 -4 20 -9
10 -4 13 26 15 38 3 57 14 57 35 0 7 10 11 24 9 18 -3 22 0 18 11 -7 18 12 27
55 27 25 0 29 3 25 20 -5 18 0 20 37 20 23 0 47 5 54 12 9 9 12 9 12 -2 0 -7
3 -11 6 -7 12 12 -7 28 -20 18 -9 -8 -13 -7 -13 2 0 9 15 14 41 16 69 3 81 7
78 25 -2 13 7 16 57 16 33 0 63 -5 66 -11z m3057 -26 c-6 -2 -10 -9 -6 -14 3
-5 0 -9 -5 -9 -12 0 -14 13 -4 23 3 4 11 7 17 6 6 0 5 -3 -2 -6z m-1369 -57
c4 -10 1 -13 -8 -9 -8 3 -12 9 -9 14 7 12 11 11 17 -5z m177 -10 c0 -3 -4 -8
-10 -11 -5 -3 -10 -1 -10 4 0 6 5 11 10 11 6 0 10 -2 10 -4z m-207 -30 c6 -15
-17 -16 -30 -1 -4 4 -2 5 5 1 6 -4 12 -2 12 3 0 15 7 14 13 -3z m-2111 -41 c0
-5 -5 -10 -12 -11 -7 -2 -6 -1 1 3 8 4 7 8 -2 15 -11 8 -11 9 -1 6 8 -2 14 -8
14 -13z m3223 -75 c-3 -5 -12 -10 -18 -10 -7 0 -6 4 3 10 19 12 23 12 15 0z
m-2848 -132 c-3 -8 -6 -5 -6 6 -1 11 2 17 5 13 3 -3 4 -12 1 -19z m-1657 -58
c0 -5 -2 -10 -4 -10 -3 0 -8 5 -11 10 -3 6 -1 10 4 10 6 0 11 -4 11 -10z m169
-26 c3 -3 -3 -5 -14 -3 -11 2 -25 0 -31 -4 -7 -4 -17 -1 -23 7 -10 11 -5 13
25 10 20 -2 39 -6 43 -10z m-84 -4 c3 -6 -1 -7 -9 -4 -18 7 -21 14 -7 14 6 0
13 -4 16 -10z m475 -121 c0 -5 -4 -9 -10 -9 -5 0 -10 7 -10 16 0 8 5 12 10 9
6 -3 10 -10 10 -16z m3986 -89 c0 -12 -4 -16 -9 -11 -5 5 -6 14 -3 20 10 15
12 14 12 -9z m-6 -40 c6 -11 7 -20 2 -20 -6 0 -12 9 -15 20 -3 11 -3 20 -1 20
2 0 8 -9 14 -20z m-2260 -15 c0 -2 -10 -9 -22 -15 -22 -11 -22 -10 -4 4 21 17
26 19 26 11z m-1400 -245 c0 -5 -2 -10 -4 -10 -3 0 -8 5 -11 10 -3 6 -1 10 4
10 6 0 11 -4 11 -10z m380 -235 c0 -2 -6 -5 -13 -8 -8 -3 -14 1 -14 8 0 7 6
11 14 8 7 -3 13 -6 13 -8z m-806 -56 c-3 -5 -10 -7 -15 -3 -5 3 -7 10 -3 15 3
5 10 7 15 3 5 -3 7 -10 3 -15z m715 -302 c8 -10 7 -14 -2 -14 -8 0 -14 6 -14
14 0 7 1 13 2 13 2 0 8 -6 14 -13z m-82 -3 c-3 -3 -12 -4 -19 -1 -8 3 -5 6 6
6 11 1 17 -2 13 -5z m-1156 -127 c-10 -9 -11 -8 -5 6 3 10 9 15 12 12 3 -3 0
-11 -7 -18z m-76 -319 c-2 -10 0 -18 4 -18 4 0 6 -16 5 -35 -2 -26 1 -35 12
-35 20 0 29 -29 28 -94 0 -43 3 -55 14 -53 16 2 21 -15 25 -85 1 -34 6 -47 16
-45 14 2 17 -10 25 -85 2 -24 5 -44 6 -45 2 -2 3 -9 4 -15 1 -7 7 -12 14 -10
13 2 13 2 16 -38 2 -14 6 -33 11 -43 6 -15 10 -16 16 -5 6 9 9 2 10 -19 2 -54
3 -56 22 -59 25 -3 35 -14 14 -14 -9 0 -17 -5 -17 -11 0 -5 4 -8 9 -5 5 3 14
-1 20 -8 8 -10 9 -16 1 -21 -6 -3 -7 -12 -3 -18 4 -7 8 -15 8 -19 0 -3 3 -10
7 -14 4 -3 6 3 3 15 -2 11 0 21 6 21 8 0 13 -21 10 -42 -1 -7 33 -3 48 6 5 4
12 0 14 -6 4 -8 6 -7 6 4 1 9 -7 18 -16 21 -10 2 -4 4 13 4 17 0 37 4 44 8 8
5 11 4 7 -1 -3 -6 3 -15 13 -22 13 -7 21 -8 25 -2 4 6 1 9 -6 8 -6 -2 -13 2
-15 7 -3 7 21 11 63 11 58 0 68 2 67 17 -2 15 0 15 19 2 24 -17 51 -20 42 -5
-4 6 -10 8 -15 5 -5 -3 -11 -1 -14 4 -3 5 14 7 39 5 25 -2 45 1 45 6 0 5 9 8
19 7 11 0 17 -5 14 -10 -3 -5 3 -5 13 1 11 5 31 8 47 6 15 -1 25 1 22 7 -3 5
1 6 9 3 10 -4 16 -18 16 -38 0 -18 -3 -26 -8 -19 -13 21 -32 -2 -34 -41 -1
-23 -4 -32 -9 -24 -7 11 -9 11 -9 0 0 -7 -4 -10 -10 -7 -9 6 -15 -30 -11 -63
1 -8 -6 -12 -16 -10 -13 2 -19 -4 -21 -25 -3 -20 -8 -27 -18 -23 -8 3 -13 2
-9 -3 3 -5 2 -11 -2 -14 -5 -2 -2 -2 5 -1 6 2 12 -1 12 -6 0 -6 -7 -10 -15
-10 -14 0 -21 -30 -16 -67 2 -16 -15 -17 -25 -1 -4 6 -3 8 3 5 5 -3 10 0 10 8
0 10 -4 12 -12 5 -6 -5 -13 -36 -14 -67 -1 -32 -6 -62 -11 -67 -5 -5 -7 5 -5
25 2 19 1 28 -2 21 -2 -6 -8 -10 -12 -8 -10 6 -8 -25 3 -42 4 -7 12 -10 17 -7
5 4 9 1 9 -5 0 -7 8 -9 21 -5 19 6 21 4 16 -14 -4 -17 -1 -21 19 -21 15 0 24
-6 24 -16 0 -8 -4 -12 -10 -9 -5 3 -10 1 -10 -4 0 -6 14 -11 30 -11 23 0 30
-4 30 -20 0 -14 7 -20 24 -20 19 0 23 -4 19 -20 -5 -20 10 -26 60 -21 11 2 17
-5 17 -18 0 -14 6 -21 20 -21 14 0 20 -7 21 -22 l0 -23 9 23 c11 25 16 27 26
10 4 -7 3 -8 -4 -4 -7 4 -12 1 -12 -8 0 -11 9 -16 30 -16 23 0 30 -4 30 -20 0
-11 3 -19 8 -19 4 1 22 1 40 0 25 -1 32 -5 32 -21 0 -17 7 -20 40 -20 30 0 40
-4 40 -16 0 -8 5 -12 10 -9 6 4 8 10 6 14 -3 4 1 8 8 8 8 0 13 -7 11 -16 -2
-14 -23 -16 -148 -18 -109 -2 -147 1 -147 10 0 7 -4 6 -10 -3 -8 -12 -10 -11
-10 8 0 24 -19 29 -39 10 -11 -10 -13 -10 -7 0 5 9 -10 12 -61 13 -37 1 -74 1
-81 0 -7 -1 -12 2 -11 6 5 30 -3 34 -63 31 -41 -2 -63 -8 -66 -17 -3 -9 0 -11
9 -5 12 6 12 5 1 -8 -10 -13 -10 -17 0 -20 8 -3 6 -7 -6 -11 -12 -5 -15 -3
-10 6 5 7 1 7 -10 -2 -11 -9 -13 -18 -7 -24 7 -7 7 -16 1 -28 -6 -10 -6 -20
-2 -23 5 -3 8 -23 7 -45 -2 -35 0 -39 15 -31 13 7 16 4 16 -13 -1 -12 -8 -25
-16 -29 -13 -6 -13 -7 0 -7 12 -1 15 -14 14 -64 -1 -49 3 -65 17 -77 14 -11
16 -19 8 -30 -9 -13 -10 -12 -5 3 4 13 -1 19 -23 23 -17 4 -31 14 -34 25 -3
11 -14 19 -26 19 -22 0 -30 20 -8 20 7 1 4 6 -6 15 -11 7 -26 11 -35 8 -12 -3
-13 -2 -5 4 15 11 2 33 -23 38 -10 2 -20 4 -22 4 -2 1 0 6 3 11 5 8 11 7 21
-1 9 -7 14 -8 14 -1 0 6 -9 14 -20 17 -11 3 -20 15 -20 26 0 12 -7 19 -19 19
-13 0 -18 6 -17 18 2 10 -5 19 -18 22 -12 3 -22 11 -22 18 -1 7 -2 17 -3 22 0
6 -7 10 -15 8 -8 -2 -15 2 -15 7 0 6 9 9 21 7 12 -2 18 0 14 7 -4 6 -16 11
-26 11 -13 0 -18 6 -15 20 4 19 -11 26 -40 20 -5 -1 -1 9 10 21 11 12 15 20
10 16 -6 -3 -17 -2 -25 4 -8 5 -10 9 -4 9 6 0 11 7 11 15 0 9 -9 15 -22 15
-19 0 -22 5 -21 40 1 36 -1 40 -24 41 -14 0 -20 3 -13 5 19 8 3 34 -22 34 -16
0 -22 6 -21 18 1 13 -8 18 -41 20 -26 2 -43 9 -47 19 -6 14 -4 14 11 2 16 -13
17 -12 4 4 -9 11 -27 17 -52 17 -22 0 -38 3 -38 8 4 25 -4 32 -43 33 -24 0
-37 3 -30 6 20 8 -6 33 -34 33 -17 0 -22 5 -19 18 2 14 -4 19 -33 20 -21 2
-39 7 -40 13 -2 5 -9 6 -16 2 -7 -4 -3 0 8 11 21 18 21 18 1 16 -35 -4 -46 0
-39 13 6 10 4 10 -7 0 -18 -18 -30 -16 -23 2 4 9 0 15 -7 16 -8 1 -18 2 -24 4
-5 1 -15 3 -21 3 -7 1 -14 8 -17 16 -4 10 0 14 14 11 20 -4 44 26 31 40 -4 5
-2 5 5 1 7 -4 11 -12 9 -19 -1 -7 -1 -9 1 -4 3 4 9 4 15 1 6 -4 8 1 4 13 -4
13 -2 20 8 20 9 0 13 -4 10 -9 -3 -4 0 -8 5 -8 6 0 11 4 11 8 0 5 6 9 13 9 54
4 64 8 59 25 -2 10 1 18 7 18 7 0 9 -5 5 -11 -4 -7 1 -7 16 1 12 6 24 9 27 6
3 -3 15 0 27 6 20 11 20 11 1 19 -20 9 -20 9 0 6 12 -2 19 -10 19 -20 -1 -9 2
-14 7 -11 5 3 9 13 9 22 0 14 9 17 43 18 27 0 41 4 40 12 -2 7 4 12 12 12 8 0
15 4 15 10 0 5 -8 7 -17 4 -13 -5 -10 1 7 17 14 13 21 21 16 17 -6 -5 -17 -8
-25 -7 -11 0 -12 2 -3 6 6 2 9 10 5 16 -4 6 -8 53 -9 103 0 50 -4 96 -8 103
-4 6 -4 11 1 11 10 0 8 153 -1 169 -4 6 -4 11 1 11 4 0 8 79 8 175 0 96 4 175
9 175 4 0 6 6 3 14 -3 7 0 19 6 25 8 8 8 11 -1 11 -7 0 -12 4 -12 8 0 5 6 9
14 9 8 0 13 -8 11 -19z m49 -66 c3 -5 -1 -9 -9 -9 -8 0 -15 4 -15 9 0 4 4 8 9
8 6 0 12 -4 15 -8z m-107 -359 c-4 -3 -1 -13 6 -22 11 -14 10 -14 -5 -2 -16
12 -16 31 -1 31 4 0 3 -3 0 -7z m233 -67 c0 -2 -8 -10 -17 -17 -16 -13 -17
-12 -4 4 13 16 21 21 21 13z m2416 -652 c2 -10 4 -72 5 -136 l1 -117 34 1 c22
1 36 7 39 18 5 16 10 18 60 21 17 1 24 7 23 18 -2 10 5 17 20 19 12 2 22 9 22
15 0 8 3 7 9 -2 5 -8 14 -10 21 -6 10 6 9 11 -3 20 -14 10 -11 12 21 14 20 1
43 3 50 3 6 1 12 6 12 11 0 5 -7 7 -15 3 -9 -3 -15 0 -15 8 0 8 6 14 13 13 50
-2 67 4 67 23 0 16 7 20 32 20 25 0 29 3 20 12 -7 7 -12 16 -12 21 0 5 9 -1
20 -14 10 -13 19 -19 20 -14 0 6 -5 16 -11 22 -7 7 -2 10 18 9 36 -1 45 -33
11 -38 -15 -2 -22 -9 -20 -20 2 -12 -4 -18 -18 -18 -13 0 -20 -7 -20 -20 0
-13 -7 -20 -20 -20 -13 0 -20 -7 -20 -20 0 -14 -7 -20 -24 -20 -21 0 -61 -30
-40 -30 5 0 3 -4 -5 -9 -8 -5 -23 -8 -33 -6 -10 2 -16 0 -13 -5 7 -11 -24 -42
-36 -35 -5 4 -9 1 -9 -5 0 -6 7 -10 16 -8 10 2 19 -4 21 -12 4 -13 3 -13 -6 0
-7 10 -11 11 -11 3 0 -7 -3 -12 -7 -12 -24 4 -53 -2 -53 -12 0 -6 9 -8 23 -4
20 5 20 5 -3 -9 -14 -9 -33 -15 -42 -16 -11 0 -18 -8 -18 -19 0 -13 -8 -21
-22 -23 -16 -2 -22 -9 -20 -21 2 -9 -1 -17 -5 -16 -30 5 -34 -3 -31 -61 2 -42
7 -60 16 -60 7 0 11 4 7 9 -3 5 -2 12 3 15 4 2 9 -4 9 -15 1 -11 -5 -19 -15
-20 -15 -1 -15 -2 0 -6 14 -3 17 -15 16 -56 0 -33 -3 -45 -8 -32 -5 14 -17 20
-43 20 -29 1 -34 -1 -25 -12 8 -10 14 -10 24 -2 11 9 14 8 14 -3 0 -16 -56
-19 -79 -4 -9 6 -12 5 -8 -2 5 -7 -24 -11 -90 -12 -140 -1 -143 -2 -143 -22 0
-17 -24 -24 -70 -19 -13 2 -13 1 0 -8 11 -8 11 -11 2 -11 -7 0 -10 -4 -7 -10
5 -8 -45 -16 -77 -12 -3 1 -9 -5 -12 -14 -4 -10 -2 -13 7 -8 8 5 9 4 2 -4 -5
-6 -32 -12 -60 -14 -38 -3 -50 -8 -49 -19 1 -11 -6 -15 -24 -13 -15 1 -31 -4
-39 -14 -12 -16 -13 -16 -7 1 5 13 2 16 -10 11 -9 -3 -14 -10 -11 -14 3 -4 -3
-14 -12 -21 -14 -12 -15 -11 -9 9 5 14 3 22 -4 22 -6 0 -9 -4 -6 -9 8 -13 -16
-27 -41 -25 -13 0 -23 -2 -23 -6 0 -4 -13 -6 -30 -4 -16 2 -30 -1 -30 -7 0 -6
5 -7 10 -4 6 3 10 0 10 -7 0 -8 -12 -14 -32 -14 -73 -2 -79 -4 -72 -16 6 -10
5 -10 -8 -1 -8 7 -17 11 -19 8 -3 -2 -5 7 -5 20 0 14 4 25 9 25 5 0 7 -7 4
-15 -4 -8 -2 -17 3 -20 6 -4 11 -1 11 4 1 6 2 17 3 24 0 6 11 13 24 15 13 2
22 10 22 20 0 11 9 18 27 19 15 0 32 8 39 17 6 9 18 16 25 16 8 0 19 10 24 23
6 14 17 21 29 19 15 -3 18 1 13 17 -4 17 0 21 19 21 18 0 24 6 24 20 0 14 6
20 18 18 11 -2 18 4 20 20 3 19 -1 22 -32 22 -36 0 -44 8 -26 26 6 6 -9 10
-43 11 -106 2 -117 3 -117 14 0 5 4 8 8 5 5 -3 9 1 9 9 0 8 -3 14 -6 13 -39
-4 -121 4 -121 13 0 5 6 7 13 3 8 -5 8 -2 -2 9 -15 19 -21 18 121 20 36 1 64
5 62 8 -2 4 3 12 11 19 12 10 18 10 32 -1 11 -10 14 -10 9 -1 -7 11 28 14 175
15 9 0 16 6 16 13 0 10 -4 11 -14 3 -8 -7 -13 -8 -13 -1 0 15 26 22 85 22 51
0 84 17 67 35 -4 4 3 5 16 2 18 -4 22 -1 22 19 0 17 6 24 20 24 13 0 20 7 20
19 0 11 9 21 21 24 15 4 20 11 16 21 -5 12 0 16 17 16 12 0 23 6 24 13 6 42 9
52 17 52 6 0 8 -6 7 -15 -2 -8 -1 -12 3 -8 7 7 13 32 14 61 1 10 9 17 21 17
13 0 20 7 20 20 0 13 7 20 20 20 16 0 20 7 20 30 0 22 6 33 24 41 15 7 23 18
21 29 -2 12 2 17 12 16 9 -2 18 -11 19 -22z m521 7 c0 -9 -9 -17 -18 -17 -23
0 -20 32 2 33 11 1 17 -5 16 -16z m-3322 -12 c-10 -15 -25 -10 -19 6 4 8 10
12 15 9 5 -3 7 -10 4 -15z m1010 -190 c-4 -5 -12 -9 -18 -8 -9 0 -8 2 1 6 6 2
9 10 6 15 -4 7 -2 8 5 4 6 -4 9 -12 6 -17z m2115 -5 c0 -8 -5 -12 -10 -9 -6 4
-8 11 -5 16 9 14 15 11 15 -7z m-537 -29 c-3 -9 -8 -14 -10 -11 -3 3 -2 9 2
15 9 16 15 13 8 -4z m280 0 c-3 -9 -8 -14 -10 -11 -3 3 -2 9 2 15 9 16 15 13
8 -4z m217 -18 c0 -7 -4 -6 -10 3 -8 12 -10 12 -10 1 0 -8 -3 -12 -6 -8 -9 9
6 28 17 22 5 -4 9 -12 9 -18z m-1875 -57 c-3 -5 -12 -10 -18 -10 -7 0 -6 4 3
10 19 12 23 12 15 0z m-378 -55 c0 -8 -4 -12 -9 -9 -5 3 -6 10 -3 15 9 13 12
11 12 -6z m208 -46 c-4 -5 -12 -9 -18 -8 -9 0 -8 2 1 6 6 2 9 10 6 15 -4 7 -2
8 5 4 6 -4 9 -12 6 -17z m-302 -26 c-8 -3 -9 -12 -3 -28 9 -23 -3 -45 -17 -31
-4 3 0 6 8 6 10 1 9 4 -4 11 -13 8 -15 15 -8 28 7 12 6 22 -2 31 -10 10 -7 10
13 0 14 -8 20 -15 13 -17z m650 -8 c-7 -21 -12 -19 -10 4 0 11 5 18 9 15 4 -3
5 -11 1 -19z m-53 11 c0 -2 -8 -10 -17 -17 -16 -13 -17 -12 -4 4 13 16 21 21
21 13z m950 0 c0 -2 -7 -7 -16 -10 -8 -3 -12 -2 -9 4 6 10 25 14 25 6z m-350
-32 c0 -8 -19 -13 -24 -6 -3 5 1 9 9 9 8 0 15 -2 15 -3z m60 -5 c0 -5 -4 -7
-10 -4 -5 3 -10 1 -10 -6 0 -7 -3 -10 -6 -6 -8 7 4 27 17 27 5 0 9 -5 9 -11z
m80 -1 c0 -8 -1 -9 -42 -12 -17 -2 -25 1 -21 9 5 13 63 15 63 3z m-1340 -47
c0 -6 -4 -12 -8 -15 -5 -3 -9 1 -9 9 0 8 4 15 9 15 4 0 8 -4 8 -9z m1260 -35
c0 -2 -7 -9 -15 -16 -13 -11 -14 -10 -9 4 5 14 24 23 24 12z m113 -51 c-3 -9
-8 -14 -10 -11 -3 3 -2 9 2 15 9 16 15 13 8 -4z m31 0 c-4 -8 -11 -15 -16 -15
-6 0 -5 6 2 15 7 8 14 15 16 15 2 0 1 -7 -2 -15z m266 -165 c0 -5 -2 -10 -4
-10 -3 0 -8 5 -11 10 -3 6 -1 10 4 10 6 0 11 -4 11 -10z m-3261 -23 c0 -9 -2
-8 -6 1 -2 6 -10 9 -15 6 -7 -4 -8 -2 -4 5 9 13 26 5 25 -12z m3151 -19 c0 -6
-6 -5 -15 2 -8 7 -15 14 -15 16 0 2 7 1 15 -2 8 -4 15 -11 15 -16z m-416 -96
c3 -5 -1 -9 -9 -9 -8 0 -12 4 -9 9 3 4 7 8 9 8 2 0 6 -4 9 -8z m-1724 -756 c0
-2 -7 -6 -15 -10 -8 -3 -15 -1 -15 4 0 6 7 10 15 10 8 0 15 -2 15 -4z m35 -14
c-3 -3 -11 0 -18 7 -9 10 -8 11 6 5 10 -3 15 -9 12 -12z"/>
<path d="M4290 6221 c0 -6 4 -13 10 -16 6 -3 7 1 4 9 -7 18 -14 21 -14 7z"/>
<path d="M4318 6223 c7 -3 16 -2 19 1 4 3 -2 6 -13 5 -11 0 -14 -3 -6 -6z"/>
<path d="M4745 5910 c-3 -6 1 -7 9 -4 18 7 21 14 7 14 -6 0 -13 -4 -16 -10z"/>
<path d="M6075 5789 c-4 -5 -11 -7 -16 -4 -5 4 -9 2 -9 -4 0 -5 5 -13 10 -16
6 -3 10 -2 10 4 0 5 9 8 20 6 11 -2 20 0 20 5 0 12 -29 20 -35 9z"/>
<path d="M6120 5791 c0 -6 4 -13 10 -16 6 -3 7 1 4 9 -7 18 -14 21 -14 7z"/>
<path d="M5085 5581 c-3 -5 -2 -12 3 -15 5 -3 9 1 9 9 0 17 -3 19 -12 6z"/>
<path d="M4550 5461 c0 -5 7 -12 16 -15 14 -5 15 -4 4 9 -14 17 -20 19 -20 6z"/>
<path d="M4270 5372 c0 -5 7 -9 15 -9 8 0 12 4 9 9 -3 4 -9 8 -15 8 -5 0 -9
-4 -9 -8z"/>
<path d="M4155 5339 c-4 -6 -5 -12 -2 -15 2 -3 7 2 10 11 7 17 1 20 -8 4z"/>
<path d="M4375 5241 c-3 -5 -2 -12 3 -15 5 -3 9 1 9 9 0 17 -3 19 -12 6z"/>
<path d="M4417 5238 c-4 -11 4 -14 37 -12 54 2 56 3 56 13 0 12 -53 9 -62 -4
-5 -6 -11 -5 -17 3 -7 11 -9 11 -14 0z"/>
<path d="M4122 5193 c5 -7 14 -10 19 -7 16 10 9 23 -10 21 -15 -1 -17 -4 -9
-14z"/>
<path d="M3758 5193 c6 -2 9 -10 6 -15 -4 -7 -2 -8 5 -4 13 9 5 26 -12 25 -9
0 -8 -2 1 -6z"/>
<path d="M5622 5157 c-8 -10 -6 -13 11 -14 12 0 16 1 9 4 -6 3 -10 9 -6 14 8
14 -2 11 -14 -4z"/>
<path d="M5708 4983 c7 -3 16 -2 19 1 4 3 -2 6 -13 5 -11 0 -14 -3 -6 -6z"/>
<path d="M5750 4870 c-9 -6 -10 -10 -3 -10 6 0 15 5 18 10 8 12 4 12 -15 0z"/>
<path d="M5792 4685 c4 -4 4 -13 -2 -19 -11 -14 5 -44 17 -32 4 5 2 11 -5 13
-9 4 -10 8 -2 18 8 10 8 15 -2 21 -7 4 -10 4 -6 -1z"/>
<path d="M4630 4650 c-6 -11 -9 -20 -8 -20 2 0 11 9 21 20 9 11 13 20 7 20 -5
0 -14 -9 -20 -20z"/>
<path d="M5942 4211 c-11 -7 -11 -9 0 -14 9 -3 15 1 15 9 0 8 -1 14 -1 14 -1
0 -7 -4 -14 -9z"/>
<path d="M2820 4500 c0 -4 7 -7 15 -6 23 3 26 12 5 13 -11 1 -20 -2 -20 -7z"/>
<path d="M3358 4353 c7 -3 16 -2 19 1 4 3 -2 6 -13 5 -11 0 -14 -3 -6 -6z"/>
<path d="M3626 4126 c5 -13 29 -16 36 -5 2 2 1 3 -1 2 -2 -1 -12 2 -22 8 -14
7 -17 6 -13 -5z"/>
<path d="M3924 4108 c3 -10 2 -18 -3 -18 -4 0 -8 -7 -8 -15 0 -20 4 -19 16 3
6 12 6 23 -1 33 -8 11 -9 11 -4 -3z"/>
<path d="M2205 3799 c-4 -6 -4 -13 -1 -16 3 -4 6 -1 6 6 0 7 5 9 12 5 7 -4 8
-3 4 4 -9 15 -13 15 -21 1z"/>
<path d="M2257 3645 c-4 -8 -3 -16 1 -19 4 -3 9 4 9 15 2 23 -3 25 -10 4z"/>
<path d="M2333 3410 c1 -11 5 -20 9 -20 11 0 10 28 -1 35 -6 3 -9 -4 -8 -15z"/>
<path d="M2406 3207 c3 -10 9 -15 12 -12 3 3 0 11 -7 18 -10 9 -11 8 -5 -6z"/>
<path d="M1130 2759 c0 -5 5 -7 10 -4 6 3 10 8 10 11 0 2 -4 4 -10 4 -5 0 -10
-5 -10 -11z"/>
<path d="M1162 2715 c-11 -12 -10 -15 3 -15 8 0 15 7 15 15 0 18 -2 18 -18 0z"/>
<path d="M1201 2576 c-8 -10 -8 -16 2 -24 10 -9 13 -6 13 13 0 29 0 29 -15 11z"/>
<path d="M1243 2444 c-3 -8 -1 -20 4 -25 5 -5 9 1 9 16 0 29 -4 32 -13 9z"/>
<path d="M1770 2080 c0 -5 5 -10 11 -10 5 0 7 5 4 10 -3 6 -8 10 -11 10 -2 0
-4 -4 -4 -10z"/>
<path d="M1530 2040 c0 -5 5 -10 11 -10 5 0 7 5 4 10 -3 6 -8 10 -11 10 -2 0
-4 -4 -4 -10z"/>
<path d="M1830 1936 c0 -2 7 -7 16 -10 8 -3 12 -2 9 4 -6 10 -25 14 -25 6z"/>
<path d="M1761 1611 c-8 -5 -9 -11 -3 -15 5 -3 12 1 16 9 6 17 6 18 -13 6z"/>
<path d="M1810 1341 c0 -5 5 -13 10 -16 6 -3 10 -2 10 4 0 5 -4 13 -10 16 -5
3 -10 2 -10 -4z"/>
<path d="M2020 1301 c0 -9 30 -24 36 -18 2 1 -6 8 -16 15 -11 7 -20 8 -20 3z"/>
<path d="M3715 1691 c-3 -5 -2 -12 3 -15 5 -3 9 1 9 9 0 17 -3 19 -12 6z"/>
<path d="M3680 1650 c-8 -5 -11 -12 -7 -16 4 -4 13 -2 19 4 15 15 7 24 -12 12z"/>
<path d="M3590 1061 c0 -6 4 -13 10 -16 6 -3 7 1 4 9 -7 18 -14 21 -14 7z"/>
<path d="M2910 826 c0 -2 7 -7 16 -10 8 -3 12 -2 9 4 -6 10 -25 14 -25 6z"/>
<path d="M890 6951 c0 -7 -5 -9 -12 -5 -7 5 -8 3 -3 -5 5 -9 10 -10 18 -2 6 6
8 14 4 18 -4 3 -7 1 -7 -6z"/>
<path d="M450 6711 c0 -6 4 -13 10 -16 6 -3 7 1 4 9 -7 18 -14 21 -14 7z"/>
<path d="M290 6551 c0 -6 4 -13 10 -16 6 -3 7 1 4 9 -7 18 -14 21 -14 7z"/>
<path d="M6705 6549 c-4 -6 -5 -12 -2 -15 2 -3 7 2 10 11 7 17 1 20 -8 4z"/>
<path d="M6890 6236 c0 -2 7 -7 16 -10 8 -3 12 -2 9 4 -6 10 -25 14 -25 6z"/>
<path d="M40 6121 c0 -5 7 -12 16 -15 14 -5 15 -4 4 9 -14 17 -20 19 -20 6z"/>
<path d="M6973 1056 c0 -8 5 -12 10 -9 7 4 8 -1 3 -13 -6 -15 -5 -17 5 -6 11
10 10 15 -2 28 -14 13 -16 13 -16 0z"/>
<path d="M0 1006 c0 -2 7 -7 16 -10 8 -3 12 -2 9 4 -6 10 -25 14 -25 6z"/>
<path d="M6976 998 c3 -5 10 -6 15 -3 13 9 11 12 -6 12 -8 0 -12 -4 -9 -9z"/>
<path d="M5950 10 c0 -5 5 -10 10 -10 6 0 10 5 10 10 0 6 -4 10 -10 10 -5 0
-10 -4 -10 -10z"/>
</g>
</svg>
