<?xml version="1.0" encoding="UTF-8"?>
<svg width="31px" height="31px" viewBox="0 0 31 31" version="1.1" xmlns="http://www.w3.org/2000/svg" xmlns:xlink="http://www.w3.org/1999/xlink">
    <!-- Generator: Sketch 52.6 (67491) - http://www.bohemiancoding.com/sketch -->
    <title>twitter</title>
    <desc>Created with Sketch.</desc>
    <g id="Page-1" stroke="none" stroke-width="1" fill="none" fill-rule="evenodd">
        <g id="Newsletter_BNP_Commercial_1_topic" transform="translate(-580.000000, -1425.000000)">
            <g id="SHARES" transform="translate(484.000000, 1425.000000)">
                <g id="SOME/28_twitter-Copy" transform="translate(96.000000, 0.000000)">
                    <g id="Youtube" fill="#E6E6E6">
                        <rect id="Rectangle-14-Copy-3" x="0" y="0" width="31" height="31"></rect>
                    </g>
                    <g id="twitter-logo-silhouette" transform="translate(5.535714, 7.750000)" fill="#A6A6A6">
                        <path d="M19.9285714,1.8338939 C19.1950881,2.14509805 18.408071,2.35615315 17.5811642,2.45037808 C18.4254923,1.96625154 19.0718043,1.19835894 19.3781252,0.286166894 C18.586126,0.734499184 17.711905,1.06004598 16.7804056,1.23652284 C16.0344831,0.474585562 14.9734803,0 13.7966507,0 C11.5389222,0 9.70832364,1.75282679 9.70832364,3.91345231 C9.70832364,4.21988598 9.74443609,4.51917951 9.8141862,4.80537759 C6.41701049,4.64199618 3.40463266,3.08354338 1.38848966,0.715417234 C1.03605947,1.29255269 0.835568592,1.96503553 0.835568592,2.68288478 C0.835568592,4.04103947 1.55785023,5.23939841 2.65372808,5.94050419 C1.98374274,5.91905258 1.35361461,5.74257572 0.801963495,5.44923751 L0.801963495,5.49812721 C0.801963495,7.39403744 2.21165172,8.97634269 4.08083755,9.33646773 C3.73837165,9.42470616 3.37724712,9.47359586 3.00365092,9.47359586 C2.73966204,9.47359586 2.4843675,9.44855859 2.23405512,9.40085372 C2.75457593,10.9569369 4.26390718,12.088509 6.05217375,12.1195327 C4.65368723,13.1688529 2.8903314,13.7924773 0.97506882,13.7924773 C0.645074583,13.7924773 0.320029935,13.7733953 0,13.7388171 C1.80943258,14.8513384 3.9575863,15.5 6.26637368,15.5 C13.7867515,15.5 17.8975145,9.5356122 17.8975145,4.36300061 L17.8838055,3.85623764 C18.6870064,3.30769393 19.3818699,2.61849879 19.9285714,1.8338939 Z" id="Shape" fill-rule="nonzero"></path>
                    </g>
                </g>
            </g>
        </g>
    </g>
</svg>