<?xml version="1.0" encoding="UTF-8"?>
<svg width="500px" height="500px" viewBox="0 0 500 500" version="1.1" xmlns="http://www.w3.org/2000/svg" xmlns:xlink="http://www.w3.org/1999/xlink">
    <title>Icons / Family / API</title>
    <g id="Icons-/-Family-/-API" stroke="none" stroke-width="1" fill="none" fill-rule="evenodd">
        <path d="M366.870904,113 C381.52251,113 393,121.629284 393,132.644212 L393,132.644212 L393,354.715025 C393,371.965671 378.910737,386 361.59169,386 L361.59169,386 L138.40831,386 C121.089263,386 107,371.965671 107,354.715025 L107,354.715025 L107,132.644212 C107,121.629284 118.47749,113 133.129096,113 L133.129096,113 Z M374.823237,197.018107 L125.176763,197.018107 L125.176763,354.715025 C125.176763,361.981731 131.112612,367.892649 138.40831,367.892649 L138.40831,367.892649 L361.59169,367.892649 C368.887388,367.892649 374.823237,361.981731 374.823237,354.715025 L374.823237,354.715025 L374.823237,197.018107 Z M191.002253,255.760963 C194.655566,252.080814 200.602478,252.078544 204.258044,255.760963 C206.026685,257.542596 207,259.915458 207,262.440383 C207,264.963038 206.026685,267.334765 204.258044,269.118667 L204.258044,269.118667 L185.513835,287.999433 L204.258044,306.881333 C207.912483,310.563751 207.911357,316.555484 204.256918,320.237902 C202.488277,322.019535 200.136098,323 197.629585,323 C195.124199,323 192.77202,322.019535 191.00338,320.237902 L191.00338,320.237902 L159,287.999433 Z M302.370415,253 C304.876927,253 307.230233,253.980449 308.997747,255.762053 L308.997747,255.762053 L341,288 L308.99662,320.237947 C307.229107,322.019551 304.875801,323 302.370415,323 C299.865029,323 297.511723,322.019551 295.743082,320.237947 C292.088643,316.555588 292.087517,310.563953 295.741956,306.881594 L295.741956,306.881594 L314.486165,288 L295.741956,269.118406 C293.973315,267.335668 293,264.963979 293,262.441364 C293,259.91648 293.973315,257.543657 295.741956,255.762053 C297.510596,253.980449 299.865029,253 302.370415,253 Z M253.389634,256.987562 C255.62444,255.876246 258.199498,255.695334 260.568822,256.483031 C265.490595,258.119105 268.158346,263.428479 266.51474,268.316474 L266.51474,268.316474 L251.326649,313.606278 C250.535367,315.973865 248.863502,317.893106 246.618522,319.010041 C245.29595,319.667392 243.865991,320 242.426988,320 C241.424321,320 240.417132,319.838191 239.438203,319.514572 C234.518691,317.881869 231.846419,312.574742 233.479851,307.685623 L233.479851,307.685623 L248.670203,262.398067 C249.466006,260.027109 251.142393,258.105621 253.389634,256.987562 Z M366.870904,131.107351 L133.129096,131.107351 C128.774626,131.107351 126.029934,132.581968 125.176763,133.356057 L125.176763,133.356057 L125.176763,178.539556 L374.823237,178.539556 L374.823237,133.356057 C373.970066,132.581968 371.225374,131.107351 366.870904,131.107351 L366.870904,131.107351 Z M349.951395,145 C355.492311,145 360,149.486002 360,155 C360,160.513998 355.492311,165 349.951395,165 L349.951395,165 L238.052022,165 C232.509968,165 228,160.513998 228,155 C228,149.486002 232.509968,145 238.052022,145 L238.052022,145 Z" id="Primary-shape" fill="#19B3EE" fill-rule="nonzero"></path>
        <path d="M159.835324,145 L159.835324,165 L140,165 L140,145 L159.835324,145 Z M204,145 L204,165 L184.1658,165 L184.1658,145 L204,145 Z" id="Secondary-shape" fill="#14DE2D"></path>
    </g>
</svg>