<?xml version="1.0" encoding="UTF-8"?>
<svg width="500px" height="500px" viewBox="0 0 500 500" version="1.1" xmlns="http://www.w3.org/2000/svg" xmlns:xlink="http://www.w3.org/1999/xlink">
    <title>Icons / Family / Billing</title>
    <g id="Icons-/-Family-/-Billing" stroke="none" stroke-width="1" fill="none" fill-rule="evenodd">
        <path d="M332.304688,137.5 C346.367188,137.5 357.5,148.632812 357.5,162.695312 L357.5,162.695312 L357.5,175 L245,175 C230.9375,175 219.804688,186.132812 219.804688,200.195312 L219.804688,200.195312 L219.804688,299.804688 C219.804688,313.867188 230.9375,325 245,325 L245,325 L357.5,325 L357.5,337.304688 C357.5,351.367188 346.367188,362.5 332.304688,362.5 L332.304688,362.5 L157.695312,362.5 C143.632812,362.5 132.5,351.367188 132.5,337.304688 L132.5,337.304688 L132.5,162.695312 C132.5,148.632812 143.632812,137.5 157.695312,137.5 L157.695312,137.5 Z M369.804688,200.195312 L369.804688,299.804688 L257.304688,299.804688 C250.955574,299.804688 245.175037,294.687491 245.003898,287.813646 L245,287.5 L245,212.5 C245,205.573694 250.685774,200.35312 257.016501,200.198825 L257.304688,200.195312 L369.804688,200.195312 Z M351.804,218.195 L263,218.195 L263,281.804 L351.804,281.804 L351.804,218.195 Z" id="Primary-shape" fill="#19B3EE" fill-rule="nonzero"></path>
        <path d="M294.804688,268.75 C284.84375,268.75 276.054688,260.546875 276.054688,250 C276.054688,239.453125 284.84375,231.25 294.804688,231.25 C305.351562,231.25 313.554688,239.453125 313.554688,250 C313.554688,260.546875 305.351562,268.75 294.804688,268.75 Z" id="Secondary-shape" fill="#14DE2D"></path>
    </g>
</svg>