<?xml version="1.0" encoding="UTF-8"?>
<svg width="500px" height="500px" viewBox="0 0 500 500" version="1.1" xmlns="http://www.w3.org/2000/svg" xmlns:xlink="http://www.w3.org/1999/xlink">
    <title>Icons / Family / Fingerprint</title>
    <g id="Icons-/-Family-/-Fingerprint" stroke="none" stroke-width="1" fill="none" fill-rule="evenodd">
        <path d="M241.5947,134.23682 C242.3177,134.23682 243.0317,134.27582 243.7507,134.29182 L243.7507,134.29182 L253.6977,152.33582 C249.7537,151.71482 245.7137,151.38382 241.5947,151.38382 C198.9817,151.38382 164.4367,185.92482 164.4367,228.53782 L164.4367,228.53782 L164.4367,283.23382 C164.4677,300.64282 170.1847,317.56182 180.7227,331.41582 L180.7227,331.41582 L222.6537,386.19582 C225.5217,389.95382 224.8047,395.32182 221.0527,398.19782 C219.5737,399.35582 217.7527,399.98782 215.8747,399.999954 C213.1887,400.01482 210.6507,398.77082 209.0157,396.63882 L209.0157,396.63882 L167.0847,341.84782 C154.2667,324.99282 147.3127,304.40882 147.2897,283.23382 L147.2897,283.23382 L147.2897,228.53782 C147.2897,176.45582 189.5127,134.23682 241.5947,134.23682 Z M117.7386,296.38922 C120.1136,294.42822 123.3566,293.88922 126.2396,294.98222 C129.1226,296.07522 131.1936,298.63222 131.6716,301.67422 C133.6976,313.89322 137.6966,325.69922 143.5076,336.63522 C146.4136,342.10222 149.7596,347.31822 153.5156,352.23822 L153.5156,352.23822 L174.4746,379.67022 C177.3396,383.42922 176.6216,388.79822 172.8706,391.67322 C171.3876,392.82222 169.5626,393.448372 167.6846,393.448372 C164.9986,393.46422 162.4606,392.21922 160.8256,390.08722 L160.8256,390.08722 L139.8666,362.65622 C131.2056,351.32022 124.4606,338.64622 119.9006,325.13022 C117.6316,318.39622 115.9136,311.48822 114.7566,304.47722 C114.2256,301.44222 115.3636,298.35422 117.7386,296.38922 Z M241.5951,168.52712 C250.0191,168.52712 258.0341,170.27012 265.3101,173.40512 L265.3101,173.40512 L301.6051,239.25412 L301.6051,246.90212 C301.6211,258.57912 305.5891,269.90312 312.8691,279.03412 L312.8691,279.03412 L326.4991,296.05912 C329.4581,299.75912 328.8581,305.15312 325.1641,308.11212 C321.4651,311.07112 316.0661,310.47512 313.1071,306.77612 L313.1071,306.77612 L299.4771,289.73912 C289.7651,277.56212 284.4731,262.45212 284.4591,246.87612 L284.4591,246.87612 L284.4591,228.53712 C284.4591,204.86612 265.2661,185.67412 241.5951,185.67412 C217.9191,185.67412 198.7271,204.86612 198.7271,228.53712 L198.7271,228.53712 L198.7271,278.84512 C198.7351,290.88212 202.9571,302.53512 210.6621,311.78412 L210.6621,311.78412 L265.3311,377.36312 C267.4601,379.92112 267.9191,383.47812 266.5071,386.49112 C265.0921,389.50312 262.0651,391.427126 258.7381,391.427126 C256.1881,391.43012 253.7681,390.30012 252.1371,388.33812 L252.1371,388.33812 L197.4681,322.76312 C187.2141,310.42612 181.5921,294.89112 181.5801,278.84512 L181.5801,278.84512 L181.5801,228.53712 C181.5801,195.39712 208.4501,168.52712 241.5951,168.52712 Z M243.751,134.29162 C294.83,135.44162 335.895,177.17862 335.895,228.53762 L335.895,228.53762 L335.895,237.11162 C335.895,252.99862 340.414,258.62762 351.328,272.26262 L351.328,272.26262 L353.255,274.67162 C356.176,278.37062 355.562,283.73462 351.882,286.67762 C348.198,289.62162 342.83,289.04062 339.863,285.37662 L339.863,285.37662 L337.952,282.99462 C326.396,268.54862 318.749,259.03462 318.749,237.11162 L318.749,237.11162 L318.749,228.53762 C318.749,190.04262 290.557,158.14362 253.697,152.33562 L253.697,152.33562 Z M130.1428,219.96432 L130.1428,278.13432 L113,278.13432 L113,219.96432 L130.1428,219.96432 Z M345.2049,176.56962 C347.0609,174.06962 350.1249,172.77162 353.2099,173.17862 C356.2939,173.58362 358.9189,175.62862 360.0639,178.52262 C366.7749,194.34262 370.2159,211.35662 370.1859,228.53762 L370.1859,228.53762 L370.1859,234.96762 C370.3489,236.87962 370.5999,239.35662 370.7969,240.87462 C372.9713,243.44502 378.27068,249.44577 383.42183,255.199794 L384.107484,255.965212 C384.449585,256.346868 384.79038,256.7267 385.1289,257.10362 C387.3899,259.62162 387.9589,263.22962 386.5819,266.31862 C385.2049,269.40962 382.1439,271.40162 378.7599,271.40562 C376.3309,271.40162 374.0139,270.36562 372.3899,268.55562 C366.1229,262.37262 360.3869,255.67662 355.2469,248.52962 C353.6389,244.41062 352.9099,240.00162 353.1039,235.58562 L353.1039,235.58562 L353.0429,228.53762 C353.0649,213.65562 350.0879,198.91762 344.2789,185.21062 C342.9969,182.37762 343.3499,179.06962 345.2049,176.56962 Z M265.3104,173.40462 C286.6564,182.60062 301.6054,203.82162 301.6054,228.53762 L301.6054,228.53762 L301.6054,239.25362 Z M150.7197,137.66652 C154.0847,134.41552 159.4297,134.46452 162.7377,137.76852 C166.0457,141.07652 166.0917,146.42152 162.8407,149.78652 C152.6577,159.94552 144.5357,171.98252 138.9217,185.22652 C137.5717,188.40152 134.4487,190.45352 131.0007,190.438602 C128.1247,190.44252 125.4357,189.00052 123.8497,186.59952 C122.2607,184.20252 121.9797,181.16352 123.1057,178.51552 C129.5897,163.24252 138.9637,149.37352 150.7197,137.66652 Z M226.397039,100.902619 C248.365996,98.2998077 270.841671,101.320096 291.6097,110.04192 C295.3757,111.62692 297.5047,115.64792 296.6897,119.64992 C295.8767,123.65692 292.3497,126.53192 288.2637,126.520951 C287.1177,126.520951 285.9837,126.28592 284.9287,125.83392 C268.8207,119.07492 251.5267,116.27192 234.4237,117.36892 L234.4237,117.36892 L233.367152,117.441646 C221.398204,118.321724 209.535757,121.10112 198.2565,125.83392 C193.9055,127.63992 188.9135,125.59492 187.0775,121.25492 C185.2415,116.91592 187.2515,111.90792 191.5765,110.04192 C202.4895,105.45892 213.8785,102.47892 225.4135,101.02292 L225.4135,101.02292 Z" id="Primary-shape" fill="#19B3EE" fill-rule="nonzero"></path>
        <path d="M272.9453,284.03022 C269.3023,279.47022 267.3153,273.81022 267.3113,267.97522 L267.3113,228.53722 C267.3113,214.33422 255.7983,202.82122 241.5943,202.82122 C227.3873,202.82122 215.8743,214.33422 215.8743,228.53722 L215.8743,275.53622 C215.8823,285.71822 219.5053,295.57022 226.1023,303.32822 L269.3523,354.11622 C270.9833,356.03222 273.3703,357.133223 275.8843,357.133223 C279.2273,357.13622 282.2653,355.19422 283.6693,352.15922 C285.0733,349.12422 284.5843,345.55122 282.4183,343.00522 L239.1673,292.20922 C235.2023,287.55822 233.0213,281.64722 233.0213,275.53622 L233.0213,228.53722 C233.0213,223.80322 236.8573,219.96422 241.5943,219.96422 C246.3293,219.96422 250.1643,223.80322 250.1643,228.53722 L250.1643,267.97522 C250.1983,277.80822 253.5903,287.33422 259.7773,294.97822 L303.7223,345.62722 C305.6953,348.05122 308.8323,349.20822 311.9093,348.64622 C314.9813,348.08522 317.5083,345.89122 318.4983,342.92922 C319.4883,339.96322 318.7873,336.69622 316.6663,334.39722 L272.9453,284.03022 Z" id="Secondary-shape" fill="#14DE2D"></path>
    </g>
</svg>