<?xml version="1.0" encoding="UTF-8"?>
<svg width="500px" height="500px" viewBox="0 0 500 500" version="1.1" xmlns="http://www.w3.org/2000/svg" xmlns:xlink="http://www.w3.org/1999/xlink">
    <title>Icons / Family / Settings</title>
    <g id="Icons-/-Family-/-Settings" stroke="none" stroke-width="1" fill="none" fill-rule="evenodd">
        <path d="M366.870904,113 C381.52251,113 393,121.629284 393,132.644212 L393,132.644212 L393,354.715025 C393,371.965671 378.910737,386 361.59169,386 L361.59169,386 L138.40831,386 C121.089263,386 107,371.965671 107,354.715025 L107,354.715025 L107,132.644212 C107,121.629284 118.47749,113 133.129096,113 L133.129096,113 Z M374.823237,197.018107 L125.176763,197.018107 L125.176763,354.715025 C125.176763,361.981731 131.112612,367.892649 138.40831,367.892649 L138.40831,367.892649 L361.59169,367.892649 C368.887388,367.892649 374.823237,361.981731 374.823237,354.715025 L374.823237,354.715025 L374.823237,197.018107 Z M261.253906,224.753906 C262.5625,224.753906 263.609375,225.800781 263.871094,227.109375 L263.871094,227.109375 L265.964844,241.765625 C269.367188,243.074219 272.507812,245.167969 275.386719,247.261719 L275.386719,247.261719 L289.257812,241.765625 C290.566406,241.242188 292.136719,241.765625 292.660156,242.8125 L292.660156,242.8125 L303.914062,262.179688 C304.699219,263.488281 304.4375,265.058594 303.390625,265.84375 L303.390625,265.84375 L291.613281,275.003906 C291.613281,276.835938 291.875,278.667969 291.875,280.5 C291.875,282.332031 291.613281,284.164062 291.613281,285.996094 L291.613281,285.996094 L303.390625,295.15625 C304.4375,295.941406 304.699219,297.511719 303.914062,298.820312 L303.914062,298.820312 L292.660156,318.1875 C292.136719,319.234375 290.566406,319.757812 289.257812,319.234375 L289.257812,319.234375 L275.386719,313.738281 C272.507812,315.832031 269.367188,317.925781 265.964844,319.234375 L265.964844,319.234375 L263.871094,333.890625 C263.609375,335.199219 262.5625,336.246094 261.253906,336.246094 L261.253906,336.246094 L238.746094,336.246094 C237.4375,336.246094 236.390625,335.199219 236.128906,333.890625 L236.128906,333.890625 L234.035156,319.234375 C230.632812,317.925781 227.492188,315.832031 224.613281,313.738281 L224.613281,313.738281 L210.742188,319.234375 C209.433594,319.757812 207.863281,319.234375 207.339844,318.1875 L207.339844,318.1875 L196.085938,298.820312 C195.300781,297.511719 195.5625,295.941406 196.609375,295.15625 L196.609375,295.15625 L208.386719,285.996094 C208.386719,284.164062 208.125,282.332031 208.125,280.5 C208.125,278.667969 208.386719,276.835938 208.386719,275.003906 L208.386719,275.003906 L196.609375,265.84375 C195.5625,265.058594 195.300781,263.488281 196.085938,262.179688 L196.085938,262.179688 L207.339844,242.8125 C207.863281,241.765625 209.433594,241.242188 210.742188,241.765625 L210.742188,241.765625 L224.613281,247.261719 C227.492188,245.167969 230.632812,243.074219 234.035156,241.765625 L234.035156,241.765625 L236.128906,227.109375 C236.390625,225.800781 237.4375,224.753906 238.746094,224.753906 L238.746094,224.753906 Z M250,260.871094 C239.269531,260.871094 230.371094,269.769531 230.371094,280.5 C230.371094,291.230469 239.269531,300.128906 250,300.128906 C260.730469,300.128906 269.628906,291.230469 269.628906,280.5 C269.628906,269.769531 260.730469,260.871094 250,260.871094 Z M366.870904,131.107351 L133.129096,131.107351 C128.774626,131.107351 126.029934,132.581968 125.176763,133.356057 L125.176763,133.356057 L125.176763,178.539556 L374.823237,178.539556 L374.823237,133.356057 C373.970066,132.581968 371.225374,131.107351 366.870904,131.107351 L366.870904,131.107351 Z M349.951395,145 C355.492311,145 360,149.486002 360,155 C360,160.513998 355.492311,165 349.951395,165 L349.951395,165 L238.052022,165 C232.509968,165 228,160.513998 228,155 C228,149.486002 232.509968,145 238.052022,145 L238.052022,145 Z" id="Primary-shape" fill="#19B3EE" fill-rule="nonzero"></path>
        <path d="M159.835324,145 L159.835324,165 L140,165 L140,145 L159.835324,145 Z M204,145 L204,165 L184.1658,165 L184.1658,145 L204,145 Z" id="Secondary-shape" fill="#14DE2D"></path>
    </g>
</svg>