
<svg width="28px" height="28px" viewBox="0 0 28 28" version="1.1" xmlns="http://www.w3.org/2000/svg" xmlns:xlink="http://www.w3.org/1999/xlink">
    <!-- Generator: Sketch 51.1 (57501) - http://www.bohemiancoding.com/sketch -->
    <desc>Created with Sketch.</desc>
    <defs>
        <path d="M16,2.66666667 C8.64,2.66666667 2.66666667,8.64 2.66666667,16 C2.66666667,23.36 8.64,29.3333333 16,29.3333333 C23.36,29.3333333 29.3333333,23.36 29.3333333,16 C29.3333333,8.64 23.36,2.66666667 16,2.66666667 Z M16,6.66666667 C18.2133333,6.66666667 20,8.45333333 20,10.6666667 C20,12.88 18.2133333,14.6666667 16,14.6666667 C13.7866667,14.6666667 12,12.88 12,10.6666667 C12,8.45333333 13.7866667,6.66666667 16,6.66666667 Z M16,25.6 C12.6666667,25.6 9.72,23.8933333 8,21.3066667 C8.04,18.6533333 13.3333333,17.2 16,17.2 C18.6533333,17.2 23.96,18.6533333 24,21.3066667 C22.28,23.8933333 19.3333333,25.6 16,25.6 Z" id="path-1"></path>
    </defs>
    <g id="Dashboard" stroke="none" stroke-width="1" fill="none" fill-rule="evenodd">
        <g id="Dasboard-Hover" transform="translate(-932.000000, -56.000000)">
            <g id="Extended-header" transform="translate(0.000000, -264.000000)">
                <g id="Header" transform="translate(40.000000, 284.000000)">
                    <g id="logged-in" transform="translate(821.000000, 2.000000)">
                        <g id="Icon-/-Circle-/-Filled" transform="translate(69.000000, 32.000000)">
                            <mask id="mask-2" fill="white">
                                <use xlink:href="#path-1"></use>
                            </mask>
                            <g id="Mask" fill-rule="nonzero"></g>
                            <g id="✱-/-Color-/-Icons-/-Selected-/-On-Surface-/-Inactive" mask="url(#mask-2)" fill="#000000" fill-opacity="0.54" fill-rule="evenodd">
                                <rect id="Rectangle" x="0" y="0" width="32" height="32"></rect>
                            </g>
                        </g>
                    </g>
                </g>
            </g>
        </g>
    </g>
</svg>