<svg width="50px" height="50px" viewBox="0 0 50 50" version="1.1" xmlns="http://www.w3.org/2000/svg" xmlns:xlink="http://www.w3.org/1999/xlink">
    <defs>
        <linearGradient x1="100%" y1="33.3247282%" x2="8.03504366%" y2="74.0144457%" id="linearGradient-1">
            <stop stop-color="#2DB7BA" offset="0%"></stop>
            <stop stop-color="#14BC7D" offset="51.6663656%"></stop>
            <stop stop-color="#14DE2D" offset="100%"></stop>
        </linearGradient>
    </defs>
    <g id="Profile-&amp;-Settings" stroke="none" stroke-width="1" fill="none" fill-rule="evenodd">
        <g id="Organisation" transform="translate(-155.000000, -570.000000)">
            <g id="Left-Column" transform="translate(60.000000, 200.000000)">
                <g id="Info" transform="translate(0.000000, 350.000000)">
                    <g id="Group" transform="translate(95.000000, 20.000000)">
                        <circle id="circle_copy_23" fill="url(#linearGradient-1)" fill-rule="nonzero" cx="25" cy="25" r="25"></circle>
                        <polygon id="Star" fill="#FFFFFF" points="25 42.5553385 22.3894762 44.8288972 20.456344 41.9571549 17.3463314 43.4775907 16.2223307 40.2033691 12.8247714 40.8670668 12.5865011 37.4134989 9.13293319 37.1752286 9.79663085 33.7776693 6.52240935 32.6536686 8.04284511 29.543656 5.17110277 27.6105238 7.44466146 25 5.17110277 22.3894762 8.04284511 20.456344 6.52240935 17.3463314 9.79663085 16.2223307 9.13293319 12.8247714 12.5865011 12.5865011 12.8247714 9.13293319 16.2223307 9.79663085 17.3463314 6.52240935 20.456344 8.04284511 22.3894762 5.17110277 25 7.44466146 27.6105238 5.17110277 29.543656 8.04284511 32.6536686 6.52240935 33.7776693 9.79663085 37.1752286 9.13293319 37.4134989 12.5865011 40.8670668 12.8247714 40.2033691 16.2223307 43.4775907 17.3463314 41.9571549 20.456344 44.8288972 22.3894762 42.5553385 25 44.8288972 27.6105238 41.9571549 29.543656 43.4775907 32.6536686 40.2033691 33.7776693 40.8670668 37.1752286 37.4134989 37.4134989 37.1752286 40.8670668 33.7776693 40.2033691 32.6536686 43.4775907 29.543656 41.9571549 27.6105238 44.8288972"></polygon>
                        <polygon id="checkmark_copy" fill="#646464" points="23.575 30.51 23.556 30.53 19 25.71 21.369 23.21 23.938 25.92 29.547 20 31.071 21.61 31.071 21.85 31.3 21.85 32 22.59 24.042 31"></polygon>
                    </g>
                </g>
            </g>
        </g>
    </g>
</svg>