<?xml version="1.0" encoding="UTF-8"?>
<svg width="24px" height="20px" viewBox="0 0 24 20" version="1.1" xmlns="http://www.w3.org/2000/svg" xmlns:xlink="http://www.w3.org/1999/xlink">
    <!-- Generator: Sketch 51.2 (57519) - http://www.bohemiancoding.com/sketch -->
    <title>console icon</title>
    <desc>Created with Sketch.</desc>
    <defs></defs>
    <g id="Dashboard" stroke="none" stroke-width="1" fill="none" fill-rule="evenodd">
        <g id="Dasboard-scroll-1" transform="translate(-933.000000, -121.000000)">
            <g id="Subheader-grey" transform="translate(0.000000, 100.000000)">
                <g id="console-icon" transform="translate(933.000000, 21.000000)">
                    <rect id="highlighted_area_copy_68" fill-opacity="0.3" fill="#000000" fill-rule="nonzero" x="0" y="0" width="24" height="20" rx="4"></rect>
                    <path d="M15.1887504,15 C14.7253206,14.9989754 14.3080178,14.7192342 14.1310113,14.2909388 C13.9540048,13.8626433 14.0520601,13.3699142 14.3795525,13.0420164 L17.3983656,10.0209088 L14.3795525,6.99980118 C14.0644842,6.71606394 13.9315964,6.28168616 14.0339884,5.87023665 C14.1363804,5.45878714 14.4573563,5.13735641 14.8686604,5.03438185 C15.2799645,4.9314073 15.7145301,5.06367984 15.9987132,5.37834598 L19.827489,9.21018116 C20.2748476,9.65809676 20.2748476,10.3837208 19.827489,10.8316364 L15.9987132,14.6634716 C15.7839548,14.8784981 15.492654,14.9995296 15.1887504,15 Z" id="arrow_R" fill="#FFFFFF" fill-rule="evenodd"></path>
                    <path d="M10.0319966,14.2909388 C10.2090031,13.8626433 10.1109478,13.3699142 9.78345544,13.0420164 L6.76464237,10.0209088 L9.78345544,6.99980118 C10.0985237,6.71606394 10.2314115,6.28168616 10.1290195,5.87023665 C10.0266275,5.45878714 9.7056516,5.13735641 9.2943475,5.03438185 C8.8830434,4.9314073 8.44847787,5.06367984 8.16429474,5.37834598 L4.33551891,9.21018116 C3.88816036,9.65809676 3.88816036,10.3837208 4.33551891,10.8316364 L8.16429474,14.6634716 C8.37933689,14.8780739 8.67045437,14.9990292 8.97425751,15 C9.43768736,14.9989754 9.85499016,14.7192342 10.0319966,14.2909388 Z" id="arrow_L" fill="#FFFFFF" fill-rule="evenodd"></path>
                </g>
            </g>
        </g>
    </g>
</svg>