<?xml version="1.0" encoding="UTF-8"?>
<svg width="142px" height="289px" viewBox="0 0 142 289" version="1.1" xmlns="http://www.w3.org/2000/svg" xmlns:xlink="http://www.w3.org/1999/xlink">
    <!-- Generator: Sketch 51.2 (57519) - http://www.bohemiancoding.com/sketch -->
    <title>Watch</title>
    <desc>Created with Sketch.</desc>
    <defs></defs>
    <g id="Dashboard---Apps" stroke="none" stroke-width="1" fill="none" fill-rule="evenodd">
        <g id="Apps-Create-(pre-logo-upload)" transform="translate(-709.000000, -367.000000)">
            <g id="Modal" transform="translate(60.000000, -69.000000)">
                <g id="Rectangle-2-+-Rectangle-2-+-Rectangle-2-+-Rectangle-2-Mask" transform="translate(536.000000, 129.000000)">
                    <g id="Watch" transform="translate(114.000000, 308.000000)">
                        <path d="M30,70.2638663 L30,10 C30,4.4771525 34.4771525,2.14541926e-15 40,0 L100,0 C105.522847,-2.14541926e-15 110,4.4771525 110,10 L110,70.2638663 C117.080897,71.5246247 122.64483,77.1691338 123.785322,84.2909186 C133.218831,87.5242317 140,96.4702024 140,107 L140,187 C140,197.529798 133.218831,206.475768 123.785322,209.709081 C122.64483,216.830866 117.080897,222.475375 110,223.736134 L110,277 C110,282.522847 105.522847,287 100,287 L40,287 C34.4771525,287 30,282.522847 30,277 L30,223.736134 C22.9191028,222.475375 17.3551703,216.830866 16.2146775,209.709081 C6.78116937,206.475768 1.28952829e-15,197.529798 0,187 L0,107 C-1.28952829e-15,96.4702024 6.78116937,87.5242317 16.2146775,84.2909186 C17.3551703,77.1691338 22.9191028,71.5246247 30,70.2638663 Z" id="Combined-Shape" stroke="#979797" stroke-width="2" fill="#D4D4D4" fill-rule="nonzero" stroke-dasharray="4"></path>
                        <path d="M123.785322,84.2909186 C133.218831,87.5242317 140,96.4702024 140,107 L140,187 C140,197.529798 133.218831,206.475768 123.785322,209.709081 C122.487979,217.810317 115.466828,224 107,224 L33,224 C24.5331716,224 17.512021,217.810317 16.2146775,209.709081 C6.78116937,206.475768 1.28952829e-15,197.529798 0,187 L0,107 C-1.28952829e-15,96.4702024 6.78116937,87.5242317 16.2146775,84.2909186 C17.512021,76.1896826 24.5331716,70 33,70 L107,70 C115.466828,70 122.487979,76.1896826 123.785322,84.2909186 Z" id="Combined-Shape" fill-opacity="0.04" fill="#000000"></path>
                        <circle id="Oval-5" fill-opacity="0.2" fill="#FFFFFF" cx="70" cy="137" r="25"></circle>
                        <circle id="Oval-5" fill-opacity="0.2" fill="#FFFFFF" cx="107" cy="159" r="14"></circle>
                        <circle id="Oval-5" fill-opacity="0.2" fill="#FFFFFF" cx="46" cy="168" r="10"></circle>
                    </g>
                </g>
            </g>
        </g>
    </g>
</svg>