<svg width="81px" height="81px" viewBox="0 0 81 81" version="1.1" xmlns="http://www.w3.org/2000/svg" xmlns:xlink="http://www.w3.org/1999/xlink">
    <!-- Generator: Sketch 51.1 (57501) - http://www.bohemiancoding.com/sketch -->
    <desc>Created with Sketch.</desc>
    <defs>
        <circle id="path-1" cx="6" cy="4" r="4"></circle>
        <path d="M34,52.84 C34,45.32 45.92,42.04 52,42.04 C55.52,42.04 60.96,43.12 64.96,45.52 C66.88,41.44 67.96,36.88 67.96,32.04 C67.96,14.4 53.6,0.04 35.96,0.04 C18.32,0.04 3.96,14.4 3.96,32.04 C3.96,36.96 5.12,41.6 7.08,45.76 C12.44,41.84 20.8,40.04 26,40.04 C27.76,40.04 29.88,40.24 32.12,40.68 C29.6,42.96 27.88,45.56 26.92,48.12 C26.6,48.12 26.32,48.08 26,48.08 C20.48,48.08 14.08,50.36 11.36,52.52 C16.84,59.12 24.92,63.44 34,63.96 L34,52.84 Z M52,20 C56.44,20 60,23.56 60,28 C60,32.44 56.44,36 52,36 C47.56,36 44,32.44 44,28 C43.96,23.56 47.56,20 52,20 Z M26,36 C19.4,36 14,30.6 14,24 C14,17.4 19.4,12 26,12 C32.6,12 38,17.4 38,24 C38,30.6 32.6,36 26,36 Z" id="path-3"></path>
        <path d="M26,12 C26,5.4 20.6,0 14,0 C7.4,0 2,5.4 2,12 C2,18.6 7.4,24 14,24 C20.6,24 26,18.6 26,12 Z M14,16 C11.8,16 10,14.2 10,12 C10,9.8 11.8,8 14,8 C16.2,8 18,9.8 18,12 C18,14.2 16.2,16 14,16 Z" id="path-5"></path>
        <path d="M8,16 C12.44,16 16,12.44 16,8 C16,3.56 12.44,0 8,0 C3.56,0 -0.04,3.56 -8.52652367e-14,8 C-8.52652367e-14,12.44 3.56,16 8,16 Z" id="path-7"></path>
        <path d="M43.96,0.04 C21.88,0.04 3.96,17.96 3.96,40.04 C3.96,62.12 21.88,80.04 43.96,80.04 C66.04,80.04 83.96,62.12 83.96,40.04 C83.96,17.96 66.04,0.04 43.96,0.04 Z M19.36,60.48 C22.08,58.32 28.44,56.04 34,56.04 C34.28,56.04 34.6,56.08 34.92,56.08 C35.88,53.52 37.6,50.92 40.12,48.64 C37.88,48.24 35.76,48 34,48 C28.8,48 20.44,49.8 15.08,53.72 C13.08,49.56 11.96,44.92 11.96,40 C11.96,22.36 26.32,8 43.96,8 C61.6,8 75.96,22.36 75.96,40 C75.96,44.8 74.88,49.36 72.96,53.48 C68.96,51.12 63.52,50 60,50 C53.92,50 42,53.24 42,60.8 L42,71.92 C32.92,71.4 24.84,67.08 19.36,60.48 Z" id="path-9"></path>
    </defs>
    <g id="Documentation" stroke="none" stroke-width="1" fill="none" fill-rule="evenodd">
        <g id="Overview" transform="translate(-773.000000, -228.000000)">
            <g id="Knowledge-Base" transform="translate(664.000000, 200.000000)">
                <g id="icon/action/supervised_user_circle_24px" transform="translate(102.000000, 20.000000)">
                    <g id="↳-Light-Color" transform="translate(32.000000, 36.000000)">
                        <mask id="mask-2" fill="white">
                            <use xlink:href="#path-1"></use>
                        </mask>
                        <g id="Mask" opacity="0.3" fill-rule="nonzero"></g>
                        <g id="✱-/-Color-/-Icons-/-Selected-/-On-Primary-/-Disabled-" mask="url(#mask-2)" fill="#FFFFFF" fill-opacity="0.38">
                            <rect id="Rectangle" x="0" y="0" width="404" height="404"></rect>
                        </g>
                    </g>
                    <g id="↳-Light-Color" transform="translate(12.000000, 16.000000)">
                        <mask id="mask-4" fill="white">
                            <use xlink:href="#path-3"></use>
                        </mask>
                        <g id="Mask" opacity="0.3" fill-rule="nonzero"></g>
                        <g id="✱-/-Color-/-Icons-/-Selected-/-On-Secondary-/-Disabled--" mask="url(#mask-4)" fill="#FFFFFF" fill-opacity="0.38">
                            <rect id="Rectangle" x="0" y="0" width="404" height="404"></rect>
                        </g>
                    </g>
                    <g id="↳-Dark-Color" transform="translate(24.000000, 28.000000)">
                        <mask id="mask-6" fill="white">
                            <use xlink:href="#path-5"></use>
                        </mask>
                        <g id="Mask" fill-rule="nonzero"></g>
                        <g id="✱-/-Color-/-Icons-/-White-/-Active" mask="url(#mask-6)" fill="#FFFFFF">
                            <rect id="Rectangle-13" x="0" y="0" width="404" height="404"></rect>
                        </g>
                    </g>
                    <g id="↳-Dark-Color" transform="translate(56.000000, 36.000000)">
                        <mask id="mask-8" fill="white">
                            <use xlink:href="#path-7"></use>
                        </mask>
                        <g id="Mask" fill-rule="nonzero"></g>
                        <g id="✱-/-Color-/-Icons-/-White-/-Active" mask="url(#mask-8)" fill="#FFFFFF">
                            <rect id="Rectangle-13" x="0" y="0" width="404" height="404"></rect>
                        </g>
                    </g>
                    <g id="↳-Dark-Color" transform="translate(4.000000, 8.000000)">
                        <mask id="mask-10" fill="white">
                            <use xlink:href="#path-9"></use>
                        </mask>
                        <g id="Mask" fill-rule="nonzero"></g>
                        <g id="✱-/-Color-/-Icons-/-Selected-/-On-Primary-/-Active-" mask="url(#mask-10)" fill="#FFFFFF">
                            <rect id="Rectangle-3" x="0" y="0" width="404" height="404"></rect>
                        </g>
                    </g>
                </g>
            </g>
        </g>
    </g>
</svg>