
<svg width="716px" height="493px" viewBox="0 0 716 493" version="1.1" xmlns="http://www.w3.org/2000/svg" xmlns:xlink="http://www.w3.org/1999/xlink">
    <!-- Generator: Sketch 51.1 (57501) - http://www.bohemiancoding.com/sketch -->
    <desc>Created with Sketch.</desc>
    <defs></defs>
    <g id="Landing-Page" stroke="none" stroke-width="1" fill="none" fill-rule="evenodd" opacity="0.14">
        <g id="Landing-page-up" transform="translate(-285.000000, -161.000000)">
            <g id="Caroussel" transform="translate(100.000000, 0.000000)">
                <g id="Group-2" transform="translate(180.000000, 0.000000)">
                    <g id="Group" transform="translate(557.000000, 394.000000) scale(-1, 1) rotate(-90.000000) translate(-557.000000, -394.000000) translate(54.000000, -157.000000)">
                        <path d="M516.617632,1020.41812 C515.143463,1020.41812 513.953254,1019.22868 513.953254,1017.75546 C513.953254,1016.28224 515.143463,1015.08676 516.617632,1015.08676 C518.085758,1015.08676 519.282009,1016.28224 519.282009,1017.75546 C519.282009,1019.22868 518.085758,1020.41812 516.617632,1020.41812 Z" id="Stroke-1" stroke="#FFFFFF" stroke-width="1.5"></path>
                        <path d="M588.167348,903.147366 C586.69318,903.147366 585.50297,901.957921 585.50297,900.484701 C585.50297,899.011481 586.69318,897.815998 588.167348,897.815998 C589.635474,897.815998 590.831725,899.011481 590.831725,900.484701 C590.831725,901.957921 589.635474,903.147366 588.167348,903.147366 Z" id="Stroke-3" stroke="#FFFFFF" stroke-width="1.5"></path>
                        <path d="M626.777865,964.333107 C625.303697,964.333107 624.113487,963.143663 624.113487,961.670442 C624.113487,960.191184 625.303697,959.00174 626.777865,959.00174 C628.245991,959.00174 629.442242,960.191184 629.442242,961.670442 C629.442242,963.143663 628.245991,964.333107 626.777865,964.333107 Z" id="Stroke-5" stroke="#FFFFFF" stroke-width="1.5"></path>
                        <path d="M707.679486,961.614895 C706.211359,961.614895 705.015108,960.42545 705.015108,958.958268 C705.015108,957.479009 706.211359,956.289565 707.679486,956.289565 C709.153654,956.289565 710.343863,957.479009 710.343863,958.958268 C710.343863,960.42545 709.153654,961.614895 707.679486,961.614895 Z" id="Stroke-7" stroke="#FFFFFF" stroke-width="1.5"></path>
                        <path d="M466.664378,494.751915 C465.196252,494.751915 464,493.556433 464,492.08925 C464,490.609992 465.196252,489.420548 466.664378,489.420548 C468.138546,489.420548 469.328756,490.609992 469.328756,492.08925 C469.328756,493.556433 468.138546,494.751915 466.664378,494.751915 Z" id="Stroke-9" stroke="#FFFFFF" stroke-width="1.5"></path>
                        <path d="M489.664378,435.751915 C488.196251,435.751915 487,434.562471 487,433.08925 C487,431.61603 488.196251,430.420548 489.664378,430.420548 C491.138546,430.420548 492.328755,431.61603 492.328755,433.08925 C492.328755,434.562471 491.138546,435.751915 489.664378,435.751915 Z" id="Stroke-11" stroke="#FFFFFF" stroke-width="1.5"></path>
                        <path d="M693.961868,925.275861 C692.4877,925.275861 691.297491,924.086416 691.297491,922.613196 C691.297491,921.139975 692.4877,919.944493 693.961868,919.944493 C695.436036,919.944493 696.626246,921.139975 696.626246,922.613196 C696.626246,924.086416 695.436036,925.275861 693.961868,925.275861 Z" id="Stroke-31" stroke="#FFFFFF" stroke-width="1.5"></path>
                        <path d="M517.664378,409.751915 C516.196251,409.751915 515,408.556433 515,407.08925 C515,405.609992 516.196251,404.420548 517.664378,404.420548 C519.138546,404.420548 520.328755,405.609992 520.328755,407.08925 C520.328755,408.556433 519.138546,409.751915 517.664378,409.751915 Z" id="Stroke-33" stroke="#FFFFFF" stroke-width="1.5"></path>
                        <path d="M654.519413,798.057845 C653.051286,798.057845 651.855035,796.868401 651.855035,795.395181 C651.855035,793.915922 653.051286,792.726478 654.519413,792.726478 C655.993581,792.726478 657.18379,793.915922 657.18379,795.395181 C657.18379,796.868401 655.993581,798.057845 654.519413,798.057845 Z" id="Stroke-45" stroke="#FFFFFF" stroke-width="1.5"></path>
                        <path d="M652.472494,856.059257 C650.998326,856.059257 649.808116,854.863775 649.808116,853.396592 C649.808116,851.917334 650.998326,850.72789 652.472494,850.72789 C653.940621,850.72789 655.136872,851.917334 655.136872,853.396592 C655.136872,854.863775 653.940621,856.059257 652.472494,856.059257 Z" id="Stroke-69" stroke="#FFFFFF" stroke-width="1.5"></path>
                        <path d="M491.188232,961.667423 C489.720105,961.667423 488.523854,960.477979 488.523854,959.004759 C488.523854,957.5255 489.720105,956.336056 491.188232,956.336056 C492.6624,956.336056 493.852609,957.5255 493.852609,959.004759 C493.852609,960.477979 492.6624,961.667423 491.188232,961.667423 Z" id="Stroke-71" stroke="#FFFFFF" stroke-width="1.5"></path>
                        <path d="M463.499246,1020.41812 C462.025078,1020.41812 460.834868,1019.22868 460.834868,1017.75546 C460.834868,1016.28224 462.025078,1015.08676 463.499246,1015.08676 C464.967372,1015.08676 466.163624,1016.28224 466.163624,1017.75546 C466.163624,1019.22868 464.967372,1020.41812 463.499246,1020.41812 Z" id="Stroke-73" stroke="#FFFFFF" stroke-width="1.5"></path>
                        <path d="M490.055418,1101.39151 C488.587292,1101.39151 487.39104,1100.20206 487.39104,1098.72884 C487.39104,1097.25562 488.587292,1096.06014 490.055418,1096.06014 C491.529586,1096.06014 492.719796,1097.25562 492.719796,1098.72884 C492.719796,1100.20206 491.529586,1101.39151 490.055418,1101.39151 Z" id="Stroke-75" stroke="#FFFFFF" stroke-width="1.5"></path>
                        <path d="M544.808076,1101.39151 C543.339949,1101.39151 542.143698,1100.20206 542.143698,1098.72884 C542.143698,1097.25562 543.339949,1096.06014 544.808076,1096.06014 C546.282244,1096.06014 547.472453,1097.25562 547.472453,1098.72884 C547.472453,1100.20206 546.282244,1101.39151 544.808076,1101.39151 Z" id="Stroke-77" stroke="#FFFFFF" stroke-width="1.5"></path>
                        <path d="M465.044706,939.291379 C463.570538,939.291379 462.380328,938.101935 462.380328,936.628714 C462.380328,935.155494 463.570538,933.960012 465.044706,933.960012 C466.518874,933.960012 467.709084,935.155494 467.709084,936.628714 C467.709084,938.101935 466.518874,939.291379 465.044706,939.291379 Z" id="Stroke-79" stroke="#FFFFFF" stroke-width="1.5"></path>
                        <path d="M516.617632,912.121331 C515.143463,912.121331 513.953254,910.931886 513.953254,909.458666 C513.953254,907.985446 515.143463,906.789964 516.617632,906.789964 C518.085758,906.789964 519.282009,907.985446 519.282009,909.458666 C519.282009,910.931886 518.085758,912.121331 516.617632,912.121331 Z" id="Stroke-81" stroke="#FFFFFF" stroke-width="1.5"></path>
                        <path d="M518.629509,830.570129 C517.15534,830.570129 515.965131,829.374647 515.965131,827.907464 C515.965131,826.428206 517.15534,825.238762 518.629509,825.238762 C520.097635,825.238762 521.293886,826.428206 521.293886,827.907464 C521.293886,829.374647 520.097635,830.570129 518.629509,830.570129 Z" id="Stroke-83" stroke="#FFFFFF" stroke-width="1.5"></path>
                        <path d="M461.658348,611.033724 C460.190222,611.033724 458.993971,609.844279 458.993971,608.371059 C458.993971,606.897839 460.190222,605.702356 461.658348,605.702356 C463.132517,605.702356 464.322726,606.897839 464.322726,608.371059 C464.322726,609.844279 463.132517,611.033724 461.658348,611.033724 Z" id="Stroke-85" stroke="#FFFFFF" stroke-width="1.5"></path>
                        <path d="M435.880948,693.552179 C434.40678,693.552179 433.21657,692.362735 433.21657,690.889514 C433.21657,689.416294 434.40678,688.220812 435.880948,688.220812 C437.349075,688.220812 438.545326,689.416294 438.545326,690.889514 C438.545326,692.362735 437.349075,693.552179 435.880948,693.552179 Z" id="Stroke-87" stroke="#FFFFFF" stroke-width="1.5"></path>
                        <path d="M382.668312,617.401779 C381.200186,617.401779 380.003935,616.206297 380.003935,614.739114 C380.003935,613.259856 381.200186,612.070412 382.668312,612.070412 C384.142481,612.070412 385.33269,613.259856 385.33269,614.739114 C385.33269,616.206297 384.142481,617.401779 382.668312,617.401779 Z" id="Stroke-89" stroke="#FFFFFF" stroke-width="1.5"></path>
                        <path d="M326.611257,603.993662 C325.137089,603.993662 323.94688,602.79818 323.94688,601.330998 C323.94688,599.851739 325.137089,598.662295 326.611257,598.662295 C328.079384,598.662295 329.275635,599.851739 329.275635,601.330998 C329.275635,602.79818 328.079384,603.993662 326.611257,603.993662 Z" id="Stroke-91" stroke="#FFFFFF" stroke-width="1.5"></path>
                        <path d="M325.307465,750.433581 C323.833296,750.433581 322.643087,749.244137 322.643087,747.770916 C322.643087,746.297696 323.833296,745.102214 325.307465,745.102214 C326.775591,745.102214 327.971842,746.297696 327.971842,747.770916 C327.971842,749.244137 326.775591,750.433581 325.307465,750.433581 Z" id="Stroke-99" stroke="#FFFFFF" stroke-width="1.5"></path>
                        <path d="M311.070867,738.422608 C309.596699,738.422608 308.40649,737.233164 308.40649,735.759944 C308.40649,734.280685 309.596699,733.091241 311.070867,733.091241 C312.538994,733.091241 313.735245,734.280685 313.735245,735.759944 C313.735245,737.233164 312.538994,738.422608 311.070867,738.422608 Z" id="Stroke-101" stroke="#FFFFFF" stroke-width="1.5"></path>
                        <path d="M329.679219,855.947558 C328.205051,855.947558 327.014841,854.758113 327.014841,853.284893 C327.014841,851.805635 328.205051,850.616191 329.679219,850.616191 C331.153387,850.616191 332.343596,851.805635 332.343596,853.284893 C332.343596,854.758113 331.153387,855.947558 329.679219,855.947558 Z" id="Stroke-107" stroke="#FFFFFF" stroke-width="1.5"></path>
                        <path d="M383.664377,415.375958 C382.190209,415.375958 381,414.186514 381,412.713293 C381,411.240073 382.190209,410.044591 383.664377,410.044591 C385.132504,410.044591 386.328755,411.240073 386.328755,412.713293 C386.328755,414.186514 385.132504,415.375958 383.664377,415.375958 Z" id="Stroke-109" stroke="#FFFFFF" stroke-width="1.5"></path>
                        <path d="M298.043209,937.097851 C296.56904,937.097851 295.378831,935.908406 295.378831,934.435186 C295.378831,932.961965 296.56904,931.766483 298.043209,931.766483 C299.517377,931.766483 300.707586,932.961965 300.707586,934.435186 C300.707586,935.908406 299.517377,937.097851 298.043209,937.097851 Z" id="Stroke-117" stroke="#FFFFFF" stroke-width="1.5"></path>
                        <path d="M489.664378,571.36992 C488.196251,571.36992 487,570.180476 487,568.707256 C487,567.234035 488.196251,566.044591 489.664378,566.044591 C491.138546,566.044591 492.328755,567.234035 492.328755,568.707256 C492.328755,570.180476 491.138546,571.36992 489.664378,571.36992 Z" id="Stroke-119" stroke="#FFFFFF" stroke-width="1.5"></path>
                        <path d="M433.664378,569.375958 C432.190209,569.375958 431,568.186513 431,566.713293 C431,565.240073 432.190209,564.044591 433.664378,564.044591 C435.138546,564.044591 436.328755,565.240073 436.328755,566.713293 C436.328755,568.186513 435.138546,569.375958 433.664378,569.375958 Z" id="Stroke-121" stroke="#FFFFFF" stroke-width="1.5"></path>
                        <path d="M349.792551,869.921416 C348.318383,869.921416 347.128173,868.731971 347.128173,867.258751 C347.128173,865.78553 348.318383,864.590048 349.792551,864.590048 C351.260677,864.590048 352.456929,865.78553 352.456929,867.258751 C352.456929,868.731971 351.260677,869.921416 349.792551,869.921416 Z" id="Stroke-139" stroke="#FFFFFF" stroke-width="1.5"></path>
                        <path d="M390.149112,872.586495 C388.674943,872.586495 387.484734,871.397051 387.484734,869.923831 C387.484734,868.45061 388.674943,867.255128 390.149112,867.255128 C391.62328,867.255128 392.813489,868.45061 392.813489,869.923831 C392.813489,871.397051 391.62328,872.586495 390.149112,872.586495 Z" id="Stroke-141" stroke="#FFFFFF" stroke-width="1.5"></path>
                        <path d="M325.283902,890.741522 C323.815776,890.741522 322.619524,889.552077 322.619524,888.078857 C322.619524,886.605637 323.815776,885.410154 325.283902,885.410154 C326.75807,885.410154 327.94828,886.605637 327.94828,888.078857 C327.94828,889.552077 326.75807,890.741522 325.283902,890.741522 Z" id="Stroke-143" stroke="#FFFFFF" stroke-width="1.5"></path>
                        <path d="M382.408521,944.055798 C380.934352,944.055798 379.744143,942.860316 379.744143,941.393133 C379.744143,939.913875 380.934352,938.724431 382.408521,938.724431 C383.876647,938.724431 385.072898,939.913875 385.072898,941.393133 C385.072898,942.860316 383.876647,944.055798 382.408521,944.055798 Z" id="Stroke-145" stroke="#FFFFFF" stroke-width="1.5"></path>
                        <path d="M385.335107,696.217259 C383.86698,696.217259 382.670729,695.027815 382.670729,693.554594 C382.670729,692.081374 383.86698,690.885892 385.335107,690.885892 C386.809275,690.885892 387.999484,692.081374 387.999484,693.554594 C387.999484,695.027815 386.809275,696.217259 385.335107,696.217259 Z" id="Stroke-147" stroke="#FFFFFF" stroke-width="1.5"></path>
                        <path d="M412.894196,803.388005 C411.420028,803.388005 410.229819,802.198561 410.229819,800.72534 C410.229819,799.246082 411.420028,798.056638 412.894196,798.056638 C414.362323,798.056638 415.552532,799.246082 415.552532,800.72534 C415.552532,802.198561 414.362323,803.388005 412.894196,803.388005 Z" id="Stroke-149" stroke="#FFFFFF" stroke-width="1.5"></path>
                        <path d="M409.248047,745.716257 C407.77992,745.716257 406.583669,744.520775 406.583669,743.053592 C406.583669,741.574334 407.77992,740.38489 409.248047,740.38489 C410.722215,740.38489 411.912425,741.574334 411.912425,743.053592 C411.912425,744.520775 410.722215,745.716257 409.248047,745.716257 Z" id="Stroke-151" stroke="#FFFFFF" stroke-width="1.5"></path>
                        <path d="M463.900413,801.283232 C462.432287,801.283232 461.236035,800.08775 461.236035,798.620567 C461.236035,797.141309 462.432287,795.951865 463.900413,795.951865 C465.374581,795.951865 466.564791,797.141309 466.564791,798.620567 C466.564791,800.08775 465.374581,801.283232 463.900413,801.283232 Z" id="Stroke-153" stroke="#FFFFFF" stroke-width="1.5"></path>
                        <path d="M544.808076,882.356845 C543.339949,882.356845 542.143698,881.1674 542.143698,879.69418 C542.143698,878.22096 543.339949,877.025478 544.808076,877.025478 C546.282244,877.025478 547.472453,878.22096 547.472453,879.69418 C547.472453,881.1674 546.282244,882.356845 544.808076,882.356845 Z" id="Stroke-155" stroke="#FFFFFF" stroke-width="1.5"></path>
                        <path d="M602.457716,770.457303 C600.983548,770.457303 599.793338,769.267858 599.793338,767.794638 C599.793338,766.321418 600.983548,765.125936 602.457716,765.125936 C603.925842,765.125936 605.122093,766.321418 605.122093,767.794638 C605.122093,769.267858 603.925842,770.457303 602.457716,770.457303 Z" id="Stroke-157" stroke="#FFFFFF" stroke-width="1.5"></path>
                        <path d="M517.242945,611.033724 C515.774818,611.033724 514.578567,609.844279 514.578567,608.371059 C514.578567,606.897839 515.774818,605.702356 517.242945,605.702356 C518.717113,605.702356 519.907322,606.897839 519.907322,608.371059 C519.907322,609.844279 518.717113,611.033724 517.242945,611.033724 Z" id="Stroke-163" stroke="#FFFFFF" stroke-width="1.5"></path>
                        <path d="M516.617632,693.552179 C515.143463,693.552179 513.953254,692.362735 513.953254,690.889514 C513.953254,689.416294 515.143463,688.220812 516.617632,688.220812 C518.085758,688.220812 519.282009,689.416294 519.282009,690.889514 C519.282009,692.362735 518.085758,693.552179 516.617632,693.552179 Z" id="Stroke-165" stroke="#FFFFFF" stroke-width="1.5"></path>
                        <path d="M544.808076,665.904542 C543.339949,665.904542 542.143698,664.70906 542.143698,663.241877 C542.143698,661.762619 543.339949,660.573175 544.808076,660.573175 C546.282244,660.573175 547.472453,661.762619 547.472453,663.241877 C547.472453,664.70906 546.282244,665.904542 544.808076,665.904542 Z" id="Stroke-167" stroke="#FFFFFF" stroke-width="1.5"></path>
                        <path d="M651.852618,638.734494 C650.384492,638.734494 649.188241,637.539011 649.188241,636.071829 C649.188241,634.592571 650.384492,633.403126 651.852618,633.403126 C653.326787,633.403126 654.516996,634.592571 654.516996,636.071829 C654.516996,637.539011 653.326787,638.734494 651.852618,638.734494 Z" id="Stroke-173" stroke="#FFFFFF" stroke-width="1.5"></path>
                        <path d="M681.435668,660.491664 C679.9615,660.491664 678.771291,659.30222 678.771291,657.829 C678.771291,656.355779 679.9615,655.160297 681.435668,655.160297 C682.909836,655.160297 684.100046,656.355779 684.100046,657.829 C684.100046,659.30222 682.909836,660.491664 681.435668,660.491664 Z" id="Stroke-175" stroke="#FFFFFF" stroke-width="1.5"></path>
                        <path d="M680.244251,776.742641 C678.770082,776.742641 677.579873,775.553196 677.579873,774.079976 C677.579873,772.606755 678.770082,771.411273 680.244251,771.411273 C681.712377,771.411273 682.908628,772.606755 682.908628,774.079976 C682.908628,775.553196 681.712377,776.742641 680.244251,776.742641 Z" id="Stroke-177" stroke="#FFFFFF" stroke-width="1.5"></path>
                        <path d="M651.852618,719.920409 C650.384492,719.920409 649.188241,718.730965 649.188241,717.257744 C649.188241,715.784524 650.384492,714.589042 651.852618,714.589042 C653.326787,714.589042 654.516996,715.784524 654.516996,717.257744 C654.516996,718.730965 653.326787,719.920409 651.852618,719.920409 Z" id="Stroke-179" stroke="#FFFFFF" stroke-width="1.5"></path>
                        <path d="M572.478936,965.99531 C571.004768,965.99531 569.814559,964.799828 569.814559,963.332645 C569.814559,961.853387 571.004768,960.663943 572.478936,960.663943 C573.947063,960.663943 575.143314,961.853387 575.143314,963.332645 C575.143314,964.799828 573.947063,965.99531 572.478936,965.99531 Z" id="Stroke-181" stroke="#FFFFFF" stroke-width="1.5"></path>
                        <polyline id="Stroke-183" stroke="#FFFFFF" stroke-width="1.5" points="544.808076 1096.95192 544.808076 1042.29786 597.860003 989.280041 597.860003 961.101682"></polyline>
                        <polyline id="Stroke-185" stroke="#FFFFFF" stroke-width="1.5" points="544.808076 1014.05611 544.808076 943.238885 585.96395 902.10947"></polyline>
                        <polyline id="Stroke-187" stroke="#FFFFFF" stroke-width="1.5" points="574.343397 961.101682 626.779073 908.699716 626.779073 852.487905"></polyline>
                        <polyline id="Stroke-189" stroke="#FFFFFF" stroke-width="1.5" points="600.55761 879.691765 600.55761 825.750162 651.85141 774.489338 651.85141 719.086591"></polyline>
                        <polyline id="Stroke-191" stroke="#FFFFFF" stroke-width="1.5" points="680.244251 771.412481 680.244251 691.973298 707.679486 664.5557 707.679486 608.935592"></polyline>
                        <polyline id="Stroke-193" stroke="#FFFFFF" stroke-width="1.5" points="571.334644 877.651596 571.334644 799.087892 600.558214 769.883109"></polyline>
                        <polyline id="Stroke-195" stroke="#FFFFFF" stroke-width="1.5" points="624.098987 768.900761 624.098987 714.385568 678.770082 659.74962"></polyline>
                        <polyline id="Stroke-197" stroke="#FFFFFF" stroke-width="1.5" points="597.861211 744.749607 597.861211 691.484237 626.196656 663.160971 626.196656 536.288921"></polyline>
                        <polyline id="Stroke-199" stroke="#FFFFFF" stroke-width="1.5" points="653.8941 634.023207 680.398917 607.541467 680.398917 556.570456 707.513944 529.472861 707.513944 482.251318"></polyline>
                        <polyline id="Stroke-201" stroke="#FFFFFF" stroke-width="1.5" points="708.516862 582.271511 734.387304 556.411662 734.387304 462.55424"></polyline>
                        <polyline id="Stroke-203" stroke="#FFFFFF" stroke-width="1.5" points="653.268787 606.440778 653.268787 552.644082 679.676937 526.252909 679.676937 508.791624"></polyline>
                        <polyline id="Stroke-205" stroke="#FFFFFF" stroke-width="1.5" points="544.808076 877.427594 544.808076 771.410066 572.92602 743.316236 572.92602 691.481822"></polyline>
                        <polyline id="Stroke-207" stroke="#FFFFFF" stroke-width="1.5" points="544.808076 691.482425 599.056254 637.269122 599.056254 555.245765"></polyline>
                        <polyline id="Stroke-209" stroke="#FFFFFF" stroke-width="1.5" points="571.334644 636.87727 571.334644 582.271511 543.204616 554.15353 543.204616 501.817979"></polyline>
                        <path d="M543.65625,660.574382 L543.65625,582.270303" id="Stroke-211" stroke="#FFFFFF" stroke-width="1.5"></path>
                        <polyline id="Stroke-213" stroke="#FFFFFF" stroke-width="1.5" points="516.617632 1096.95192 516.617632 1043.11296 491.188232 1017.70595 491.188232 961.101682"></polyline>
                        <polyline id="Stroke-215" stroke="#FFFFFF" stroke-width="1.5" points="516.617632 1015.44178 516.617632 933.931634 463.499246 880.847398 463.499246 825.752578"></polyline>
                        <polyline id="Stroke-217" stroke="#FFFFFF" stroke-width="1.5" points="463.499246 934.432771 433.60505 904.563831 433.60505 852.487905 353.419971 772.348338"></polyline>
                        <path d="M489.28125,1096.95192 L489.28125,1042.61183" id="Stroke-219" stroke="#FFFFFF" stroke-width="1.5"></path>
                        <polyline id="Stroke-221" stroke="#FFFFFF" stroke-width="1.5" points="463.499246 1015.44178 463.499246 961.101682 408.254192 905.892144 408.254192 856.986057"></polyline>
                        <polyline id="Stroke-223" stroke="#FFFFFF" stroke-width="1.5" points="516.617632 906.791171 516.617632 852.487301 488.964896 824.852343 488.964896 771.411877"></polyline>
                        <polyline id="Stroke-225" stroke="#FFFFFF" stroke-width="1.5" points="518.629509 824.691134 518.629509 744.750814 546.137244 717.254726"></polyline>
                        <polyline id="Stroke-227" stroke="#FFFFFF" stroke-width="1.5" points="488.963688 744.749607 488.963688 691.484237 461.23241 663.776825 461.23241 611.543917"></polyline>
                        <polyline id="Stroke-229" stroke="#FFFFFF" stroke-width="1.5" points="516.617632 688.481644 516.617632 636.876666 450.455275 570.756844"></polyline>
                        <polyline id="Stroke-231" stroke="#FFFFFF" stroke-width="1.5" points="516.617632 605.703564 516.617632 554.557458 497.054696 535.007098"></polyline>
                        <polyline id="Stroke-233" stroke="#FFFFFF" stroke-width="1.5" points="463.499246 795.953072 463.499246 744.752626 410.253985 691.541596 410.253985 608.371059"></polyline>
                        <path d="M434.90625,688.392889 L434.90625,588.751265" id="Stroke-235" stroke="#FFFFFF" stroke-width="1.5"></path>
                        <polyline id="Stroke-237" stroke="#FFFFFF" stroke-width="1.5" points="436.877824 825.752578 436.877824 771.412481 410.228006 744.779796"></polyline>
                        <polyline id="Stroke-239" stroke="#FFFFFF" stroke-width="1.5" points="410.227402 798.582529 383.106334 771.484934 383.106334 717.253518 355.115265 689.286482"></polyline>
                        <polyline id="Stroke-241" stroke="#FFFFFF" stroke-width="1.5" points="382.668312 691.482425 354.260368 663.086706 354.260368 611.137574"></polyline>
                        <path d="M382.041667,662.231151 L382.041667,617.46095" id="Stroke-243" stroke="#FFFFFF" stroke-width="1.5"></path>
                        <path d="M597.861211,955.299972 C595.819126,955.299972 594.163708,956.954326 594.163708,959.001136 C594.163708,961.047946 595.819126,962.708338 597.861211,962.708338 C599.909338,962.708338 601.564757,961.047946 601.564757,959.001136 C601.564757,956.954326 599.909338,955.299972 597.861211,955.299972" id="Fill-245" fill="#FFFFFF" fill-rule="nonzero"></path>
                        <path d="M544.808076,1014.05611 C542.765991,1014.05611 541.110572,1015.71046 541.110572,1017.75123 C541.110572,1019.79804 542.765991,1021.45844 544.808076,1021.45844 C546.856203,1021.45844 548.511621,1019.79804 548.511621,1017.75123 C548.511621,1015.71046 546.856203,1014.05611 544.808076,1014.05611" id="Fill-247" fill="#FFFFFF" fill-rule="nonzero"></path>
                        <path d="M490.055418,1038.90885 C488.013333,1038.90885 486.357914,1040.56321 486.357914,1042.61002 C486.357914,1044.65683 488.013333,1046.31722 490.055418,1046.31722 C492.103545,1046.31722 493.758963,1044.65683 493.758963,1042.61002 C493.758963,1040.56321 492.103545,1038.90885 490.055418,1038.90885" id="Fill-249" fill="#FFFFFF" fill-rule="nonzero"></path>
                        <path d="M516.074485,1093.9922 C514.0324,1093.9922 512.376982,1095.64655 512.376982,1097.69336 C512.376982,1099.73414 514.0324,1101.39453 516.074485,1101.39453 C518.122612,1101.39453 519.77803,1099.73414 519.77803,1097.69336 C519.77803,1095.64655 518.122612,1093.9922 516.074485,1093.9922" id="Fill-251" fill="#FFFFFF" fill-rule="nonzero"></path>
                        <path d="M408.256608,853.282478 C406.214523,853.282478 404.559105,854.936832 404.559105,856.983642 C404.559105,859.024415 406.214523,860.684807 408.256608,860.684807 C410.304735,860.684807 411.960154,859.024415 411.960154,856.983642 C411.960154,854.936832 410.304735,853.282478 408.256608,853.282478" id="Fill-253" fill="#FFFFFF" fill-rule="nonzero"></path>
                        <path d="M463.499246,820.994196 C461.451119,820.994196 459.795701,822.642513 459.795701,824.689323 C459.795701,826.736133 461.451119,828.396525 463.499246,828.396525 C465.541331,828.396525 467.19675,826.736133 467.19675,824.689323 C467.19675,822.642513 465.541331,820.994196 463.499246,820.994196" id="Fill-255" fill="#FFFFFF" fill-rule="nonzero"></path>
                        <path d="M436.877824,820.994196 C434.829697,820.994196 433.174279,822.642513 433.174279,824.689323 C433.174279,826.736133 434.829697,828.396525 436.877824,828.396525 C438.919909,828.396525 440.575328,826.736133 440.575328,824.689323 C440.575328,822.642513 438.919909,820.994196 436.877824,820.994196" id="Fill-257" fill="#FFFFFF" fill-rule="nonzero"></path>
                        <path d="M488.963688,767.715543 C486.915561,767.715543 485.260142,769.369897 485.260142,771.41067 C485.260142,773.45748 486.915561,775.117872 488.963688,775.117872 C491.005773,775.117872 492.661191,773.45748 492.661191,771.41067 C492.661191,769.369897 491.005773,767.715543 488.963688,767.715543" id="Fill-259" fill="#FFFFFF" fill-rule="nonzero"></path>
                        <path d="M488.963688,741.076216 C486.915561,741.076216 485.260142,742.73057 485.260142,744.777381 C485.260142,746.824191 486.915561,748.484583 488.963688,748.484583 C491.005773,748.484583 492.661191,746.824191 492.661191,744.777381 C492.661191,742.73057 491.005773,741.076216 488.963688,741.076216" id="Fill-261" fill="#FFFFFF" fill-rule="nonzero"></path>
                        <path d="M435.880948,585.048893 C433.832821,585.048893 432.177403,586.703247 432.177403,588.750058 C432.177403,590.79083 433.832821,592.451222 435.880948,592.451222 C437.923033,592.451222 439.578452,590.79083 439.578452,588.750058 C439.578452,586.703247 437.923033,585.048893 435.880948,585.048893" id="Fill-263" fill="#FFFFFF" fill-rule="nonzero"></path>
                        <path d="M410.257006,604.671706 C408.208879,604.671706 406.553461,606.32606 406.553461,608.366832 C406.553461,610.413643 408.208879,612.074035 410.257006,612.074035 C412.299092,612.074035 413.95451,610.413643 413.95451,608.366832 C413.95451,606.32606 412.299092,604.671706 410.257006,604.671706" id="Fill-265" fill="#FFFFFF" fill-rule="nonzero"></path>
                        <path d="M382.668312,658.528176 C380.626227,658.528176 378.970809,660.18253 378.970809,662.22934 C378.970809,664.27615 380.626227,665.936542 382.668312,665.936542 C384.71644,665.936542 386.371858,664.27615 386.371858,662.22934 C386.371858,660.18253 384.71644,658.528176 382.668312,658.528176" id="Fill-267" fill="#FFFFFF" fill-rule="nonzero"></path>
                        <path d="M354.25916,605.703564 C352.211033,605.703564 350.555614,607.357918 350.555614,609.404728 C350.555614,611.445501 352.211033,613.105893 354.25916,613.105893 C356.301245,613.105893 357.956663,611.445501 357.956663,609.404728 C357.956663,607.357918 356.301245,605.703564 354.25916,605.703564" id="Fill-269" fill="#FFFFFF" fill-rule="nonzero"></path>
                        <path d="M303.697504,430.044591 C301.649377,430.044591 300,431.692907 300,433.739718 C300,435.786528 301.649377,437.44692 303.697504,437.44692 C305.745631,437.44692 307.401049,435.786528 307.401049,433.739718 C307.401049,431.692907 305.745631,430.044591 303.697504,430.044591" id="Fill-277" fill="#FFFFFF" fill-rule="nonzero"></path>
                        <path d="M328.703546,457.044591 C326.655419,457.044591 325,458.698945 325,460.745756 C325,462.786528 326.655419,464.44692 328.703546,464.44692 C330.745631,464.44692 332.401049,462.786528 332.401049,460.745756 C332.401049,458.698945 330.745631,457.044591 328.703546,457.044591" id="Fill-279" fill="#FFFFFF" fill-rule="nonzero"></path>
                        <path d="M327.697503,513.044591 C325.655418,513.044591 324,514.698945 324,516.739718 C324,518.786528 325.655418,520.44692 327.697503,520.44692 C329.74563,520.44692 331.401049,518.786528 331.401049,516.739718 C331.401049,514.698945 329.74563,513.044591 327.697503,513.044591" id="Fill-281" fill="#FFFFFF" fill-rule="nonzero"></path>
                        <path d="M352.697504,537.044591 C350.655419,537.044591 349,538.698946 349,540.739718 C349,542.786528 350.655419,544.44692 352.697504,544.44692 C354.745631,544.44692 356.401049,542.786528 356.401049,540.739718 C356.401049,538.698946 354.745631,537.044591 352.697504,537.044591" id="Fill-283" fill="#FFFFFF" fill-rule="nonzero"></path>
                        <path d="M268.442638,769.861977 C266.394511,769.861977 264.739093,771.516331 264.739093,773.563141 C264.739093,775.603914 266.394511,777.264306 268.442638,777.264306 C270.484723,777.264306 272.140141,775.603914 272.140141,773.563141 C272.140141,771.516331 270.484723,769.861977 268.442638,769.861977" id="Fill-303" fill="#FFFFFF" fill-rule="nonzero"></path>
                        <path d="M295.376414,769.861977 C293.334329,769.861977 291.678911,771.516331 291.678911,773.563141 C291.678911,775.603914 293.334329,777.264306 295.376414,777.264306 C297.424541,777.264306 299.07996,775.603914 299.07996,773.563141 C299.07996,771.516331 297.424541,769.861977 295.376414,769.861977" id="Fill-305" fill="#FFFFFF" fill-rule="nonzero"></path>
                        <path d="M290.402909,682.325515 C288.360824,682.325515 286.705406,683.979869 286.705406,686.020642 C286.705406,688.067452 288.360824,689.727844 290.402909,689.727844 C292.451036,689.727844 294.106455,688.067452 294.106455,686.020642 C294.106455,683.979869 292.451036,682.325515 290.402909,682.325515" id="Fill-307" fill="#FFFFFF" fill-rule="nonzero"></path>
                        <path d="M397.697504,480.044591 C395.649377,480.044591 394,481.698945 394,483.739718 C394,485.786528 395.649377,487.44692 397.697504,487.44692 C399.745631,487.44692 401.401049,485.786528 401.401049,483.739718 C401.401049,481.698945 399.745631,480.044591 397.697504,480.044591" id="Fill-309" fill="#FFFFFF" fill-rule="nonzero"></path>
                        <path d="M341.668314,897.144596 C339.626229,897.144596 337.97081,898.79895 337.97081,900.839723 C337.97081,902.886533 339.626229,904.546925 341.668314,904.546925 C343.716441,904.546925 345.371859,902.886533 345.371859,900.839723 C345.371859,898.79895 343.716441,897.144596 341.668314,897.144596" id="Fill-311" fill="#FFFFFF" fill-rule="nonzero"></path>
                        <path d="M433.172466,972.71718 C431.130381,972.71718 429.474963,974.365496 429.474963,976.412307 C429.474963,978.459117 431.130381,980.119509 433.172466,980.119509 C435.220593,980.119509 436.876012,978.459117 436.876012,976.412307 C436.876012,974.365496 435.220593,972.71718 433.172466,972.71718" id="Fill-313" fill="#FFFFFF" fill-rule="nonzero"></path>
                        <path d="M433.172466,1011.7388 C431.130381,1011.7388 429.474963,1013.39316 429.474963,1015.43997 C429.474963,1017.48678 431.130381,1019.14717 433.172466,1019.14717 C435.220593,1019.14717 436.876012,1017.48678 436.876012,1015.43997 C436.876012,1013.39316 435.220593,1011.7388 433.172466,1011.7388" id="Fill-315" fill="#FFFFFF" fill-rule="nonzero"></path>
                        <path d="M354.25916,685.586525 C352.211033,685.586525 350.555614,687.240879 350.555614,689.287689 C350.555614,691.328462 352.211033,692.988854 354.25916,692.988854 C356.301245,692.988854 357.956663,691.328462 357.956663,689.287689 C357.956663,687.240879 356.301245,685.586525 354.25916,685.586525" id="Fill-317" fill="#FFFFFF" fill-rule="nonzero"></path>
                        <path d="M354.25916,740.232737 C352.211033,740.232737 350.555614,741.887091 350.555614,743.933902 C350.555614,745.974674 352.211033,747.635066 354.25916,747.635066 C356.301245,747.635066 357.956663,745.974674 357.956663,743.933902 C357.956663,741.887091 356.301245,740.232737 354.25916,740.232737" id="Fill-319" fill="#FFFFFF" fill-rule="nonzero"></path>
                        <path d="M353.42118,768.653212 C351.373053,768.653212 349.717634,770.307566 349.717634,772.348338 C349.717634,774.395148 351.373053,776.05554 353.42118,776.05554 C355.469307,776.05554 357.124725,774.395148 357.124725,772.348338 C357.124725,770.307566 355.469307,768.653212 353.42118,768.653212" id="Fill-321" fill="#FFFFFF" fill-rule="nonzero"></path>
                        <path d="M546.135431,713.558391 C544.087304,713.558391 542.431886,715.212745 542.431886,717.253518 C542.431886,719.300328 544.087304,720.96072 546.135431,720.96072 C548.183558,720.96072 549.838977,719.300328 549.838977,717.253518 C549.838977,715.212745 548.183558,713.558391 546.135431,713.558391" id="Fill-323" fill="#FFFFFF" fill-rule="nonzero"></path>
                        <path d="M572.927833,687.190161 C570.879706,687.190161 569.224287,688.844516 569.224287,690.885288 C569.224287,692.932098 570.879706,694.59249 572.927833,694.59249 C574.969918,694.59249 576.625336,692.932098 576.625336,690.885288 C576.625336,688.844516 574.969918,687.190161 572.927833,687.190161" id="Fill-325" fill="#FFFFFF" fill-rule="nonzero"></path>
                        <path d="M546.135431,687.190161 C544.087304,687.190161 542.431886,688.844516 542.431886,690.885288 C542.431886,692.932098 544.087304,694.59249 546.135431,694.59249 C548.183558,694.59249 549.838977,692.932098 549.838977,690.885288 C549.838977,688.844516 548.183558,687.190161 546.135431,687.190161" id="Fill-327" fill="#FFFFFF" fill-rule="nonzero"></path>
                        <path d="M597.861211,739.348805 C595.819126,739.348805 594.163708,741.003159 594.163708,743.049969 C594.163708,745.090742 595.819126,746.751134 597.861211,746.751134 C599.909338,746.751134 601.564757,745.090742 601.564757,743.049969 C601.564757,741.003159 599.909338,739.348805 597.861211,739.348805" id="Fill-329" fill="#FFFFFF" fill-rule="nonzero"></path>
                        <path d="M624.594404,766.182549 C622.552319,766.182549 620.896901,767.836903 620.896901,769.883713 C620.896901,771.924485 622.552319,773.584877 624.594404,773.584877 C626.642531,773.584877 628.29795,771.924485 628.29795,769.883713 C628.29795,767.836903 626.642531,766.182549 624.594404,766.182549" id="Fill-331" fill="#FFFFFF" fill-rule="nonzero"></path>
                        <path d="M654.519413,822.05564 C652.477327,822.05564 650.821909,823.709994 650.821909,825.750766 C650.821909,827.797576 652.477327,829.457968 654.519413,829.457968 C656.56754,829.457968 658.222958,827.797576 658.222958,825.750766 C658.222958,823.709994 656.56754,822.05564 654.519413,822.05564" id="Fill-335" fill="#FFFFFF" fill-rule="nonzero"></path>
                        <path d="M682.911045,794.35487 C680.862918,794.35487 679.2075,796.009224 679.2075,798.056034 C679.2075,800.102844 680.862918,801.763236 682.911045,801.763236 C684.95313,801.763236 686.608548,800.102844 686.608548,798.056034 C686.608548,796.009224 684.95313,794.35487 682.911045,794.35487" id="Fill-337" fill="#FFFFFF" fill-rule="nonzero"></path>
                        <path d="M709.012883,849.691201 C706.970798,849.691201 705.315379,851.345555 705.315379,853.392366 C705.315379,855.433138 706.970798,857.09353 709.012883,857.09353 C711.06101,857.09353 712.716428,855.433138 712.716428,853.392366 C712.716428,851.345555 711.06101,849.691201 709.012883,849.691201" id="Fill-339" fill="#FFFFFF" fill-rule="nonzero"></path>
                        <path d="M655.139288,959.002343 C653.091161,959.002343 651.435743,960.656697 651.435743,962.703508 C651.435743,964.74428 653.091161,966.404672 655.139288,966.404672 C657.181374,966.404672 658.836792,964.74428 658.836792,962.703508 C658.836792,960.656697 657.181374,959.002343 655.139288,959.002343" id="Fill-341" fill="#FFFFFF" fill-rule="nonzero"></path>
                        <path d="M599.537171,1015.44178 C597.495086,1015.44178 595.839668,1017.09613 595.839668,1019.14294 C595.839668,1021.18372 597.495086,1022.84411 599.537171,1022.84411 C601.585298,1022.84411 603.240717,1021.18372 603.240717,1019.14294 C603.240717,1017.09613 601.585298,1015.44178 599.537171,1015.44178" id="Fill-343" fill="#FFFFFF" fill-rule="nonzero"></path>
                        <path d="M465.703546,402.420548 C463.655419,402.420548 462,404.074902 462,406.115675 C462,408.162485 463.655419,409.822877 465.703546,409.822877 C467.745631,409.822877 469.401049,408.162485 469.401049,406.115675 C469.401049,404.074902 467.745631,402.420548 465.703546,402.420548" id="Fill-345" fill="#FFFFFF" fill-rule="nonzero"></path>
                        <path d="M628.703546,402.420548 C626.655419,402.420548 625,404.074902 625,406.115675 C625,408.162485 626.655419,409.822877 628.703546,409.822877 C630.751673,409.822877 632.407091,408.162485 632.407091,406.115675 C632.407091,404.074902 630.751673,402.420548 628.703546,402.420548" id="Fill-381" fill="#FFFFFF" fill-rule="nonzero"></path>
                        <path d="M579.703545,430.420548 C577.655418,430.420548 576,432.074902 576,434.115674 C576,436.162485 577.655418,437.822876 579.703545,437.822876 C581.745631,437.822876 583.401049,436.162485 583.401049,434.115674 C583.401049,432.074902 581.745631,430.420548 579.703545,430.420548" id="Fill-385" fill="#FFFFFF" fill-rule="nonzero"></path>
                        <path d="M599.790922,876.395736 C597.742795,876.395736 596.087376,878.05009 596.087376,880.090863 C596.087376,882.137673 597.742795,883.798065 599.790922,883.798065 C601.833007,883.798065 603.488425,882.137673 603.488425,880.090863 C603.488425,878.05009 601.833007,876.395736 599.790922,876.395736" id="Fill-391" fill="#FFFFFF" fill-rule="nonzero"></path>
                        <path d="M626.777865,848.783722 C624.729738,848.783722 623.074319,850.438076 623.074319,852.484886 C623.074319,854.525659 624.729738,856.18605 626.777865,856.18605 C628.81995,856.18605 630.475368,854.525659 630.475368,852.484886 C630.475368,850.438076 628.81995,848.783722 626.777865,848.783722" id="Fill-393" fill="#FFFFFF" fill-rule="nonzero"></path>
                        <path d="M571.782936,876.395736 C569.734809,876.395736 568.07939,878.05009 568.07939,880.090863 C568.07939,882.137673 569.734809,883.798065 571.782936,883.798065 C573.825021,883.798065 575.480439,882.137673 575.480439,880.090863 C575.480439,878.05009 573.825021,876.395736 571.782936,876.395736" id="Fill-395" fill="#FFFFFF" fill-rule="nonzero"></path>
                        <path d="M707.909674,604.724838 C705.867588,604.724838 704.21217,606.379193 704.21217,608.419965 C704.21217,610.466775 705.867588,612.127167 707.909674,612.127167 C709.957801,612.127167 711.613219,610.466775 711.613219,608.419965 C711.613219,606.379193 709.957801,604.724838 707.909674,604.724838" id="Fill-397" fill="#FFFFFF" fill-rule="nonzero"></path>
                        <path d="M707.909674,578.568535 C705.867588,578.568535 704.21217,580.222889 704.21217,582.269699 C704.21217,584.310472 705.867588,585.970864 707.909674,585.970864 C709.957801,585.970864 711.613219,584.310472 711.613219,582.269699 C711.613219,580.222889 709.957801,578.568535 707.909674,578.568535" id="Fill-399" fill="#FFFFFF" fill-rule="nonzero"></path>
                        <path d="M653.268787,602.737802 C651.226701,602.737802 649.571283,604.392156 649.571283,606.438967 C649.571283,608.479739 651.226701,610.140131 653.268787,610.140131 C655.316914,610.140131 656.972332,608.479739 656.972332,606.438967 C656.972332,604.392156 655.316914,602.737802 653.268787,602.737802" id="Fill-403" fill="#FFFFFF" fill-rule="nonzero"></path>
                        <path d="M571.936394,633.174294 C569.888267,633.174294 568.232849,634.828648 568.232849,636.875458 C568.232849,638.916231 569.888267,640.576623 571.936394,640.576623 C573.97848,640.576623 575.633898,638.916231 575.633898,636.875458 C575.633898,634.828648 573.97848,633.174294 571.936394,633.174294" id="Fill-407" fill="#FFFFFF" fill-rule="nonzero"></path>
                        <path d="M544.258888,577.64898 C542.210761,577.64898 540.555343,579.303334 540.555343,581.350144 C540.555343,583.390917 542.210761,585.051308 544.258888,585.051308 C546.300973,585.051308 547.956391,583.390917 547.956391,581.350144 C547.956391,579.303334 546.300973,577.64898 544.258888,577.64898" id="Fill-409" fill="#FFFFFF" fill-rule="nonzero"></path>
                        <polyline id="Stroke-415" stroke="#FFFFFF" stroke-width="1.5" points="354.25916 743.935713 326.612466 716.306793 326.612466 603.991851"></polyline>
                        <polyline id="Stroke-417" stroke="#FFFFFF" stroke-width="1.5" points="628.299762 960.66515 655.245622 933.730576 655.245622 906.789964 709.010466 853.059684"></polyline>
                        <polyline id="Stroke-419" stroke="#FFFFFF" stroke-width="1.5" points="466 406.067485 520.961096 351.141723 520.961096 297.332952 601.931592 216.420548"></polyline>
                        <path d="M692.510054,924.367777 L655.136268,961.717537" id="Stroke-421" stroke="#FFFFFF" stroke-width="1.5"></path>
                        <polyline id="Stroke-423" stroke="#FFFFFF" stroke-width="1.5" points="654.519413 852.486094 682.945482 824.078299 682.945482 798.05543"></polyline>
                        <path d="M653.916667,824.691134 L653.916667,798.058449" id="Stroke-425" stroke="#FFFFFF" stroke-width="1.5"></path>
                        <polyline id="Stroke-437" stroke="#FFFFFF" stroke-width="1.5" points="519 406.227534 574.281304 350.987807 574.281304 297.420548"></polyline>
                        <polyline id="Stroke-457" stroke="#FFFFFF" stroke-width="1.5" points="433.172466 976.414118 406.226606 949.485581 406.226606 922.544969 352.461762 868.808651"></polyline>
                        <path d="M343.072399,902.068413 L380.452227,939.418173" id="Stroke-459" stroke="#FFFFFF" stroke-width="1.5"></path>
                        <polyline id="Stroke-461" stroke="#FFFFFF" stroke-width="1.5" points="309.277095 733.092449 290.58416 714.417569 290.58416 688.3947"></polyline>
                        <polyline id="Stroke-463" stroke="#FFFFFF" stroke-width="1.5" points="389.099069 868.807444 325.305048 805.054435 325.305048 749.736216"></polyline>
                        <polyline id="Stroke-473" stroke="#FFFFFF" stroke-width="1.5" points="323.720317 886.065858 268.445054 830.826131 268.445054 777.258872"></polyline>
                        <polyline id="Stroke-475" stroke="#FFFFFF" stroke-width="1.5" points="395.083488 482.231875 293.522971 380.73665 293.522971 351.537905 238 296.044591"></polyline>
                        <polyline id="Stroke-477" stroke="#FFFFFF" stroke-width="1.5" points="382.323887 410.620636 294.393384 322.746663 294.393384 267.410331 242 215.044591"></polyline>
                        <polyline id="Stroke-491" stroke="#FFFFFF" stroke-width="1.5" points="296.078457 775.622631 296.078457 819.982263 327.94828 851.831597"></polyline>
                        <polyline id="Stroke-493" stroke="#FFFFFF" stroke-width="1.5" points="491 433.59386 545.755679 433.59386 600.964483 378.420548"></polyline>
                        <polyline id="Stroke-495" stroke="#FFFFFF" stroke-width="1.5" points="706.103818 960.305902 678.771291 987.620857 630.47416 987.620857 599.534755 1018.54641"></polyline>
                        <path d="M680.290676,353.420548 L628,405.677608" id="Stroke-513" stroke="#FFFFFF" stroke-width="1.5"></path>
                        <polyline id="Stroke-515" stroke="#FFFFFF" stroke-width="1.5" points="578.417609 435.420548 549.816331 464.003439 494.015443 464.003439 468 490.014232"></polyline>
                        <polyline id="Stroke-517" stroke="#FFFFFF" stroke-width="1.5" points="432.17559 1014.05611 406.734107 988.630979 352.461762 988.630979 300.473169 936.681847"></polyline>
                        <polyline id="Stroke-519" stroke="#FFFFFF" stroke-width="1.5" points="488.110572 566.468144 434.212811 512.598995 380.586925 512.598995 330 462.044591"></polyline>
                        <polyline id="Stroke-521" stroke="#FFFFFF" stroke-width="1.5" points="327.825759 516.587394 244.100261 432.909683 244.100261 378.104677 191 325.044591"></polyline>
                        <polyline id="Stroke-529" stroke="#FFFFFF" stroke-width="1.5" points="431.897996 566.687079 406.438387 566.687079 380.779404 541.044591 351 541.044591"></polyline>
                    </g>
                </g>
            </g>
        </g>
    </g>
</svg>