
<svg width="103px" height="70px" viewBox="0 0 103 70" version="1.1" xmlns="http://www.w3.org/2000/svg" xmlns:xlink="http://www.w3.org/1999/xlink">
    <!-- Generator: Sketch 49.2 (51160) - http://www.bohemiancoding.com/sketch -->
    <desc>Created with Sketch.</desc>
    <defs>
        <path d="M29,0.916666667 C16.0833333,0.916666667 5.0525,8.95083333 0.583333333,20.2916667 C5.0525,31.6325 16.0833333,39.6666667 29,39.6666667 C41.9166667,39.6666667 52.9475,31.6325 57.4166667,20.2916667 C52.9475,8.95083333 41.9166667,0.916666667 29,0.916666667 Z M29,33.2083333 C21.87,33.2083333 16.0833333,27.4216667 16.0833333,20.2916667 C16.0833333,13.1616667 21.87,7.375 29,7.375 C36.13,7.375 41.9166667,13.1616667 41.9166667,20.2916667 C41.9166667,27.4216667 36.13,33.2083333 29,33.2083333 Z M29,12.5416667 C24.7116667,12.5416667 21.25,16.0033333 21.25,20.2916667 C21.25,24.58 24.7116667,28.0416667 29,28.0416667 C33.2883333,28.0416667 36.75,24.58 36.75,20.2916667 C36.75,16.0033333 33.2883333,12.5416667 29,12.5416667 Z" id="path-1"></path>
        <linearGradient x1="100%" y1="50%" x2="0%" y2="50%" id="linearGradient-3">
            <stop stop-color="#2DB7BA" offset="0%"></stop>
            <stop stop-color="#14BC7D" offset="51.6663656%"></stop>
            <stop stop-color="#14DE2D" offset="100%"></stop>
        </linearGradient>
    </defs>
    <g id="Dashboard" stroke="none" stroke-width="1" fill="none" fill-rule="evenodd">
        <g id="Dasboard-scroll-1" transform="translate(-521.000000, -573.000000)">
            <g id="Group-4" transform="translate(521.000000, 573.000000)">
                <rect id="Rectangle-4" fill="#666666" x="11" y="68" width="80" height="2" rx="1"></rect>
                <rect id="Rectangle-4" fill="#666666" x="0" y="68" width="6" height="2" rx="1"></rect>
                <rect id="Rectangle-4" fill="#666666" x="93" y="68" width="10" height="2" rx="1"></rect>
                <g id="Icon-/-Visibility-/-Filled" transform="translate(22.000000, 0.000000)">
                    <mask id="mask-2" fill="white">
                        <use xlink:href="#path-1"></use>
                    </mask>
                    <g id="Mask" fill-rule="nonzero"></g>
                    <g id="✱-/-Color-/-Icons-/-Selected-/-On-Surface-/-Inactive" mask="url(#mask-2)" fill="#000000" fill-opacity="0.54">
                        <g transform="translate(-2.000000, -12.000000)" id="Rectangle">
                            <rect x="0" y="0" width="62" height="62"></rect>
                        </g>
                    </g>
                    <rect id="Rectangle-3" fill="url(#linearGradient-3)" mask="url(#mask-2)" transform="translate(28.863961, 20.636039) rotate(45.000000) translate(-28.863961, -20.636039) " x="20.732233" y="11.2824856" width="16.263456" height="18.7071068"></rect>
                </g>
            </g>
        </g>
    </g>
</svg>
