<?xml version="1.0" encoding="UTF-8"?>
<svg width="13px" height="13px" viewBox="0 0 13 13" version="1.1" xmlns="http://www.w3.org/2000/svg" xmlns:xlink="http://www.w3.org/1999/xlink">
    <!-- Generator: Sketch 51.2 (57519) - http://www.bohemiancoding.com/sketch -->
    <title>Icons/Settings</title>
    <desc>Created with Sketch.</desc>
    <defs>
        <path d="M7.08333333,0 L5.66666667,0 L5.66666667,7.08333333 L7.08333333,7.08333333 L7.08333333,0 Z M10.5045833,1.53708333 L9.49875,2.54291667 C10.6179167,3.4425 11.3333333,4.82375 11.3333333,6.375 C11.3333333,9.11625 9.11625,11.3333333 6.375,11.3333333 C3.63375,11.3333333 1.41666667,9.11625 1.41666667,6.375 C1.41666667,4.82375 2.13208333,3.4425 3.24416667,2.53583333 L2.24541667,1.53708333 C0.87125,2.70583333 0,4.43416667 0,6.375 C0,9.89541667 2.85458333,12.75 6.375,12.75 C9.89541667,12.75 12.75,9.89541667 12.75,6.375 C12.75,4.43416667 11.87875,2.70583333 10.5045833,1.53708333 Z" id="path-1"></path>
    </defs>
    <g id="Profile-&amp;-Settings" stroke="none" stroke-width="1" fill="none" fill-rule="evenodd">
        <g id="Profile---general" transform="translate(-939.000000, -124.000000)">
            <g id="Subheader-grey" transform="translate(0.000000, 100.000000)">
                <g id="icon/action/power_settings_new_24px" transform="translate(937.000000, 22.000000)">
                    <g id="↳-Dark-Color" transform="translate(2.125000, 2.125000)">
                        <mask id="mask-2" fill="white">
                            <use xlink:href="#path-1"></use>
                        </mask>
                        <g id="Mask" fill-rule="nonzero"></g>
                        <g id="✱-/-Color-/-Icons-/-Black-/-Inactive" mask="url(#mask-2)" fill="#000000" fill-opacity="0.54">
                            <rect id="Rectangle" x="0" y="0" width="72" height="72"></rect>
                        </g>
                    </g>
                </g>
            </g>
        </g>
    </g>
</svg>