
<svg width="20px" height="20px" viewBox="0 0 20 20" version="1.1" xmlns="http://www.w3.org/2000/svg" xmlns:xlink="http://www.w3.org/1999/xlink">
    <g id="Symbols" stroke="none" stroke-width="1" fill="none" fill-rule="evenodd" opacity="0.5">
        <g id="Icons-/-Scenarios" transform="translate(-2.000000, 0.000000)" fill="#646464">
            <g id="Oval-4" transform="translate(2.000000, 0.000000)">
                <path d="M10,20 C4.4771525,20 0,15.5228475 0,10 C0,4.4771525 4.4771525,0 10,0 C15.5228475,0 20,4.4771525 20,10 C20,15.5228475 15.5228475,20 10,20 Z M16.6666667,6.66666667 L14.325,6.66666667 C13.95,6.01666667 13.4333333,5.45833333 12.8083333,5.03333333 L14.1666667,3.675 L12.9916667,2.5 L11.1833333,4.30833333 C10.8,4.21666667 10.4083333,4.16666667 10,4.16666667 C9.59166667,4.16666667 9.2,4.21666667 8.825,4.30833333 L7.00833333,2.5 L5.83333333,3.675 L7.18333333,5.03333333 C6.56666667,5.45833333 6.05,6.01666667 5.675,6.66666667 L3.33333333,6.66666667 L3.33333333,8.33333333 L5.075,8.33333333 C5.03333333,8.60833333 5,8.88333333 5,9.16666667 L5,10 L3.33333333,10 L3.33333333,11.6666667 L5,11.6666667 L5,12.5 C5,12.7833333 5.03333333,13.0583333 5.075,13.3333333 L3.33333333,13.3333333 L3.33333333,15 L5.675,15 C6.54166667,16.4916667 8.15,17.5 10,17.5 C11.85,17.5 13.4583333,16.4916667 14.325,15 L16.6666667,15 L16.6666667,13.3333333 L14.925,13.3333333 C14.9666667,13.0583333 15,12.7833333 15,12.5 L15,11.6666667 L16.6666667,11.6666667 L16.6666667,10 L15,10 L15,9.16666667 C15,8.88333333 14.9666667,8.60833333 14.925,8.33333333 L16.6666667,8.33333333 L16.6666667,6.66666667 Z M13.3333333,10 L13.3333333,11.6666667 L13.3333333,12.5 C13.3333333,12.6833333 13.3083333,12.8916667 13.275,13.0833333 L13.1916667,13.625 L12.8833333,14.1666667 C12.2833333,15.2 11.1833333,15.8333333 10,15.8333333 C8.81666667,15.8333333 7.71666667,15.1916667 7.11666667,14.1666667 L6.80833333,13.6333333 L6.725,13.0916667 C6.69166667,12.8916667 6.66666667,12.6833333 6.66666667,12.5 L6.66666667,11.6666667 L6.66666667,10 L6.66666667,9.16666667 C6.66666667,8.98333333 6.69166667,8.775 6.725,8.58333333 L6.80833333,8.04166667 L7.11666667,7.5 C7.36666667,7.06666667 7.71666667,6.69166667 8.125,6.40833333 L8.6,6.08333333 L9.21666667,5.93333333 C9.475,5.86666667 9.74166667,5.83333333 10,5.83333333 C10.2666667,5.83333333 10.525,5.86666667 10.7916667,5.93333333 L11.3583333,6.06666667 L11.8666667,6.41666667 C12.2833333,6.7 12.625,7.06666667 12.875,7.50833333 L13.1916667,8.05 L13.275,8.59166667 C13.3083333,8.775 13.3333333,8.98333333 13.3333333,9.16666667 L13.3333333,10 Z M8.33333333,11.6666667 L8.33333333,13.3333333 L11.6666667,13.3333333 L11.6666667,11.6666667 L8.33333333,11.6666667 Z M8.33333333,8.33333333 L8.33333333,10 L11.6666667,10 L11.6666667,8.33333333 L8.33333333,8.33333333 Z" id="Combined-Shape"></path>
            </g>
        </g>
    </g>
</svg>