
<svg width="76px" height="84px" viewBox="0 0 76 84" version="1.1" xmlns="http://www.w3.org/2000/svg" xmlns:xlink="http://www.w3.org/1999/xlink">
    <!-- Generator: Sketch 49.2 (51160) - http://www.bohemiancoding.com/sketch -->
    <desc>Created with Sketch.</desc>
    <defs>
        <path d="M62.2214949,10.625 C61.8881616,10.625 61.5548282,10.5416667 61.2631616,10.375 C53.2631616,6.25 46.3464949,4.5 38.0548282,4.5 C29.8048282,4.5 21.9714949,6.45833333 14.8464949,10.375 C13.8464949,10.9166667 12.5964949,10.5416667 12.0131616,9.54166667 C11.4714949,8.54166667 11.8464949,7.25 12.8464949,6.70833333 C20.5964949,2.5 29.0964949,0.333333333 38.0548282,0.333333333 C46.9298282,0.333333333 54.6798282,2.29166667 63.1798282,6.66666667 C64.2214949,7.20833333 64.5964949,8.45833333 64.0548282,9.45833333 C63.6798282,10.2083333 62.9714949,10.625 62.2214949,10.625 Z M2.59649488,32.5 C2.17982822,32.5 1.76316155,32.375 1.38816155,32.125 C0.429828217,31.4583333 0.221494884,30.1666667 0.88816155,29.2083333 C5.01316155,23.375 10.2631616,18.7916667 16.5131616,15.5833333 C29.5964949,8.83333333 46.3464949,8.79166667 59.4714949,15.5416667 C65.7214949,18.75 70.9714949,23.2916667 75.0964949,29.0833333 C75.7631616,30 75.5548282,31.3333333 74.5964949,32 C73.6381616,32.6666667 72.3464949,32.4583333 71.6798282,31.5 C67.9298282,26.25 63.1798282,22.125 57.5548282,19.25 C45.5964949,13.125 30.3048282,13.125 18.3881616,19.2916667 C12.7214949,22.2083333 7.97149488,26.375 4.22149488,31.625 C3.88816155,32.2083333 3.26316155,32.5 2.59649488,32.5 Z M28.6381616,82.7916667 C28.0964949,82.7916667 27.5548282,82.5833333 27.1798282,82.1666667 C23.5548282,78.5416667 21.5964949,76.2083333 18.8048282,71.1666667 C15.9298282,66.0416667 14.4298282,59.7916667 14.4298282,53.0833333 C14.4298282,40.7083333 25.0131616,30.625 38.0131616,30.625 C51.0131616,30.625 61.5964949,40.7083333 61.5964949,53.0833333 C61.5964949,54.25 60.6798282,55.1666667 59.5131616,55.1666667 C58.3464949,55.1666667 57.4298282,54.25 57.4298282,53.0833333 C57.4298282,43 48.7214949,34.7916667 38.0131616,34.7916667 C27.3048282,34.7916667 18.5964949,43 18.5964949,53.0833333 C18.5964949,59.0833333 19.9298282,64.625 22.4714949,69.125 C25.1381616,73.9166667 26.9714949,75.9583333 30.1798282,79.2083333 C30.9714949,80.0416667 30.9714949,81.3333333 30.1798282,82.1666667 C29.7214949,82.5833333 29.1798282,82.7916667 28.6381616,82.7916667 Z M58.5131616,75.0833333 C53.5548282,75.0833333 49.1798282,73.8333333 45.5964949,71.375 C39.3881616,67.1666667 35.6798282,60.3333333 35.6798282,53.0833333 C35.6798282,51.9166667 36.5964949,51 37.7631616,51 C38.9298282,51 39.8464949,51.9166667 39.8464949,53.0833333 C39.8464949,58.9583333 42.8464949,64.5 47.9298282,67.9166667 C50.8881616,69.9166667 54.3464949,70.875 58.5131616,70.875 C59.5131616,70.875 61.1798282,70.75 62.8464949,70.4583333 C63.9714949,70.25 65.0548282,71 65.2631616,72.1666667 C65.4714949,73.2916667 64.7214949,74.375 63.5548282,74.5833333 C61.1798282,75.0416667 59.0964949,75.0833333 58.5131616,75.0833333 Z M50.1381616,83.6666667 C49.9714949,83.6666667 49.7631616,83.625 49.5964949,83.5833333 C42.9714949,81.75 38.6381616,79.2916667 34.0964949,74.8333333 C28.2631616,69.0416667 25.0548282,61.3333333 25.0548282,53.0833333 C25.0548282,46.3333333 30.8048282,40.8333333 37.8881616,40.8333333 C44.9714949,40.8333333 50.7214949,46.3333333 50.7214949,53.0833333 C50.7214949,57.5416667 54.5964949,61.1666667 59.3881616,61.1666667 C64.1798282,61.1666667 68.0548282,57.5416667 68.0548282,53.0833333 C68.0548282,37.375 54.5131616,24.625 37.8464949,24.625 C26.0131616,24.625 15.1798282,31.2083333 10.3048282,41.4166667 C8.67982822,44.7916667 7.84649488,48.75 7.84649488,53.0833333 C7.84649488,56.3333333 8.13816155,61.4583333 10.6381616,68.125 C11.0548282,69.2083333 10.5131616,70.4166667 9.42982822,70.7916667 C8.34649488,71.2083333 7.13816155,70.625 6.76316155,69.5833333 C4.72149488,64.125 3.72149488,58.7083333 3.72149488,53.0833333 C3.72149488,48.0833333 4.67982822,43.5416667 6.55482822,39.5833333 C12.0964949,27.9583333 24.3881616,20.4166667 37.8464949,20.4166667 C56.8048282,20.4166667 72.2214949,35.0416667 72.2214949,53.0416667 C72.2214949,59.7916667 66.4714949,65.2916667 59.3881616,65.2916667 C52.3048282,65.2916667 46.5548282,59.7916667 46.5548282,53.0416667 C46.5548282,48.5833333 42.6798282,44.9583333 37.8881616,44.9583333 C33.0964949,44.9583333 29.2214949,48.5833333 29.2214949,53.0416667 C29.2214949,60.1666667 31.9714949,66.8333333 37.0131616,71.8333333 C40.9714949,75.75 44.7631616,77.9166667 50.6381616,79.5416667 C51.7631616,79.8333333 52.3881616,81 52.0964949,82.0833333 C51.8881616,83.0416667 51.0131616,83.6666667 50.1381616,83.6666667 Z" id="path-1"></path>
        <linearGradient x1="100%" y1="50%" x2="0%" y2="50%" id="linearGradient-3">
            <stop stop-color="#2DB7BA" offset="0%"></stop>
            <stop stop-color="#14BC7D" offset="51.6663656%"></stop>
            <stop stop-color="#14DE2D" offset="100%"></stop>
        </linearGradient>
    </defs>
    <g id="Entrance-Modals" stroke="none" stroke-width="1" fill="none" fill-rule="evenodd">
        <g id="2FA-Modal" transform="translate(-740.000000, -229.000000)">
            <g id="Modal" transform="translate(60.000000, -69.000000)">
                <g id="Icon-/-Fingerprint-/-Filled" transform="translate(680.000000, 298.000000)">
                    <mask id="mask-2" fill="white">
                        <use xlink:href="#path-1"></use>
                    </mask>
                    <g id="Mask" fill-rule="nonzero"></g>
                    <rect id="Rectangle-3" fill="url(#linearGradient-3)" mask="url(#mask-2)" transform="translate(38.000000, 42.000000) translate(-38.000000, -42.000000) " x="-12" y="-2" width="100" height="88"></rect>
                </g>
            </g>
        </g>
    </g>
</svg>
