<?xml version="1.0" encoding="UTF-8" standalone="no"?>
<svg
   xmlns:dc="http://purl.org/dc/elements/1.1/"
   xmlns:cc="http://creativecommons.org/ns#"
   xmlns:rdf="http://www.w3.org/1999/02/22-rdf-syntax-ns#"
   xmlns:svg="http://www.w3.org/2000/svg"
   xmlns="http://www.w3.org/2000/svg"
   viewBox="0 0 167.90533 82.96093"
   height="82.96093"
   width="167.90533"
   xml:space="preserve"
   id="svg2"
   version="1.1"><metadata
     id="metadata8"><rdf:RDF><cc:Work
         rdf:about=""><dc:format>image/svg+xml</dc:format><dc:type
           rdf:resource="http://purl.org/dc/dcmitype/StillImage" /></cc:Work></rdf:RDF></metadata><defs
     id="defs6"><clipPath
       id="clipPath18"
       clipPathUnits="userSpaceOnUse"><path
         id="path16"
         d="M 0,62.221 H 125.929 V 0 H 0 Z" /></clipPath><clipPath
       id="clipPath112"
       clipPathUnits="userSpaceOnUse"><path
         id="path110"
         d="M 0,62.221 H 125.929 V 0 H 0 Z" /></clipPath></defs><g
     transform="matrix(1.3333333,0,0,-1.3333333,0,82.960933)"
     id="g10"><g
       id="g12"><g
         clip-path="url(#clipPath18)"
         id="g14"><g
           transform="translate(25.2314,45.4287)"
           id="g20"><path
             id="path22"
             style="fill:#155196;fill-opacity:1;fill-rule:nonzero;stroke:none"
             d="m 0,0 h -7.332 v -4.074 h 6.13 c 0.566,0 0.995,-0.108 1.274,-0.324 0.28,-0.221 0.42,-0.514 0.42,-0.875 0,-0.37 -0.147,-0.659 -0.431,-0.87 -0.283,-0.216 -0.707,-0.328 -1.263,-0.328 h -6.13 v -5.228 c 0,-0.662 -0.179,-1.153 -0.523,-1.479 -0.346,-0.318 -0.79,-0.478 -1.332,-0.478 -0.552,0 -0.998,0.164 -1.345,0.486 -0.345,0.326 -0.519,0.815 -0.519,1.471 V 0.514 c 0,0.463 0.081,0.836 0.239,1.131 0.16,0.294 0.406,0.505 0.745,0.64 0.337,0.133 0.763,0.199 1.289,0.199 L 0,2.484 C 0.591,2.484 1.032,2.371 1.324,2.143 1.609,1.914 1.756,1.609 1.756,1.246 1.756,0.869 1.609,0.566 1.324,0.34 1.032,0.109 0.591,0 0,0" /></g><g
           transform="translate(30.4824,33.5928)"
           id="g24"><path
             id="path26"
             style="fill:#155196;fill-opacity:1;fill-rule:nonzero;stroke:none"
             d="m 0,0 v 12.508 c 0,0.652 0.168,1.133 0.511,1.459 0.34,0.324 0.784,0.488 1.324,0.488 0.559,0 1.016,-0.162 1.358,-0.48 0.347,-0.327 0.525,-0.813 0.525,-1.467 V 0 c 0,-0.656 -0.178,-1.145 -0.525,-1.471 -0.342,-0.322 -0.799,-0.484 -1.358,-0.484 -0.532,0 -0.973,0.162 -1.32,0.486 C 0.171,-1.137 0,-0.646 0,0" /></g><g
           transform="translate(44.7178,46.1162)"
           id="g28"><path
             id="path30"
             style="fill:#155196;fill-opacity:1;fill-rule:nonzero;stroke:none"
             d="m 0,0 7.118,-9.371 v 9.459 c 0,0.617 0.155,1.074 0.465,1.383 0.303,0.308 0.719,0.461 1.233,0.461 0.538,0 0.962,-0.153 1.271,-0.461 0.309,-0.309 0.466,-0.764 0.466,-1.375 v -12.485 c 0,-1.394 -0.666,-2.09 -2.011,-2.09 -0.331,0 -0.633,0.041 -0.898,0.122 -0.27,0.087 -0.524,0.212 -0.757,0.392 -0.231,0.184 -0.446,0.391 -0.648,0.635 -0.199,0.242 -0.399,0.486 -0.605,0.742 l -6.947,9.231 v -9.289 c 0,-0.604 -0.165,-1.061 -0.494,-1.368 -0.33,-0.312 -0.755,-0.465 -1.272,-0.465 -0.526,0 -0.955,0.157 -1.273,0.465 -0.326,0.319 -0.482,0.774 -0.482,1.369 v 12.249 c 0,0.517 0.065,0.923 0.196,1.218 0.161,0.328 0.424,0.594 0.797,0.803 0.375,0.205 0.77,0.307 1.207,0.307 0.329,0 0.616,-0.045 0.858,-0.141 0.242,-0.09 0.452,-0.223 0.631,-0.383 0.184,-0.16 0.367,-0.361 0.557,-0.621 C -0.4,0.543 -0.207,0.275 0,0" /></g><g
           transform="translate(71.4658,45.2451)"
           id="g32"><path
             id="path34"
             style="fill:#155196;fill-opacity:1;fill-rule:nonzero;stroke:none"
             d="m 0,0 h -4.059 v -11.518 c 0,-0.662 -0.171,-1.152 -0.513,-1.476 -0.344,-0.32 -0.787,-0.479 -1.334,-0.479 -0.551,0 -1.002,0.164 -1.35,0.487 -0.346,0.326 -0.523,0.814 -0.523,1.468 V 0 h -4.056 c -0.631,0 -1.107,0.121 -1.419,0.363 -0.308,0.244 -0.462,0.565 -0.462,0.969 0,0.412 0.158,0.736 0.481,0.975 0.324,0.242 0.792,0.361 1.4,0.361 L 0,2.668 C 0.646,2.668 1.127,2.543 1.438,2.299 1.75,2.053 1.912,1.729 1.912,1.332 1.912,0.928 1.75,0.607 1.43,0.363 1.115,0.121 0.641,0 0,0" /></g><g
           transform="translate(102.6963,48.0479)"
           id="g36"><path
             id="path38"
             style="fill:#155196;fill-opacity:1;fill-rule:nonzero;stroke:none"
             d="m 0,0 c 1.908,0 3.541,-0.336 4.914,-1.002 1.361,-0.668 2.397,-1.611 3.096,-2.846 0.707,-1.23 1.056,-2.675 1.056,-4.332 0,-1.23 -0.195,-2.349 -0.578,-3.347 -0.386,-1.004 -0.961,-1.879 -1.73,-2.614 -0.774,-0.73 -1.717,-1.295 -2.83,-1.687 -1.127,-0.387 -2.407,-0.582 -3.854,-0.582 -1.439,0 -2.726,0.199 -3.863,0.601 -1.139,0.397 -2.09,0.965 -2.846,1.688 -0.76,0.736 -1.342,1.607 -1.724,2.639 -0.389,1.021 -0.58,2.132 -0.58,3.32 0,1.221 0.199,2.336 0.603,3.355 0.402,1.02 0.994,1.885 1.764,2.6 0.769,0.713 1.705,1.26 2.81,1.639 C -2.664,-0.191 -1.41,0 0,0 m 5.301,-8.162 c 0,1.156 -0.221,2.158 -0.655,3.012 -0.435,0.843 -1.052,1.486 -1.867,1.923 -0.806,0.43 -1.736,0.651 -2.779,0.651 -0.75,0 -1.438,-0.123 -2.07,-0.362 -0.635,-0.24 -1.178,-0.593 -1.633,-1.054 -0.461,-0.457 -0.82,-1.049 -1.082,-1.762 -0.268,-0.715 -0.397,-1.516 -0.397,-2.408 0,-0.899 0.129,-1.711 0.397,-2.436 0.262,-0.726 0.639,-1.33 1.123,-1.808 0.474,-0.477 1.031,-0.836 1.658,-1.071 0.621,-0.234 1.305,-0.359 2.053,-0.359 0.957,0 1.83,0.209 2.631,0.615 0.799,0.412 1.439,1.041 1.914,1.899 0.476,0.855 0.707,1.904 0.707,3.16" /></g><g
           transform="translate(90.7139,34.1709)"
           id="g40"><path
             id="path42"
             style="fill:#155196;fill-opacity:1;fill-rule:nonzero;stroke:none"
             d="M 0,0 C -0.266,0.535 -0.629,1.133 -1.105,1.805 -1.576,2.471 -2.113,3.096 -2.707,3.691 -3.311,4.283 -3.943,4.73 -4.6,5.033 c 1.567,0.295 2.739,0.799 3.51,1.502 0.766,0.713 1.154,1.66 1.154,2.84 0,0.584 -0.113,1.129 -0.339,1.645 -0.235,0.515 -0.569,0.97 -1.012,1.363 -0.436,0.383 -0.943,0.685 -1.52,0.894 -0.48,0.188 -1.011,0.311 -1.605,0.373 -0.594,0.063 -1.313,0.092 -2.149,0.092 h -6.054 c -0.799,0 -1.381,-0.156 -1.735,-0.465 -0.359,-0.312 -0.541,-0.816 -0.541,-1.506 V -0.441 c 0,-0.645 0.164,-1.127 0.491,-1.463 0.32,-0.328 0.781,-0.494 1.373,-0.494 0.552,0 0.992,0.158 1.338,0.476 0.343,0.32 0.511,0.807 0.511,1.479 v 4.291 3.42 4.074 h 3.436 c 1.283,0 2.137,-0.078 2.578,-0.233 0.459,-0.168 0.816,-0.427 1.078,-0.761 0.26,-0.336 0.389,-0.725 0.389,-1.17 0,-0.565 -0.162,-1.01 -0.479,-1.332 C -4.504,7.527 -4.973,7.295 -5.578,7.158 -6.189,7.029 -6.947,6.961 -7.836,6.961 l -2.256,-0.025 c 0,-2.248 1.324,-2.323 1.865,-2.51 0.432,-0.153 0.862,-0.434 1.286,-0.842 0.42,-0.414 0.9,-1.01 1.439,-1.795 l 1.486,-2.144 c 0.35,-0.504 0.625,-0.889 0.834,-1.149 0.205,-0.258 0.446,-0.471 0.731,-0.641 0.287,-0.171 0.637,-0.253 1.055,-0.253 0.349,0 0.656,0.056 0.925,0.175 0.266,0.118 0.477,0.285 0.629,0.485 0.156,0.207 0.238,0.416 0.238,0.623 C 0.396,-0.912 0.258,-0.545 0,0" /></g><g
           transform="translate(16.8291,22.4482)"
           id="g44"><path
             id="path46"
             style="fill:#231f20;fill-opacity:1;fill-rule:nonzero;stroke:none"
             d="m 0,0 c 0.826,0 1.726,-0.297 1.726,-1.057 0,-0.412 -0.355,-0.783 -0.884,-0.964 0.703,-0.256 1.108,-0.661 1.108,-1.19 0,-0.924 -1.124,-1.238 -2.18,-1.238 h -2.418 c 0.058,0.578 0.075,1.412 0.075,2.336 0,0.609 -0.01,1.537 -0.067,2.113 z m -0.676,-0.563 c -0.214,0 -0.43,-0.013 -0.536,-0.031 -0.024,-0.578 -0.033,-0.859 -0.033,-1.519 0,-0.801 0,-1.098 0.033,-1.733 h 0.642 c 0.76,0 1.124,0.223 1.124,0.684 0,0.512 -0.471,0.752 -1.089,0.752 h -0.371 l 0.255,0.668 h 0.272 c 0.314,0 0.735,0.166 0.735,0.57 0,0.43 -0.388,0.609 -1.032,0.609" /></g><g
           transform="translate(23.6797,22.4482)"
           id="g48"><path
             id="path50"
             style="fill:#231f20;fill-opacity:1;fill-rule:nonzero;stroke:none"
             d="m 0,0 c -0.04,-0.504 -0.065,-1.676 -0.065,-2.113 0,-0.405 0.009,-1.725 0.065,-2.336 h -1.047 l -1.685,2.486 c -0.14,0.197 -0.238,0.387 -0.281,0.609 v -1.412 c 0,-0.535 0.018,-1.295 0.068,-1.683 h -1.197 c 0.074,0.678 0.081,1.947 0.081,2.336 0,0.422 -0.023,1.609 -0.056,2.113 h 1.361 l 1.421,-2.311 c 0.074,-0.115 0.1,-0.171 0.131,-0.273 l 0,2.584 z" /></g><g
           transform="translate(26.9258,22.4482)"
           id="g52"><path
             id="path54"
             style="fill:#231f20;fill-opacity:1;fill-rule:nonzero;stroke:none"
             d="m 0,0 c 0.966,0 2.129,-0.273 2.129,-1.303 0,-0.91 -0.825,-1.363 -2.502,-1.363 -0.099,0 -0.372,0 -0.444,0.01 0.033,-0.621 0.024,-1.371 0.065,-1.793 h -1.461 c 0.057,0.611 0.074,1.619 0.074,2.336 0,0.636 -0.017,1.693 -0.074,2.113 z m -0.801,-0.617 c 0,-0.293 -0.016,-0.59 -0.016,-0.877 0,-0.215 0.007,-0.379 0.016,-0.537 0.049,-0.008 0.281,-0.008 0.428,-0.008 0.472,0 1.125,0.131 1.125,0.736 0,0.586 -0.671,0.694 -1.174,0.694 -0.065,0 -0.312,0 -0.379,-0.008" /></g><g
           transform="translate(33.6592,22.4482)"
           id="g56"><path
             id="path58"
             style="fill:#231f20;fill-opacity:1;fill-rule:nonzero;stroke:none"
             d="m 0,0 c 0.968,0 2.13,-0.273 2.13,-1.303 0,-0.91 -0.825,-1.363 -2.5,-1.363 -0.099,0 -0.373,0 -0.446,0.01 0.033,-0.621 0.025,-1.371 0.066,-1.793 h -1.46 c 0.058,0.611 0.074,1.619 0.074,2.336 0,0.636 -0.016,1.693 -0.074,2.113 z m -0.799,-0.617 c 0,-0.293 -0.017,-0.59 -0.017,-0.877 0,-0.215 0.008,-0.379 0.017,-0.537 0.049,-0.008 0.28,-0.008 0.429,-0.008 0.471,0 1.122,0.131 1.122,0.736 0,0.586 -0.668,0.694 -1.173,0.694 -0.064,0 -0.311,0 -0.378,-0.008" /></g><g
           transform="translate(38.3857,22.4482)"
           id="g60"><path
             id="path62"
             style="fill:#231f20;fill-opacity:1;fill-rule:nonzero;stroke:none"
             d="M 0,0 C 0.166,-0.527 1.637,-3.73 1.973,-4.449 H 0.512 c -0.057,0.174 -0.172,0.414 -0.387,0.974 -0.225,0.01 -0.454,0.01 -0.759,0.01 -0.297,0 -0.512,-0.01 -0.754,-0.019 -0.13,-0.362 -0.246,-0.651 -0.352,-0.965 h -1.272 c 0.248,0.553 1.708,3.738 1.972,4.449 z m -0.122,-2.799 c -0.175,0.43 -0.413,0.967 -0.529,1.338 -0.124,-0.379 -0.389,-0.965 -0.52,-1.338 0.165,-0.006 0.387,-0.015 0.537,-0.015 0.206,0 0.314,0.009 0.512,0.015" /></g><g
           transform="translate(43.0918,22.4482)"
           id="g64"><path
             id="path66"
             style="fill:#231f20;fill-opacity:1;fill-rule:nonzero;stroke:none"
             d="m 0,0 c 0.975,0 2.139,-0.346 2.139,-1.379 0,-0.551 -0.413,-0.949 -1.059,-1.205 0.133,-0.23 1.215,-1.635 1.43,-1.865 H 0.916 c -0.281,0.537 -0.817,1.463 -1.345,2.246 0.635,-0.082 1.187,0.223 1.187,0.834 0,0.586 -0.676,0.76 -1.006,0.76 -0.149,0 -0.428,0 -0.527,-0.008 -0.025,-0.547 -0.035,-1.197 -0.035,-1.496 0,-0.389 0,-1.658 0.076,-2.336 h -1.487 c 0.075,0.66 0.091,1.445 0.091,2.336 0,0.75 -0.009,1.66 -0.075,2.113 z" /></g><g
           transform="translate(47.6494,22.4482)"
           id="g68"><path
             id="path70"
             style="fill:#231f20;fill-opacity:1;fill-rule:nonzero;stroke:none"
             d="m 0,0 c -0.034,-0.504 -0.059,-1.691 -0.059,-2.121 0,-0.397 0,-1.717 0.059,-2.328 h -1.471 c 0.075,0.678 0.081,1.947 0.081,2.328 0,0.42 -0.025,1.617 -0.056,2.121 z" /></g><g
           transform="translate(51.2549,22.4482)"
           id="g72"><path
             id="path74"
             style="fill:#231f20;fill-opacity:1;fill-rule:nonzero;stroke:none"
             d="m 0,0 c 0.826,0 1.726,-0.297 1.726,-1.057 0,-0.412 -0.355,-0.783 -0.883,-0.964 0.702,-0.256 1.104,-0.661 1.104,-1.19 0,-0.924 -1.121,-1.238 -2.177,-1.238 h -2.419 c 0.059,0.578 0.075,1.412 0.075,2.336 0,0.609 -0.01,1.537 -0.068,2.113 z m -0.677,-0.563 c -0.214,0 -0.43,-0.013 -0.537,-0.031 -0.023,-0.578 -0.032,-0.859 -0.032,-1.519 0,-0.801 0,-1.098 0.032,-1.733 h 0.644 c 0.761,0 1.125,0.223 1.125,0.684 0,0.512 -0.473,0.752 -1.092,0.752 h -0.37 l 0.256,0.668 h 0.271 c 0.314,0 0.734,0.166 0.734,0.57 0,0.43 -0.388,0.609 -1.031,0.609" /></g><g
           transform="translate(56.3799,22.4482)"
           id="g76"><path
             id="path78"
             style="fill:#231f20;fill-opacity:1;fill-rule:nonzero;stroke:none"
             d="M 0,0 C 0.167,-0.527 1.636,-3.73 1.974,-4.449 H 0.513 c -0.057,0.174 -0.173,0.414 -0.387,0.974 -0.224,0.01 -0.455,0.01 -0.762,0.01 -0.296,0 -0.511,-0.01 -0.749,-0.019 -0.133,-0.362 -0.249,-0.651 -0.356,-0.965 h -1.272 c 0.249,0.553 1.71,3.738 1.973,4.449 z m -0.122,-2.799 c -0.173,0.43 -0.415,0.967 -0.529,1.338 -0.122,-0.379 -0.389,-0.965 -0.521,-1.338 0.166,-0.006 0.389,-0.015 0.536,-0.015 0.209,0 0.315,0.009 0.514,0.015" /></g><g
           transform="translate(60.6494,22.5654)"
           id="g80"><path
             id="path82"
             style="fill:#231f20;fill-opacity:1;fill-rule:nonzero;stroke:none"
             d="m 0,0 c 0.568,0 1.122,-0.084 1.471,-0.191 v -1.133 c -0.491,0.283 -0.968,0.523 -1.604,0.523 -0.505,0 -0.537,-0.199 -0.537,-0.345 0,-0.752 2.538,-0.762 2.538,-2.106 0,-0.877 -0.819,-1.43 -2.183,-1.43 -0.61,0 -1.189,0.127 -1.583,0.264 v 1.082 c 0.932,-0.437 1.426,-0.58 1.856,-0.58 0.348,0 0.601,0.158 0.601,0.457 0,0.85 -2.524,0.766 -2.524,2.211 C -1.965,-0.455 -1.172,0 0,0" /></g><g
           transform="translate(69.7119,20.1631)"
           id="g84"><path
             id="path86"
             style="fill:#231f20;fill-opacity:1;fill-rule:nonzero;stroke:none"
             d="m 0,0 c -0.025,-0.438 -0.049,-1.361 -0.068,-1.891 -0.479,-0.248 -1.229,-0.388 -1.955,-0.388 -1.651,0 -2.707,1.041 -2.707,2.32 0,1.346 1.103,2.361 2.914,2.361 0.412,0 1.029,-0.068 1.468,-0.173 l -0.32,-0.875 c -0.307,0.189 -0.818,0.345 -1.164,0.345 -1.043,0 -1.412,-0.924 -1.412,-1.668 0,-1.246 0.666,-1.65 1.422,-1.65 0.086,0 0.375,0.008 0.468,0.033 0,0.537 -0.007,1.221 -0.05,1.586 z" /></g><g
           transform="translate(72.7881,22.4482)"
           id="g88"><path
             id="path90"
             style="fill:#231f20;fill-opacity:1;fill-rule:nonzero;stroke:none"
             d="m 0,0 c 0.977,0 2.141,-0.346 2.141,-1.379 0,-0.551 -0.414,-0.949 -1.057,-1.205 0.131,-0.23 1.213,-1.635 1.43,-1.865 H 0.92 c -0.283,0.537 -0.82,1.463 -1.346,2.246 0.637,-0.082 1.188,0.223 1.188,0.834 0,0.586 -0.678,0.76 -1.01,0.76 -0.147,0 -0.428,0 -0.529,-0.008 -0.022,-0.547 -0.03,-1.197 -0.03,-1.496 0,-0.389 0,-1.658 0.073,-2.336 h -1.485 c 0.074,0.66 0.092,1.445 0.092,2.336 0,0.75 -0.008,1.66 -0.076,2.113 z" /></g><g
           transform="translate(77.958,17.876)"
           id="g92"><path
             id="path94"
             style="fill:#231f20;fill-opacity:1;fill-rule:nonzero;stroke:none"
             d="m 0,0 c -1.387,0 -2.428,0.949 -2.428,2.344 0,1.402 1.041,2.345 2.428,2.345 1.379,0 2.418,-0.943 2.418,-2.345 C 2.418,0.949 1.379,0 0,0 m 0,4.119 c -0.645,0 -1.049,-0.627 -1.049,-1.775 0,-1.147 0.404,-1.758 1.049,-1.758 0.635,0 1.031,0.611 1.031,1.758 0,1.148 -0.396,1.775 -1.031,1.775" /></g><g
           transform="translate(82.4404,22.4482)"
           id="g96"><path
             id="path98"
             style="fill:#231f20;fill-opacity:1;fill-rule:nonzero;stroke:none"
             d="m 0,0 c -0.027,-0.297 -0.035,-0.602 -0.035,-0.916 v -2.121 c 0,-0.578 0.181,-0.916 0.752,-0.916 0.494,0 0.98,0.197 0.98,1.105 v 2.157 C 1.697,-0.238 1.691,-0.189 1.658,0 H 2.889 C 2.84,-0.387 2.84,-1.113 2.84,-1.832 v -1.264 c 0,-1.021 -0.719,-1.468 -2.139,-1.468 -1.287,0 -2.082,0.271 -2.082,1.535 v 1.625 c 0,0.416 -0.015,1.09 -0.064,1.404 z" /></g><g
           transform="translate(88.4072,22.4482)"
           id="g100"><path
             id="path102"
             style="fill:#231f20;fill-opacity:1;fill-rule:nonzero;stroke:none"
             d="m 0,0 c 0.965,0 2.129,-0.273 2.129,-1.303 0,-0.91 -0.826,-1.363 -2.502,-1.363 -0.1,0 -0.369,0 -0.447,0.01 0.037,-0.621 0.027,-1.371 0.068,-1.793 h -1.461 c 0.057,0.611 0.074,1.619 0.074,2.336 0,0.636 -0.017,1.693 -0.074,2.113 z m -0.799,-0.617 c 0,-0.293 -0.021,-0.59 -0.021,-0.877 0,-0.215 0.009,-0.379 0.021,-0.537 0.047,-0.008 0.279,-0.008 0.426,-0.008 0.473,0 1.125,0.131 1.125,0.736 0,0.586 -0.67,0.694 -1.174,0.694 -0.066,0 -0.312,0 -0.377,-0.008" /></g></g></g><path
       id="path104"
       style="fill:#009b7b;fill-opacity:1;fill-rule:nonzero;stroke:none"
       d="M 109.815,14.173 H 95.624 v 14.193 h 14.191 z" /><g
       id="g106"><g
         clip-path="url(#clipPath112)"
         id="g108"><g
           transform="translate(106.6982,24.6299)"
           id="g114"><path
             id="path116"
             style="fill:#ffffff;fill-opacity:1;fill-rule:nonzero;stroke:none"
             d="m 0,0 c -0.877,-0.518 -1.15,-0.559 -2.096,-1.123 0.549,0.598 0.744,0.855 1.086,1.353 -0.875,-0.042 -2.154,-0.146 -3.062,-0.349 0.793,0.42 2.363,0.89 3.195,1.004 C -1.074,1.156 -2.635,2 -3.014,2.156 -1.783,2.061 -0.273,1.602 0.457,1.158 0.744,1.25 1.045,1.25 1.568,1.295 1.438,1.061 1.438,0.926 0.908,0.582 1.059,0.193 0.711,-1.945 0.42,-2.518 0.408,-1.617 0.326,-0.49 0,0" /></g><g
           transform="translate(100.2861,16.9561)"
           id="g118"><path
             id="path120"
             style="fill:#ffffff;fill-opacity:1;fill-rule:nonzero;stroke:none"
             d="m 0,0 c -0.508,0.188 -0.867,0.404 -1.268,0.779 0.12,0.328 0.256,0.588 0.479,0.914 C -1.199,1.637 -1.498,1.588 -1.852,1.52 -2.143,2.029 -2.273,2.506 -2.42,3.182 -2.494,2.469 -2.527,1.959 -2.426,1.391 -2.746,1.307 -2.975,1.221 -3.24,1.1 -2.871,0.871 -2.566,0.695 -2.15,0.508 -1.924,0.023 -1.693,-0.305 -1.32,-0.674 -1.41,-0.359 -1.43,-0.105 -1.396,0.223 -0.93,0.084 -0.531,0.018 0,0" /></g><g
           transform="translate(101.5947,24.0713)"
           id="g122"><path
             id="path124"
             style="fill:#ffffff;fill-opacity:1;fill-rule:nonzero;stroke:none"
             d="m 0,0 v 0 c -0.156,-0.199 -0.342,-0.582 -0.391,-0.756 1.299,-0.18 2.344,-0.848 2.344,-0.848 -1.14,0.208 -1.74,0.18 -2.158,0.143 -0.428,-0.039 -0.506,-0.098 -0.506,-0.098 -0.305,-0.664 -0.49,-1.812 -0.49,-1.812 -0.209,0.49 -0.506,1.488 -0.506,1.488 -0.574,-0.306 -1.891,-1.541 -1.891,-1.541 0.727,1.449 1.457,2.111 1.457,2.111 -0.248,0.254 -0.912,0.377 -1.394,0.405 0.248,0.105 0.898,0.222 1.39,0.24 0.495,0.022 0.799,-0.01 0.799,-0.01 C -0.906,-0.33 -0.234,-0.033 0,0" /></g><g
           transform="translate(102.9658,17.8584)"
           id="g126"><path
             id="path128"
             style="fill:#ffffff;fill-opacity:1;fill-rule:nonzero;stroke:none"
             d="m 0,0 c -0.227,-0.314 -0.424,-0.561 -0.678,-0.842 -0.437,-0.121 -0.789,-0.166 -1.207,-0.168 0.258,-0.129 0.514,-0.213 0.781,-0.267 -0.267,-0.254 -0.501,-0.432 -0.767,-0.598 0.447,0.111 1.037,0.299 1.465,0.553 0.224,-0.008 0.433,0.008 0.597,0.037 -0.041,0.133 -0.066,0.226 -0.103,0.4 0.408,0.321 0.707,0.608 1.047,0.949 C 0.771,-0.189 0.463,-0.375 0.045,-0.57 0.023,-0.381 0.014,-0.219 0,0" /></g></g></g></g></svg>