<?xml version="1.0" encoding="UTF-8"?>
<svg width="71px" height="78px" viewBox="0 0 71 78" version="1.1" xmlns="http://www.w3.org/2000/svg" xmlns:xlink="http://www.w3.org/1999/xlink">
    <!-- Generator: Sketch 52.5 (67469) - http://www.bohemiancoding.com/sketch -->
    <title>HelloB_BNPPF_BL_Square_Q</title>
    <desc>Created with Sketch.</desc>
    <defs>
        <path d="M15.5929601,77.9925 L15.4399117,77.9925 C15.2931702,77.9652531 15.1233351,77.863876 14.94275,77.68325 L7.086625,67.370125 L3.011875,67.370125 C1.42691964,67.370125 0.117639669,66.1292996 0.0075,64.5711138 L0.0075,2.84626118 C0.117639669,1.28807536 1.42691964,0.04725 3.011875,0.04725 L67.854375,0.04725 C69.510875,0.04725 70.866125,1.402625 70.866125,3.059125 L70.866125,64.35825 C70.866125,66.01475 69.510875,67.370125 67.854375,67.370125 L15.944875,67.370125 L15.944875,77.268125 C15.944875,77.6975221 15.8080194,77.9470877 15.59296,77.9925 Z" id="path-1"></path>
        <linearGradient x1="49.917305%" y1="0.413912329%" x2="49.917305%" y2="84.3179989%" id="linearGradient-3">
            <stop stop-color="#58BEC7" offset="0%"></stop>
            <stop stop-color="#297B99" offset="100%"></stop>
        </linearGradient>
    </defs>
    <g id="API-Products" stroke="none" stroke-width="1" fill="none" fill-rule="evenodd">
        <g id="API-Products-page-scroll-2" transform="translate(-477.000000, -345.000000)">
            <g id="API's" transform="translate(0.000000, 290.000000)">
                <g id="Card" transform="translate(362.000000, 1.000000)">
                    <g id="HelloB_BNPPF_BL_Square_Q" transform="translate(115.000000, 54.000000)">
                        <g id="Group-3">
                            <mask id="mask-2" fill="white">
                                <use xlink:href="#path-1"></use>
                            </mask>
                            <g id="Clip-2"></g>
                            <polygon id="Fill-1" fill="url(#linearGradient-3)" mask="url(#mask-2)" points="0.0075 77.9925 70.976125 77.9925 70.976125 0.04725 0.0075 0.04725"></polygon>
                        </g>
                        <polygon id="Fill-4" fill="#275E75" points="7.086625 16.02125 9.936125 16.02125 9.936125 15.666875 7.086625 15.666875"></polygon>
                        <polygon id="Fill-5" fill="#275E75" points="9.936125 22.762625 17.6745 22.762625 17.6745 22.408375 9.936125 22.408375"></polygon>
                        <polygon id="Fill-6" fill="#275E75" points="17.6745 16.02125 20.52375 16.02125 20.52375 15.666875 17.6745 15.666875"></polygon>
                        <polygon id="Fill-7" fill="#58BEC7" points="9.936125 25.75875 17.6745 25.75875 17.6745 25.4045 9.936125 25.4045"></polygon>
                        <polygon id="Fill-8" fill="#58BEC7" points="7.086625 32.592 9.936125 32.592 9.936125 32.23775 7.086625 32.23775"></polygon>
                        <polygon id="Fill-9" fill="#58BEC7" points="17.6745 32.592 20.52375 32.592 20.52375 32.23775 17.6745 32.23775"></polygon>
                        <polyline id="Fill-10" fill="#FFFFFE" points="7.086625 16.02125 9.936125 16.02125 9.936125 22.762625 17.6745 22.762625 17.6745 16.02125 20.52375 16.02125 20.52375 32.23775 17.6745 32.23775 17.6745 25.4045 9.936125 25.4045 9.936125 32.23775 7.086625 32.23775 7.086625 16.02125"></polyline>
                        <path d="M28.105,19.749375 C31.926625,19.749375 33.8925,22.69925 33.9625,26.139125 C33.964375,26.084375 33.965875,26.02975 33.965875,25.975375 C33.965875,22.454375 31.99725,19.395 28.105,19.395 C24.606,19.395 22.127125,22.2685 22.127125,25.7675 L22.127125,25.8135 C22.127125,25.86475 22.1295,25.914875 22.1305,25.965875 C22.20325,22.538 24.658375,19.749375 28.105,19.749375" id="Fill-11" fill="#275E75"></path>
                        <path d="M31.186375,25.264875 C31.174125,25.144875 31.157625,25.02675 31.1375,24.9105 L24.967125,24.9105 C24.9435,25.02625 24.923375,25.144375 24.90725,25.264875 L31.186375,25.264875" id="Fill-12" fill="#275E75"></path>
                        <path d="M28.45225,29.867875 C26.755625,29.867875 25.4065,28.887 24.99825,27.1175 L24.9305,27.1175 C25.232375,29.11 26.6455,30.222125 28.45225,30.222125 C29.819375,30.222125 30.792125,29.7125 31.765,28.762625 L33.410125,30.222125 L33.410125,29.867875 L31.765,28.40825 C30.792125,29.35825 29.819375,29.867875 28.45225,29.867875" id="Fill-13" fill="#275E75"></path>
                        <path d="M28.08275,22.044125 C26.36675,22.044125 25.162375,23.364625 24.90725,25.264875 L24.967125,25.264875 C25.317375,23.55675 26.475625,22.3985 28.08275,22.3985 C29.813125,22.3985 30.8555,23.6305 31.1375,25.264875 L31.186375,25.264875 C31.0005,23.457375 29.93625,22.044125 28.08275,22.044125" id="Fill-14" fill="#58BEC7"></path>
                        <path d="M28.406875,32.516 C24.909375,32.516 22.203375,30.012375 22.1305,26.320125 C22.129375,26.372125 22.127125,26.42375 22.127125,26.476125 L22.127125,26.522125 C22.127125,30.29825 24.86125,32.87025 28.406875,32.87025 C30.65225,32.87025 32.251375,31.966625 33.410125,30.576375 L33.410125,30.222125 C32.251375,31.612375 30.65225,32.516 28.406875,32.516" id="Fill-15" fill="#58BEC7"></path>
                        <path d="M33.91975,27.1175 L24.9305,27.1175 C24.948875,27.238875 24.97175,27.356875 24.99825,27.47175 L33.91975,27.47175 C33.943,27.195375 33.965875,26.939375 33.965875,26.684 C33.965875,26.620125 33.96375,26.556875 33.9625,26.493375 C33.955625,26.69525 33.938125,26.9 33.91975,27.1175" id="Fill-16" fill="#58BEC7"></path>
                        <path d="M31.186375,25.264875 C31.0005,23.457375 29.93625,22.044125 28.08275,22.044125 C26.36675,22.044125 25.162375,23.364625 24.90725,25.264875 L31.186375,25.264875 Z M22.127125,26.16775 L22.127125,26.12175 C22.127125,22.622875 24.606,19.749375 28.105,19.749375 C31.99725,19.749375 33.965875,22.80875 33.965875,26.32975 C33.965875,26.585 33.943,26.841125 33.91975,27.1175 L24.9305,27.1175 C25.232375,29.11 26.6455,30.222125 28.45225,30.222125 C29.819375,30.222125 30.792125,29.7125 31.765,28.762625 L33.410125,30.222125 C32.251375,31.612375 30.65225,32.516 28.406875,32.516 C24.86125,32.516 22.127125,29.944 22.127125,26.16775 Z" id="Fill-17" fill="#FFFFFE"></path>
                        <polygon id="Fill-18" fill="#275E75" points="35.63675 15.323875 38.439875 15.323875 38.439875 14.969625 35.63675 14.969625"></polygon>
                        <polygon id="Fill-19" fill="#58BEC7" points="35.63675 32.592 38.439875 32.592 38.439875 32.23775 35.63675 32.23775"></polygon>
                        <polygon id="Fill-20" fill="#FFFFFE" points="35.63675 32.23775 38.439875 32.23775 38.439875 15.323875 35.63675 15.323875"></polygon>
                        <polygon id="Fill-21" fill="#275E75" points="40.896375 15.323875 43.698875 15.323875 43.698875 14.969625 40.896375 14.969625"></polygon>
                        <polygon id="Fill-22" fill="#58BEC7" points="40.896375 32.592 43.698875 32.592 43.698875 32.23775 40.896375 32.23775"></polygon>
                        <polygon id="Fill-23" fill="#FFFFFE" points="40.896375 32.23775 43.698875 32.23775 43.698875 15.323875 40.896375 15.323875"></polygon>
                        <path d="M51.802875,19.395 C48.05,19.395 45.2695,22.291875 45.2695,25.790125 L45.2695,25.83675 C45.2695,25.888375 45.272125,25.939375 45.273375,25.990625 C45.35375,22.56175 48.10525,19.749375 51.802875,19.749375 C55.501625,19.749375 58.229125,22.516125 58.309625,25.94325 C58.31075,25.89225 58.313375,25.8415 58.313375,25.790125 L58.313375,25.744375 C58.313375,22.2455 55.5575,19.395 51.802875,19.395" id="Fill-24" fill="#275E75"></path>
                        <path d="M48.07325,26.1445 C48.07325,28.27625 49.626625,30.083 51.802875,30.083 C54.0745,30.083 55.510875,28.30025 55.510875,26.191 L55.510875,26.1445 C55.510875,26.09425 55.50925,26.044625 55.507625,25.994875 C55.437625,28.03425 54.0175,29.72875 51.802875,29.72875 C49.677375,29.72875 48.146875,28.005125 48.076625,25.9385 C48.074875,25.99175 48.07325,26.045 48.07325,26.09875 L48.07325,26.1445" id="Fill-25" fill="#275E75"></path>
                        <path d="M55.510875,26.1445 C55.510875,23.98975 53.958625,22.205625 51.757375,22.205625 C49.50975,22.205625 48.07325,23.9675 48.07325,26.09875 L48.07325,26.1445 C48.07325,26.19425 48.075,26.2435 48.076625,26.292875 C48.14675,24.234375 49.566375,22.559875 51.757375,22.559875 C53.907375,22.559875 55.4375,24.262125 55.507625,26.349125 C55.509375,26.296625 55.510875,26.244 55.510875,26.191 L55.510875,26.1445" id="Fill-26" fill="#58BEC7"></path>
                        <path d="M51.757375,32.516 C48.082125,32.516 45.353625,29.75 45.273375,26.345 C45.272125,26.396375 45.2695,26.44725 45.2695,26.49875 L45.2695,26.545375 C45.2695,30.020875 48.02675,32.87025 51.757375,32.87025 C55.5335,32.87025 58.313375,29.97475 58.313375,26.49875 L58.313375,26.453125 C58.313375,26.400875 58.31075,26.349375 58.309625,26.297625 C58.229125,29.704875 55.477625,32.516 51.757375,32.516" id="Fill-27" fill="#58BEC7"></path>
                        <path d="M55.510875,26.191 L55.510875,26.1445 C55.510875,23.98975 53.958625,22.205625 51.757375,22.205625 C49.50975,22.205625 48.07325,23.9675 48.07325,26.09875 L48.07325,26.1445 C48.07325,28.27625 49.626625,30.083 51.802875,30.083 C54.0745,30.083 55.510875,28.30025 55.510875,26.191 Z M45.2695,26.191 L45.2695,26.1445 C45.2695,22.646125 48.05,19.749375 51.802875,19.749375 C55.5575,19.749375 58.313375,22.59975 58.313375,26.09875 L58.313375,26.1445 C58.313375,29.620375 55.5335,32.516 51.757375,32.516 C48.02675,32.516 45.2695,29.6665 45.2695,26.191 Z" id="Fill-28" fill="#FFFFFE"></path>
                        <polygon id="Fill-29" fill="#275E75" points="60.976375 35.144 63.7795 35.144 63.7795 34.789625 60.976375 34.789625"></polygon>
                        <polygon id="Fill-30" fill="#58BEC7" points="60.976375 48.097 63.7795 48.097 63.7795 47.742625 60.976375 47.742625"></polygon>
                        <polygon id="Fill-31" fill="#FFFFFE" points="60.976375 47.742625 63.7795 47.742625 63.7795 35.144 60.976375 35.144"></polygon>
                        <polygon id="Fill-32" fill="#275E75" points="60.976375 49.305125 63.7795 49.305125 63.7795 48.95075 60.976375 48.95075"></polygon>
                        <polygon id="Fill-33" fill="#58BEC7" points="60.976375 52.137625 63.7795 52.137625 63.7795 51.783375 60.976375 51.783375"></polygon>
                        <polygon id="Fill-34" fill="#FFFFFE" points="60.976375 51.783375 63.7795 51.783375 63.7795 49.305125 60.976375 49.305125"></polygon>
                        <polygon id="Fill-35" fill="#275E75" points="33.68275 39.570125 36.487 39.570125 36.487 39.215875 33.68275 39.215875"></polygon>
                        <path d="M40.309875,38.960875 C38.4105,38.960875 37.27525,39.95725 36.487,41.115875 L36.487,41.47025 C37.27525,40.311625 38.4105,39.31525 40.309875,39.31525 C43.067,39.31525 44.665875,41.1695 44.665875,44.0195 L44.665875,43.665125 C44.665875,40.81525 43.067,38.960875 40.309875,38.960875" id="Fill-36" fill="#275E75"></path>
                        <path d="M41.862125,44.8525 C41.862125,42.953625 40.91175,41.865 39.243375,41.865 C37.622,41.865 36.487,42.9995 36.487,44.899625 L36.487,45.254 C36.487,43.35375 37.622,42.21925 39.243375,42.21925 C40.91175,42.21925 41.862125,43.308 41.862125,45.206875 L41.862125,44.8525" id="Fill-37" fill="#58BEC7"></path>
                        <polygon id="Fill-38" fill="#58BEC7" points="33.68275 52.15775 36.487 52.15775 36.487 51.803375 33.68275 51.803375"></polygon>
                        <polygon id="Fill-39" fill="#58BEC7" points="41.862125 52.15775 44.665875 52.15775 44.665875 51.803375 41.862125 51.803375"></polygon>
                        <path d="M33.68275,39.570125 L36.487,39.570125 L36.487,41.47025 C37.27525,40.311625 38.4105,39.31525 40.309875,39.31525 C43.067,39.31525 44.665875,41.1695 44.665875,44.0195 L44.665875,51.803375 L41.862125,51.803375 L41.862125,44.8525 C41.862125,42.953625 40.91175,41.865 39.243375,41.865 C37.622,41.865 36.487,42.9995 36.487,44.899625 L36.487,51.803375 L33.68275,51.803375 L33.68275,39.570125" id="Fill-40" fill="#FFFFFE"></path>
                        <polyline id="Fill-41" fill="#275E75" points="49.4835 44.992625 54.557125 39.570125 57.96275 39.570125 57.96275 39.215875 54.557125 39.215875 49.4835 44.638375 49.4835 44.992625"></polyline>
                        <polyline id="Fill-42" fill="#275E75" points="53.2405 44.40475 53.096875 44.551875 58.123875 51.803375 58.123875 51.449125 53.2405 44.40475"></polyline>
                        <polygon id="Fill-43" fill="#275E75" points="46.67975 35.144 49.4835 35.144 49.4835 34.789625 46.67975 34.789625"></polygon>
                        <polyline id="Fill-44" fill="#58BEC7" points="53.2405 44.759 57.96275 39.9245 57.96275 39.570125 53.096875 44.551875 53.2405 44.759"></polyline>
                        <polyline id="Fill-45" fill="#58BEC7" points="54.881125 51.803375 51.1975 46.521375 49.4835 48.305125 49.4835 48.6595 51.1975 46.87575 54.881125 52.15775 58.123875 52.15775 58.123875 51.803375 54.881125 51.803375"></polyline>
                        <polygon id="Fill-46" fill="#58BEC7" points="46.67975 52.15775 49.4835 52.15775 49.4835 51.803375 46.67975 51.803375"></polygon>
                        <polyline id="Fill-47" fill="#FFFFFE" points="46.67975 35.144 49.4835 35.144 49.4835 44.992625 54.557125 39.570125 57.96275 39.570125 53.096875 44.551875 58.123875 51.803375 54.881125 51.803375 51.1975 46.521375 49.4835 48.305125 49.4835 51.803375 46.67975 51.803375 46.67975 35.144"></polyline>
                        <path d="M13.779875,49.659875 C15.951,49.659875 17.658875,48.154875 17.658875,45.745875 L17.658875,45.698375 C17.658875,45.64725 17.657,45.596875 17.655375,45.5465 C17.5835,47.864625 15.903875,49.305625 13.779875,49.305625 C12.91425,49.305625 11.352875,49.18925 9.88575,47.930375 L9.88425,48.283375 C11.35175,49.543625 12.914,49.659875 13.779875,49.659875" id="Fill-48" fill="#275E75"></path>
                        <polygon id="Fill-49" fill="#275E75" points="7.086625 35.093125 9.888375 35.093125 9.888375 34.73875 7.086625 34.73875"></polygon>
                        <path d="M14.03675,38.995875 C12.26375,38.995875 10.5535,39.767 9.888375,40.119625 L9.888375,40.474 C10.5535,40.121375 12.26375,39.35025 14.03675,39.35025 C17.34175,39.35025 20.045875,41.585875 20.115,45.544125 C20.115875,45.493125 20.11825,45.443125 20.11825,45.391625 L20.11825,45.344125 C20.11825,41.288875 17.384875,38.995875 14.03675,38.995875" id="Fill-50" fill="#275E75"></path>
                        <path d="M9.88575,48.284625 L9.888375,47.712 L9.888375,47.35775 L9.88425,48.283375 C9.88475,48.283875 9.88525,48.28425 9.88575,48.284625" id="Fill-51" fill="#58BEC7"></path>
                        <path d="M14.03675,52.093375 C12.039875,52.093375 9.03875,51.593625 7.086625,48.831 L7.086625,49.18525 C9.03875,51.947875 12.039875,52.447625 14.03675,52.447625 C17.3535,52.447625 20.11825,50.152875 20.11825,46.10025 L20.11825,46.05275 C20.11825,46.0005 20.115875,45.95 20.115,45.898375 C20.045875,49.85525 17.31125,52.093375 14.03675,52.093375" id="Fill-52" fill="#58BEC7"></path>
                        <path d="M17.658875,45.698375 C17.658875,43.3365 15.951,41.784375 13.779875,41.784375 C11.92775,41.784375 10.49425,42.568 9.888375,42.991 L9.888375,43.34525 C10.49425,42.922375 11.92775,42.138625 13.779875,42.138625 C15.903875,42.138625 17.5835,43.62475 17.655375,45.900875 C17.657,45.849375 17.658875,45.79825 17.658875,45.745875 L17.658875,45.698375" id="Fill-53" fill="#58BEC7"></path>
                        <path d="M17.658875,45.745875 C17.658875,48.154875 15.951,49.659875 13.779875,49.659875 C12.914,49.659875 11.35175,49.543625 9.88425,48.283375 L9.888375,47.35775 L9.888375,42.991 C10.49425,42.568 11.92775,41.784375 13.779875,41.784375 C15.951,41.784375 17.658875,43.3365 17.658875,45.698375 L17.658875,45.745875 Z M14.03675,39.35025 C12.26375,39.35025 10.5535,40.121375 9.888375,40.474 L9.888375,35.093125 L7.086625,35.093125 L7.086625,48.831 C9.03875,51.593625 12.039875,52.093375 14.03675,52.093375 C17.3535,52.093375 20.11825,49.7985 20.11825,45.745875 L20.11825,45.698375 C20.11825,41.643125 17.384875,39.35025 14.03675,39.35025 Z" id="Fill-54" fill="#FFFFFE"></path>
                        <path d="M25.91,43.997875 C27.391625,43.997875 28.343,44.2045 29.291875,44.50625 L29.291875,44.274875 C29.291875,44.232 29.28825,44.192125 29.286875,44.150375 C28.339625,43.8495 27.389,43.643625 25.91,43.643625 C23.059125,43.643625 21.01425,45.171375 21.01425,47.881625 L21.01425,47.928125 C21.01425,47.97575 21.016625,48.02225 21.01825,48.069 C21.101,45.463625 23.118375,43.997875 25.91,43.997875" id="Fill-55" fill="#275E75"></path>
                        <path d="M23.445,48.142875 C23.445,49.301875 24.635875,49.950375 25.95675,49.950375 C27.40975,49.950375 29.338625,49.421375 29.338625,47.2895 L29.338625,46.935125 C29.338625,49.067125 27.40975,49.596125 25.95675,49.596125 C24.692875,49.596125 23.55075,49.001 23.4545,47.93425 C23.44875,47.988 23.445,48.042125 23.445,48.097 L23.445,48.142875" id="Fill-56" fill="#275E75"></path>
                        <path d="M26.673625,39.030625 C24.68175,39.030625 23.3615,39.448 22.016875,40.050375 L22.016875,40.404625 C23.3615,39.80225 24.68175,39.385 26.673625,39.385 C30.288375,39.385 31.985875,41.607375 31.985875,44.551875 C31.985875,44.3245 31.985875,44.1975 31.985875,44.1975 C31.985875,41.253 30.288375,39.030625 26.673625,39.030625" id="Fill-57" fill="#275E75"></path>
                        <path d="M22.780875,42.879 C23.89325,42.416125 24.913375,42.115 26.280375,42.115 C28.176875,42.115 29.234375,42.898875 29.286875,44.50475 C29.288625,44.505375 29.29025,44.50575 29.291875,44.50625 L29.291875,44.274875 C29.291875,42.58325 28.22625,41.760625 26.280375,41.760625 C24.913375,41.760625 23.89325,42.061875 22.780875,42.524625 L22.016875,40.404625 C22.016875,40.404625 22.03875,40.74925 22.016875,40.759 L22.780875,42.879" id="Fill-58" fill="#58BEC7"></path>
                        <path d="M26.534,45.9665 C24.774,45.9665 23.445,46.91525 23.445,48.097 L23.445,48.142875 C23.445,48.192875 23.450125,48.2405 23.4545,48.2885 C23.57025,47.18375 24.85575,46.32075 26.534,46.32075 C27.62375,46.32075 28.61975,46.52975 29.338625,46.8065 L29.338625,46.45225 C28.61975,46.175375 27.62375,45.9665 26.534,45.9665" id="Fill-59" fill="#58BEC7"></path>
                        <path d="M29.88625,51.184625 C28.656375,51.986625 26.639125,52.0585 25.306375,52.0585 C23.255875,52.0585 21.10125,50.788 21.01825,48.423375 C21.0165,48.47875 21.01425,48.533875 21.01425,48.59025 L21.01425,48.63675 C21.01425,51.09225 23.215375,52.412875 25.306375,52.412875 C26.639125,52.412875 28.656375,52.340875 29.88625,51.538875 C31.6805,50.367625 31.985875,48.844375 31.985875,47.883 C31.985875,47.762375 31.985875,47.644375 31.985875,47.528625 C31.985875,48.490125 31.6805,50.01325 29.88625,51.184625" id="Fill-60" fill="#58BEC7"></path>
                        <path d="M29.338625,46.45225 C28.61975,46.175375 27.62375,45.9665 26.534,45.9665 C24.774,45.9665 23.445,46.91525 23.445,48.097 L23.445,48.142875 C23.445,49.301875 24.635875,49.950375 25.95675,49.950375 C27.40975,49.950375 29.338625,49.421375 29.338625,47.2895 L29.338625,46.45225 Z M29.88625,51.184625 C28.656375,51.986625 26.639125,52.0585 25.306375,52.0585 C23.215375,52.0585 21.01425,50.737875 21.01425,48.282375 L21.01425,48.236 C21.01425,45.52575 23.059125,43.997875 25.91,43.997875 C27.391625,43.997875 28.343,44.2045 29.291875,44.50625 L29.291875,44.274875 C29.291875,42.58325 28.22625,41.760625 26.280375,41.760625 C24.913375,41.760625 23.89325,42.061875 22.780875,42.524625 L22.016875,40.404625 C23.3615,39.80225 24.68175,39.385 26.673625,39.385 C30.288375,39.385 31.985875,41.607375 31.985875,44.551875 C31.985875,44.551875 31.985875,45.812 31.985875,47.528625 C31.985875,48.490125 31.6805,50.01325 29.88625,51.184625 Z" id="Fill-61" fill="#FFFFFE"></path>
                        <path d="M21.977875,75.182625 L21.977875,75.174625 C21.977875,74.678125 21.636125,74.360875 21.237375,74.360875 C20.84675,74.360875 20.4765,74.690375 20.4765,75.1705 L20.4765,75.178625 C20.4765,75.666875 20.84675,75.9925 21.237375,75.9925 C21.64425,75.9925 21.977875,75.69125 21.977875,75.182625 Z M20.175375,73.3965 C20.175375,73.307 20.244625,73.237625 20.33,73.237625 C20.419625,73.237625 20.48875,73.307 20.48875,73.3965 L20.48875,74.547875 C20.659625,74.29575 20.907875,74.080125 21.29425,74.080125 C21.798875,74.080125 22.299375,74.478875 22.299375,75.1705 L22.299375,75.178625 C22.299375,75.866375 21.802875,76.27325 21.29425,76.27325 C20.903625,76.27325 20.651375,76.061625 20.48875,75.825625 L20.48875,76.090125 C20.48875,76.1755 20.423625,76.24875 20.334125,76.24875 C20.244625,76.24875 20.175375,76.1755 20.175375,76.090125 L20.175375,73.3965 Z" id="Fill-62" fill="#6D6E6D"></path>
                        <path d="M22.751375,76.830625 C22.70275,76.81025 22.65375,76.769625 22.65375,76.69625 C22.65375,76.619 22.719,76.562125 22.788125,76.562125 C22.816625,76.562125 22.841,76.57025 22.865375,76.578375 C22.9265,76.598625 22.9875,76.615 23.09325,76.615 C23.288625,76.615 23.4025,76.497 23.516375,76.240625 L23.53275,76.208125 L22.65375,74.344375 C22.641625,74.315875 22.6335,74.2875 22.6335,74.259 C22.6335,74.173625 22.70275,74.1045 22.792125,74.1045 C22.877625,74.1045 22.922375,74.157375 22.950875,74.226625 L23.68325,75.8785 L24.33425,74.222375 C24.35875,74.157375 24.4035,74.1045 24.484875,74.1045 C24.570375,74.1045 24.6395,74.173625 24.6395,74.259 C24.6395,74.2835 24.631375,74.311875 24.623125,74.336375 L23.80125,76.2975 C23.618125,76.732875 23.41475,76.891625 23.097375,76.891625 C22.959,76.891625 22.85725,76.86725 22.751375,76.830625" id="Fill-63" fill="#6D6E6D"></path>
                        <path d="M27.728375,75.9395 C28.1595,75.9395 28.428125,75.74825 28.428125,75.430875 L28.428125,75.422875 C28.428125,75.1135 28.16775,74.9345 27.671375,74.9345 L26.772125,74.9345 L26.772125,75.9395 L27.728375,75.9395 Z M27.614375,74.649625 C28.000875,74.649625 28.2695,74.47475 28.2695,74.141 L28.2695,74.133 C28.2695,73.852125 28.04575,73.669 27.63875,73.669 L26.772125,73.669 L26.772125,74.649625 L27.614375,74.649625 Z M26.45475,73.543 C26.45475,73.453375 26.528,73.38025 26.6135,73.38025 L27.66725,73.38025 C27.99275,73.38025 28.24925,73.47375 28.411875,73.6325 C28.529875,73.7545 28.595,73.905 28.595,74.088125 L28.595,74.096375 C28.595,74.4665 28.367125,74.657875 28.143375,74.7555 C28.481125,74.85725 28.75375,75.0525 28.75375,75.443125 L28.75375,75.451125 C28.75375,75.9395 28.34275,76.2285 27.720125,76.2285 L26.6135,76.2285 C26.528,76.2285 26.45475,76.155125 26.45475,76.065625 L26.45475,73.543 Z" id="Fill-64" fill="#6D6E6D"></path>
                        <path d="M29.393,73.526625 C29.393,73.441125 29.466125,73.368 29.55175,73.368 L29.596375,73.368 C29.669625,73.368 29.714375,73.404625 29.75925,73.4615 L31.488375,75.666875 L31.488375,73.5185 C31.488375,73.433125 31.557625,73.35975 31.647125,73.35975 C31.732625,73.35975 31.80175,73.433125 31.80175,73.5185 L31.80175,76.090125 C31.80175,76.1755 31.74075,76.240625 31.65525,76.240625 L31.639,76.240625 C31.569875,76.240625 31.521,76.199875 31.47225,76.143 L29.70625,73.884625 L29.70625,76.090125 C29.70625,76.1755 29.63725,76.24875 29.547625,76.24875 C29.462125,76.24875 29.393,76.1755 29.393,76.090125 L29.393,73.526625" id="Fill-65" fill="#6D6E6D"></path>
                        <path d="M33.633375,74.930375 C34.105375,74.930375 34.414625,74.678125 34.414625,74.303875 L34.414625,74.29575 C34.414625,73.88875 34.109375,73.67725 33.649625,73.67725 L32.9295,73.67725 L32.9295,74.930375 L33.633375,74.930375 Z M32.608,73.543 C32.608,73.453375 32.68125,73.38025 32.76675,73.38025 L33.674,73.38025 C34.317,73.38025 34.740125,73.721875 34.740125,74.2835 L34.740125,74.291625 C34.740125,74.906125 34.227375,75.223375 33.621125,75.223375 L32.9295,75.223375 L32.9295,76.086 C32.9295,76.1755 32.85625,76.24875 32.76675,76.24875 C32.68125,76.24875 32.608,76.1755 32.608,76.086 L32.608,73.543 Z" id="Fill-66" fill="#6D6E6D"></path>
                        <path d="M37.57275,74.930375 C38.04475,74.930375 38.354,74.678125 38.354,74.303875 L38.354,74.29575 C38.354,73.88875 38.048875,73.67725 37.589,73.67725 L36.868875,73.67725 L36.868875,74.930375 L37.57275,74.930375 Z M36.547375,73.543 C36.547375,73.453375 36.620625,73.38025 36.706,73.38025 L37.613375,73.38025 C38.256375,73.38025 38.679625,73.721875 38.679625,74.2835 L38.679625,74.291625 C38.679625,74.906125 38.16675,75.223375 37.560625,75.223375 L36.868875,75.223375 L36.868875,76.086 C36.868875,76.1755 36.795625,76.24875 36.706,76.24875 C36.620625,76.24875 36.547375,76.1755 36.547375,76.086 L36.547375,73.543 Z" id="Fill-67" fill="#6D6E6D"></path>
                        <path d="M40.840625,75.182625 L40.185375,73.726 L39.530375,75.182625 L40.840625,75.182625 Z M38.8265,76.016875 L39.982125,73.490125 C40.02275,73.4005 40.08375,73.347625 40.185375,73.347625 L40.20175,73.347625 C40.2995,73.347625 40.3645,73.4005 40.401125,73.490125 L41.55675,76.01275 C41.568875,76.04125 41.577,76.06975 41.577,76.094125 C41.577,76.179625 41.507875,76.24875 41.422375,76.24875 C41.345125,76.24875 41.29225,76.195875 41.26375,76.130875 L40.966625,75.475625 L39.40425,75.475625 L39.107125,76.138875 C39.07875,76.208125 39.025875,76.24875 38.952625,76.24875 C38.87125,76.24875 38.806125,76.183625 38.806125,76.10225 C38.806125,76.078 38.81025,76.0495 38.8265,76.016875 Z" id="Fill-68" fill="#6D6E6D"></path>
                        <path d="M43.38825,74.83275 C43.815625,74.83275 44.12075,74.613 44.12075,74.246875 L44.12075,74.23875 C44.12075,73.88875 43.852125,73.67725 43.392375,73.67725 L42.5135,73.67725 L42.5135,74.83275 L43.38825,74.83275 Z M42.192125,73.543 C42.192125,73.453375 42.26525,73.38025 42.35075,73.38025 L43.41675,73.38025 C43.76675,73.38025 44.0475,73.485875 44.2265,73.665 C44.36475,73.80325 44.44625,74.00275 44.44625,74.226625 L44.44625,74.234625 C44.44625,74.702625 44.128875,74.975125 43.685375,75.060625 L44.39325,75.972 C44.425875,76.008625 44.44625,76.045375 44.44625,76.090125 C44.44625,76.1755 44.36475,76.24875 44.2835,76.24875 C44.218375,76.24875 44.1695,76.212125 44.132875,76.163375 L43.331375,75.12175 L42.5135,75.12175 L42.5135,76.086 C42.5135,76.1755 42.44025,76.24875 42.35075,76.24875 C42.26525,76.24875 42.192125,76.1755 42.192125,76.086 L42.192125,73.543 Z" id="Fill-69" fill="#6D6E6D"></path>
                        <path d="M45.162875,73.52275 C45.162875,73.433125 45.236125,73.35975 45.3215,73.35975 C45.411125,73.35975 45.484375,73.433125 45.484375,73.52275 L45.484375,76.086 C45.484375,76.1755 45.411125,76.24875 45.3215,76.24875 C45.236125,76.24875 45.162875,76.1755 45.162875,76.086 L45.162875,73.52275" id="Fill-70" fill="#6D6E6D"></path>
                        <path d="M47.592125,75.9395 C48.0235,75.9395 48.292,75.74825 48.292,75.430875 L48.292,75.422875 C48.292,75.1135 48.031625,74.9345 47.535125,74.9345 L46.636,74.9345 L46.636,75.9395 L47.592125,75.9395 Z M47.47825,74.649625 C47.86475,74.649625 48.133375,74.47475 48.133375,74.141 L48.133375,74.133 C48.133375,73.852125 47.9095,73.669 47.502625,73.669 L46.636,73.669 L46.636,74.649625 L47.47825,74.649625 Z M46.318625,73.543 C46.318625,73.453375 46.391875,73.38025 46.47725,73.38025 L47.531125,73.38025 C47.85675,73.38025 48.113,73.47375 48.27575,73.6325 C48.39375,73.7545 48.45875,73.905 48.45875,74.088125 L48.45875,74.096375 C48.45875,74.4665 48.231,74.657875 48.00725,74.7555 C48.345,74.85725 48.6175,75.0525 48.6175,75.443125 L48.6175,75.451125 C48.6175,75.9395 48.206625,76.2285 47.584,76.2285 L46.47725,76.2285 C46.391875,76.2285 46.318625,76.155125 46.318625,76.065625 L46.318625,73.543 Z" id="Fill-71" fill="#6D6E6D"></path>
                        <path d="M51.096,75.182625 L50.440875,73.726 L49.785875,75.182625 L51.096,75.182625 Z M49.081875,76.016875 L50.237375,73.490125 C50.278125,73.4005 50.33925,73.347625 50.440875,73.347625 L50.457125,73.347625 C50.554875,73.347625 50.62,73.4005 50.6565,73.490125 L51.812125,76.01275 C51.824375,76.04125 51.8325,76.06975 51.8325,76.094125 C51.8325,76.179625 51.76325,76.24875 51.677875,76.24875 C51.6005,76.24875 51.547625,76.195875 51.519125,76.130875 L51.222125,75.475625 L49.65975,75.475625 L49.362625,76.138875 C49.334125,76.208125 49.28125,76.24875 49.208125,76.24875 C49.126625,76.24875 49.0615,76.183625 49.0615,76.10225 C49.0615,76.078 49.0655,76.0495 49.081875,76.016875 Z" id="Fill-72" fill="#6D6E6D"></path>
                        <path d="M52.296875,75.886625 C52.26025,75.86225 52.235875,75.8175 52.235875,75.764625 C52.235875,75.675 52.305,75.605875 52.3905,75.605875 C52.431125,75.605875 52.46775,75.622125 52.488125,75.6425 C52.75675,75.870375 53.02525,75.98025 53.387375,75.98025 C53.769875,75.98025 54.022125,75.77675 54.022125,75.496 L54.022125,75.487875 C54.022125,75.223375 53.87975,75.072875 53.2815,74.94675 C52.6265,74.804375 52.325375,74.592625 52.325375,74.12475 L52.325375,74.116625 C52.325375,73.669 52.72,73.3395 53.26125,73.3395 C53.6355,73.3395 53.90825,73.433125 54.1685,73.62025 C54.201125,73.644625 54.23775,73.689375 54.23775,73.7505 C54.23775,73.836 54.1685,73.905 54.083125,73.905 C54.0465,73.905 54.018,73.896875 53.989625,73.876625 C53.7495,73.7015 53.5175,73.628375 53.253125,73.628375 C52.882875,73.628375 52.64675,73.831875 52.64675,74.088125 L52.64675,74.096375 C52.64675,74.364875 52.79325,74.515375 53.419875,74.649625 C54.054625,74.788125 54.347625,75.02 54.347625,75.455375 L54.347625,75.4635 C54.347625,75.95175 53.940625,76.269125 53.375125,76.269125 C52.960125,76.269125 52.61425,76.138875 52.296875,75.886625" id="Fill-73" fill="#6D6E6D"></path>
                        <path d="M56.224,73.543 C56.224,73.453375 56.297375,73.38025 56.38275,73.38025 L58.144625,73.38025 C58.226,73.38025 58.291125,73.44525 58.291125,73.526625 C58.291125,73.608 58.226,73.67725 58.144625,73.67725 L56.5455,73.67725 L56.5455,74.6945 L57.9615,74.6945 C58.042875,74.6945 58.108,74.759625 58.108,74.841 C58.108,74.922375 58.042875,74.987375 57.9615,74.987375 L56.5455,74.987375 L56.5455,76.086 C56.5455,76.1755 56.47225,76.24875 56.38275,76.24875 C56.297375,76.24875 56.224,76.1755 56.224,76.086 L56.224,73.543" id="Fill-74" fill="#6D6E6D"></path>
                        <path d="M61.278125,74.8125 L61.278125,74.804375 C61.278125,74.157375 60.806125,73.628375 60.155,73.628375 C59.504,73.628375 59.040125,74.149125 59.040125,74.796125 L59.040125,74.804375 C59.040125,75.451125 59.51225,75.98025 60.16325,75.98025 C60.81425,75.98025 61.278125,75.459375 61.278125,74.8125 Z M58.7065,74.8125 L58.7065,74.804375 C58.7065,74.019 59.296625,73.33125 60.16325,73.33125 C61.029875,73.33125 61.61175,74.010875 61.61175,74.796125 L61.61175,74.804375 C61.61175,75.5895 61.02175,76.277125 60.155,76.277125 C59.288375,76.277125 58.7065,75.59775 58.7065,74.8125 Z" id="Fill-75" fill="#6D6E6D"></path>
                        <path d="M63.488,74.83275 C63.915375,74.83275 64.2205,74.613 64.2205,74.246875 L64.2205,74.23875 C64.2205,73.88875 63.952,73.67725 63.492125,73.67725 L62.613375,73.67725 L62.613375,74.83275 L63.488,74.83275 Z M62.291875,73.543 C62.291875,73.453375 62.365125,73.38025 62.4505,73.38025 L63.516625,73.38025 C63.8665,73.38025 64.14725,73.485875 64.326375,73.665 C64.464625,73.80325 64.546125,74.00275 64.546125,74.226625 L64.546125,74.234625 C64.546125,74.702625 64.228625,74.975125 63.78525,75.060625 L64.493125,75.972 C64.52575,76.008625 64.546125,76.045375 64.546125,76.090125 C64.546125,76.1755 64.464625,76.24875 64.38325,76.24875 C64.318125,76.24875 64.269375,76.212125 64.23275,76.163375 L63.431125,75.12175 L62.613375,75.12175 L62.613375,76.086 C62.613375,76.1755 62.54,76.24875 62.4505,76.24875 C62.365125,76.24875 62.291875,76.1755 62.291875,76.086 L62.291875,73.543 Z" id="Fill-76" fill="#6D6E6D"></path>
                        <path d="M65.958375,73.67725 L65.1325,73.67725 C65.05125,73.67725 64.981875,73.612125 64.981875,73.53075 C64.981875,73.449375 65.05125,73.38025 65.1325,73.38025 L67.11,73.38025 C67.191375,73.38025 67.2605,73.449375 67.2605,73.53075 C67.2605,73.612125 67.191375,73.67725 67.11,73.67725 L66.283875,73.67725 L66.283875,76.086 C66.283875,76.1755 66.21075,76.24875 66.121375,76.24875 C66.03175,76.24875 65.958375,76.1755 65.958375,76.086 L65.958375,73.67725" id="Fill-77" fill="#6D6E6D"></path>
                        <path d="M67.871375,73.52275 C67.871375,73.433125 67.944625,73.35975 68.03,73.35975 C68.119625,73.35975 68.19275,73.433125 68.19275,73.52275 L68.19275,76.086 C68.19275,76.1755 68.119625,76.24875 68.03,76.24875 C67.944625,76.24875 67.871375,76.1755 67.871375,76.086 L67.871375,73.52275" id="Fill-78" fill="#6D6E6D"></path>
                        <path d="M68.925375,75.886625 C68.88875,75.86225 68.864375,75.8175 68.864375,75.764625 C68.864375,75.675 68.933375,75.605875 69.018875,75.605875 C69.059625,75.605875 69.096375,75.622125 69.116625,75.6425 C69.385125,75.870375 69.653625,75.98025 70.015875,75.98025 C70.398375,75.98025 70.650625,75.77675 70.650625,75.496 L70.650625,75.487875 C70.650625,75.223375 70.50825,75.072875 69.91,74.94675 C69.254875,74.804375 68.95375,74.592625 68.95375,74.12475 L68.95375,74.116625 C68.95375,73.669 69.348625,73.3395 69.88975,73.3395 C70.264,73.3395 70.536625,73.433125 70.797125,73.62025 C70.829625,73.644625 70.866375,73.689375 70.866375,73.7505 C70.866375,73.836 70.797125,73.905 70.711625,73.905 C70.674875,73.905 70.6465,73.896875 70.618,73.876625 C70.378,73.7015 70.146,73.628375 69.8815,73.628375 C69.511375,73.628375 69.27525,73.831875 69.27525,74.088125 L69.27525,74.096375 C69.27525,74.364875 69.42175,74.515375 70.048375,74.649625 C70.683125,74.788125 70.976125,75.02 70.976125,75.455375 L70.976125,75.4635 C70.976125,75.95175 70.569125,76.269125 70.003625,76.269125 C69.588625,76.269125 69.24275,76.138875 68.925375,75.886625" id="Fill-79" fill="#6D6E6D"></path>
                    </g>
                </g>
            </g>
        </g>
    </g>
</svg>