<?xml version="1.0" encoding="UTF-8"?>
<svg width="676px" height="227px" viewBox="0 0 676 227" version="1.1" xmlns="http://www.w3.org/2000/svg" xmlns:xlink="http://www.w3.org/1999/xlink">
    <title>Group 16</title>
    <defs>
        <rect id="path-1" x="0" y="0" width="676" height="227" rx="4"></rect>
        <radialGradient cx="50%" cy="50%" fx="50%" fy="50%" r="59.9356551%" gradientTransform="translate(0.500000,0.500000),scale(0.666992,1.000000),rotate(180.000000),translate(-0.500000,-0.500000)" id="radialGradient-3">
            <stop stop-color="#14283B" stop-opacity="0.8" offset="0%"></stop>
            <stop stop-color="#081624" offset="100%"></stop>
        </radialGradient>
        <linearGradient x1="100%" y1="50%" x2="-23.2075738%" y2="50%" id="linearGradient-4">
            <stop stop-color="#117D7D" offset="0%"></stop>
            <stop stop-color="#2FC0A7" offset="52.8678989%"></stop>
            <stop stop-color="#C8DC8C" offset="100%"></stop>
        </linearGradient>
    </defs>
    <g id="10.-Marketplace" stroke="none" stroke-width="1" fill="none" fill-rule="evenodd">
        <g id="Group-16">
            <g id="background">
                <mask id="mask-2" fill="white">
                    <use xlink:href="#path-1"></use>
                </mask>
                <use id="Clip-mask" fill="#D8D8D8" xlink:href="#path-1"></use>
                <g id="Group" mask="url(#mask-2)">
                    <g transform="translate(-174.000000, -41.000000)" id="Backgrounds-/-Secondary-Space">
                        <rect id="Rectangle" fill="#F5F5F5" x="0" y="0" width="1024" height="683"></rect>
                        <rect id="Rectangle" fill="#32C896" x="0" y="0" width="1024" height="683"></rect>
                        <rect id="Rectangle" fill="url(#radialGradient-3)" x="0" y="0" width="1024" height="683"></rect>
                        <g id="stars" transform="translate(104.666667, 24.678711)">
                            <ellipse id="Oval" fill="#2B464A" cx="856" cy="305.482422" rx="18.6666667" ry="18.6757812"></ellipse>
                            <ellipse id="Oval" fill="#5E99AC" cx="72" cy="508.248047" rx="14.6666667" ry="14.6738281"></ellipse>
                            <ellipse id="Oval" fill="#2B464A" cx="284" cy="293.476562" rx="6.66666667" ry="6.66992188"></ellipse>
                            <ellipse id="Oval" fill="#32C896" cx="562.666667" cy="465.560547" rx="5.33333333" ry="5.3359375"></ellipse>
                            <ellipse id="Oval" fill="#344E7B" cx="592" cy="48.0234375" rx="16" ry="16.0078125"></ellipse>
                            <ellipse id="Oval" fill="#32C896" cx="696" cy="552.269531" rx="5.33333333" ry="5.3359375"></ellipse>
                            <ellipse id="Oval" fill="#DDDDDD" cx="560" cy="342.833984" rx="2.66666667" ry="2.66796875"></ellipse>
                            <ellipse id="Oval" fill="#DDDDDD" cx="66.6666667" cy="90.7109375" rx="2.66666667" ry="2.66796875"></ellipse>
                            <ellipse id="Oval" fill="#DDDDDD" cx="760" cy="356.173828" rx="2.66666667" ry="2.66796875"></ellipse>
                            <ellipse id="Oval" fill-opacity="0.2" fill="#2DB7BA" cx="756" cy="478.900391" rx="5.33333333" ry="5.3359375"></ellipse>
                            <ellipse id="Oval" fill-opacity="0.2" fill="#DDDDDD" cx="620" cy="269.464844" rx="2.66666667" ry="2.66796875"></ellipse>
                            <ellipse id="Oval" fill-opacity="0.2" fill="#DDDDDD" cx="126.666667" cy="2.66796875" rx="2.66666667" ry="2.66796875"></ellipse>
                            <ellipse id="Oval" fill-opacity="0.2" fill="#DDDDDD" cx="820" cy="282.804688" rx="2.66666667" ry="2.66796875"></ellipse>
                            <ellipse id="Oval" fill="#DDDDDD" cx="400" cy="516.251953" rx="2.66666667" ry="2.66796875"></ellipse>
                            <ellipse id="Oval" fill="#32C896" cx="5.33333333" cy="345.501953" rx="5.33333333" ry="5.3359375"></ellipse>
                            <ellipse id="Oval" fill="#32C896" cx="738.666667" cy="176.085938" rx="5.33333333" ry="5.3359375"></ellipse>
                        </g>
                        <g id="milky-cloud-1" fill="#19B3EE">
                            <path d="M138.719369,107.718409 C138.719369,107.718409 183.28753,119.369941 198.14423,146.557819 C213.000929,173.744725 245.942613,220.997512 322.159981,198.98971 C398.37735,176.981909 504.953386,252.716864 504.953386,252.716864 C504.953386,252.716864 677.412791,385.253036 826.619242,311.945483 C915.658677,268.197866 983.642562,210.280045 1024,170.678431 L1024,0 L820.662611,0 C771.982553,17.0015264 718.6209,42.7824819 665.786314,81.8267641 C492.358036,209.994582 392.564111,126.490968 392.564111,126.490968 C392.564111,126.490968 366.404539,93.4782956 285.019201,113.868476 C227.857629,128.19015 181.690827,48.6296088 159.269167,0 L0,0 C4.39093271,6.30542049 8.28192692,13.0769022 11.4753325,20.3319225 C40.5415243,86.3572679 138.719369,107.718409 138.719369,107.718409" id="Fill-1" opacity="0.1"></path>
                            <path d="M728.600565,146.988539 C728.600565,146.988539 652.507058,223.36383 771.161701,231.130875 C859.545704,236.917323 972.239855,166.336247 1024,129.938905 L1024,30.2683055 C830.530617,28.4857688 728.600565,146.988539 728.600565,146.988539" id="Fill-2" opacity="0.12"></path>
                        </g>
                        <g id="milky-cloud-2" transform="translate(0.000000, 288.140625)" fill="#19B3EE">
                            <path d="M757.306674,100.671604 C757.306674,100.671604 676.410663,138.844625 613.946655,77.9741322 C551.482646,17.1036398 464.442635,1.28418978 464.442635,1.28418978 C464.442635,1.28418978 400.954626,-6.62553522 352.143953,23.6377604 C303.33328,53.9010561 146.319926,5.41100282 146.319926,5.41100282 C146.319926,5.41100282 80.19696,-13.9341211 0,23.0957723 L0,369.464418 C46.8432276,367.42027 142.501088,353.091976 217.317268,275.716982 C320.399949,169.10792 372.965289,148.473855 460.346634,187.678579 C547.727979,226.883303 592.783985,181.488359 592.783985,181.488359 C592.783985,181.488359 679.482663,129.714739 704.741333,203.060587 C730,276.404784 794.853345,344.4972 794.853345,344.4972 C794.853345,344.4972 853.562687,418.779834 962.789368,394.706758 C990.517926,388.594948 1010.13913,388.651348 1024,392.1275 L1024,105.993817 C987.964753,124.02799 927.748083,145.607096 878.821357,120.961768 C803.728013,83.1326485 757.306674,100.671604 757.306674,100.671604 Z" id="Fill-1" opacity="0.1"></path>
                            <path d="M216.121773,209.74624 C216.121773,209.74624 233.392208,184.961973 233.392208,146.408669 C233.392208,107.855365 186.124177,78.480501 186.124177,78.480501 C186.124177,78.480501 105.7388,23.8435846 0,76.4123916 L0,306.37156 C40.0617899,303.462162 162.541976,288.234984 216.121773,209.74624" id="Fill-2" opacity="0.12"></path>
                        </g>
                        <path d="M0.0643102598,0 L0.0643102598,230.07636 C0.0423093814,230.083126 0.0220008783,230.0882 0,230.094965 L0,282.38414 C2.42348137,283.089434 4.98404513,283.47168 7.63599716,283.47168 C22.6896751,283.47168 34.8950854,271.275337 34.8950854,256.230758 C34.8950854,252.665387 34.1893649,249.269151 32.9437768,246.146915 C35.3537191,246.671234 37.851665,246.963838 40.4173059,246.963838 C54.6183651,246.963838 66.8203908,238.523989 72.3561502,226.406126 C81.1937338,234.321655 92.8677383,239.141333 105.668865,239.141333 C115.645417,239.141333 124.929788,236.205145 132.728253,231.170665 C133.55244,245.475448 145.38722,256.831188 159.906107,256.831188 C167.499795,256.831188 174.360684,253.724173 179.30242,248.719462 C185.393278,259.136501 196.672959,266.155614 209.616245,266.155614 C229.010866,266.155614 244.736417,250.439567 244.736417,231.057345 C244.736417,224.009479 242.639564,217.463945 239.063575,211.965359 C249.893084,207.222807 257.835401,197.177865 259.666551,185.115139 C264.12596,187.163367 269.071081,188.337166 274.30052,188.337166 C293.696833,188.337166 309.420691,172.62281 309.420691,153.23822 C309.420691,151.927422 309.336073,150.63692 309.195606,149.36164 C315.14092,151.856385 321.668411,153.23822 328.519146,153.23822 C356.101478,153.23822 378.459448,130.892072 378.459448,103.329793 C378.459448,99.2993003 377.970351,95.3888935 377.068315,91.6374739 C390.446542,86.68012 400,73.8478292 400,58.7542002 C400,44.7616417 391.785211,32.7158298 379.931814,27.0785522 C381.98805,22.6167645 383.167636,17.666176 383.167636,12.4314403 C383.167636,8.04745479 382.326525,3.86812297 380.855851,0 L0.0643102598,0 Z" id="space-cloud" fill="url(#linearGradient-4)" opacity="0.2"></path>
                    </g>
                </g>
            </g>
            <rect id="Rectangle" fill="#1CBA91" opacity="0.752243769" x="0" y="0" width="676" height="227" rx="4"></rect>
        </g>
    </g>
</svg>