<?xml version="1.0" encoding="UTF-8"?>
<svg width="20px" height="14px" viewBox="0 0 20 14" version="1.1" xmlns="http://www.w3.org/2000/svg" xmlns:xlink="http://www.w3.org/1999/xlink">
    <!-- Generator: Sketch 61.2 (89653) - https://sketch.com -->
    <title>Icon</title>
    <desc>Created with Sketch.</desc>
    <defs>
        <rect id="path-1" x="0" y="0" width="3.33333333" height="5.83333333"></rect>
        <path d="M3.33333333,1.66666667 L18.3333333,1.66666667 L18.3333333,0 L3.33333333,0 C2.41666667,0 1.66666667,0.75 1.66666667,1.66666667 L1.66666667,10.8333333 L0,10.8333333 L0,13.3333333 L11.6666667,13.3333333 L11.6666667,10.8333333 L3.33333333,10.8333333 L3.33333333,1.66666667 Z" id="path-3"></path>
        <path d="M5.83333333,0 L0.833333333,0 C0.375,0 0,0.375 0,0.833333333 L0,9.16666667 C0,9.625 0.375,10 0.833333333,10 L5.83333333,10 C6.29166667,10 6.66666667,9.625 6.66666667,9.16666667 L6.66666667,0.833333333 C6.66666667,0.375 6.29166667,0 5.83333333,0 Z M5,7.5 L1.66666667,7.5 L1.66666667,1.66666667 L5,1.66666667 L5,7.5 Z" id="path-5"></path>
    </defs>
    <g id="Dashboard---Landing-Page" stroke="none" stroke-width="1" fill="none" fill-rule="evenodd">
        <g id="Dashboard---landing" transform="translate(-469.000000, -741.000000)">
            <g id="Threesome" transform="translate(440.000000, 572.000000)">
                <g id="icon/hardware/phonelink_24px" transform="translate(29.000000, 166.000000)">
                    <g id="↳-Light-Color" transform="translate(15.000000, 8.333333)">
                        <mask id="mask-2" fill="white">
                            <use xlink:href="#path-1"></use>
                        </mask>
                        <g id="Mask" opacity="0.3" fill-rule="nonzero"></g>
                    </g>
                    <g id="↳-Dark-Color" transform="translate(0.000000, 3.333333)">
                        <mask id="mask-4" fill="white">
                            <use xlink:href="#path-3"></use>
                        </mask>
                        <g id="Mask" fill-rule="nonzero"></g>
                        <g id="colours-/-highlight" mask="url(#mask-4)" fill="#FFFFFF" fill-rule="nonzero">
                            <rect id="Rectangle" x="0" y="0" width="84.1666667" height="84.1666667"></rect>
                        </g>
                    </g>
                    <g id="↳-Dark-Color" transform="translate(13.333333, 6.666667)">
                        <mask id="mask-6" fill="white">
                            <use xlink:href="#path-5"></use>
                        </mask>
                        <g id="Mask" fill-rule="nonzero"></g>
                        <g id="colours-/-highlight" mask="url(#mask-6)" fill="#FFFFFF" fill-rule="nonzero">
                            <rect id="Rectangle" x="0" y="0" width="84.1666667" height="84.1666667"></rect>
                        </g>
                    </g>
                </g>
            </g>
        </g>
    </g>
</svg>