<?xml version="1.0" encoding="UTF-8"?>
<svg width="104px" height="117px" viewBox="0 0 104 117" version="1.1" xmlns="http://www.w3.org/2000/svg" xmlns:xlink="http://www.w3.org/1999/xlink">
    <title>Group 73</title>
    <g id="6.-Dashboard---Client-Applications" stroke="none" stroke-width="1" fill="none" fill-rule="evenodd">
        <g id="6.2-Dashboard---Apps-overview" transform="translate(-564.000000, -741.000000)">
            <g id="Group" transform="translate(524.000000, 717.000000)">
                <g id="Group-73" transform="translate(40.000000, 24.000000)">
                    <path d="M42.795,52.6211 C42.795,70.2841 38.46,79.4891 33.113,79.4891 C27.764,79.4891 23.429,70.2841 23.429,52.6211 C23.429,34.9571 27.764,15.523 33.113,15.523 C38.46,15.523 42.795,34.9571 42.795,52.6211 Z" id="Fill-1" fill="#E0F4F5"></path>
                    <path d="M42.795,52.6211 C42.795,70.2841 38.46,79.4891 33.113,79.4891 C27.764,79.4891 23.429,70.2841 23.429,52.6211 C23.429,34.9571 27.764,15.523 33.113,15.523 C38.46,15.523 42.795,34.9571 42.795,52.6211 Z" id="Stroke-2" stroke="#2DB7BA" stroke-width="0.75" stroke-linecap="round" stroke-linejoin="round"></path>
                    <line x1="33.113" y1="15.523" x2="33.113" y2="79.4891" id="Stroke-3" stroke="#2DB7BA" stroke-width="0.5" stroke-linecap="round" stroke-linejoin="round"></line>
                    <polyline id="Stroke-4" stroke="#2DB7BA" stroke-width="0.5" stroke-linecap="round" stroke-linejoin="round" points="24.578 66.5731 33.113 75.1071 41.646 66.5761"></polyline>
                    <polyline id="Stroke-5" stroke="#2DB7BA" stroke-width="0.5" stroke-linecap="round" stroke-linejoin="round" points="23.451 50.5201 33.113 60.1821 42.775 50.5211"></polyline>
                    <polyline id="Stroke-6" stroke="#2DB7BA" stroke-width="0.5" stroke-linecap="round" stroke-linejoin="round" points="24.527 36.6731 33.113 45.2581 41.695 36.6761"></polyline>
                    <polyline id="Stroke-7" stroke="#2DB7BA" stroke-width="0.5" stroke-linecap="round" stroke-linejoin="round" points="27.121 24.3411 33.113 30.3341 39.101 24.3441"></polyline>
                    <path d="M23.393,56.2591 C28.845,69.9511 28.328,78.4231 24.182,80.0741 C20.037,81.7241 13.836,75.9281 8.384,62.2361 C2.93,48.5441 0.292,32.1421 4.437,30.4911 C8.583,28.8401 17.941,42.5671 23.393,56.2591 Z" id="Fill-8" fill="#FFFFFF"></path>
                    <path d="M23.393,56.2591 C28.845,69.9511 28.328,78.4231 24.182,80.0741 C20.037,81.7241 13.836,75.9281 8.384,62.2361 C2.93,48.5441 0.292,32.1421 4.437,30.4911 C8.583,28.8401 17.941,42.5671 23.393,56.2591 Z" id="Stroke-9" stroke="#2DB7BA" stroke-width="0.75" stroke-linecap="round" stroke-linejoin="round"></path>
                    <line x1="4.437" y1="30.4911" x2="24.182" y2="80.0741" id="Stroke-10" stroke="#2DB7BA" stroke-width="0.5" stroke-linecap="round" stroke-linejoin="round"></line>
                    <polyline id="Stroke-11" stroke="#2DB7BA" stroke-width="0.5" stroke-linecap="round" stroke-linejoin="round" points="13.579 72.6971 22.83 76.6781 26.811 67.4301"></polyline>
                    <polyline id="Stroke-12" stroke="#2DB7BA" stroke-width="0.5" stroke-linecap="round" stroke-linejoin="round" points="7.75 60.6011 18.222 65.1081 22.73 54.6371"></polyline>
                    <polyline id="Stroke-13" stroke="#2DB7BA" stroke-width="0.5" stroke-linecap="round" stroke-linejoin="round" points="4.31 49.5361 13.616 53.5411 17.62 44.2391"></polyline>
                    <polyline id="Stroke-14" stroke="#2DB7BA" stroke-width="0.5" stroke-linecap="round" stroke-linejoin="round" points="2.515 39.1761 9.01 41.9711 11.802 35.4801"></polyline>
                    <path d="M40.635,59.9261 C35.988,71.5981 36.429,78.8231 39.964,80.2291 C43.498,81.6371 48.785,76.6951 53.433,65.0221 C58.082,53.3491 60.331,39.3661 56.796,37.9591 C53.263,36.5521 45.285,48.2531 40.635,59.9261 Z" id="Fill-15" fill="#FFFFFF"></path>
                    <path d="M40.635,59.9261 C35.988,71.5981 36.429,78.8231 39.964,80.2291 C43.498,81.6371 48.785,76.6951 53.433,65.0221 C58.082,53.3491 60.331,39.3661 56.796,37.9591 C53.263,36.5521 45.285,48.2531 40.635,59.9261 Z" id="Stroke-16" stroke="#2DB7BA" stroke-width="0.75" stroke-linecap="round" stroke-linejoin="round"></path>
                    <line x1="56.796" y1="37.9591" x2="39.964" y2="80.2291" id="Stroke-17" stroke="#2DB7BA" stroke-width="0.5" stroke-linecap="round" stroke-linejoin="round"></line>
                    <polyline id="Stroke-18" stroke="#2DB7BA" stroke-width="0.5" stroke-linecap="round" stroke-linejoin="round" points="49.004 73.9411 41.116 77.3351 37.722 69.4511"></polyline>
                    <polyline id="Stroke-19" stroke="#2DB7BA" stroke-width="0.5" stroke-linecap="round" stroke-linejoin="round" points="53.972 63.6281 45.045 67.4711 41.202 58.5441"></polyline>
                    <polyline id="Stroke-20" stroke="#2DB7BA" stroke-width="0.5" stroke-linecap="round" stroke-linejoin="round" points="56.905 54.1951 48.971 57.6091 45.558 49.6791"></polyline>
                    <polyline id="Stroke-21" stroke="#2DB7BA" stroke-width="0.5" stroke-linecap="round" stroke-linejoin="round" points="58.435 45.3631 52.899 47.7461 50.517 42.2121"></polyline>
                    <polygon id="Fill-22" fill="#FFFFFF" points="15.208 75.7071 51.017 75.7071 59.742 111.0241 6.483 111.0241"></polygon>
                    <polygon id="Fill-23" fill="#E0F4F5" points="15.208 75.7071 22.73 75.7071 41.202 111.0241 6.483 111.0241"></polygon>
                    <polygon id="Stroke-24" stroke="#2DB7BA" stroke-width="0.75" stroke-linecap="round" stroke-linejoin="round" points="15.208 75.7071 51.017 75.7071 59.742 111.0241 6.483 111.0241"></polygon>
                    <path d="M26.3923,53.7541 C26.4453,53.6731 26.4973,53.6071 26.5593,53.5371 C26.5773,53.5141 26.6023,53.4881 26.6213,53.4651 C26.6483,53.4381 26.6733,53.4081 26.7023,53.3761 C26.9153,53.1721 27.0533,53.0461 27.4223,52.8351 C27.4853,52.7991 27.6533,52.7171 27.7173,52.6901 C27.9133,52.6091 27.9133,52.6091 28.1703,52.5291 C28.2473,52.5071 28.5323,52.4261 28.9663,52.4031 C29.2633,52.3871 29.5263,52.4281 29.6653,52.4501 C30.0793,52.5181 30.5793,52.7441 30.8773,53.0041 C30.9603,53.0721 31.1703,53.2561 31.3233,53.4911 C31.4583,53.6921 31.5483,53.8591 31.6403,54.1631 L32.7593,58.0531 C32.8793,58.4751 32.7193,58.9781 32.2493,59.4561 C31.3213,60.3991 29.5463,60.8951 28.2843,60.5661 C27.6623,60.4021 27.2823,60.0691 27.1643,59.6611 C26.8293,58.4941 26.3823,56.9381 26.0453,55.7731 C26.0153,55.6481 25.9943,55.5501 25.9793,55.4501 C25.9653,55.3541 25.9583,55.2551 25.9553,55.1271 C25.9513,54.9471 25.9893,54.6971 26.0243,54.5701 C26.0313,54.5421 26.0413,54.5071 26.0533,54.4651 C26.0643,54.4281 26.0763,54.3921 26.0893,54.3531 C26.0933,54.3401 26.0953,54.3321 26.1003,54.3171 C26.1103,54.2921 26.1203,54.2681 26.1293,54.2421 C26.1463,54.2061 26.1583,54.1711 26.1783,54.1331 C26.1823,54.1211 26.1893,54.1081 26.1943,54.0961 C26.2093,54.0641 26.2223,54.0321 26.2413,54.0021 C26.2473,53.9891 26.2533,53.9771 26.2623,53.9641 C26.2683,53.9531 26.2723,53.9431 26.2783,53.9351 C26.3143,53.8701 26.3513,53.8121 26.3923,53.7541 Z" id="Fill-25" fill="#F5A623"></path>
                    <path d="M26.3923,53.7541 C26.4453,53.6731 26.4973,53.6071 26.5593,53.5371 C26.5773,53.5141 26.6023,53.4881 26.6213,53.4651 C26.6483,53.4381 26.6733,53.4081 26.7023,53.3761 C26.9153,53.1721 27.0533,53.0461 27.4223,52.8351 C27.4853,52.7991 27.6533,52.7171 27.7173,52.6901 C27.9133,52.6091 27.9133,52.6091 28.1703,52.5291 C28.2473,52.5071 28.5323,52.4261 28.9663,52.4031 C29.2633,52.3871 29.5263,52.4281 29.6653,52.4501 C30.0793,52.5181 30.5793,52.7441 30.8773,53.0041 C30.9603,53.0721 31.1703,53.2561 31.3233,53.4911 C31.4583,53.6921 31.5483,53.8591 31.6403,54.1631 L32.7593,58.0531 C32.8793,58.4751 32.7193,58.9781 32.2493,59.4561 C31.3213,60.3991 29.5463,60.8951 28.2843,60.5661 C27.6623,60.4021 27.2823,60.0691 27.1643,59.6611 C26.8293,58.4941 26.3823,56.9381 26.0453,55.7731 C26.0153,55.6481 25.9943,55.5501 25.9793,55.4501 C25.9653,55.3541 25.9583,55.2551 25.9553,55.1271 C25.9513,54.9471 25.9893,54.6971 26.0243,54.5701 C26.0313,54.5421 26.0413,54.5071 26.0533,54.4651 C26.0643,54.4281 26.0763,54.3921 26.0893,54.3531 C26.0933,54.3401 26.0953,54.3321 26.1003,54.3171 C26.1103,54.2921 26.1203,54.2681 26.1293,54.2421 C26.1463,54.2061 26.1583,54.1711 26.1783,54.1331 C26.1823,54.1211 26.1893,54.1081 26.1943,54.0961 C26.2093,54.0641 26.2223,54.0321 26.2413,54.0021 C26.2473,53.9891 26.2533,53.9771 26.2623,53.9641 C26.2683,53.9531 26.2723,53.9431 26.2783,53.9351 C26.3143,53.8701 26.3513,53.8121 26.3923,53.7541 Z" id="Stroke-26" stroke="#2DB7BA" stroke-width="0.75" stroke-linecap="round" stroke-linejoin="round"></path>
                    <path d="M47.1633,112.8481 C47.1633,112.8481 45.4193,112.2911 44.2703,113.8021 C45.0613,114.9391 45.7753,115.9471 45.9963,116.2141 C46.5533,116.8891 47.1503,116.6091 47.1713,115.8101 C47.1853,115.3601 47.1793,114.1811 47.1693,112.8471 L47.1633,112.8481 Z" id="Fill-27" fill="#2DB7BA"></path>
                    <path d="M44.6453,106.8121 L41.9073,108.0891 L41.6333,109.9771 C41.6333,109.9771 43.0373,112.0391 44.2703,113.8021 C45.4193,112.2911 47.1633,112.8481 47.1633,112.8481 L47.1693,112.8471 C47.1463,110.4001 47.1063,107.4141 47.1063,107.4141 L44.6453,106.8121 Z" id="Fill-28" fill="#E0F4F5"></path>
                    <polygon id="Fill-29" fill="#FFFFFF" points="30.6343 58.3631 30.6313 58.3671 44.6453 106.8121 47.1063 107.4141 33.0763 58.9341"></polygon>
                    <polygon id="Fill-30" fill="#FFFFFF" points="30.6313 58.3671 27.8983 59.6431 27.8973 59.6591 41.9073 108.0891 44.6453 106.8121"></polygon>
                    <polygon id="Fill-31" fill="#E0F4F5" points="27.8973 59.6591 27.1123 56.9331 26.8373 58.8171 27.6133 61.5211 27.6213 61.5201"></polygon>
                    <polygon id="Fill-32" fill="#E0F4F5" points="29.8493 55.6531 30.6313 58.3671 30.6343 58.3631 33.0763 58.9341 32.3103 56.2611"></polygon>
                    <polygon id="Fill-33" fill="#E0F4F5" points="27.1123 56.9331 27.8973 59.6591 27.8983 59.6431 30.6313 58.3671 29.8493 55.6531"></polygon>
                    <polygon id="Fill-34" fill="#E0F4F5" points="27.6133 61.5211 41.6333 109.9771 41.9073 108.0891 27.8973 59.6591 27.6213 61.5201"></polygon>
                    <polyline id="Stroke-35" stroke="#2DB7BA" stroke-width="0.75" stroke-linecap="round" stroke-linejoin="round" points="27.1123 56.9331 26.8373 58.8171 27.6133 61.5211 41.6333 109.9771"></polyline>
                    <polyline id="Stroke-36" stroke="#2DB7BA" stroke-width="0.75" stroke-linecap="round" stroke-linejoin="round" points="29.8493 55.6531 27.1123 56.9331 27.8973 59.6591 41.9073 108.0891"></polyline>
                    <polyline id="Stroke-37" stroke="#2DB7BA" stroke-width="0.75" stroke-linecap="round" stroke-linejoin="round" points="47.1063 107.4141 33.0763 58.9341 32.3103 56.2611 29.8493 55.6531 30.6313 58.3671 44.6453 106.8121"></polyline>
                    <path d="M47.1063,107.4141 C47.1063,107.4141 47.1463,110.4001 47.1693,112.8471 C47.1793,114.1811 47.1853,115.3601 47.1713,115.8101 C47.1503,116.6091 46.5533,116.8891 45.9963,116.2141 C45.7753,115.9471 45.0613,114.9391 44.2703,113.8021 C43.0373,112.0391 41.6333,109.9771 41.6333,109.9771 L41.9073,108.0891 L44.6453,106.8121 L47.1063,107.4141 Z" id="Stroke-38" stroke="#2DB7BA" stroke-width="0.75" stroke-linecap="round" stroke-linejoin="round"></path>
                    <path d="M47.1633,112.8481 C47.1633,112.8481 45.4193,112.2911 44.2703,113.8021 L44.2673,113.8051" id="Stroke-39" stroke="#2DB7BA" stroke-width="0.75" stroke-linecap="round" stroke-linejoin="round"></path>
                    <polyline id="Stroke-40" stroke="#2DB7BA" stroke-width="0.75" stroke-linecap="round" stroke-linejoin="round" points="33.0763 58.9341 30.6343 58.3631 30.6313 58.3671 27.8983 59.6431 27.8973 59.6591 27.6213 61.5201"></polyline>
                    <path d="M79.5588,97.545 L79.5588,114.152 C79.4138,114.169 79.2608,114.176 79.1068,114.176 L20.9448,114.176 L20.9448,97.521 L79.1068,97.521 C79.2608,97.521 79.4138,97.529 79.5588,97.545 Z" id="Fill-41" fill="#FFFFFF"></path>
                    <line x1="20.9448" y1="98.615" x2="79.5588" y2="98.615" id="Stroke-42" stroke="#B9D9F2" stroke-width="0.25" stroke-linecap="round" stroke-linejoin="round"></line>
                    <line x1="20.9448" y1="99.575" x2="79.5588" y2="99.575" id="Stroke-43" stroke="#B9D9F2" stroke-width="0.25" stroke-linecap="round" stroke-linejoin="round"></line>
                    <line x1="20.9448" y1="100.535" x2="79.5588" y2="100.535" id="Stroke-44" stroke="#B9D9F2" stroke-width="0.25" stroke-linecap="round" stroke-linejoin="round"></line>
                    <line x1="20.9448" y1="101.495" x2="79.5588" y2="101.495" id="Stroke-45" stroke="#B9D9F2" stroke-width="0.25" stroke-linecap="round" stroke-linejoin="round"></line>
                    <line x1="20.9448" y1="102.456" x2="79.5588" y2="102.456" id="Stroke-46" stroke="#B9D9F2" stroke-width="0.25" stroke-linecap="round" stroke-linejoin="round"></line>
                    <line x1="20.9448" y1="103.416" x2="79.5588" y2="103.416" id="Stroke-47" stroke="#B9D9F2" stroke-width="0.25" stroke-linecap="round" stroke-linejoin="round"></line>
                    <line x1="20.9448" y1="104.376" x2="79.5588" y2="104.376" id="Stroke-48" stroke="#B9D9F2" stroke-width="0.25" stroke-linecap="round" stroke-linejoin="round"></line>
                    <line x1="20.9448" y1="105.336" x2="79.5588" y2="105.336" id="Stroke-49" stroke="#B9D9F2" stroke-width="0.25" stroke-linecap="round" stroke-linejoin="round"></line>
                    <line x1="20.9448" y1="106.297" x2="79.5588" y2="106.297" id="Stroke-50" stroke="#B9D9F2" stroke-width="0.25" stroke-linecap="round" stroke-linejoin="round"></line>
                    <line x1="20.9448" y1="107.256" x2="79.5588" y2="107.256" id="Stroke-51" stroke="#B9D9F2" stroke-width="0.25" stroke-linecap="round" stroke-linejoin="round"></line>
                    <line x1="20.9448" y1="108.216" x2="79.5588" y2="108.216" id="Stroke-52" stroke="#B9D9F2" stroke-width="0.25" stroke-linecap="round" stroke-linejoin="round"></line>
                    <line x1="20.9448" y1="109.177" x2="79.5588" y2="109.177" id="Stroke-53" stroke="#B9D9F2" stroke-width="0.25" stroke-linecap="round" stroke-linejoin="round"></line>
                    <line x1="20.9448" y1="110.137" x2="79.5588" y2="110.137" id="Stroke-54" stroke="#B9D9F2" stroke-width="0.25" stroke-linecap="round" stroke-linejoin="round"></line>
                    <line x1="20.9448" y1="111.097" x2="79.5588" y2="111.097" id="Stroke-55" stroke="#B9D9F2" stroke-width="0.25" stroke-linecap="round" stroke-linejoin="round"></line>
                    <line x1="20.9448" y1="112.058" x2="79.5588" y2="112.058" id="Stroke-56" stroke="#B9D9F2" stroke-width="0.25" stroke-linecap="round" stroke-linejoin="round"></line>
                    <line x1="20.9448" y1="113.018" x2="79.5588" y2="113.018" id="Stroke-57" stroke="#B9D9F2" stroke-width="0.25" stroke-linecap="round" stroke-linejoin="round"></line>
                    <path d="M84.1998,102.614 C84.1998,99.962 82.1598,97.77 79.5588,97.545 C79.4138,97.529 79.2608,97.521 79.1068,97.521 L20.9448,97.521 L17.8578,97.521 L17.8578,95.103 L79.1068,95.103 C83.2568,95.103 86.6178,98.463 86.6178,102.614 L86.6178,109.083 C86.6178,113.235 83.2568,116.594 79.1068,116.594 L78.5598,116.594 L17.8578,116.594 L17.8578,114.176 L79.1068,114.176 C79.2608,114.176 79.4138,114.169 79.5588,114.152 C82.1598,113.927 84.1998,111.734 84.1998,109.083 L84.1998,102.614 Z" id="Fill-58" fill="#E0F4F5"></path>
                    <path d="M84.1998,102.614 L84.1998,109.083 C84.1998,111.734 82.1598,113.927 79.5588,114.152 L79.5588,97.545 C82.1598,97.77 84.1998,99.962 84.1998,102.614 Z" id="Fill-59" fill="#E0F4F5"></path>
                    <path d="M95.8408,95.103 C99.9908,95.103 103.353,98.463 103.353,102.614 L103.353,109.083 C103.353,113.235 99.9908,116.594 95.8408,116.594 L88.9078,116.594 C93.0588,116.594 96.4198,113.235 96.4198,109.083 L96.4198,102.614 C96.4198,98.463 93.0588,95.103 88.9078,95.103 L95.8408,95.103 Z" id="Fill-60" fill="#E0F4F5"></path>
                    <path d="M79.1068,116.594 C83.2568,116.594 86.6178,113.235 86.6178,109.083 L86.6178,102.614 C86.6178,98.463 83.2568,95.103 79.1068,95.103" id="Stroke-61" stroke="#2DB7BA" stroke-width="0.75" stroke-linecap="round" stroke-linejoin="round"></path>
                    <path d="M76.9791,116.594 L88.9078,116.594 C93.0588,116.594 96.4198,113.235 96.4198,109.083 L96.4198,102.614 C96.4198,98.463 93.0588,95.103 88.9078,95.103 L76.9954,95.103" id="Stroke-62" stroke="#2DB7BA" stroke-width="0.75" stroke-linecap="round" stroke-linejoin="round"></path>
                    <path d="M88.9078,116.594 L95.8408,116.594 C99.9908,116.594 103.353,113.235 103.353,109.083 L103.353,102.614 C103.353,99.0838 100.921,96.1257 97.6413,95.3199 C97.0645,95.1782 96.4615,95.103 95.8408,95.103 L88.2168,95.103" id="Stroke-63" stroke="#2DB7BA" stroke-width="0.75" stroke-linecap="round" stroke-linejoin="round"></path>
                    <path d="M78.5598,95.103 L17.8578,95.103 L17.8578,97.521 L79.1068,97.521 C79.2608,97.521 79.4138,97.529 79.5588,97.545 C82.1598,97.77 84.1998,99.962 84.1998,102.614 L84.1998,109.083 C84.1998,111.734 82.1598,113.927 79.5588,114.152 C79.4138,114.169 79.2608,114.176 79.1068,114.176 L20.9448,114.176 L17.8578,114.176 L17.8578,116.594 L78.5598,116.594" id="Stroke-64" stroke="#2DB7BA" stroke-width="0.75" stroke-linecap="round" stroke-linejoin="round"></path>
                    <line x1="79.5588" y1="97.545" x2="79.5588" y2="114.152" id="Stroke-65" stroke="#2DB7BA" stroke-width="0.75" stroke-linecap="round" stroke-linejoin="round"></line>
                    <line x1="20.9448" y1="97.521" x2="20.9448" y2="114.176" id="Stroke-66" stroke="#2DB7BA" stroke-width="0.75" stroke-linecap="round" stroke-linejoin="round"></line>
                    <line x1="0.25" y1="15.273" x2="2.253" y2="17.2771" id="Stroke-67" stroke="#2DB7BA" stroke-width="0.5" stroke-linecap="round" stroke-linejoin="round"></line>
                    <line x1="2.253" y1="15.273" x2="0.25" y2="17.2771" id="Stroke-68" stroke="#2DB7BA" stroke-width="0.5" stroke-linecap="round" stroke-linejoin="round"></line>
                    <polygon id="Stroke-69" stroke="#F5A623" stroke-width="0.5" stroke-linecap="round" stroke-linejoin="round" points="20.792 4.845 17.397 5.383 19.559 8.056"></polygon>
                    <path d="M54.6241,32.0762 C54.6241,33.5091 55.6545,34.6752 56.9415,34.6752 L61.4215,34.6752 L61.4215,44.4121 L72.4115,34.6752 L101.037,34.6752 C102.315,34.6752 103.353,33.5091 103.353,32.0762 L103.353,2.594 C103.353,1.166 102.315,-1.42108547e-14 101.037,-1.42108547e-14 L56.9415,-1.42108547e-14 C55.6545,-1.42108547e-14 54.6241,1.166 54.6241,2.594 L54.6241,32.0762 Z" id="Fill-70" fill="#2DB7BA"></path>
                    <polygon id="Fill-71" fill="#E0F4F5" points="72.8537 7.108 68.7363 7.108 68.7363 21.1173 78 28.6591 87.2638 21.1173 87.2638 7.108 83.1464 7.108 83.1464 9.263 80.058 9.263 80.058 6.031 75.9421 6.031 75.9421 9.263 72.8537 9.263"></polygon>
                    <polygon id="Fill-72" fill="#FFFFFF" points="83.1464 9.263 80.058 9.263 80.058 6.031 77.9013 6.031 77.9013 28.578 78 28.6591 87.2638 21.1173 87.2638 7.108 83.1464 7.108"></polygon>
                </g>
            </g>
        </g>
    </g>
</svg>