<?xml version="1.0" encoding="UTF-8"?>
<svg width="1536px" height="1024px" viewBox="0 0 1536 1024" version="1.1" xmlns="http://www.w3.org/2000/svg" xmlns:xlink="http://www.w3.org/1999/xlink" style="background: #F5F5F5;">
    <title>Backgrounds / Primary Space muted</title>
    <defs>
        <linearGradient x1="50%" y1="84.6555139%" x2="50%" y2="35.1900945%" id="linearGradient-1">
            <stop stop-color="#14283B" stop-opacity="0.8" offset="0%"></stop>
            <stop stop-color="#081624" offset="100%"></stop>
        </linearGradient>
        <linearGradient x1="7.01087045%" y1="0%" x2="7.01087045%" y2="93.7102717%" id="linearGradient-2">
            <stop stop-color="#14283B" stop-opacity="0.2" offset="0%"></stop>
            <stop stop-color="#14283B" stop-opacity="0.8" offset="100%"></stop>
        </linearGradient>
    </defs>
    <g id="Backgrounds-/-Primary-Space-muted" stroke="none" stroke-width="1" fill="none" fill-rule="evenodd">
        <rect fill="#F5F5F5" x="0" y="0" width="1536" height="1024"></rect>
        <rect id="Rectangle" fill="#007D7D" x="0" y="0" width="1536" height="1024"></rect>
        <rect id="Rectangle" fill="url(#linearGradient-1)" x="0" y="0" width="1536" height="1024"></rect>
        <g id="milky-cloud-1" transform="translate(101.000000, 0.000000)" fill="#19B3EE" opacity="0.08">
            <path d="M194.396772,150.913316 C194.396772,150.913316 256.853131,167.237093 277.672822,205.327266 C298.492513,243.416078 344.655908,309.617155 451.464427,278.784261 C558.272946,247.951367 707.625107,354.055916 707.625107,354.055916 C707.625107,354.055916 949.304058,539.738877 1158.39708,437.035115 C1283.17402,375.744774 1378.44441,294.602001 1435,239.120204 L1435,0 L1150.04965,0 C1081.83102,23.8191109 1007.05175,59.9381876 933.011095,114.639163 C689.974397,294.202068 550.126464,177.213641 550.126464,177.213641 C550.126464,177.213641 513.467298,130.96294 399.416557,159.52955 C319.312204,179.594192 254.615564,68.1300029 223.194585,0 L0,0 C6.15330902,8.83388385 11.6060206,18.3207188 16.0811545,28.4849904 C56.813562,120.986392 194.396772,150.913316 194.396772,150.913316" id="Fill-1"></path>
            <path d="M1020.69621,205.60757 C1020.69621,205.60757 913.973504,312.645094 1080.38908,323.530358 C1204.34947,331.63988 1362.40533,232.722763 1435,181.713055 L1435,42.0279034 C1163.65521,39.5297353 1020.69621,205.60757 1020.69621,205.60757" id="Fill-2"></path>
        </g>
        <g id="stars" opacity="0.4" transform="translate(20.000000, 10.046000)">
            <path d="M680.27,164 C702.665056,164 720.77,179.445682 720.77,198.514061 C720.77,217.554318 702.665056,233 680.27,233 C657.909687,233 639.77,217.554318 639.77,198.514061 C639.77,179.445682 657.909687,164 680.27,164 Z" id="Fill-12" fill="#314754"></path>
            <path d="M680.253373,176 C694.354667,176 705.77,185.848441 705.77,198.014161 C705.77,210.150272 694.354667,220 680.253373,220 C666.186612,220 654.77,210.150272 654.77,198.014161 C654.77,185.848441 666.186612,176 680.253373,176 Z" id="Fill-13" fill="#33525F"></path>
            <path d="M680.269347,185 C689.394559,185 696.77,191.055935 696.77,198.513707 C696.77,205.942819 689.394559,212 680.269347,212 C671.145441,212 663.77,205.942819 663.77,198.513707 C663.77,191.055935 671.145441,185 680.269347,185 Z" id="Fill-14" fill="#3C616F"></path>
            <path d="M679.77,190 C685.310844,190 689.77,193.796526 689.77,198.513648 C689.77,203.203474 685.310844,207 679.77,207 C674.261631,207 669.77,203.203474 669.77,198.513648 C669.77,193.796526 674.261631,190 679.77,190 Z" id="Fill-15" fill="#FFFFFF"></path>
            <path d="M293.751433,644 C296.532344,644 298.77,646.007194 298.77,648.499281 C298.77,650.992806 296.532344,653 293.751433,653 C291.009032,653 288.77,650.992806 288.77,648.499281 C288.77,646.007194 291.009032,644 293.751433,644 Z" id="Fill-20" fill="#FFFFFF"></path>
            <path d="M330.77,324 C333.539252,324 335.77,325.813589 335.77,328.000639 C335.77,330.215827 333.539252,332 330.77,332 C328.000748,332 325.77,330.215827 325.77,328.000639 C325.77,325.813589 328.000748,324 330.77,324 Z" id="Fill-21" fill="#FFFFFF"></path>
            <path d="M905.77,722 C908.503626,722 910.77,723.561151 910.77,725.49944 C910.77,727.438849 908.503626,729 905.77,729 C903.000748,729 900.77,727.438849 900.77,725.49944 C900.77,723.561151 903.000748,722 905.77,722 Z" id="Fill-22" fill="#FFFFFF"></path>
            <path d="M1143.26568,114 C1145.72628,114 1147.77,115.784173 1147.77,118.000639 C1147.77,120.18769 1145.72628,122 1143.26568,122 C1140.77672,122 1138.77,120.18769 1138.77,118.000639 C1138.77,115.784173 1140.77672,114 1143.26568,114 Z" id="Fill-23" fill="#FFFFFF"></path>
            <path d="M186.769931,17 C189.539784,17 191.77,18.7841727 191.77,20.9993605 C191.77,23.2158273 189.539784,25 186.769931,25 C184.000216,25 181.77,23.2158273 181.77,20.9993605 C181.77,18.7841727 184.000216,17 186.769931,17 Z" id="Fill-24" fill="#FFFFFF"></path>
            <path d="M1256.26568,574 C1258.76205,574 1260.77,575.81231 1260.77,578.000639 C1260.77,580.215827 1258.76205,582 1256.26568,582 C1253.80385,582 1251.77,580.215827 1251.77,578.000639 C1251.77,575.81231 1253.80385,574 1256.26568,574 Z" id="Fill-25" fill="#FFFFFF"></path>
            <path d="M827.77,221 C829.985401,221 831.77,222.784173 831.77,224.999361 C831.77,227.214548 829.985401,229 827.77,229 C825.583099,229 823.77,227.214548 823.77,224.999361 C823.77,222.784173 825.583099,221 827.77,221 Z" id="Fill-26" fill="#FFFFFF"></path>
            <path d="M838.254427,179 C839.637992,179 840.77,180.35868 840.77,182.01929 C840.77,183.678222 839.637992,185 838.254427,185 C836.902008,185 835.77,183.678222 835.77,182.01929 C835.77,180.35868 836.902008,179 838.254427,179 Z" id="Fill-27" fill="#FFFFFF"></path>
            <path d="M767.285573,214 C768.669138,214 769.77,214.905787 769.77,216.011742 C769.77,217.119933 768.669138,218 767.285573,218 C765.902008,218 764.77,217.119933 764.77,216.011742 C764.77,214.905787 765.902008,214 767.285573,214 Z" id="Fill-28" fill="#FFFFFF"></path>
            <path d="M868.787739,251 C872.083168,251 874.77,253.014462 874.77,255.486268 C874.77,257.985538 872.083168,260 868.787739,260 C865.455467,260 862.77,257.985538 862.77,255.486268 C862.77,253.014462 865.455467,251 868.787739,251 Z" id="Fill-29" fill="#FFFFFF"></path>
            <path d="M1094.76456,49 C1098.08808,49 1100.77,51.2396179 1100.77,53.9847419 C1100.77,56.7617089 1098.08808,59 1094.76456,59 C1091.45192,59 1088.77,56.7617089 1088.77,53.9847419 C1088.77,51.2396179 1091.45192,49 1094.76456,49 Z" id="Fill-30" fill="#FFFFFF"></path>
            <path d="M1224.28877,95 C1227.31096,95 1229.77,97.2382911 1229.77,99.9847419 C1229.77,102.761709 1227.31096,105 1224.28877,105 C1221.2378,105 1218.77,102.761709 1218.77,99.9847419 C1218.77,97.2382911 1221.2378,95 1224.28877,95 Z" id="Fill-31" fill="#FFFFFF"></path>
            <path d="M665.286261,324 C668.307071,324 670.77,326.232804 670.77,329 C670.77,331.738095 668.307071,334 665.286261,334 C662.232929,334 659.77,331.738095 659.77,329 C659.77,326.232804 662.232929,324 665.286261,324 Z" id="Fill-32" fill="#FFFFFF"></path>
            <path d="M4.76408688,192 C5.87484421,192 6.77,192.671885 6.77,193.495821 C6.77,194.328513 5.87484421,195 4.76408688,195 C3.66561064,195 2.77,194.328513 2.77,193.495821 C2.77,192.671885 3.66561064,192 4.76408688,192 Z" id="Fill-33" fill="#FFFFFF"></path>
            <path d="M492.253739,577 C495.307071,577 497.77,579.232509 497.77,582.000661 C497.77,584.767491 495.307071,587 492.253739,587 C489.232929,587 486.77,584.767491 486.77,582.000661 C486.77,579.232509 489.232929,577 492.253739,577 Z" id="Fill-34" fill="#FFFFFF"></path>
            <path d="M393.77,695 C397.055714,695 399.77,697.014195 399.77,699.486867 C399.77,701.984611 397.055714,704 393.77,704 C390.448912,704 387.77,701.984611 387.77,699.486867 C387.77,697.014195 390.448912,695 393.77,695 Z" id="Fill-35" fill="#FFFFFF"></path>
            <path d="M164.787945,601 C168.083486,601 170.77,603.238291 170.77,606.015258 C170.77,608.761709 168.083486,611 164.787945,611 C161.456514,611 158.77,608.761709 158.77,606.015258 C158.77,603.238291 161.456514,601 164.787945,601 Z" id="Fill-36" fill="#FFFFFF"></path>
            <path d="M373.77,108 C375.41405,108 376.77,108.904718 376.77,110.000609 C376.77,111.095282 375.41405,112 373.77,112 C372.12595,112 370.77,111.095282 370.77,110.000609 C370.77,108.904718 372.12595,108 373.77,108 Z" id="Fill-37" fill="#FFFFFF"></path>
            <path d="M200.270065,58 C201.639928,58 202.77,58.9035008 202.77,60.0006088 C202.77,61.0964992 201.639928,62 200.270065,62 C198.900202,62 197.77,61.0964992 197.77,60.0006088 C197.77,58.9035008 198.900202,58 200.270065,58 Z" id="Fill-38" fill="#FFFFFF"></path>
            <path d="M184.270065,280 C185.639928,280 186.77,280.903501 186.77,281.999391 C186.77,283.095282 185.639928,284 184.270065,284 C182.900202,284 181.77,283.095282 181.77,281.999391 C181.77,280.903501 182.900202,280 184.270065,280 Z" id="Fill-39" fill="#FFFFFF"></path>
            <path d="M536.269348,428 C537.639032,428 538.77,428.882894 538.77,430.013489 C538.77,431.117106 537.639032,432 536.269348,432 C534.899663,432 533.77,431.117106 533.77,430.013489 C533.77,428.882894 534.899663,428 536.269348,428 Z" id="Fill-40" fill="#FFFFFF"></path>
            <path d="M631.790494,115 C633.445775,115 634.77,116.104812 634.77,117.517622 C634.77,118.896721 633.445775,120 631.790494,120 C630.094225,120 628.77,118.896721 628.77,117.517622 C628.77,116.104812 630.094225,115 631.790494,115 Z" id="Fill-41" fill="#FFFFFF"></path>
            <path d="M1178.28512,563 C1179.66561,563 1180.77,564.130898 1180.77,565.500761 C1180.77,566.869102 1179.66561,568 1178.28512,568 C1176.87439,568 1175.77,566.869102 1175.77,565.500761 C1175.77,564.130898 1176.87439,563 1178.28512,563 Z" id="Fill-42" fill="#FFFFFF"></path>
            <path d="M1293.77704,772 C1295.42067,772 1296.77,772.678332 1296.77,773.5 C1296.77,774.321668 1295.42067,775 1293.77704,775 C1292.13186,775 1290.77,774.321668 1290.77,773.5 C1290.77,772.678332 1292.13186,772 1293.77704,772 Z" id="Fill-43" fill="#FFFFFF"></path>
            <path d="M938.27,771 C939.640042,771 940.77,771.903501 940.77,772.999391 C940.77,774.095282 939.640042,775 938.27,775 C936.899958,775 935.77,774.095282 935.77,772.999391 C935.77,771.903501 936.899958,771 938.27,771 Z" id="Fill-44" fill="#FFFFFF"></path>
            <path d="M578.28774,585 C579.666189,585 580.77,585.903501 580.77,586.999391 C580.77,588.095282 579.666189,589 578.28774,589 C576.873811,589 575.77,588.095282 575.77,586.999391 C575.77,585.903501 576.873811,585 578.28774,585 Z" id="Fill-45" fill="#FFFFFF"></path>
            <path d="M860.77,448 C861.866033,448 862.77,448.903501 862.77,449.999391 C862.77,451.095282 861.866033,452 860.77,452 C859.673967,452 858.77,451.095282 858.77,449.999391 C858.77,448.903501 859.673967,448 860.77,448 Z" id="Fill-46" fill="#FFFFFF"></path>
            <path d="M1377.2562,304 C1378.66561,304 1379.77,304.904718 1379.77,306.000609 C1379.77,307.096499 1378.66561,308 1377.2562,308 C1375.87439,308 1374.77,307.096499 1374.77,306.000609 C1374.77,304.904718 1375.87439,304 1377.2562,304 Z" id="Fill-47" fill="#FFFFFF"></path>
            <path d="M282.27,332 C283.640042,332 284.77,332.904718 284.77,334.000609 C284.77,335.096499 283.640042,336 282.27,336 C280.899958,336 279.77,335.096499 279.77,334.000609 C279.77,332.904718 280.899958,332 282.27,332 Z" id="Fill-48" fill="#FFFFFF"></path>
            <path d="M198.77,475 C199.325556,475 199.77,475.438223 199.77,475.986001 C199.77,476.53378 199.325556,477 198.77,477 C198.214444,477 197.77,476.53378 197.77,475.986001 C197.77,475.438223 198.214444,475 198.77,475 Z" id="Fill-49" fill="#FFFFFF"></path>
            <path d="M250.755915,192 C251.303646,192 251.77,192.221605 251.77,192.5 C251.77,192.777778 251.303646,193 250.755915,193 C250.208185,193 249.77,192.777778 249.77,192.5 C249.77,192.221605 250.208185,192 250.755915,192 Z" id="Fill-50" fill="#FFFFFF"></path>
            <path d="M528.77,213 C529.325556,213 529.77,213.465286 529.77,214.013398 C529.77,214.56151 529.325556,215 528.77,215 C528.214444,215 527.77,214.56151 527.77,214.013398 C527.77,213.465286 528.214444,213 528.77,213 Z" id="Fill-51" fill="#FFFFFF"></path>
            <path d="M915.755915,80 C916.303646,80 916.77,80.4454041 916.77,81.0006169 C916.77,81.5558297 916.303646,82 915.755915,82 C915.208185,82 914.77,81.5558297 914.77,81.0006169 C914.77,80.4454041 915.208185,80 915.755915,80 Z" id="Fill-52" fill="#FFFFFF"></path>
            <path d="M865.249645,212 C866.07167,212 866.77,212.465286 866.77,213.013398 C866.77,213.56151 866.07167,214 865.249645,214 C864.42762,214 863.77,213.56151 863.77,213.013398 C863.77,212.465286 864.42762,212 865.249645,212 Z" id="Fill-53" fill="#FFFFFF"></path>
            <path d="M914.77,233 C915.325556,233 915.77,233.43849 915.77,233.986602 C915.77,234.562728 915.325556,235 914.77,235 C914.214444,235 913.77,234.562728 913.77,233.986602 C913.77,233.43849 914.214444,233 914.77,233 Z" id="Fill-54" fill="#FFFFFF"></path>
            <path d="M878.78357,318 C879.331587,318 879.77,318.465286 879.77,319.013398 C879.77,319.56151 879.331587,320 878.78357,320 C878.235553,320 877.77,319.56151 877.77,319.013398 C877.77,318.465286 878.235553,318 878.78357,318 Z" id="Fill-55" fill="#FFFFFF"></path>
            <path d="M1108.78202,406 C1109.3309,406 1109.77,406.222359 1109.77,406.500309 C1109.77,406.777641 1109.3309,407 1108.78202,407 C1108.23315,407 1107.77,406.777641 1107.77,406.500309 C1107.77,406.222359 1108.23315,406 1108.78202,406 Z" id="Fill-56" fill="#FFFFFF"></path>
            <path d="M1224.76167,157 C1225.30125,157 1225.77,157.46622 1225.77,158.013999 C1225.77,158.561777 1225.30125,159 1224.76167,159 C1224.21583,159 1223.77,158.561777 1223.77,158.013999 C1223.77,157.46622 1224.21583,157 1224.76167,157 Z" id="Fill-57" fill="#FFFFFF"></path>
            <path d="M1292.25197,69 C1293.07528,69 1293.77,69.4372716 1293.77,69.9866017 C1293.77,70.5615104 1293.07528,71 1292.25197,71 C1291.43022,71 1290.77,70.5615104 1290.77,69.9866017 C1290.77,69.4372716 1291.43022,69 1292.25197,69 Z" id="Fill-58" fill="#FFFFFF"></path>
            <path d="M1385.77529,124 C1386.33614,124 1386.77,124.438223 1386.77,124.986001 C1386.77,125.56056 1386.33614,126 1385.77529,126 C1385.21444,126 1384.77,125.56056 1384.77,124.986001 C1384.77,124.438223 1385.21444,124 1385.77529,124 Z" id="Fill-59" fill="#FFFFFF"></path>
            <path d="M1042.75437,217 C1043.30854,217 1043.77,217.444444 1043.77,218 C1043.77,218.555556 1043.30854,219 1042.75437,219 C1042.2075,219 1041.77,218.555556 1041.77,218 C1041.77,217.444444 1042.2075,217 1042.75437,217 Z" id="Fill-60" fill="#FFFFFF"></path>
            <path d="M1083.27464,572 C1085.22114,572 1086.77,573.574562 1086.77,575.51549 C1086.77,577.424091 1085.22114,579 1083.27464,579 C1081.3177,579 1079.77,577.424091 1079.77,575.51549 C1079.77,573.574562 1081.3177,572 1083.27464,572 Z" id="Fill-61" fill="#FFFFFF"></path>
            <path d="M1256.29192,550 C1258.19535,550 1259.77,551.350779 1259.77,552.986723 C1259.77,554.649221 1258.19535,556 1256.29192,556 C1254.34465,556 1252.77,554.649221 1252.77,552.986723 C1252.77,551.350779 1254.34465,550 1256.29192,550 Z" id="Fill-62" fill="#FFFFFF"></path>
            <path d="M1332.7898,632 C1334.96802,632 1336.77,633.329855 1336.77,634.99942 C1336.77,636.643478 1334.96802,638 1332.7898,638 C1330.57198,638 1328.77,636.643478 1328.77,634.99942 C1328.77,633.329855 1330.57198,632 1332.7898,632 Z" id="Fill-63" fill="#FFFFFF"></path>
            <path d="M953.269255,749 C955.775301,749 957.77,750.350519 957.77,751.986149 C957.77,753.649481 955.775301,755 953.269255,755 C950.764699,755 948.77,753.649481 948.77,751.986149 C948.77,750.350519 950.764699,749 953.269255,749 Z" id="Fill-64" fill="#FFFFFF"></path>
            <path d="M603.285007,762 C605.194307,762 606.77,763.350779 606.77,765.013277 C606.77,766.649221 605.194307,768 603.285007,768 C601.345693,768 599.77,766.649221 599.77,765.013277 C599.77,763.350779 601.345693,762 603.285007,762 Z" id="Fill-65" fill="#FFFFFF"></path>
            <path d="M246.75285,723 C248.969208,723 250.77,724.329855 250.77,725.99942 C250.77,727.668986 248.969208,729 246.75285,729 C244.570792,729 242.77,727.668986 242.77,725.99942 C242.77,724.329855 244.570792,723 246.75285,723 Z" id="Fill-66" fill="#FFFFFF"></path>
            <path d="M162.770066,753 C164.996021,753 166.77,754.575606 166.77,756.514813 C166.77,758.424394 164.996021,760 162.770066,760 C160.578696,760 158.77,758.424394 158.77,756.514813 C158.77,754.575606 160.578696,753 162.770066,753 Z" id="Fill-67" fill="#FFFFFF"></path>
            <path d="M311.289294,498 C313.744109,498 315.77,499.55285 315.77,501.499324 C315.77,503.44715 313.744109,505 311.289294,505 C308.795891,505 306.77,503.44715 306.77,501.499324 C306.77,499.55285 308.795891,498 311.289294,498 Z" id="Fill-68" fill="#FFFFFF"></path>
            <path d="M266.770663,121 C268.996934,121 270.77,122.356522 270.77,124.00058 C270.77,125.670145 268.996934,127 266.770663,127 C264.544391,127 262.77,125.670145 262.77,124.00058 C262.77,122.356522 264.544391,121 266.770663,121 Z" id="Fill-69" fill="#FFFFFF"></path>
            <path d="M322.27058,38 C324.18726,38 325.77,39.3507793 325.77,41.0121224 C325.77,42.6492207 324.18726,44 322.27058,44 C320.322592,44 318.77,42.6492207 318.77,41.0121224 C318.77,39.3507793 320.322592,38 322.27058,38 Z" id="Fill-70" fill="#FFFFFF"></path>
            <path d="M1248.76404,745 C1250.96115,745 1252.77,746.331014 1252.77,747.99942 C1252.77,749.643478 1250.96115,751 1248.76404,751 C1246.53777,751 1244.77,749.643478 1244.77,747.99942 C1244.77,746.331014 1246.53777,745 1248.76404,745 Z" id="Fill-71" fill="#FFFFFF"></path>
            <path d="M735.78715,413 C737.969208,413 739.77,414.800693 739.77,417.01693 C739.77,419.199307 737.969208,421 735.78715,421 C733.570792,421 731.77,419.199307 731.77,417.01693 C731.77,414.800693 733.570792,413 735.78715,413 Z" id="Fill-72" fill="#FFFFFF"></path>
            <path d="M681.27,398 C683.217665,398 684.77,399.356522 684.77,400.99942 C684.77,402.670145 683.217665,404 681.27,404 C679.322335,404 677.77,402.670145 677.77,400.99942 C677.77,399.356522 679.322335,398 681.27,398 Z" id="Fill-73" fill="#FFFFFF"></path>
            <path d="M745.283415,271 C746.118129,271 746.77,271.678392 746.77,272.513336 C746.77,273.321608 746.118129,274 745.283415,274 C744.448702,274 743.77,273.321608 743.77,272.513336 C743.77,271.678392 744.448702,271 745.283415,271 Z" id="Fill-74" fill="#FFFFFF"></path>
            <path d="M737.752113,182 C738.865065,182 739.77,182.67813 739.77,183.512751 C739.77,184.32187 738.865065,185 737.752113,185 C736.640487,185 735.77,184.32187 735.77,183.512751 C735.77,182.67813 736.640487,182 737.752113,182 Z" id="Fill-75" fill="#FFFFFF"></path>
            <path d="M561.786562,265 C562.899513,265 563.77,265.904173 563.77,267.017002 C563.77,268.12983 562.899513,269 561.786562,269 C560.67361,269 559.77,268.12983 559.77,267.017002 C559.77,265.904173 560.67361,265 561.786562,265 Z" id="Fill-76" fill="#FFFFFF"></path>
            <path d="M303.770657,206 C304.874105,206 305.77,206.902976 305.77,207.982219 C305.77,209.095477 304.874105,210 303.770657,210 C302.667209,210 301.77,209.095477 301.77,207.982219 C301.77,206.902976 302.667209,206 303.770657,206 Z" id="Fill-77" fill="#FFFFFF"></path>
            <path d="M143.269951,255 C144.09751,255 144.77,255.678392 144.77,256.513336 C144.77,257.322768 144.09751,258 143.269951,258 C142.442392,258 141.77,257.322768 141.77,256.513336 C141.77,255.678392 142.442392,255 143.269951,255 Z" id="Fill-78" fill="#FFFFFF"></path>
            <path d="M196.787425,316 C197.900487,316 198.77,316.67813 198.77,317.512751 C198.77,318.32187 197.900487,319 196.787425,319 C195.674363,319 194.77,318.32187 194.77,317.512751 C194.77,316.67813 195.674363,316 196.787425,316 Z" id="Fill-79" fill="#FFFFFF"></path>
            <path d="M878.787887,42 C879.86639,42 880.77,42.9045226 880.77,43.9822188 C880.77,45.0954774 879.86639,46 878.787887,46 C877.674935,46 876.77,45.0954774 876.77,43.9822188 C876.77,42.9045226 877.674935,42 878.787887,42 Z" id="Fill-80" fill="#FFFFFF"></path>
            <path d="M1315.25908,306 C1316.09296,306 1316.77,306.904523 1316.77,308.017781 C1316.77,309.13104 1316.09296,310 1315.25908,310 C1314.44704,310 1313.77,309.13104 1313.77,308.017781 C1313.77,306.904523 1314.44704,306 1315.25908,306 Z" id="Fill-81" fill="#FFFFFF"></path>
            <path d="M977.282922,543 C978.092068,543 978.77,543.87017 978.77,544.982998 C978.77,546.095827 978.092068,547 977.282922,547 C976.447932,547 975.77,546.095827 975.77,544.982998 C975.77,543.87017 976.447932,543 977.282922,543 Z" id="Fill-82" fill="#FFFFFF"></path>
            <path d="M547.77,44 C550.539627,44 552.77,45.8102102 552.77,48 C552.77,50.2162162 550.539627,52 547.77,52 C544.999086,52 542.77,50.2162162 542.77,48 C542.77,45.8102102 544.999086,44 547.77,44 Z" id="Fill-83" fill="#FFFFFF"></path>
            <path d="M361.77,369 C364.539627,369 366.77,371.036486 366.77,373.5 C366.77,375.993243 364.539627,378 361.77,378 C358.999086,378 356.77,375.993243 356.77,373.5 C356.77,371.036486 358.999086,369 361.77,369 Z" id="Fill-84" fill="#FFFFFF"></path>
            <path d="M1166.28633,296 C1169.31073,296 1171.77,298.006757 1171.77,300.5 C1171.77,302.993243 1169.31073,305 1166.28633,305 C1163.22927,305 1160.77,302.993243 1160.77,300.5 C1160.77,298.006757 1163.22927,296 1166.28633,296 Z" id="Fill-85" fill="#FFFFFF"></path>
            <path d="M859.752565,530 C862.533141,530 864.77,531.783784 864.77,534 C864.77,536.216216 862.533141,538 859.752565,538 C857.006859,538 854.77,536.216216 854.77,534 C854.77,531.783784 857.006859,530 859.752565,530 Z" id="Fill-86" fill="#FFFFFF"></path>
            <path d="M1486.26479,722 C1488.72975,722 1490.77,723.783784 1490.77,726 C1490.77,728.184985 1488.72975,730 1486.26479,730 C1483.77437,730 1481.77,728.184985 1481.77,726 C1481.77,723.783784 1483.77437,722 1486.26479,722 Z" id="Fill-87" fill="#FFFFFF"></path>
            <path d="M1465.24793,456 C1467.75696,456 1469.77,457.811411 1469.77,460 C1469.77,462.216216 1467.75696,464 1465.24793,464 C1462.78304,464 1460.77,462.216216 1460.77,460 C1460.77,457.811411 1462.78304,456 1465.24793,456 Z" id="Fill-88" fill="#FFFFFF"></path>
            <path d="M507.77,659 C509.448857,659 510.77,660.119832 510.77,661.487287 C510.77,662.880168 509.448857,664 507.77,664 C506.119714,664 504.77,662.880168 504.77,661.487287 C504.77,660.119832 506.119714,659 507.77,659 Z" id="Fill-89" fill="#FFFFFF"></path>
            <path d="M300.784784,422 C302.426937,422 303.77,423.343798 303.77,424.984745 C303.77,426.656202 302.426937,428 300.784784,428 C299.113063,428 297.77,426.656202 297.77,424.984745 C297.77,423.343798 299.113063,422 300.784784,422 Z" id="Fill-90" fill="#FFFFFF"></path>
            <path d="M169.77,511 C171.419943,511 172.77,512.118727 172.77,513.512713 C172.77,514.880168 171.419943,516 169.77,516 C168.120057,516 166.77,514.880168 166.77,513.512713 C166.77,512.118727 168.120057,511 169.77,511 Z" id="Fill-91" fill="#FFFFFF"></path>
            <path d="M258.287248,613 C260.203093,613 261.77,614.343798 261.77,616.015255 C261.77,617.657528 260.203093,619 258.287248,619 C256.336907,619 254.77,617.657528 254.77,616.015255 C254.77,614.343798 256.336907,613 258.287248,613 Z" id="Fill-92" fill="#FFFFFF"></path>
            <path d="M277.252752,663 C279.203093,663 280.77,664.343798 280.77,666.015255 C280.77,667.657528 279.203093,669 277.252752,669 C275.336907,669 273.77,667.657528 273.77,666.015255 C273.77,664.343798 275.336907,663 277.252752,663 Z" id="Fill-93" fill="#FFFFFF"></path>
            <path d="M242.755216,695 C244.426937,695 245.77,696.342769 245.77,697.985405 C245.77,699.657231 244.426937,701 242.755216,701 C241.113063,701 239.77,699.657231 239.77,697.985405 C239.77,696.342769 241.113063,695 242.755216,695 Z" id="Fill-94" fill="#FFFFFF"></path>
            <path d="M1206.25473,168 C1208.20751,168 1209.77,169.12008 1209.77,170.487837 C1209.77,171.881026 1208.20751,173 1206.25473,173 C1204.33382,173 1202.77,171.881026 1202.77,170.487837 C1202.77,169.12008 1204.33382,168 1206.25473,168 Z" id="Fill-95" fill="#FFFFFF"></path>
            <path d="M1185.25011,0 C1187.19898,0 1188.77,1.11983197 1188.77,2.4872872 C1188.77,3.88016803 1187.19898,5 1185.25011,5 C1183.34102,5 1181.77,3.88016803 1181.77,2.4872872 C1181.77,1.11983197 1183.34102,0 1185.25011,0 Z" id="Fill-96" fill="#FFFFFF"></path>
            <path d="M1328.74895,97 C1330.42162,97 1331.77,98.3437984 1331.77,100.015255 C1331.77,101.656202 1330.42162,103 1328.74895,103 C1327.11041,103 1325.77,101.656202 1325.77,100.015255 C1325.77,98.3437984 1327.11041,97 1328.74895,97 Z" id="Fill-97" fill="#FFFFFF"></path>
            <path d="M1166.79273,143 C1168.97455,143 1170.77,144.32 1170.77,146 C1170.77,147.650667 1168.97455,149 1166.79273,149 C1164.56545,149 1162.77,147.650667 1162.77,146 C1162.77,144.32 1164.56545,143 1166.79273,143 Z" id="Fill-98" fill="#FFFFFF"></path>
            <path d="M400.771329,389 C404.084286,389 406.77,391.46292 406.77,394.5 C406.77,397.53708 404.084286,400 400.771329,400 C397.457043,400 394.77,397.53708 394.77,394.5 C394.77,391.46292 397.457043,389 400.771329,389 Z" id="Fill-99" fill="#FFFFFF"></path>
            <path d="M12.27,180 C15.3080952,180 17.77,182.239018 17.77,185 C17.77,187.762274 15.3080952,190 12.27,190 C9.23190476,190 6.77,187.762274 6.77,185 C6.77,182.239018 9.23190476,180 12.27,180 Z" id="Fill-100" fill="#FFFFFF"></path>
            <path d="M528.769335,20 C532.083988,20 534.77,22.2387288 534.77,24.9993541 C534.77,27.762563 532.083988,30 528.769335,30 C525.456012,30 522.77,27.762563 522.77,24.9993541 C522.77,22.2387288 525.456012,20 528.769335,20 Z" id="Fill-101" fill="#FFFFFF"></path>
            <path d="M1209.77,622 C1213.0896,622 1215.77,624.238729 1215.77,627.000646 C1215.77,629.761271 1213.0896,632 1209.77,632 C1206.46103,632 1203.77,629.761271 1203.77,627.000646 C1203.77,624.238729 1206.46103,622 1209.77,622 Z" id="Fill-102" fill="#FFFFFF"></path>
            <path d="M1424.77,46 C1427.5319,46 1429.77,48.460545 1429.77,51.502131 C1429.77,54.5337724 1427.5319,57 1424.77,57 C1422.0081,57 1419.77,54.5337724 1419.77,51.502131 C1419.77,48.460545 1422.0081,46 1424.77,46 Z" id="Fill-103" fill="#FFFFFF"></path>
            <path d="M1425.9867,389.954 C1429.31264,389.954 1432,391.964465 1432,394.44586 C1432,396.935395 1429.31264,398.954 1425.9867,398.954 C1422.67406,398.954 1420,396.935395 1420,394.44586 C1420,391.964465 1422.67406,389.954 1425.9867,389.954 Z" id="Fill-104" fill="#FFFFFF"></path>
            <path d="M194.270122,795 C197.307852,795 199.77,797.464954 199.77,800.50497 C199.77,803.535046 197.307852,806 194.270122,806 C191.23227,806 188.77,803.535046 188.77,800.50497 C188.77,797.464954 191.23227,795 194.270122,795 Z" id="Fill-105" fill="#FFFFFF"></path>
            <path d="M110.269878,500 C113.30773,500 115.77,502.462602 115.77,505.500711 C115.77,508.537398 113.30773,511 110.269878,511 C107.232148,511 104.77,508.537398 104.77,505.500711 C104.77,502.462602 107.232148,500 110.269878,500 Z" id="Fill-106" fill="#FFFFFF"></path>
            <path d="M269.769336,270 C271.409203,270 272.77,270.907494 272.77,272 C272.77,273.116279 271.409203,274 269.769336,274 C268.096246,274 266.77,273.116279 266.77,272 C266.77,270.907494 268.096246,270 269.769336,270 Z" id="Fill-107" fill="#FFFFFF"></path>
            <path d="M156.27,38 C157.636334,38 158.77,39.1330749 158.77,40.498708 C158.77,41.8940568 157.636334,43 156.27,43 C154.874651,43 153.77,41.8940568 153.77,40.498708 C153.77,39.1330749 154.874651,38 156.27,38 Z" id="Fill-108" fill="#FFFFFF"></path>
            <path d="M1079.27078,293 C1081.22426,293 1082.77,293.90646 1082.77,295 C1082.77,296.116279 1081.22426,297 1079.27078,297 C1077.36225,297 1075.77,296.116279 1075.77,295 C1075.77,293.90646 1077.36225,293 1079.27078,293 Z" id="Fill-109" fill="#FFFFFF"></path>
            <path d="M823.770664,611 C825.410532,611 826.77,611.90646 826.77,613 C826.77,614.116279 825.410532,615 823.770664,615 C822.096246,615 820.77,614.116279 820.77,613 C820.77,611.90646 822.096246,611 823.770664,611 Z" id="Fill-110" fill="#FFFFFF"></path>
            <path d="M3.50077519,750 C5.45426357,750 7,750.878074 7,751.996376 C7,753.095004 5.45426357,754 3.50077519,754 C1.5875969,754 0,753.095004 0,751.996376 C0,750.878074 1.5875969,750 3.50077519,750 Z" id="Fill-111" fill="#FFFFFF"></path>
            <path d="M415.269225,610 C417.224264,610 418.77,611.134367 418.77,612.5 C418.77,613.895349 417.224264,615 415.269225,615 C413.357597,615 411.77,613.895349 411.77,612.5 C411.77,611.134367 413.357597,610 415.269225,610 Z" id="Fill-112" fill="#FFFFFF"></path>
            <path d="M801.248949,60 C803.213751,60 804.77,61.1343669 804.77,62.5 C804.77,63.8966408 803.213751,65 801.248949,65 C799.324689,65 797.77,63.8966408 797.77,62.5 C797.77,61.1343669 799.324689,60 801.248949,60 Z" id="Fill-113" fill="#FFFFFF"></path>
            <path d="M1163.77066,605 C1165.41452,605 1166.77,606.36124 1166.77,608 C1166.77,609.674419 1165.41452,611 1163.77066,611 C1162.09625,611 1160.77,609.674419 1160.77,608 C1160.77,606.36124 1162.09625,605 1163.77066,605 Z" id="Fill-114" fill="#FFFFFF"></path>
        </g>
        <g id="Group-115" transform="translate(0.000000, 234.000000)">
            <path d="M519.218191,284.082121 C497.988345,265.292727 424.919694,256.497273 414.821206,258.844242 C409.771962,256.127576 402.816,253.360909 394.466724,254.110909 C384.051712,248.900303 371.885972,248.900303 363.736607,250.633636 C347.19859,239.656364 314.56024,236.627576 307.045438,238.292727 C297.464899,233.860909 287.089262,231.883636 275.679243,233.110909 C262.798672,231.27 249.640954,230.548788 236.044039,232.156364 C200.025391,224.315455 130.733829,214.089697 61.362,208.77 C206.863224,228.639697 474.056685,278.889697 664.362,310.77 C594.029997,295.02 533.011987,285.27 519.218191,284.082121 Z" id="Fill-2" fill="#374858"></path>
            <path d="M1080.476,216.272 C1074.465,208.533 1058.242,203.943 1047.9,206.35 C1042.702,203.583 1035.589,200.748 1027.031,201.513 C1027.215,198.745 1023.776,194.177 1015.455,195.955 C1007.738,192.85 1000.02,192.783 992.302,194.493 C982.485,189.948 971.854,187.945 960.146,189.183 C946.943,187.293 933.476,186.573 919.511,188.215 C905.966,186.033 892.08,185.088 877.748,185.785 L1008.682,203.695 C985.556,200.973 962.955,198.835 940.957,197.395 L1122.945,227.882 C1110.765,221.223 1094.625,217.488 1080.476,216.272 Z" id="Fill-5" fill="#374858"></path>
            <path d="M535.663565,50.953963 C525.857572,38.3369019 499.392322,30.8537245 482.52099,34.7779093 C474.041278,30.2668086 462.437547,25.6448461 448.476528,26.8920423 C448.776695,22.3793114 443.166512,14.932001 429.59212,17.8307133 C417.003059,12.7685639 404.412367,12.6593323 391.821675,15.4471827 C375.806797,8.03736979 358.464007,4.77183506 339.364263,6.79017355 C317.825663,3.7088652 295.85639,2.53503344 273.074708,5.21202197 C250.97819,1.65465963 228.325384,0.114005453 204.945,1.2503398 L418.543046,30.4494047 C380.816646,26.0116685 343.946701,22.5260403 308.060454,20.1783768 L604.945,69.882 C585.075263,59.0256866 558.745414,52.9364344 535.663565,50.953963 Z" id="Fill-5" fill="#374858"></path>
            <path d="M839.609,359.035 C825.591,346.638 777.37,340.832 770.703,342.385 C767.342,340.585 762.775,338.763 757.236,339.257 C750.359,335.815 742.326,335.815 736.971,336.963 C726.025,329.718 704.5,327.715 699.512,328.817 C693.213,325.893 686.335,324.588 678.801,325.397 C670.296,324.183 661.634,323.71 652.63,324.768 C628.847,319.593 583.094,312.843 537.314,309.332 C633.362,322.45 809.815,355.615 935.447,376.653 C889.037,366.257 848.744,359.823 839.609,359.035 Z" id="Fill-7" fill="#374858"></path>
            <path d="M768.997778,582 C1031.32971,582 1287.76328,607.254437 1536,655.464771 L1535.98047,790 L0,790 L0,655.852859 C248.857901,607.389976 505.962833,582 768.997778,582 Z" id="Path" fill="#007D7D"></path>
            <path d="M597.803245,677.400769 C741.651827,664.203929 885.50041,660.825076 1029.34899,662.386078 C944.32583,646.795967 853.238728,645.029884 753.384712,663.173548 C697.499262,661.023188 645.052779,664.786318 597.803245,677.400769 Z M1387.00147,657.036062 C1486.33382,672.728743 1536,684.154872 1536,691.314449 C1536,713.702414 1536,746.597598 1536,790 L0,790 L0,765.094344 C59.9544092,756.006484 457.130631,728.44594 517.452037,721.482854 C459.099612,718.276528 62.1220233,740.455091 0,752.211687 C0,731.725799 0,709.809949 0,686.464139 C70.3709967,661.112786 166.344743,641.899233 337.011815,630.93706 C480.829384,620.707705 598.223241,616 735.534888,616 C648.753743,623.097205 451.696685,642.655528 376.517625,661.112786 C848.356776,604.236755 1189.28842,631.18694 1387.00147,657.036062 Z" id="Fill-9" fill="url(#linearGradient-2)"></path>
            <path d="M1387,709.315 L1387,790 L383.3837,790 C478.435,758.365 618.006,730.7157 776.425,722.77 C934.818,714.8307 1021.705,665.106 1387,709.315 Z" id="Fill-10" fill-opacity="0.12" fill="#14283B"></path>
            <path d="M1415,677.207179 C1463.71874,677.207179 1503.59277,707.46095 1506.79283,745.735322 C1509.39453,748.566312 1511.9294,751.507432 1514.38754,754.562796 C1522.02659,755.384351 1529.22319,756.36975 1536.00127,757.510061 L1536.00127,790 L811.652,790 L813.362138,789.569412 L817.646374,788.50292 L821.943763,787.45121 C823.091538,787.172784 824.240776,786.896005 825.391525,786.620929 L828.848356,785.80087 L830.580262,785.394779 L834.051239,784.590685 C835.789151,784.191377 837.530736,783.796219 839.276155,783.405401 L842.772154,782.62961 L846.278669,781.86573 L848.03596,781.488364 L851.558791,780.742988 L855.092859,780.010369 C856.272787,779.768327 857.454637,779.528468 858.638455,779.290848 L862.195869,778.584761 C899.017855,771.359105 937.778846,766.339396 979.915,765.205 C989.837,753.6207 1004.537,746.8707 1024.356,745.36 C1036.247,734.9393 1051.052,731.95 1069.742,738.9957 C1118.117,729.7193 1157.177,738.2243 1191.962,754.8743 C1219.757,733.615 1255.247,727.99 1296.617,734.245 C1317.24117,708.127921 1346.38526,691.140326 1382.71896,681.860955 C1392.76295,678.851786 1403.64107,677.207179 1415,677.207179 Z M337,758.59 C357.354,762.156678 375.312176,768.592174 394.041763,776.455406 L396.660519,777.561722 L396.660519,777.561722 L399.2912,778.6857 L399.2912,778.6857 C457.908,778.3193 515.92,782.305 573.381,790 L166.549148,790 C180.109027,769.8143 281.350468,748.829157 337,758.59 Z M257.519572,672.335669 C284.741481,645.84641 338.063767,639.767431 382.673221,656.090573 C395.13431,660.4019 407.428267,666.634622 418.7162,675.501 C454.127,671.245 476.545,675.52 490.956,685.034 C503.380762,682.419714 517.544299,682.45849 532.26661,683.306897 L534.479,683.44 L532.116927,683.696982 L527.410447,684.218996 L522.72746,684.751716 L518.067896,685.295107 C517.29325,685.38656 516.519577,685.478455 515.746875,685.570794 L511.122311,686.130129 C510.353489,686.224234 509.585636,686.318781 508.818749,686.413768 L504.229025,686.988971 C502.702977,687.182463 501.180785,687.377711 499.662437,687.57471 L495.118915,688.170951 L492.855782,688.473 L488.346725,689.084931 L486.100784,689.394806 L481.626032,690.022352 C477.906574,690.549631 474.210845,691.087709 470.538661,691.636499 L466.143329,692.300182 C465.412653,692.411651 464.682917,692.523547 463.954117,692.635869 L459.592555,693.314913 L455.253417,694.004155 C453.089442,694.35132 450.933849,694.702296 448.786599,695.057065 L444.503209,695.771655 C441.595447,696.261445 438.703093,696.75824 435.826046,697.26199 C436.528899,701.745757 433.57139,705.319907 425.199828,707.664073 L424.78374,707.778367 L323.223543,724.139372 L321.257728,724.451301 L321.257728,724.451301 L317.30779,725.070417 L317.30779,725.070417 L313.333438,725.683209 C312.669011,725.784814 312.003568,725.886156 311.337107,725.987233 L307.326135,726.590539 L307.326135,726.590539 L303.29075,727.187521 L303.29075,727.187521 L299.230951,727.778179 L299.230951,727.778179 L295.14674,728.362512 L295.14674,728.362512 L291.038115,728.940522 L291.038115,728.940522 L286.905077,729.512208 L286.905077,729.512208 L282.747626,730.077569 L282.747626,730.077569 L278.565761,730.636607 L278.565761,730.636607 L274.359484,731.18932 C273.656403,731.280912 272.952305,731.372241 272.24719,731.463306 L268.004292,732.006533 L268.004292,732.006533 L263.736981,732.543437 L263.736981,732.543437 L259.445257,733.074016 L259.445257,733.074016 L255.12912,733.598271 L255.12912,733.598271 L250.788569,734.116203 L250.788569,734.116203 L246.423605,734.62781 L246.423605,734.62781 L242.034228,735.133093 L242.034228,735.133093 L237.620438,735.632053 L237.620438,735.632053 L233.182234,736.124688 L233.182234,736.124688 L228.719618,736.610999 L228.719618,736.610999 L224.232588,737.090986 L224.232588,737.090986 L219.721144,737.564649 C218.967203,737.643066 218.212244,737.721219 217.456268,737.799109 L212.908205,738.263286 L212.908205,738.263286 L208.335728,738.721139 L208.335728,738.721139 L203.738839,739.172668 C202.970656,739.247396 202.201456,739.321861 201.431239,739.396061 L196.797729,739.838104 L196.797729,739.838104 L192.139807,740.273823 L192.139807,740.273823 L187.457471,740.703218 L187.457471,740.703218 L182.750721,741.126289 L182.750721,741.126289 L178.019559,741.543036 L178.019559,741.543036 L173.263983,741.953459 L173.263983,741.953459 L168.483994,742.357558 L168.483994,742.357558 L163.679592,742.755332 L163.679592,742.755332 L158.850777,743.146783 C158.04394,743.211498 157.236085,743.275949 156.427214,743.340137 L151.561779,743.722101 L151.561779,743.722101 L146.67193,744.097742 L146.67193,744.097742 L141.757668,744.467059 L141.757668,744.467059 L136.818993,744.830051 L136.818993,744.830051 L131.855905,745.18672 L131.855905,745.18672 L126.868404,745.537064 L126.868404,745.537064 L121.856489,745.881085 L121.856489,745.881085 L116.820161,746.218781 L109.864829,746.67218 L106.369902,746.894408 L106.369902,746.894408 L102.863466,747.113655 L95.8160726,747.543205 L92.2751139,747.753509 L85.1586733,748.165174 L81.5831913,748.366535 L74.3977041,748.760314 L67.1661857,749.142169 L59.8886361,749.5121 L52.5650555,749.870107 L45.1954438,750.216191 L37.7798009,750.55035 L30.3181269,750.872585 L26.5700283,751.029231 L19.0393077,751.333581 L15.2566857,751.481284 L15.2566857,751.481284 L11.4625559,751.626006 L3.83977302,751.906507 L0.0111199117,752.042287 C0.0111199117,752.027804 0.0320166218,752.009952 0.073926225,751.988641 L0.185797047,751.941379 L0.185797047,751.941379 L0.353908797,751.884731 L0.684143275,751.789344 L1.12558157,751.674799 L1.67879046,751.540651 L2.3443367,751.386456 L3.55452839,751.116608 L6.74466593,750.432616 L19.299508,747.811048 L27.4482146,746.102135 L35.618367,744.371259 L43.2744793,742.732083 L48.2419986,741.659605 L57.1504237,739.719048 L62.8761319,738.460418 L68.8896678,737.129237 L75.1929442,735.724008 L81.787874,734.243232 L88.67637,732.685413 L95.8603451,731.049055 L100.814761,729.913776 L108.495452,728.14319 L116.476723,726.290072 L121.965504,725.008069 L127.589293,723.688276 L133.348656,722.33025 L142.243144,720.220551 L148.343924,718.765 L0.0111199117,740.612263 L0,725.672173 L0.0111199118,707.778367 L1.6158389,706.266324 L4.02470695,704.00455 L5.63277604,702.502986 L6.4377056,701.754627 L8.04976786,700.263652 L9.66531853,698.78153 L11.2850186,697.309696 L12.9095292,695.849584 L14.2783193,694.633199 C14.9637448,694.027468 15.650765,693.425538 16.3396002,692.827886 L17.7197561,691.638428 C17.9502072,691.441183 18.1808763,691.244449 18.4117716,691.048243 L19.7999224,689.877492 L19.7999224,689.877492 L21.193893,688.720276 C41.6833872,671.851177 64.1771226,659.623491 94.237592,664.108046 C123.258632,637.345253 150.592314,660.737557 157.843854,679.057941 C189.135225,659.465969 224.473987,663.386866 253.094935,671.099892 L253.96017,671.334761 L255.749241,671.830993 L257.519572,672.335669 Z M1387,631.349 L1388.11243,631.575322 L1390.86762,632.14795 L1390.86762,632.14795 L1393.58585,632.730327 L1395.73383,633.203249 L1397.85816,633.68241 L1399.95883,634.16781 L1401.0003,634.41285 L1401.0003,634.41285 L1403.06549,634.907609 L1405.10703,635.408608 L1407.12492,635.915846 L1408.12499,636.171805 L1408.12499,636.171805 L1410.1074,636.688403 L1412.06615,637.211239 C1412.71513,637.386558 1413.36016,637.562917 1414.00126,637.740316 L1415.9127,638.275631 L1416.85956,638.545629 L1416.85956,638.545629 L1418.73553,639.090304 L1419.66464,639.364981 L1419.66464,639.364981 L1421.50513,639.919015 C1421.80991,640.011874 1422.1137,640.104993 1422.41651,640.198372 L1424.22152,640.761765 L1425.11515,641.045802 L1425.11515,641.045802 L1426.88468,641.618554 C1428.64239,642.194426 1430.36461,642.779657 1432.05136,643.374248 L1433.72627,643.971958 L1435.37754,644.575907 C1437.29022,645.284155 1439.1546,646.005141 1440.9707,646.738866 L1442.51553,647.370893 C1446.60353,649.064618 1450.43923,650.824896 1454.02263,652.651729 L1455.35458,653.339911 C1456.89472,654.146429 1458.38658,654.965687 1459.83014,655.797683 L1461.05565,656.513942 C1463.07845,657.712907 1465.00271,658.93787 1466.82841,660.188831 C1501.53963,659.221937 1528.2284,667.198451 1536,677.755315 L1536,748.194479 L1535.91404,748.091235 L1535.73268,747.889675 L1535.55364,747.703162 L1535.26152,747.417356 L1535.07866,747.247717 L1534.8743,747.065192 L1534.64804,746.870812 L1534.39954,746.665607 L1534.12843,746.450608 L1533.83433,746.226847 L1533.51688,745.995354 L1532.99611,745.635873 L1532.99611,745.635873 L1532.42074,745.264794 L1532.42074,745.264794 L1532.0062,745.012684 L1531.56648,744.757997 L1531.1012,744.501764 L1530.61,744.245016 C1530.4419,744.159462 1530.26943,744.073994 1530.09251,743.988783 L1529.54835,743.734098 C1529.36248,743.649575 1529.17211,743.565482 1528.97717,743.481991 L1528.3786,743.233492 C1525.21458,741.96068 1520.93894,740.873652 1515.32363,740.612263 C1488.9628,687.79665 1446.18825,667.020563 1387,678.284 C1366.14,682.72 1346.91,689.624 1329.04,698.515 L1326.47389,698.041845 L1323.86853,697.569703 L1321.2236,697.098585 L1317.18134,696.393852 L1314.43615,695.925341 L1311.65031,695.457892 L1308.82352,694.991516 L1304.50587,694.293987 L1300.09434,693.598933 L1297.10065,693.136957 L1294.06447,692.676108 L1290.98548,692.216396 L1287.86339,691.757834 L1284.69787,691.300431 L1281.48863,690.844198 L1278.23535,690.389147 L1274.93773,689.935288 L1271.59545,689.482632 L1266.49764,688.805927 L1261.29763,688.13199 L1255.99437,687.460858 L1250.58684,686.792567 L1246.92336,686.348636 L1243.21277,685.905994 L1239.45475,685.464654 L1235.649,685.024625 L1231.79521,684.585918 L1227.89306,684.148545 L1223.94225,683.712516 L1219.94248,683.277841 L1215.89342,682.844533 L1211.79479,682.412601 L1205.55319,681.767308 L1201.32924,681.338866 L1197.05464,680.911838 L1190.54706,680.273972 L1186.14444,679.850528 L1181.69008,679.428537 L1174.91085,678.798297 L1170.32579,678.379985 L1163.34906,677.755315 L1158.63137,677.340749 L1153.86009,676.927702 L1146.602,676.311 C1158.625,675.764 1170.67,675.224 1182.722,674.71 L1177.67629,673.821993 L1172.67186,672.958759 L1168.69793,672.285948 L1164.75022,671.628889 L1160.82866,670.987536 C1157.57155,670.459607 1154.34159,669.947992 1151.13855,669.452572 L1147.3078,668.865835 L1143.50281,668.294599 C1140.97471,667.918932 1138.46373,667.55357 1135.96974,667.198451 L1132.2415,666.673449 C1130.38373,666.414781 1128.5355,666.161859 1126.69675,665.914656 L1123.03187,665.427868 L1119.39218,664.956287 L1115.77761,664.499866 L1112.18805,664.058562 L1110.40264,663.843563 L1106.85046,663.424847 L1103.32309,663.021132 C1102.73726,662.955094 1102.15246,662.889679 1101.56868,662.824886 L1098.07837,662.443589 L1096.34244,662.258526 L1092.88898,661.899544 L1091.17143,661.725613 L1087.75464,661.388844 C1086.61977,661.279049 1085.48895,661.171712 1084.36218,661.066827 L1080.99397,660.759516 L1077.64993,660.466865 L1074.32996,660.188831 L1071.03399,659.925366 L1067.76192,659.676426 L1064.51368,659.441964 L1061.28917,659.221937 L1058.0883,659.016297 C1057.02528,658.950143 1055.96618,658.88638 1054.911,658.825 C1091.057,655.874 1127.44,654.91 1164.19,657.25 C1181.012,646.315 1200.445,640.124 1224.385,642.175 C1217.08,640.221 1208.837,639.61 1198.442,642.175 L1196.98015,641.773967 L1195.50577,641.376902 L1194.01803,640.984085 L1192.51607,640.595799 L1190.99905,640.212323 L1189.46613,639.833939 L1187.91644,639.460928 L1186.34916,639.093571 L1184.76343,638.732149 C1183.9658,638.552968 1183.16095,638.376119 1182.34838,638.201759 L1180.71282,637.856404 L1179.05584,637.517968 L1177.3766,637.186731 C1175.96773,636.913779 1174.53478,636.648619 1173.07556,636.391984 L1171.31174,636.08816 C1166.27771,635.239185 1160.92972,634.492137 1155.18109,633.875782 L1153.13538,633.663719 C1152.10407,633.560447 1151.05996,633.461351 1150.00259,633.366589 L1147.86999,633.182888 L1146.79016,633.09546 L1144.6029,632.929621 L1143.49525,632.851281 L1141.25141,632.703935 L1140.115,632.635 C1176.895,623.545 1215.692,621.115 1256.8,626.29 C1297.907,619.971 1341.08,620.845 1387,631.349 Z M479.852,627.081 C504.193427,620.975376 524.778357,621.326962 543.592851,624.721863 L545.094271,624.999883 C546.092751,625.189471 547.086344,625.387457 548.075354,625.593323 L549.555469,625.907967 L550.293018,626.069599 L551.763243,626.401244 L553.227156,626.743737 L553.956817,626.918931 L553.956817,626.918931 L555.705885,627.35076 L557.446709,627.796763 L558.314151,628.024868 L560.043344,628.490865 C560.618509,628.648316 561.192464,628.807847 561.765274,628.969346 L563.480334,629.459636 C563.765626,629.542297 564.050649,629.625423 564.335411,629.708998 L566.040904,630.215733 L566.891418,630.472938 L568.588228,630.994599 L569.434623,631.258886 L571.123635,631.793952 L572.80794,632.337111 L574.48793,632.887685 L576.164,633.445 L579.20747,633.189401 L582.227685,632.94585 L585.224589,632.714374 L588.198123,632.494996 L591.148228,632.287744 L594.074846,632.09264 L596.977918,631.909712 L599.857387,631.738984 L602.713193,631.58048 C603.187186,631.555083 603.66019,631.530197 604.132205,631.505821 L606.952408,631.365702 L609.748804,631.237872 L612.521333,631.122355 L615.269938,631.019177 L617.994559,630.928362 C618.898762,630.900154 619.798959,630.874011 620.695139,630.849936 L623.371618,630.783924 C626.036029,630.724128 628.664202,630.68299 631.255875,630.660625 L633.835372,630.644521 L636.390477,630.640957 C637.238107,630.641862 638.081661,630.644861 638.921132,630.649959 L641.427278,630.67155 L643.908858,630.705758 C645.143496,630.726019 646.3689,630.751021 647.585037,630.780778 L650.004944,630.846634 C655.622518,631.01511 661.037795,631.287332 666.247439,631.664742 L668.467544,631.832933 L669.568135,631.921866 L671.750362,632.109424 L673.907262,632.309925 L676.038779,632.523394 L677.095,632.635 L661.245299,633.405962 L643.214214,634.302517 L630.602779,634.945914 L623.131237,635.33479 L615.724669,635.726696 L603.510298,636.388605 L593.841504,636.927957 L584.250312,637.477935 L577.100244,637.898442 L569.98139,638.326646 L565.250195,638.616754 L560.528925,638.91083 L553.462171,639.359858 L548.758801,639.664805 L540.876664,640.187176 L534.007718,640.654358 L527.137563,641.133133 L520.261254,641.624186 L515.671186,641.958714 L508.773628,642.471749 L501.856725,642.998885 L494.915532,643.540806 L490.272134,643.910637 L483.279466,644.478719 L478.597171,644.866624 L471.53929,645.462766 L464.435686,646.076654 L457.281413,646.708975 L450.071525,647.36041 L445.231593,647.805658 L440.36328,648.259908 L433.004389,648.958605 L425.573397,649.678696 L420.576903,650.17098 L413.01475,650.928248 L407.926236,651.44595 L400.219184,652.242294 L395.029491,652.78668 L387.1638,653.624 C375.839746,649.702339 361.845245,647.539435 350.002724,646.500404 L348.326095,646.359547 C347.772446,646.315098 347.224197,646.273128 346.681869,646.23357 L345.073171,646.122062 C344.543207,646.087258 344.019684,646.054797 343.503124,646.02461 L341.974854,645.940803 C341.723797,645.92795 341.474611,645.915648 341.227361,645.903889 L339.767612,645.839779 L339.767612,645.839779 L338.35745,645.788287 L338.35745,645.788287 L337,645.749 L337,645.749 L334.114953,645.716679 L334.114953,645.716679 L331.309278,645.695191 L331.309278,645.695191 L329.933348,645.689992 L329.933348,645.689992 L327.899874,645.69079 L327.899874,645.69079 L326.562837,645.69792 L326.562837,645.69792 L324.582345,645.719991 L324.582345,645.719991 L322.628501,645.757493 C322.412744,645.762592 322.19741,645.768013 321.982474,645.773769 L320.697446,645.812428 C320.484008,645.819575 320.27092,645.827081 320.058159,645.83496 L318.785324,645.886797 L318.785324,645.886797 L317.51919,645.94816 C317.098134,645.970269 316.678006,645.994063 316.258612,646.019643 L315.00245,646.101839 L315.00245,646.101839 L313.749559,646.195339 C313.332347,646.228456 312.91549,646.263556 312.498798,646.300738 L311.249022,646.418627 C309.999358,646.542959 308.749459,646.686918 307.494183,646.85317 L306.236923,647.026952 C306.027017,647.057187 305.816914,647.088066 305.606591,647.119602 L304.34181,647.316789 C298.214054,648.308885 291.860544,649.87373 284.700594,652.312576 L283.207528,652.829734 C279.695968,654.065997 275.987129,655.510794 272.015679,657.198017 C275.166964,639.976474 296.828404,626.523802 337,616.84 C389.8413,606.805 437.485,610.154 479.852,627.081 Z" id="Shape" fill="#14283C"></path>
            <path d="M1457.45998,240.485089 C1446.37921,226.222324 1416.47347,217.76308 1397.40887,222.199115 C1387.82679,217.09961 1374.71458,211.874783 1358.93863,213.284657 C1359.27781,208.183309 1352.93831,199.76461 1337.59925,203.041415 C1323.37361,197.318985 1309.14612,197.195506 1294.91864,200.346989 C1276.82183,191.970679 1257.22448,188.279205 1235.64177,190.560805 C1211.30315,187.077587 1186.47787,185.750647 1160.73457,188.776807 C1135.7655,184.755441 1110.16783,183.013832 1083.748,184.298384 L1325.11379,217.306023 C1282.48296,212.289451 1240.81992,208.349176 1200.26846,205.695296 L1535.748,261.882 C1513.2952,249.609646 1483.54247,242.726143 1457.45998,240.485089 Z" id="Fill-5" fill="#374858"></path>
        </g>
    </g>
</svg>