<?xml version="1.0" encoding="UTF-8"?>
<svg width="20px" height="15px" viewBox="0 0 20 15" version="1.1" xmlns="http://www.w3.org/2000/svg" xmlns:xlink="http://www.w3.org/1999/xlink">
    <!-- Generator: Sketch 61.2 (89653) - https://sketch.com -->
    <title>Icon</title>
    <desc>Created with Sketch.</desc>
    <defs>
        <rect id="path-1" x="0" y="0" width="6.66666667" height="10.8333333"></rect>
        <path d="M16.6666667,0 L1.66666667,0 C0.75,0 0,0.75 0,1.66666667 L0,12.5 C0,13.4166667 0.75,14.1666667 1.66666667,14.1666667 L16.6666667,14.1666667 C17.5833333,14.1666667 18.3333333,13.4166667 18.3333333,12.5 L18.3333333,1.66666667 C18.3333333,0.75 17.5833333,0 16.6666667,0 Z M8.33333333,12.5 L1.66666667,12.5 L1.66666667,1.66666667 L8.33333333,1.66666667 L8.33333333,12.5 Z M16.6666667,12.5 L10,12.5 L10,1.66666667 L16.6666667,1.66666667 L16.6666667,12.5 Z" id="path-3"></path>
        <rect id="path-5" x="0" y="0.416666667" width="5" height="1.25"></rect>
        <rect id="path-7" x="0" y="0" width="5" height="1.25"></rect>
        <rect id="path-9" x="0" y="0.416666667" width="5" height="1.25"></rect>
    </defs>
    <g id="Dashboard---Landing-Page" stroke="none" stroke-width="1" fill="none" fill-rule="evenodd">
        <g id="Dashboard---landing" transform="translate(-464.000000, -741.000000)">
            <g id="icon/action/chrome_reader_mode_24px" transform="translate(464.000000, 738.000000)">
                <g id="↳-Light-Color" transform="translate(2.500000, 5.000000)">
                    <mask id="mask-2" fill="white">
                        <use xlink:href="#path-1"></use>
                    </mask>
                    <g id="Mask" opacity="0.3" fill-rule="nonzero"></g>
                </g>
                <g id="↳-Dark-Color" transform="translate(0.833333, 3.333333)">
                    <mask id="mask-4" fill="white">
                        <use xlink:href="#path-3"></use>
                    </mask>
                    <g id="Mask" fill-rule="nonzero"></g>
                    <g id="colours-/-highlight" mask="url(#mask-4)" fill="#FFFFFF" fill-rule="nonzero">
                        <rect id="Rectangle" x="0" y="0" width="84.1666667" height="84.1666667"></rect>
                    </g>
                </g>
                <g id="↳-Dark-Color" transform="translate(11.666667, 7.500000)">
                    <mask id="mask-6" fill="white">
                        <use xlink:href="#path-5"></use>
                    </mask>
                    <g id="Mask" fill-rule="nonzero"></g>
                    <g id="colours-/-highlight" mask="url(#mask-6)" fill="#FFFFFF" fill-rule="nonzero">
                        <g transform="translate(-10.833333, -4.166667)" id="Rectangle">
                            <rect x="0" y="0" width="84.1666667" height="84.1666667"></rect>
                        </g>
                    </g>
                </g>
                <g id="↳-Dark-Color" transform="translate(11.666667, 10.000000)">
                    <mask id="mask-8" fill="white">
                        <use xlink:href="#path-7"></use>
                    </mask>
                    <g id="Mask" fill-rule="nonzero"></g>
                    <g id="colours-/-highlight" mask="url(#mask-8)" fill="#FFFFFF" fill-rule="nonzero">
                        <g transform="translate(-10.833333, -6.666667)" id="Rectangle">
                            <rect x="0" y="0" width="84.1666667" height="84.1666667"></rect>
                        </g>
                    </g>
                </g>
                <g id="↳-Dark-Color" transform="translate(11.666667, 11.666667)">
                    <mask id="mask-10" fill="white">
                        <use xlink:href="#path-9"></use>
                    </mask>
                    <g id="Mask" fill-rule="nonzero"></g>
                    <g id="colours-/-highlight" mask="url(#mask-10)" fill="#FFFFFF" fill-rule="nonzero">
                        <g transform="translate(-10.833333, -8.333333)" id="Rectangle">
                            <rect x="0" y="0" width="84.1666667" height="84.1666667"></rect>
                        </g>
                    </g>
                </g>
            </g>
        </g>
    </g>
</svg>