<?xml version="1.0" encoding="UTF-8"?>
<svg width="395px" height="345px" viewBox="0 0 395 345" version="1.1" xmlns="http://www.w3.org/2000/svg" xmlns:xlink="http://www.w3.org/1999/xlink">
    <defs>
        <ellipse id="path-1" cx="187.734375" cy="187.203323" rx="192.741779" ry="176.834611"></ellipse>
    </defs>
    <g id="Sandbox-Features-Diagonal" stroke="none" stroke-width="1" fill="none" fill-rule="evenodd">
        <g id="Group-2" transform="translate(-59.370237, -83.370237)">
            <g id="oval" opacity="0.5" transform="translate(256.500000, 256.500000) rotate(-30.000000) translate(-256.500000, -256.500000) translate(69.000000, 69.000000)">
                <g id="Group-5">
                    <mask id="mask-2" fill="white">
                        <use xlink:href="#path-1"></use>
                    </mask>
                    <g id="Oval-2"></g>
                    <rect id="Rectangle" fill="#FFFFFF" mask="url(#mask-2)" x="0" y="0" width="375" height="1.18670886"></rect>
                    <rect id="Rectangle" fill="#FFFFFF" mask="url(#mask-2)" x="0" y="5.9335443" width="375" height="1.18670886"></rect>
                    <rect id="Rectangle" fill="#FFFFFF" mask="url(#mask-2)" x="0" y="11.8670886" width="375" height="1.18670886"></rect>
                    <rect id="Rectangle" fill="#FFFFFF" mask="url(#mask-2)" x="0" y="17.8006329" width="375" height="1.18670886"></rect>
                    <rect id="Rectangle" fill="#FFFFFF" mask="url(#mask-2)" x="0" y="23.7341772" width="375" height="1.18670886"></rect>
                    <rect id="Rectangle" fill="#FFFFFF" mask="url(#mask-2)" x="0" y="77.1360759" width="375" height="1.18670886"></rect>
                    <rect id="Rectangle" fill="#FFFFFF" mask="url(#mask-2)" x="0" y="83.0696203" width="375" height="1.18670886"></rect>
                    <rect id="Rectangle" fill="#FFFFFF" mask="url(#mask-2)" x="0" y="89.0031646" width="375" height="1.18670886"></rect>
                    <rect id="Rectangle" fill="#FFFFFF" mask="url(#mask-2)" x="0" y="47.4683544" width="375" height="1.18670886"></rect>
                    <rect id="Rectangle" fill="#FFFFFF" mask="url(#mask-2)" x="0" y="53.4018987" width="375" height="1.18670886"></rect>
                    <rect id="Rectangle" fill="#FFFFFF" mask="url(#mask-2)" x="0" y="59.335443" width="375" height="1.18670886"></rect>
                    <rect id="Rectangle" fill="#FFFFFF" mask="url(#mask-2)" x="0" y="65.2689873" width="375" height="1.18670886"></rect>
                    <rect id="Rectangle" fill="#FFFFFF" mask="url(#mask-2)" x="0" y="71.2025316" width="375" height="1.18670886"></rect>
                    <rect id="Rectangle" fill="#FFFFFF" mask="url(#mask-2)" x="0" y="29.6677215" width="375" height="1.18670886"></rect>
                    <rect id="Rectangle" fill="#FFFFFF" mask="url(#mask-2)" x="0" y="35.6012658" width="375" height="1.18670886"></rect>
                    <rect id="Rectangle" fill="#FFFFFF" mask="url(#mask-2)" x="0" y="41.5348101" width="375" height="1.18670886"></rect>
                    <rect id="Rectangle" fill="#FFFFFF" mask="url(#mask-2)" x="0" y="94.9367089" width="375" height="1.18670886"></rect>
                    <rect id="Rectangle" fill="#FFFFFF" mask="url(#mask-2)" x="0" y="100.870253" width="375" height="1.18670886"></rect>
                    <rect id="Rectangle" fill="#FFFFFF" mask="url(#mask-2)" x="0" y="106.803797" width="375" height="1.18670886"></rect>
                    <rect id="Rectangle" fill="#FFFFFF" mask="url(#mask-2)" x="0" y="112.737342" width="375" height="1.18670886"></rect>
                    <rect id="Rectangle" fill="#FFFFFF" mask="url(#mask-2)" x="0" y="118.670886" width="375" height="1.18670886"></rect>
                    <rect id="Rectangle" fill="#FFFFFF" mask="url(#mask-2)" x="0" y="172.072785" width="375" height="1.18670886"></rect>
                    <rect id="Rectangle" fill="#FFFFFF" mask="url(#mask-2)" x="0" y="178.006329" width="375" height="1.18670886"></rect>
                    <rect id="Rectangle" fill="#FFFFFF" mask="url(#mask-2)" x="0" y="183.939873" width="375" height="1.18670886"></rect>
                    <rect id="Rectangle" fill="#FFFFFF" mask="url(#mask-2)" x="0" y="142.405063" width="375" height="1.18670886"></rect>
                    <rect id="Rectangle" fill="#FFFFFF" mask="url(#mask-2)" x="0" y="148.338608" width="375" height="1.18670886"></rect>
                    <rect id="Rectangle" fill="#FFFFFF" mask="url(#mask-2)" x="0" y="154.272152" width="375" height="1.18670886"></rect>
                    <rect id="Rectangle" fill="#FFFFFF" mask="url(#mask-2)" x="0" y="160.205696" width="375" height="1.18670886"></rect>
                    <rect id="Rectangle" fill="#FFFFFF" mask="url(#mask-2)" x="0" y="166.139241" width="375" height="1.18670886"></rect>
                    <rect id="Rectangle" fill="#FFFFFF" mask="url(#mask-2)" x="0" y="124.60443" width="375" height="1.18670886"></rect>
                    <rect id="Rectangle" fill="#FFFFFF" mask="url(#mask-2)" x="0" y="130.537975" width="375" height="1.18670886"></rect>
                    <rect id="Rectangle" fill="#FFFFFF" mask="url(#mask-2)" x="0" y="136.471519" width="375" height="1.18670886"></rect>
                    <rect id="Rectangle" fill="#FFFFFF" mask="url(#mask-2)" x="0" y="189.873418" width="375" height="1.18670886"></rect>
                    <rect id="Rectangle" fill="#FFFFFF" mask="url(#mask-2)" x="0" y="195.806962" width="375" height="1.18670886"></rect>
                    <rect id="Rectangle" fill="#FFFFFF" mask="url(#mask-2)" x="0" y="201.740506" width="375" height="1.18670886"></rect>
                    <rect id="Rectangle" fill="#FFFFFF" mask="url(#mask-2)" x="0" y="207.674051" width="375" height="1.18670886"></rect>
                    <rect id="Rectangle" fill="#FFFFFF" mask="url(#mask-2)" x="0" y="213.607595" width="375" height="1.18670886"></rect>
                    <rect id="Rectangle" fill="#FFFFFF" mask="url(#mask-2)" x="0" y="267.009494" width="375" height="1.18670886"></rect>
                    <rect id="Rectangle" fill="#FFFFFF" mask="url(#mask-2)" x="0" y="272.943038" width="375" height="1.18670886"></rect>
                    <rect id="Rectangle" fill="#FFFFFF" mask="url(#mask-2)" x="0" y="278.876582" width="375" height="1.18670886"></rect>
                    <rect id="Rectangle" fill="#FFFFFF" mask="url(#mask-2)" x="0" y="237.341772" width="375" height="1.18670886"></rect>
                    <rect id="Rectangle" fill="#FFFFFF" mask="url(#mask-2)" x="0" y="243.275316" width="375" height="1.18670886"></rect>
                    <rect id="Rectangle" fill="#FFFFFF" mask="url(#mask-2)" x="0" y="249.208861" width="375" height="1.18670886"></rect>
                    <rect id="Rectangle" fill="#FFFFFF" mask="url(#mask-2)" x="0" y="255.142405" width="375" height="1.18670886"></rect>
                    <rect id="Rectangle" fill="#FFFFFF" mask="url(#mask-2)" x="0" y="261.075949" width="375" height="1.18670886"></rect>
                    <rect id="Rectangle" fill="#FFFFFF" mask="url(#mask-2)" x="0" y="219.541139" width="375" height="1.18670886"></rect>
                    <rect id="Rectangle" fill="#FFFFFF" mask="url(#mask-2)" x="0" y="225.474684" width="375" height="1.18670886"></rect>
                    <rect id="Rectangle" fill="#FFFFFF" mask="url(#mask-2)" x="0" y="231.408228" width="375" height="1.18670886"></rect>
                    <rect id="Rectangle" fill="#FFFFFF" mask="url(#mask-2)" x="0" y="284.810127" width="375" height="1.18670886"></rect>
                    <rect id="Rectangle" fill="#FFFFFF" mask="url(#mask-2)" x="0" y="290.743671" width="375" height="1.18670886"></rect>
                    <rect id="Rectangle" fill="#FFFFFF" mask="url(#mask-2)" x="0" y="296.677215" width="375" height="1.18670886"></rect>
                    <rect id="Rectangle" fill="#FFFFFF" mask="url(#mask-2)" x="0" y="302.610759" width="375" height="1.18670886"></rect>
                    <rect id="Rectangle" fill="#FFFFFF" mask="url(#mask-2)" x="0" y="308.544304" width="375" height="1.18670886"></rect>
                    <rect id="Rectangle" fill="#FFFFFF" mask="url(#mask-2)" x="0" y="361.946203" width="375" height="1.18670886"></rect>
                    <rect id="Rectangle" fill="#FFFFFF" mask="url(#mask-2)" x="0" y="367.879747" width="375" height="1.18670886"></rect>
                    <rect id="Rectangle" fill="#FFFFFF" mask="url(#mask-2)" x="0" y="373.813291" width="375" height="1.18670886"></rect>
                    <rect id="Rectangle" fill="#FFFFFF" mask="url(#mask-2)" x="0" y="332.278481" width="375" height="1.18670886"></rect>
                    <rect id="Rectangle" fill="#FFFFFF" mask="url(#mask-2)" x="0" y="338.212025" width="375" height="1.18670886"></rect>
                    <rect id="Rectangle" fill="#FFFFFF" mask="url(#mask-2)" x="0" y="344.14557" width="375" height="1.18670886"></rect>
                    <rect id="Rectangle" fill="#FFFFFF" mask="url(#mask-2)" x="0" y="350.079114" width="375" height="1.18670886"></rect>
                    <rect id="Rectangle" fill="#FFFFFF" mask="url(#mask-2)" x="0" y="356.012658" width="375" height="1.18670886"></rect>
                    <rect id="Rectangle" fill="#FFFFFF" mask="url(#mask-2)" x="0" y="314.477848" width="375" height="1.18670886"></rect>
                    <rect id="Rectangle" fill="#FFFFFF" mask="url(#mask-2)" x="0" y="320.411392" width="375" height="1.18670886"></rect>
                    <rect id="Rectangle" fill="#FFFFFF" mask="url(#mask-2)" x="0" y="326.344937" width="375" height="1.18670886"></rect>
                </g>
            </g>
            <g id="illustration" transform="translate(287.574758, 232.500000) scale(-1, 1) translate(-287.574758, -232.500000) translate(125.074758, 95.500000)">
                <path d="M234.054175,101.250453 C210.171913,96.8778085 193.056076,104.443474 179.704315,116.084726 C166.351116,127.727413 162.122819,145.975707 121.544388,154.221593 C80.9659569,162.47035 67.0924853,181.812164 64.2496668,206.224064 C61.4068484,230.635965 80.6325222,266.316 125.653396,266.316 L214.871618,266.316 C231.232915,266.316 268.096136,262.560433 283.894043,226.505846 C299.691951,190.449824 301.761545,113.64368 234.054175,101.250453 Z" id="Fill-2" fill="#FFFFFF"></path>
                <path d="M253.073008,120.025539 C248.87977,113.256816 246.462914,110.844741 236.785437,108.591847 C227.106524,106.340386 191.403687,118.25592 182.704154,123.510284 C174.006057,128.764649 161.149187,146.779204 145.928594,156.177977 C130.706565,165.579619 93.3106363,172.239354 87.3510685,214.023312 C82.9409883,244.950067 100.266816,259.557315 118.108183,265.875746 C120.800759,266.159688 123.593857,266.316 126.498967,266.316 L169.412164,266.316 C174.020417,252.748439 187.226245,229.850939 215.332429,205.766044 C254.16727,172.488879 257.267682,126.794262 253.073008,120.025539 Z" id="Fill-3" fill="#E0F4F5"></path>
                <path d="M234.054175,101.250453 C210.171913,96.8778085 193.056076,104.443474 179.704315,116.084726 C166.351116,127.727413 162.122819,145.975707 121.544388,154.221593 C80.9659569,162.47035 67.0924853,181.812164 64.2496668,206.224064 C61.4068484,230.635965 80.6325222,266.316 125.653396,266.316 L214.871618,266.316 C231.232915,266.316 268.096136,262.560433 283.894043,226.505846 C299.691951,190.449824 301.761545,113.64368 234.054175,101.250453 Z" id="Stroke-4" stroke="#2DB7BA" stroke-width="0.75" stroke-linecap="round" stroke-linejoin="round"></path>
                <path d="M63.682084,218.688 L45.832,242.373157 L47.8517871,250.831098 L56.5279522,254.976 C56.5279522,254.976 57.5392843,251.429075 59.9201587,248.292984 C62.301033,245.155432 75.316,228.764426 75.316,228.764426 L63.682084,218.688 Z" id="Fill-5" fill="#FFFFFF"></path>
                <path d="M63.682084,218.688 L45.832,242.373157 L47.8517871,250.831098 L56.5279522,254.976 C56.5279522,254.976 57.5392843,251.429075 59.9201587,248.292984 C62.301033,245.155432 75.316,228.764426 75.316,228.764426 L63.682084,218.688 Z" id="Stroke-6" stroke="#2DB7BA" stroke-width="0.75" stroke-linecap="round" stroke-linejoin="round"></path>
                <polygon id="Fill-7" fill="#FFFFFF" points="51.88 268.519813 48.8120757 273.12 0.472 244.459063 3.53850199 239.856 18.7757171 248.898194"></polygon>
                <path d="M39.1547275,238.303458 C43.3945888,237.820322 44.8560182,236.166168 46.2159197,237.126549 C47.588691,238.106079 48.11492,241.028467 45.4108466,242.88 C44.6215031,242.368877 43.6419736,242.052187 42.2091436,241.841551 C39.229086,241.374617 27.1687184,239.822098 24.4803747,239.582003 C21.790601,239.340435 21.3087011,241.224373 21.3087011,241.224373 C21.3230008,239.627665 21.0441566,238.528824 20.884,238.03243 C20.884,238.03243 21.5861153,236.661088 23.9670155,237.06763 C26.3350459,237.474172 34.930596,238.770392 39.1547275,238.303458 Z" id="Fill-8" fill="#E0F4F5"></path>
                <path d="M23.9835187,239.876366 C26.6801876,240.104938 38.7779035,241.58294 41.7671897,242.027463 C43.2044569,242.227989 44.1870197,242.529479 44.9788076,243.01607 C45.8451843,243.532109 46.4748851,244.278121 47.1633964,245.423783 C48.4988212,247.632373 50.506979,249.954548 53.0731177,251.344207 C55.6363875,252.733865 57.0148444,252.419755 57.1640218,254.611517 C57.2959865,256.804682 55.799909,263.169628 52.0016221,267.828 L18.616,248.693899 C20.3028525,245.768744 20.7719008,243.274089 20.8020231,241.439908 C20.8020231,241.439908 21.2854154,239.646393 23.9835187,239.876366 Z" id="Fill-9" fill="#FFFFFF"></path>
                <path d="M21.2174687,238.18957 C21.3766088,238.682601 21.653683,239.774 21.6394741,241.359894 C21.6096353,243.2735 21.1450031,245.876179 19.4740323,248.928 L4.252,239.728647 C4.252,239.728647 8.17508702,232.909598 21.1165852,237.905748 C21.1165852,237.905748 21.1592121,238.009621 21.2174687,238.18957 Z" id="Fill-10" fill="#FFFFFF"></path>
                <polygon id="Stroke-11" stroke="#2DB7BA" stroke-width="0.75" stroke-linecap="round" stroke-linejoin="round" points="51.88 268.519813 18.7757171 248.898194 3.53850199 239.856 0.472 244.459063 48.8120757 273.12"></polygon>
                <path d="M4.252,239.728647 C4.252,239.728647 8.17508702,232.909598 21.1165852,237.905748 C21.1165852,237.905748 21.1592121,238.009621 21.2174687,238.18957 C21.3766088,238.682601 21.653683,239.774 21.6394741,241.359894 C21.6096353,243.2735 21.1450031,245.876179 19.4740323,248.928" id="Stroke-12" stroke="#2DB7BA" stroke-width="0.75" stroke-linecap="round" stroke-linejoin="round"></path>
                <path d="M20.884,241.439908 C20.884,241.439908 21.3663027,239.646393 24.0583246,239.876366 C26.7489153,240.104938 38.8193633,241.58294 41.8019117,242.027463 C43.2359393,242.227989 44.2162875,242.529479 45.0062908,243.01607 C45.8707146,243.532109 46.4989961,244.278121 47.1859555,245.423783 C48.5183703,247.632373 50.5220017,249.954548 53.0823564,251.344207 C55.6398488,252.733865 57.0151986,252.419755 57.1640398,254.611517 C57.295707,256.804682 55.8030016,263.169628 52.013276,267.828" id="Stroke-13" stroke="#2DB7BA" stroke-width="0.75" stroke-linecap="round" stroke-linejoin="round"></path>
                <path d="M20.884,238.03243 C20.884,238.03243 21.5861153,236.661088 23.9670155,237.06763 C26.3350459,237.474172 34.930596,238.770392 39.1547275,238.303458 C43.3945888,237.820322 44.8560182,236.166168 46.2159197,237.126549 C47.588691,238.106079 48.11492,241.028467 45.4108466,242.88" id="Stroke-14" stroke="#2DB7BA" stroke-width="0.75" stroke-linecap="round" stroke-linejoin="round"></path>
                <path d="M26.9284094,241.724228 C26.9730813,242.30814 26.5957208,242.824626 26.0866955,242.87587 C25.5764946,242.927114 25.1262482,242.495586 25.0827518,241.908976 L24.6677728,236.475761 C24.6219253,235.8905 24.9992858,235.375363 25.5083111,235.324119 C26.018512,235.272875 26.4687583,235.705752 26.5134303,236.288316 L26.9284094,241.724228 Z" id="Fill-15" fill="#FFFFFF"></path>
                <path d="M26.9284094,241.724228 C26.9730813,242.30814 26.5957208,242.824626 26.0866955,242.87587 C25.5764946,242.927114 25.1262482,242.495586 25.0827518,241.908976 L24.6677728,236.475761 C24.6219253,235.8905 24.9992858,235.375363 25.5083111,235.324119 C26.018512,235.272875 26.4687583,235.705752 26.5134303,236.288316 L26.9284094,241.724228 Z" id="Stroke-16" stroke="#2DB7BA" stroke-width="0.75" stroke-linecap="round" stroke-linejoin="round"></path>
                <path d="M31.4645116,243.192464 C31.5077923,243.798684 31.1433233,244.335062 30.6501513,244.388141 C30.1547013,244.438427 29.7184775,243.991445 29.6763358,243.385225 L29.2036652,237.27414 C29.1592455,236.66792 29.5237145,236.135732 30.0180255,236.079859 C30.5111975,236.029573 30.9474213,236.476556 30.9907019,237.081378 L31.4645116,243.192464 Z" id="Fill-17" fill="#FFFFFF"></path>
                <path d="M31.4645116,243.192464 C31.5077923,243.798684 31.1433233,244.335062 30.6501513,244.388141 C30.1547013,244.438427 29.7184775,243.991445 29.6763358,243.385225 L29.2036652,237.27414 C29.1592455,236.66792 29.5237145,236.135732 30.0180255,236.079859 C30.5111975,236.029573 30.9474213,236.476556 30.9907019,237.081378 L31.4645116,243.192464 Z" id="Stroke-18" stroke="#2DB7BA" stroke-width="0.75" stroke-linecap="round" stroke-linejoin="round"></path>
                <path d="M36.756786,243.913245 C36.7976383,244.538507 36.4443207,245.090294 35.9662377,245.1436 C35.4870507,245.198346 35.0641736,244.735883 35.0233213,244.112061 L34.495553,237.311977 C34.4524924,236.686715 34.8058101,236.136369 35.2849971,236.080182 C35.7641842,236.026876 36.1870613,236.48934 36.2279136,237.113161 L36.756786,243.913245 Z" id="Fill-19" fill="#FFFFFF"></path>
                <path d="M36.756786,243.913245 C36.7976383,244.538507 36.4443207,245.090294 35.9662377,245.1436 C35.4870507,245.198346 35.0641736,244.735883 35.0233213,244.112061 L34.495553,237.311977 C34.4524924,236.686715 34.8058101,236.136369 35.2849971,236.080182 C35.7641842,236.026876 36.1870613,236.48934 36.2279136,237.113161 L36.756786,243.913245 Z" id="Stroke-20" stroke="#2DB7BA" stroke-width="0.75" stroke-linecap="round" stroke-linejoin="round"></path>
                <path d="M42.0465318,245.489199 C42.1143786,246.079237 41.5430378,246.603716 40.7681569,246.655617 C39.9950614,246.708884 39.3112379,246.270453 39.2451766,245.676318 L38.2774682,238.75976 C38.2096214,238.16699 38.7809622,237.643877 39.5558431,237.591976 C40.3289386,237.54144 41.0127621,237.978505 41.0806088,238.569909 L42.0465318,245.489199 Z" id="Fill-21" fill="#FFFFFF"></path>
                <path d="M42.0465318,245.489199 C42.1143786,246.079237 41.5430378,246.603716 40.7681569,246.655617 C39.9950614,246.708884 39.3112379,246.270453 39.2451766,245.676318 L38.2774682,238.75976 C38.2096214,238.16699 38.7809622,237.643877 39.5558431,237.591976 C40.3289386,237.54144 41.0127621,237.978505 41.0806088,238.569909 L42.0465318,245.489199 Z" id="Stroke-22" stroke="#2DB7BA" stroke-width="0.75" stroke-linecap="round" stroke-linejoin="round"></path>
                <path d="M103.974878,157.452 L60.952,221.185373 L77.7296044,236.076 L115.714903,188.40362 C115.714903,188.40362 138.949951,198.538196 144.451744,198.538196 L172.199982,198.538196 C174.824796,198.538196 185.461596,196.765434 189.41601,185.776031 C191.410411,180.222525 194.508035,166.289993 176.953875,157.452 L103.974878,157.452 Z" id="Fill-23" fill="#FFFFFF"></path>
                <path d="M176.914766,157.452 L103.73234,157.452 L88.168,180.298106 L108.054092,197.472232 L115.50509,188.206099 C115.50509,188.206099 138.804906,198.276 144.322035,198.276 L172.147621,198.276 C174.779752,198.276 185.446203,196.514551 189.41164,185.595278 C191.411599,180.077212 194.517858,166.233592 176.914766,157.452 Z" id="Fill-24" fill="#E0F4F5"></path>
                <path d="M103.974878,157.452 L60.952,221.185373 L77.7296044,236.076 L115.714903,188.40362 C115.714903,188.40362 138.949951,198.538196 144.451744,198.538196 L172.199982,198.538196 C174.824796,198.538196 185.461596,196.765434 189.41601,185.776031 C191.410411,180.222525 194.508035,166.289993 176.953875,157.452 L103.974878,157.452 Z" id="Stroke-25" stroke="#2DB7BA" stroke-width="0.75" stroke-linecap="round" stroke-linejoin="round"></path>
                <path d="M116.14,188.448 C116.14,188.448 119.46219,178.358725 116.2576,170.304" id="Stroke-26" stroke="#2DB7BA" stroke-width="0.75" stroke-linecap="round" stroke-linejoin="round"></path>
                <line x1="64.732" y1="215.664" x2="82.12" y2="230.784" id="Stroke-27" stroke="#2DB7BA" stroke-width="0.75" stroke-linecap="round" stroke-linejoin="round"></line>
                <path d="M236.091438,57.1206361 C234.319319,69.8569309 233.476133,73.7488912 237.49913,80.1396909 C241.517841,86.5319065 245.726625,96.2582677 238.338029,103.02 L203.836,103.02 L203.836,56.148 L236.091438,57.1206361 Z" id="Fill-28" fill="#2DB7BA"></path>
                <path d="M236.091438,57.1206361 C234.319319,69.8569309 233.476133,73.7488912 237.49913,80.1396909 C241.517841,86.5319065 245.726625,96.2582677 238.338029,103.02 L203.836,103.02 L203.836,56.148 L236.091438,57.1206361 Z" id="Stroke-29" stroke="#2DB7BA" stroke-width="0.75" stroke-linecap="round" stroke-linejoin="round"></path>
                <path d="M200.020537,88.656 C197.737815,90.6385457 189.999919,94.1982467 188.302658,95.3227398 C186.603955,96.4472328 178.237337,107.070469 177.105349,111.756096 C175.973361,116.441722 177.043342,125.689782 176.162266,131.813614 C175.282632,137.936013 166.792,161.993002 166.792,161.993002 L208.679886,185.424 C208.679886,185.424 211.137093,177.300433 211.637475,170.6781 C212.142183,164.055767 213.775995,158.430437 218.935554,151.55742 C224.092228,144.684404 239.912663,118.036067 241.136941,110.9138 C242.365544,103.790101 241.458512,100.697387 236.923349,96.6348871 C234.071028,94.0793513 225.160767,89.7002745 225.160767,89.7002745 L200.020537,88.656 Z" id="Fill-30" fill="#FFFFFF"></path>
                <path d="M200.020537,88.656 C197.737815,90.6385457 189.999919,94.1982467 188.302658,95.3227398 C186.603955,96.4472328 178.237337,107.070469 177.105349,111.756096 C175.973361,116.441722 177.043342,125.689782 176.162266,131.813614 C175.282632,137.936013 166.792,161.993002 166.792,161.993002 L208.679886,185.424 C208.679886,185.424 211.137093,177.300433 211.637475,170.6781 C212.142183,164.055767 213.775995,158.430437 218.935554,151.55742 C224.092228,144.684404 239.912663,118.036067 241.136941,110.9138 C242.365544,103.790101 241.458512,100.697387 236.923349,96.6348871 C234.071028,94.0793513 225.160767,89.7002745 225.160767,89.7002745 L200.020537,88.656 Z" id="Stroke-31" stroke="#2DB7BA" stroke-width="0.75" stroke-linecap="round" stroke-linejoin="round"></path>
                <path d="M88.0338805,218.688 L73.804,242.373157 L77.0337897,250.831098 L86.2302133,254.976 C86.2302133,254.976 86.7146105,251.429075 88.6180066,248.292984 C90.5185533,245.155432 101.02,228.764426 101.02,228.764426 L88.0338805,218.688 Z" id="Fill-32" fill="#FFFFFF"></path>
                <path d="M88.0338805,218.688 L73.804,242.373157 L77.0337897,250.831098 L86.2302133,254.976 C86.2302133,254.976 86.7146105,251.429075 88.6180066,248.292984 C90.5185533,245.155432 101.02,228.764426 101.02,228.764426 L88.0338805,218.688 Z" id="Stroke-33" stroke="#2DB7BA" stroke-width="0.75" stroke-linecap="round" stroke-linejoin="round"></path>
                <polygon id="Fill-34" fill="#FFFFFF" points="82.12 268.519813 79.0534132 273.12 30.712 244.459063 33.7785868 239.856 49.0148012 248.898194"></polygon>
                <path d="M68.6407879,238.303458 C72.8779354,237.820322 74.3408452,236.166168 75.6993636,237.126549 C77.0721823,238.106079 77.5998594,241.028467 74.8942627,242.88 C74.106322,242.368877 73.1253287,242.052187 71.6924493,241.841551 C68.7122888,241.374617 56.6529353,239.822098 53.9630688,239.582003 C51.2732023,239.340435 50.7927158,241.224373 50.7927158,241.224373 C50.807016,239.627665 50.5281622,238.528824 50.368,238.03243 C50.368,238.03243 51.0701395,236.661088 53.4525518,237.06763 C55.820664,237.474172 64.4150806,238.770392 68.6407879,238.303458 Z" id="Fill-35" fill="#E0F4F5"></path>
                <path d="M54.2234955,239.876366 C56.9215871,240.104938 69.0178163,241.58294 72.0070895,242.027463 C73.4443505,242.227989 74.4283435,242.529479 75.2186936,243.01607 C76.0836321,243.532109 76.7147646,244.278121 77.4032729,245.423783 C78.7401264,247.632373 80.7482754,249.954548 83.3115342,251.344207 C85.8776618,252.733865 87.2561126,252.419755 87.403855,254.611517 C87.5372535,256.804682 86.0411825,263.169628 82.2414776,267.828 L48.856,248.693899 C50.545714,245.768744 51.0133258,243.274089 51.0434481,241.439908 C51.0434481,241.439908 51.5254038,239.646393 54.2234955,239.876366 Z" id="Fill-36" fill="#FFFFFF"></path>
                <path d="M49.9454687,238.18957 C50.1046088,238.682601 50.381683,239.774 50.3674741,241.359894 C50.3376353,243.2735 49.874424,245.876179 48.2006114,248.928 L32.98,239.728647 C32.98,239.728647 36.903087,232.909598 49.8431644,237.905748 C49.8431644,237.905748 49.8872121,238.009621 49.9454687,238.18957 Z" id="Fill-37" fill="#FFFFFF"></path>
                <polygon id="Stroke-38" stroke="#2DB7BA" stroke-width="0.75" stroke-linecap="round" stroke-linejoin="round" points="82.12 268.519813 49.0148012 248.898194 33.7785868 239.856 30.712 244.459063 79.0534132 273.12"></polygon>
                <path d="M32.98,239.728647 C32.98,239.728647 36.903087,232.909598 49.8431644,237.905748 C49.8431644,237.905748 49.8872121,238.009621 49.9454687,238.18957 C50.1046088,238.682601 50.381683,239.774 50.3674741,241.359894 C50.3376353,243.2735 49.874424,245.876179 48.2006114,248.928" id="Stroke-39" stroke="#2DB7BA" stroke-width="0.75" stroke-linecap="round" stroke-linejoin="round"></path>
                <path d="M51.124,241.439908 C51.124,241.439908 51.6048883,239.646393 54.297004,239.876366 C56.9891197,240.104938 69.0585572,241.58294 72.0412096,242.027463 C73.4752871,242.227989 74.4571007,242.529479 75.2457003,243.01607 C76.108723,243.532109 76.7384577,244.278121 77.425441,245.423783 C78.7593335,247.632373 80.7630347,249.954548 83.3206162,251.344207 C85.8810602,252.733865 87.2564579,252.419755 87.4038731,254.611517 C87.5369761,256.804682 86.0442187,263.169628 82.2529297,267.828" id="Stroke-40" stroke="#2DB7BA" stroke-width="0.75" stroke-linecap="round" stroke-linejoin="round"></path>
                <path d="M50.368,238.03243 C50.368,238.03243 51.0701395,236.661088 53.4525518,237.06763 C55.820664,237.474172 64.4150806,238.770392 68.6407879,238.303458 C72.8779354,237.820322 74.3408452,236.166168 75.6993636,237.126549 C77.0721823,238.106079 77.5998594,241.028467 74.8942627,242.88" id="Stroke-41" stroke="#2DB7BA" stroke-width="0.75" stroke-linecap="round" stroke-linejoin="round"></path>
                <path d="M56.4125798,241.724228 C56.4560571,242.30814 56.0800373,242.824626 55.5688853,242.87587 C55.0600835,242.927114 54.6112098,242.495586 54.5665575,241.908976 L54.1517606,236.475761 C54.1059332,235.8905 54.4843031,235.375363 54.99428,235.324119 C55.5030819,235.272875 55.9496054,235.705752 55.9954328,236.288316 L56.4125798,241.724228 Z" id="Fill-42" fill="#FFFFFF"></path>
                <path d="M56.4125798,241.724228 C56.4560571,242.30814 56.0800373,242.824626 55.5688853,242.87587 C55.0600835,242.927114 54.6112098,242.495586 54.5665575,241.908976 L54.1517606,236.475761 C54.1059332,235.8905 54.4843031,235.375363 54.99428,235.324119 C55.5030819,235.272875 55.9496054,235.705752 55.9954328,236.288316 L56.4125798,241.724228 Z" id="Stroke-43" stroke="#2DB7BA" stroke-width="0.75" stroke-linecap="round" stroke-linejoin="round"></path>
                <path d="M61.7043351,243.192464 C61.7487515,243.798684 61.3843094,244.335062 60.8900348,244.388141 C60.3957602,244.438427 59.9607074,243.991445 59.9174299,243.385225 L59.4436552,237.27414 C59.3992388,236.66792 59.7648198,236.135732 60.2568166,236.079859 C60.7522301,236.029573 61.1884218,236.476556 61.2305604,237.081378 L61.7043351,243.192464 Z" id="Fill-44" fill="#FFFFFF"></path>
                <path d="M61.7043351,243.192464 C61.7487515,243.798684 61.3843094,244.335062 60.8900348,244.388141 C60.3957602,244.438427 59.9607074,243.991445 59.9174299,243.385225 L59.4436552,237.27414 C59.3992388,236.66792 59.7648198,236.135732 60.2568166,236.079859 C60.7522301,236.029573 61.1884218,236.476556 61.2305604,237.081378 L61.7043351,243.192464 Z" id="Stroke-45" stroke="#2DB7BA" stroke-width="0.75" stroke-linecap="round" stroke-linejoin="round"></path>
                <path d="M65.4846279,243.913245 C65.5265814,244.538507 65.1721844,245.090294 64.6941348,245.1436 C64.2149812,245.198346 63.7910296,244.735883 63.7490761,244.112061 L63.2235528,237.311977 C63.1804952,236.686715 63.5337882,236.136369 64.0129418,236.080182 C64.4909913,236.026876 64.9138389,236.48934 64.9546884,237.113161 L65.4846279,243.913245 Z" id="Fill-46" fill="#FFFFFF"></path>
                <path d="M65.4846279,243.913245 C65.5265814,244.538507 65.1721844,245.090294 64.6941348,245.1436 C64.2149812,245.198346 63.7910296,244.735883 63.7490761,244.112061 L63.2235528,237.311977 C63.1804952,236.686715 63.5337882,236.136369 64.0129418,236.080182 C64.4909913,236.026876 64.9138389,236.48934 64.9546884,237.113161 L65.4846279,243.913245 Z" id="Stroke-47" stroke="#2DB7BA" stroke-width="0.75" stroke-linecap="round" stroke-linejoin="round"></path>
                <path d="M71.5302736,245.489199 C71.5998684,246.079237 71.0270501,246.603716 70.2508009,246.655617 C69.4763362,246.708884 68.7946646,246.270453 68.7268543,245.676318 L67.7614502,238.75976 C67.6936399,238.16699 68.2664582,237.643877 69.0409229,237.591976 C69.8153876,237.54144 70.4952748,237.978505 70.5648695,238.569909 L71.5302736,245.489199 Z" id="Fill-48" fill="#FFFFFF"></path>
                <path d="M71.5302736,245.489199 C71.5998684,246.079237 71.0270501,246.603716 70.2508009,246.655617 C69.4763362,246.708884 68.7946646,246.270453 68.7268543,245.676318 L67.7614502,238.75976 C67.6936399,238.16699 68.2664582,237.643877 69.0409229,237.591976 C69.8153876,237.54144 70.4952748,237.978505 70.5648695,238.569909 L71.5302736,245.489199 Z" id="Stroke-49" stroke="#2DB7BA" stroke-width="0.75" stroke-linecap="round" stroke-linejoin="round"></path>
                <path d="M119.483454,157.452 L85.9,221.185373 L104.940196,236.076 L135.877463,188.40362 C135.877463,188.40362 160.678105,198.538196 166.190156,198.538196 L193.997371,198.538196 C196.627763,198.538196 207.022984,196.765434 209.338936,185.776031 C210.511987,180.222525 211.532844,166.289993 192.618999,157.452 L119.483454,157.452 Z" id="Fill-50" fill="#FFFFFF"></path>
                <path d="M119.483454,157.452 L85.9,221.185373 L104.940196,236.076 L135.877463,188.40362 C135.877463,188.40362 160.678105,198.538196 166.190156,198.538196 L193.997371,198.538196 C196.627763,198.538196 207.022984,196.765434 209.338936,185.776031 C210.511987,180.222525 211.532844,166.289993 192.618999,157.452 L119.483454,157.452 Z" id="Stroke-51" stroke="#2DB7BA" stroke-width="0.75" stroke-linecap="round" stroke-linejoin="round"></path>
                <path d="M136.065662,188.448 C136.065662,188.448 138.419048,178.358725 132.772,170.304" id="Stroke-52" stroke="#2DB7BA" stroke-width="0.75" stroke-linecap="round" stroke-linejoin="round"></path>
                <line x1="88.924" y1="215.664" x2="107.824" y2="230.784" id="Stroke-53" stroke="#2DB7BA" stroke-width="0.75" stroke-linecap="round" stroke-linejoin="round"></line>
                <path d="M221.449692,70.512 C221.449692,70.512 220.640465,78.2732522 220.950717,82.7178893 C221.262398,87.1639617 225.004,90.7934378 225.004,90.7934378 C225.004,90.7934378 219.019152,100.622731 205.296607,98.0566954 C199.341783,96.9430246 198.749875,91.5454526 199.62201,90.2940081 C200.495575,89.0425636 205.797012,84.9954609 205.797012,70.512 L221.449692,70.512 Z" id="Fill-54" fill="#FFFFFF"></path>
                <path d="M221.416656,79.3180026 C221.439303,74.9916869 221.98,69.756 221.98,69.756 L206.483803,69.756 C206.483803,84.208558 201.235366,88.2470255 200.370534,89.4957998 C199.958642,90.0915454 199.886455,91.6267358 200.550294,93.192 C210.478165,91.6396246 218.15266,83.4137533 221.416656,79.3180026 Z" id="Fill-55" fill="#E0F4F5"></path>
                <path d="M221.449692,70.512 C221.449692,70.512 220.640465,78.2732522 220.950717,82.7178893 C221.262398,87.1639617 225.004,90.7934378 225.004,90.7934378 C225.004,90.7934378 219.019152,100.622731 205.296607,98.0566954 C199.341783,96.9430246 198.749875,91.5454526 199.62201,90.2940081 C200.495575,89.0425636 205.797012,84.9954609 205.797012,70.512 L221.449692,70.512 Z" id="Stroke-56" stroke="#2DB7BA" stroke-width="0.75" stroke-linecap="round" stroke-linejoin="round"></path>
                <path d="M196.693327,34.98 C185.44775,41.3985858 174.529628,57.8567153 194.588875,60.684 L200.812,60.684 L200.812,34.98 L196.693327,34.98 Z" id="Fill-57" fill="#2DB7BA"></path>
                <path d="M196.693327,34.98 C185.44775,41.3985858 174.529628,57.8567153 194.588875,60.684 L200.812,60.684 L200.812,34.98 L196.693327,34.98 Z" id="Stroke-58" stroke="#2DB7BA" stroke-width="0.75" stroke-linecap="round" stroke-linejoin="round"></path>
                <path d="M200.221512,38.4487702 C192.897581,43.2201987 191.339906,50.0655439 191.339906,57.3143083 C191.339906,64.5644933 191.385636,64.7974538 191.011223,68.5148782 C190.636809,72.2323026 194.170874,81.6956122 198.756726,82.4484723 C203.9928,83.3078693 215.696799,80.7822367 220.839984,72.7436793 C226.63625,70.8842568 231.329282,66.2477749 231.795155,54.2488892 C232.356776,39.7513602 214.38778,29.2198415 200.221512,38.4487702 Z" id="Fill-59" fill="#FFFFFF"></path>
                <path d="M200.221512,38.4487702 C192.897581,43.2201987 191.339906,50.0655439 191.339906,57.3143083 C191.339906,64.5644933 191.385636,64.7974538 191.011223,68.5148782 C190.636809,72.2323026 194.170874,81.6956122 198.756726,82.4484723 C203.9928,83.3078693 215.696799,80.7822367 220.839984,72.7436793 C226.63625,70.8842568 231.329282,66.2477749 231.795155,54.2488892 C232.356776,39.7513602 214.38778,29.2198415 200.221512,38.4487702 Z" id="Stroke-60" stroke="#2DB7BA" stroke-width="0.75" stroke-linecap="round" stroke-linejoin="round"></path>
                <path d="M196.297618,35.1994074 C193.854323,37.0561784 196.982082,49.7967723 208.340486,57.1589341 C218.818052,63.9512244 227.707547,64.4605019 227.707547,64.4605019 C227.707547,64.4605019 234.616223,64.7605861 235.774546,59.8019833 C237.450843,52.6288169 235.96096,40.9875699 223.982127,34.3799467 C213.534444,28.6163104 200.767268,31.8018196 196.297618,35.1994074 Z" id="Fill-61" fill="#2DB7BA"></path>
                <path d="M196.297618,35.1994074 C193.854323,37.0561784 196.982082,49.7967723 208.340486,57.1589341 C218.818052,63.9512244 227.707547,64.4605019 227.707547,64.4605019 C227.707547,64.4605019 234.616223,64.7605861 235.774546,59.8019833 C237.450843,52.6288169 235.96096,40.9875699 223.982127,34.3799467 C213.534444,28.6163104 200.767268,31.8018196 196.297618,35.1994074 Z" id="Stroke-62" stroke="#2DB7BA" stroke-width="0.75" stroke-linecap="round" stroke-linejoin="round"></path>
                <path d="M223.10875,64.6779519 C223.10875,64.6779519 225.542682,60.4532476 229.413605,60.6939046 C233.286046,60.9330942 231.84602,66.8394627 229.413605,69.815392 C226.98119,72.7913212 222.909968,73.7025895 221.224121,73.5118248 C221.224121,73.5118248 221.174047,69.1433133 223.10875,64.6779519 Z" id="Fill-63" fill="#FFFFFF"></path>
                <path d="M223.10865,64.6779519 C223.10865,64.6779519 225.54261,60.4532476 229.413578,60.6939046 C233.286063,60.9330942 231.84602,66.8394627 229.413578,69.815392 C226.981135,72.7913212 222.909866,73.7025895 221.224,73.5118248" id="Stroke-64" stroke="#2DB7BA" stroke-width="0.75" stroke-linecap="round" stroke-linejoin="round"></path>
                <path d="M208.372,62.952 C208.372,64.205074 207.525579,65.22 206.4803,65.22 C205.438421,65.22 204.592,64.205074 204.592,62.952 C204.592,61.7005243 205.438421,60.684 206.4803,60.684 C207.525579,60.684 208.372,61.7005243 208.372,62.952 Z" id="Fill-65" fill="#2DB7BA"></path>
                <path d="M194.008,62.574 C194.008,63.6184337 193.500239,64.464 192.873373,64.464 C192.246507,64.464 191.74,63.6184337 191.74,62.574 C191.74,61.5310843 192.246507,60.684 192.873373,60.684 C193.500239,60.684 194.008,61.5310843 194.008,62.574 Z" id="Fill-66" fill="#2DB7BA"></path>
                <path d="M197.389733,70.512 C197.389733,70.512 196.252709,69.9341223 196.845413,68.244" id="Stroke-67" stroke="#2DB7BA" stroke-width="0.75" stroke-linecap="round" stroke-linejoin="round"></path>
                <path d="M197.032,75.371535 C197.032,75.371535 200.367528,76.460175 203.836,74.432583" id="Stroke-68" stroke="#2DB7BA" stroke-width="0.75" stroke-linecap="round" stroke-linejoin="round"></path>
                <path d="M203.836,57.112992 C203.836,57.112992 205.636491,56.172528 209.884,57.112992" id="Stroke-69" stroke="#2DB7BA" stroke-width="0.75" stroke-linecap="round" stroke-linejoin="round"></path>
                <path d="M195.52,56.4587174 C195.52,56.4587174 194.543141,55.8357734 193.252,55.8372854" id="Stroke-70" stroke="#2DB7BA" stroke-width="0.75" stroke-linecap="round" stroke-linejoin="round"></path>
                <path d="M190.790239,80.34 L196.888094,80.34 C198.162593,80.34 199.348406,80.683663 200.283897,81.5938667 C201.219388,82.5026325 203.498037,84.1950649 204.02729,84.6350686 C204.557974,85.0750723 205.461996,85.5122001 205.336119,85.9522038 C205.213104,86.3922075 203.769816,87.4404516 201.870226,86.6812295 C199.972067,85.9205696 199.068045,85.1987335 198.442954,84.9801696 C197.819294,84.7616056 196.102797,84.7616056 196.102797,84.7616056 L196.102797,93.1648132 C196.102797,93.7917466 192.080473,98.3096929 191.362405,98.7166244 C190.644337,99.1235559 188.460095,98.8733577 187.960881,98.7166244 C187.461666,98.5584531 184.031533,97.6396219 184.031533,97.6396219 C184.031533,97.6396219 177.354361,120.417721 175.982594,125.246258 C174.607966,130.074795 167.807778,133.669597 163.628108,133.222403 C159.447008,132.772334 158.884855,125.621555 159.38407,122.360352 C159.884715,119.100586 178.415728,90.0358981 179.412727,88.8869996 C180.411156,87.739539 189.873344,80.34 190.790239,80.34 Z" id="Fill-71" fill="#FFFFFF"></path>
                <path d="M190.790239,80.34 L196.888094,80.34 C198.162593,80.34 199.348406,80.683663 200.283897,81.5938667 C201.219388,82.5026325 203.498037,84.1950649 204.02729,84.6350686 C204.557974,85.0750723 205.461996,85.5122001 205.336119,85.9522038 C205.213104,86.3922075 203.769816,87.4404516 201.870226,86.6812295 C199.972067,85.9205696 199.068045,85.1987335 198.442954,84.9801696 C197.819294,84.7616056 196.102797,84.7616056 196.102797,84.7616056 L196.102797,93.1648132 C196.102797,93.7917466 192.080473,98.3096929 191.362405,98.7166244 C190.644337,99.1235559 188.460095,98.8733577 187.960881,98.7166244 C187.461666,98.5584531 184.031533,97.6396219 184.031533,97.6396219 C184.031533,97.6396219 177.354361,120.417721 175.982594,125.246258 C174.607966,130.074795 167.807778,133.669597 163.628108,133.222403 C159.447008,132.772334 158.884855,125.621555 159.38407,122.360352 C159.884715,119.100586 178.415728,90.0358981 179.412727,88.8869996 C180.411156,87.739539 189.873344,80.34 190.790239,80.34 Z" id="Stroke-72" stroke="#2DB7BA" stroke-width="0.75" stroke-linecap="round" stroke-linejoin="round"></path>
                <polygon id="Fill-73" fill="#E0F4F5" points="186.535248 153.672 153.184 153.672 156.1222 157.452 189.472 157.452"></polygon>
                <polygon id="Stroke-74" stroke="#2DB7BA" stroke-width="0.75" stroke-linecap="round" stroke-linejoin="round" points="186.535248 153.672 153.184 153.672 156.1222 157.452 189.472 157.452"></polygon>
                <polygon id="Fill-75" fill="#FFFFFF" points="155.452 158.208 97.5328413 158.208 82.12 109.068 140.036303 109.068"></polygon>
                <polygon id="Stroke-76" stroke="#2DB7BA" stroke-width="0.75" stroke-linecap="round" stroke-linejoin="round" points="155.452 158.208 97.5328413 158.208 82.12 109.068 140.036303 109.068"></polygon>
                <path d="M117.635357,138.552 L115.449379,137.323021 C110.246157,134.404197 109.678739,132.270875 109.461702,131.467981 C108.94677,129.536107 110.060328,127.968 111.952666,127.968 C113.144244,127.968 114.359937,128.591185 115.225249,129.534658 C115.588397,128.591185 116.470732,127.968 117.660891,127.968 C119.55323,127.968 121.506566,129.536107 122.021498,131.467981 C122.237117,132.270875 122.805953,134.404197 119.167386,137.323021 L117.635357,138.552 Z" id="Fill-77" fill="#2DB7BA"></path>
                <path d="M221.174587,129.48 L218.867123,145.547954 L182.606971,152.27128 C182.606971,152.27128 175.730641,143.842878 175.164931,143.321802 C174.60066,142.800726 168.760746,141.807787 168.007906,141.807787 C167.253625,141.807787 161.085513,144.885029 160.09516,145.594272 C159.107686,146.304961 157.458058,151.702439 157.177362,152.27128 C156.893787,152.840121 156.705217,154.16597 157.882701,154.16597 L165.182234,154.16597 C165.889011,154.16597 172.624273,159.326069 173.942824,160.36822 C175.261375,161.410372 176.908125,162.783986 183.453377,161.410372 C189.009717,161.647751 218.708782,161.491428 223.230145,161.365502 C227.750069,161.23668 231.204788,160.355193 232.398105,156.06066 C233.589983,151.766126 239.368,129.48 239.368,129.48 L221.174587,129.48 Z" id="Fill-78" fill="#FFFFFF"></path>
                <path d="M220.468,136.245613 C222.74402,137.345911 227.572796,139.235047 236.29848,140.82 C237.895364,134.542771 239.368,128.724 239.368,128.724 L221.522706,128.724 L220.468,136.245613 Z" id="Fill-79" fill="#E0F4F5"></path>
                <path d="M221.174587,129.48 L218.867123,145.547954 L182.606971,152.27128 C182.606971,152.27128 175.730641,143.842878 175.164931,143.321802 C174.60066,142.800726 168.760746,141.807787 168.007906,141.807787 C167.253625,141.807787 161.085513,144.885029 160.09516,145.594272 C159.107686,146.304961 157.458058,151.702439 157.177362,152.27128 C156.893787,152.840121 156.705217,154.16597 157.882701,154.16597 L165.182234,154.16597 C165.889011,154.16597 172.624273,159.326069 173.942824,160.36822 C175.261375,161.410372 176.908125,162.783986 183.453377,161.410372 C189.009717,161.647751 218.708782,161.491428 223.230145,161.365502 C227.750069,161.23668 231.204788,160.355193 232.398105,156.06066 C233.589983,151.766126 239.368,129.48 239.368,129.48 L221.174587,129.48 Z" id="Stroke-80" stroke="#2DB7BA" stroke-width="0.75" stroke-linecap="round" stroke-linejoin="round"></path>
                <path d="M220.538089,114.687747 L218.956,132.809541 C218.956,132.809541 233.30832,133.823074 242.645662,132.809541 C242.645662,132.809541 244.571184,114.686297 240.882517,102.497802 C238.135056,102.705149 221.588504,99.0367107 220.538089,114.687747 Z" id="Fill-81" fill="#FFFFFF"></path>
                <path d="M220.538089,114.546592 L218.956,132.806117 C218.956,132.806117 233.30832,133.827353 242.645662,132.806117 C242.645662,132.806117 244.571184,114.545131 240.882517,102.264" id="Stroke-82" stroke="#2DB7BA" stroke-width="0.75" stroke-linecap="round" stroke-linejoin="round"></path>
                <path d="M246.515121,106.8 L242.932168,109.778356 C242.932168,109.778356 258.551712,115.885779 252.910683,132.415295 C246.743636,150.480638 219.433867,156.833507 193.104271,166.225016 C166.776113,175.616526 147.138143,193.018736 140.061346,217.312071 C133.470324,239.933222 143.727656,262.555808 162.938775,265.56 C167.648496,264.919833 249.712902,251.245233 249.712902,251.245233 L271.091326,145.402362 C272.093058,116.817323 246.515121,106.8 246.515121,106.8 Z" id="Fill-83" fill="#FFFFFF"></path>
                <path d="M167.238725,266.316 C145.310934,266.316 133.000092,242.084895 140.054909,217.850927 C147.106861,193.616959 166.675886,176.257276 192.911612,166.888717 C219.14877,157.520159 246.362661,151.182815 252.508057,133.16162 C258.129282,116.672498 242.564575,110.58 242.564575,110.58" id="Stroke-84" stroke="#2DB7BA" stroke-width="0.75" stroke-linecap="round" stroke-linejoin="round"></path>
                <path d="M299.848,22.5052846 C299.848,27.7249984 295.616998,31.956 290.398715,31.956 C285.179002,31.956 280.948,27.7249984 280.948,22.5052846 C280.948,17.2870016 285.179002,13.056 290.398715,13.056 C295.616998,13.056 299.848,17.2870016 299.848,22.5052846 Z" id="Fill-85" fill="#FFFFFF"></path>
                <path d="M299.848,22.5052846 C299.848,27.7249984 295.616998,31.956 290.398715,31.956 C285.179002,31.956 280.948,27.7249984 280.948,22.5052846 C280.948,17.2870016 285.179002,13.056 290.398715,13.056 C295.616998,13.056 299.848,17.2870016 299.848,22.5052846 Z" id="Stroke-86" stroke="#2DB7BA" stroke-width="0.75" stroke-linejoin="round"></path>
                <line x1="302.872" y1="22.884" x2="306.652" y2="22.884" id="Stroke-90" stroke="#2DB7BA" stroke-width="0.75" stroke-linecap="round" stroke-linejoin="round"></line>
                <line x1="301.36" y1="16.08" x2="305.14" y2="14.568" id="Stroke-91" stroke="#2DB7BA" stroke-width="0.75" stroke-linecap="round" stroke-linejoin="round"></line>
                <line x1="296.824" y1="11.544" x2="298.336" y2="7.764" id="Stroke-92" stroke="#2DB7BA" stroke-width="0.75" stroke-linecap="round" stroke-linejoin="round"></line>
                <line x1="290.776" y1="10.032" x2="290.776" y2="6.252" id="Stroke-93" stroke="#2DB7BA" stroke-width="0.75" stroke-linecap="round" stroke-linejoin="round"></line>
                <line x1="284.728" y1="11.544" x2="283.216" y2="7.764" id="Stroke-94" stroke="#2DB7BA" stroke-width="0.75" stroke-linecap="round" stroke-linejoin="round"></line>
                <line x1="279.436" y1="16.08" x2="275.656" y2="14.568" id="Stroke-95" stroke="#2DB7BA" stroke-width="0.75" stroke-linecap="round" stroke-linejoin="round"></line>
                <line x1="277.924" y1="22.884756" x2="274.144" y2="22.883244" id="Stroke-96" stroke="#2DB7BA" stroke-width="0.75" stroke-linecap="round" stroke-linejoin="round"></line>
                <path d="M260.749539,24.396 C255.218554,24.396 254.396808,21.7966014 258.925032,18.6213138 L281.787394,2.58546564 C286.315618,-0.589821879 293.724264,-0.589821879 298.252489,2.58546564 L321.11485,18.6213138 C325.643074,21.7966014 324.821328,24.396 319.29178,24.396 L260.749539,24.396 Z" id="Fill-100" fill="#FFFFFF"></path>
                <path d="M260.749539,24.396 C255.218554,24.396 254.396808,21.7966014 258.925032,18.6213138 L281.787394,2.58546564 C286.315618,-0.589821879 293.724264,-0.589821879 298.252489,2.58546564 L321.11485,18.6213138 C325.643074,21.7966014 324.821328,24.396 319.29178,24.396 L260.749539,24.396 Z" id="Stroke-101" stroke="#2DB7BA" stroke-width="0.75" stroke-linejoin="round"></path>
                <path d="M285.501039,235.32 C279.246573,231.056131 283.029925,224.02082 280.130561,219.360212 C277.231197,214.701037 279.096107,209.918686 282.062023,206.846467 C285.027939,203.774247 285.758568,201.253451 283.663618,196.902214 C281.568669,192.549545 283.931274,187.232957 285.900353,184.79953 C287.867985,182.366103 292.606217,179.016023 294.523211,168.703677 C296.441653,158.389898 310.510222,153.672 310.510222,153.672 C310.510222,153.672 319.562777,165.333545 315.372878,174.962698 C311.182979,184.588986 313.240312,189.981484 313.513755,193.088078 C313.785751,196.194673 312.765765,201.91516 308.5831,204.382962 C304.400435,206.849331 303.593127,209.348643 304.336776,213.532304 C305.078979,217.71883 303.949037,222.720318 298.922894,225.000493 C293.898199,227.282099 293.098125,235.214012 285.501039,235.32 Z" id="Fill-102" fill="#FFFFFF"></path>
                <path d="M285.501039,235.32 C279.246573,231.056131 283.029925,224.02082 280.130561,219.360212 C277.231197,214.701037 279.096107,209.918686 282.062023,206.846467 C285.027939,203.774247 285.758568,201.253451 283.663618,196.902214 C281.568669,192.549545 283.931274,187.232957 285.900353,184.79953 C287.867985,182.366103 292.606217,179.016023 294.523211,168.703677 C296.441653,158.389898 310.510222,153.672 310.510222,153.672 C310.510222,153.672 319.562777,165.333545 315.372878,174.962698 C311.182979,184.588986 313.240312,189.981484 313.513755,193.088078 C313.785751,196.194673 312.765765,201.91516 308.5831,204.382962 C304.400435,206.849331 303.593127,209.348643 304.336776,213.532304 C305.078979,217.71883 303.949037,222.720318 298.922894,225.000493 C293.898199,227.282099 293.098125,235.214012 285.501039,235.32 Z" id="Stroke-103" stroke="#2DB7BA" stroke-width="0.75" stroke-linecap="round" stroke-linejoin="round"></path>
                <line x1="285.484" y1="235.32" x2="310.432" y2="153.672" id="Stroke-104" stroke="#2DB7BA" stroke-width="0.75" stroke-linecap="round" stroke-linejoin="round"></line>
                <line x1="290.776" y1="221.712" x2="285.484" y2="212.64" id="Stroke-105" stroke="#2DB7BA" stroke-width="0.75" stroke-linecap="round" stroke-linejoin="round"></line>
                <line x1="291.532" y1="219.444" x2="302.116" y2="214.908" id="Stroke-106" stroke="#2DB7BA" stroke-width="0.75" stroke-linecap="round" stroke-linejoin="round"></line>
                <line x1="304.384" y1="174.84" x2="312.7" y2="171.06" id="Stroke-107" stroke="#2DB7BA" stroke-width="0.75" stroke-linecap="round" stroke-linejoin="round"></line>
                <line x1="297.58" y1="197.52" x2="311.188" y2="192.228" id="Stroke-108" stroke="#2DB7BA" stroke-width="0.75" stroke-linecap="round" stroke-linejoin="round"></line>
                <line x1="296.824" y1="200.544" x2="290.776" y2="188.448" id="Stroke-109" stroke="#2DB7BA" stroke-width="0.75" stroke-linecap="round" stroke-linejoin="round"></line>
                <line x1="303.628" y1="177.864" x2="299.092" y2="170.304" id="Stroke-110" stroke="#2DB7BA" stroke-width="0.75" stroke-linecap="round" stroke-linejoin="round"></line>
                <path d="M285.141484,232.296 C290.873922,228.410354 287.490211,221.88356 290.169161,217.606048 C292.84811,213.3271 291.192708,208.896 288.519477,206.03667 C285.844816,203.174469 285.202954,200.840498 287.147123,196.841455 C289.089861,192.840976 286.987015,187.911789 285.214391,185.646718 C283.444626,183.383081 279.161737,180.248153 277.504906,170.712746 C275.848074,161.174469 263.082322,156.696 263.082322,156.696 C263.082322,156.696 254.742412,167.384038 258.47207,176.310833 C262.203158,185.237627 260.284721,190.198392 260.008821,193.063464 C259.73435,195.929971 260.612085,201.219445 264.398924,203.533321 C268.185764,205.847196 268.897672,208.159636 268.185764,212.01801 C267.472425,215.874947 268.458805,220.504134 273.014735,222.652938 C277.569235,224.801742 278.226821,232.130928 285.141484,232.296 Z" id="Fill-111" fill="#FFFFFF"></path>
                <path d="M285.141484,232.296 C290.873922,228.410354 287.490211,221.88356 290.169161,217.606048 C292.84811,213.3271 291.192708,208.896 288.519477,206.03667 C285.844816,203.174469 285.202954,200.840498 287.147123,196.841455 C289.089861,192.840976 286.987015,187.911789 285.214391,185.646718 C283.444626,183.383081 279.161737,180.248153 277.504906,170.712746 C275.848074,161.174469 263.082322,156.696 263.082322,156.696 C263.082322,156.696 254.742412,167.384038 258.47207,176.310833 C262.203158,185.237627 260.284721,190.198392 260.008821,193.063464 C259.73435,195.929971 260.612085,201.219445 264.398924,203.533321 C268.185764,205.847196 268.897672,208.159636 268.185764,212.01801 C267.472425,215.874947 268.458805,220.504134 273.014735,222.652938 C277.569235,224.801742 278.226821,232.130928 285.141484,232.296 Z" id="Stroke-112" stroke="#2DB7BA" stroke-width="0.75" stroke-linecap="round" stroke-linejoin="round"></path>
                <line x1="283.972" y1="232.296" x2="262.048" y2="156.696" id="Stroke-113" stroke="#2DB7BA" stroke-width="0.75" stroke-linecap="round" stroke-linejoin="round"></line>
                <line x1="280.192" y1="217.932" x2="285.484" y2="209.616" id="Stroke-114" stroke="#2DB7BA" stroke-width="0.75" stroke-linecap="round" stroke-linejoin="round"></line>
                <line x1="280.192" y1="215.664" x2="271.12" y2="211.884" id="Stroke-115" stroke="#2DB7BA" stroke-width="0.75" stroke-linecap="round" stroke-linejoin="round"></line>
                <line x1="268.096" y1="175.596" x2="260.536" y2="171.816" id="Stroke-116" stroke="#2DB7BA" stroke-width="0.75" stroke-linecap="round" stroke-linejoin="round"></line>
                <line x1="274.144" y1="196.764" x2="261.292" y2="191.472" id="Stroke-117" stroke="#2DB7BA" stroke-width="0.75" stroke-linecap="round" stroke-linejoin="round"></line>
                <line x1="274.9" y1="199.032" x2="280.948" y2="187.692" id="Stroke-118" stroke="#2DB7BA" stroke-width="0.75" stroke-linecap="round" stroke-linejoin="round"></line>
                <line x1="268.852" y1="178.62" x2="272.632" y2="171.816" id="Stroke-119" stroke="#2DB7BA" stroke-width="0.75" stroke-linecap="round" stroke-linejoin="round"></line>
                <path d="M277.975593,233.442902 C280.070952,230.142733 276.784228,227.578613 277.192902,224.776235 C277.600132,221.972438 275.706945,220.086222 273.643355,219.235298 C271.579766,218.382955 270.701766,217.336318 270.791299,214.845945 C270.877944,212.354154 268.6324,210.313353 267.181101,209.560285 C265.728357,208.807217 262.75933,208.184624 259.677665,203.686069 C256.594556,199.184678 248.87884,199.818617 248.87884,199.818617 C248.87884,199.818617 246.998649,207.196133 251.021854,210.907582 C255.046503,214.621868 255.196687,217.598686 255.718,219.127514 C256.239312,220.656342 257.925997,223.160896 260.444471,223.478575 C262.964389,223.794835 263.874159,224.815945 264.396916,226.953184 C264.918228,229.089004 266.511048,231.230498 269.391986,231.288644 C272.274368,231.343954 274.319184,234.941947 277.975593,233.442902 Z" id="Fill-120" fill="#FFFFFF"></path>
                <path d="M277.975593,233.442902 C280.070952,230.142733 276.784228,227.578613 277.192902,224.776235 C277.600132,221.972438 275.706945,220.086222 273.643355,219.235298 C271.579766,218.382955 270.701766,217.336318 270.791299,214.845945 C270.877944,212.354154 268.6324,210.313353 267.181101,209.560285 C265.728357,208.807217 262.75933,208.184624 259.677665,203.686069 C256.594556,199.184678 248.87884,199.818617 248.87884,199.818617 C248.87884,199.818617 246.998649,207.196133 251.021854,210.907582 C255.046503,214.621868 255.196687,217.598686 255.718,219.127514 C256.239312,220.656342 257.925997,223.160896 260.444471,223.478575 C262.964389,223.794835 263.874159,224.815945 264.396916,226.953184 C264.918228,229.089004 266.511048,231.230498 269.391986,231.288644 C272.274368,231.343954 274.319184,234.941947 277.975593,233.442902 Z" id="Stroke-121" stroke="#2DB7BA" stroke-width="0.75" stroke-linecap="round" stroke-linejoin="round"></path>
                <line x1="278.68" y1="233.808" x2="249.196" y2="199.788" id="Stroke-122" stroke="#2DB7BA" stroke-width="0.75" stroke-linecap="round" stroke-linejoin="round"></line>
                <line x1="273.189928" y1="227.76" x2="273.586072" y2="221.712" id="Stroke-123" stroke="#2DB7BA" stroke-width="0.75" stroke-linecap="round" stroke-linejoin="round"></line>
                <line x1="272.632" y1="226.145184" x2="266.584" y2="226.350816" id="Stroke-124" stroke="#2DB7BA" stroke-width="0.75" stroke-linecap="round" stroke-linejoin="round"></line>
                <line x1="257.512" y1="208.019328" x2="252.22" y2="208.188672" id="Stroke-125" stroke="#2DB7BA" stroke-width="0.75" stroke-linecap="round" stroke-linejoin="round"></line>
                <line x1="265.072" y1="217.039164" x2="257.512" y2="217.312836" id="Stroke-126" stroke="#2DB7BA" stroke-width="0.75" stroke-linecap="round" stroke-linejoin="round"></line>
                <line x1="265.579276" y1="217.932" x2="266.076724" y2="211.128" id="Stroke-127" stroke="#2DB7BA" stroke-width="0.75" stroke-linecap="round" stroke-linejoin="round"></line>
                <line x1="258.114532" y1="208.86" x2="258.421468" y2="204.324" id="Stroke-128" stroke="#2DB7BA" stroke-width="0.75" stroke-linecap="round" stroke-linejoin="round"></line>
                <path d="M292.236389,233.442902 C290.141083,230.142733 293.427725,227.578613 293.019061,224.776235 C292.61184,221.972438 294.506425,220.086222 296.568518,219.235298 C298.632056,218.382955 299.510034,217.336318 299.421947,214.845945 C299.333861,212.354154 301.579348,210.313353 303.032055,209.560285 C304.484762,208.807217 307.452271,208.184624 310.533858,203.686069 C313.61689,199.184678 321.333856,199.818617 321.333856,199.818617 C321.333856,199.818617 323.212556,207.196133 319.189452,210.907582 C315.164904,214.621868 315.016168,217.598686 314.493424,219.127514 C313.972125,220.656342 312.285482,223.160896 309.767071,223.478575 C307.24866,223.794835 306.337469,224.815945 305.81617,226.953184 C305.293426,229.089004 303.702091,231.230498 300.821225,231.288644 C297.938915,231.343954 295.892706,234.941947 292.236389,233.442902 Z" id="Fill-129" fill="#FFFFFF"></path>
                <path d="M292.236389,233.442902 C290.141083,230.142733 293.427725,227.578613 293.019061,224.776235 C292.61184,221.972438 294.506425,220.086222 296.568518,219.235298 C298.632056,218.382955 299.510034,217.336318 299.421947,214.845945 C299.333861,212.354154 301.579348,210.313353 303.032055,209.560285 C304.484762,208.807217 307.452271,208.184624 310.533858,203.686069 C313.61689,199.184678 321.333856,199.818617 321.333856,199.818617 C321.333856,199.818617 323.212556,207.196133 319.189452,210.907582 C315.164904,214.621868 315.016168,217.598686 314.493424,219.127514 C313.972125,220.656342 312.285482,223.160896 309.767071,223.478575 C307.24866,223.794835 306.337469,224.815945 305.81617,226.953184 C305.293426,229.089004 303.702091,231.230498 300.821225,231.288644 C297.938915,231.343954 295.892706,234.941947 292.236389,233.442902 Z" id="Stroke-130" stroke="#2DB7BA" stroke-width="0.75" stroke-linecap="round" stroke-linejoin="round"></path>
                <line x1="291.532" y1="233.808" x2="321.016" y2="199.788" id="Stroke-131" stroke="#2DB7BA" stroke-width="0.75" stroke-linecap="round" stroke-linejoin="round"></line>
                <line x1="297.022072" y1="227.76" x2="296.625928" y2="221.712" id="Stroke-132" stroke="#2DB7BA" stroke-width="0.75" stroke-linecap="round" stroke-linejoin="round"></line>
                <line x1="297.58" y1="226.145184" x2="303.628" y2="226.350816" id="Stroke-133" stroke="#2DB7BA" stroke-width="0.75" stroke-linecap="round" stroke-linejoin="round"></line>
                <line x1="313.456" y1="208.019328" x2="318.748" y2="208.188672" id="Stroke-134" stroke="#2DB7BA" stroke-width="0.75" stroke-linecap="round" stroke-linejoin="round"></line>
                <line x1="305.14" y1="217.039164" x2="312.7" y2="217.312836" id="Stroke-135" stroke="#2DB7BA" stroke-width="0.75" stroke-linecap="round" stroke-linejoin="round"></line>
                <line x1="304.632724" y1="217.932" x2="304.135276" y2="211.128" id="Stroke-136" stroke="#2DB7BA" stroke-width="0.75" stroke-linecap="round" stroke-linejoin="round"></line>
                <line x1="312.097468" y1="208.86" x2="311.790532" y2="204.324" id="Stroke-137" stroke="#2DB7BA" stroke-width="0.75" stroke-linecap="round" stroke-linejoin="round"></line>
                <polygon id="Fill-138" fill="#FFFFFF" points="301.873722 258 267.582278 258 262.048 227.76 307.408 227.76"></polygon>
                <polygon id="Stroke-139" stroke="#2DB7BA" stroke-width="0.75" stroke-linecap="round" stroke-linejoin="round" points="301.873722 258 267.582278 258 262.048 227.76 307.408 227.76"></polygon>
                <polygon id="Fill-140" fill="#FFFFFF" points="262.048 270.096 266.584 270.096 266.584 248.172 262.048 248.172"></polygon>
                <polygon id="Stroke-141" stroke="#2DB7BA" stroke-width="0.75" stroke-linecap="round" stroke-linejoin="round" points="262.048 270.096 266.584 270.096 266.584 248.172 262.048 248.172"></polygon>
                <polygon id="Fill-142" fill="#FFFFFF" points="302.872 270.096 307.408 270.096 307.408 248.172 302.872 248.172"></polygon>
                <polygon id="Stroke-143" stroke="#2DB7BA" stroke-width="0.75" stroke-linecap="round" stroke-linejoin="round" points="302.872 270.096 307.408 270.096 307.408 248.172 302.872 248.172"></polygon>
                <polygon id="Fill-144" fill="#FFFFFF" points="266.584 261.78 304.384 261.78 304.384 257.244 266.584 257.244"></polygon>
                <polygon id="Stroke-145" stroke="#2DB7BA" stroke-width="0.75" stroke-linecap="round" stroke-linejoin="round" points="266.584 261.78 304.384 261.78 304.384 257.244 266.584 257.244"></polygon>
                <polygon id="Fill-146" fill="#FFFFFF" points="282.46 270.096 286.996 270.096 286.996 248.172 282.46 248.172"></polygon>
                <polygon id="Stroke-147" stroke="#2DB7BA" stroke-width="0.75" stroke-linecap="round" stroke-linejoin="round" points="282.46 270.096 286.996 270.096 286.996 248.172 282.46 248.172"></polygon>
                <line x1="78.34" y1="84.876" x2="80.608" y2="87.144" id="Stroke-148" stroke="#2DB7BA" stroke-width="0.5" stroke-linecap="round" stroke-linejoin="round"></line>
                <line x1="80.608" y1="84.876" x2="78.34" y2="87.144" id="Stroke-149" stroke="#2DB7BA" stroke-width="0.5" stroke-linecap="round" stroke-linejoin="round"></line>
                <line x1="317.236" y1="117.384" x2="319.504" y2="119.652" id="Stroke-150" stroke="#2DB7BA" stroke-width="0.5" stroke-linecap="round" stroke-linejoin="round"></line>
                <line x1="319.504" y1="117.384" x2="317.236" y2="119.652" id="Stroke-151" stroke="#2DB7BA" stroke-width="0.5" stroke-linecap="round" stroke-linejoin="round"></line>
            </g>
        </g>
    </g>
</svg>