<svg id="_6.-Dashboard---Client-Applications" data-name="6.-Dashboard---Client-Applications" xmlns="http://www.w3.org/2000/svg" width="183.995" height="113.091" viewBox="0 0 183.995 113.091">
  <g id="_6.2-Dashboard---Apps-overview" data-name="6.2-Dashboard---Apps-overview" transform="translate(-100 -741)">
    <g id="Group" transform="translate(60 717)">
      <g id="Group-114" transform="translate(40 24)">
        <path id="Fill-1" d="M87.512,64.408,103.773,25.3H61.495L45.234,64.408Z" fill="#e0f4f5" fill-rule="evenodd"/>
        <path id="Stroke-2" d="M87.512,64.408,103.773,25.3H61.495L45.234,64.408Z" fill="none" stroke="#2db7ba" stroke-linecap="round" stroke-linejoin="round" stroke-width="0.75" fill-rule="evenodd"/>
        <path id="Fill-3" d="M45.768,64.408,62.03,25.3H58.722L42.461,64.408Z" fill="#fff" fill-rule="evenodd"/>
        <path id="Stroke-4" d="M45.768,64.408,62.03,25.3H58.722L42.461,64.408Z" fill="none" stroke="#2db7ba" stroke-linecap="round" stroke-linejoin="round" stroke-width="0.75" fill-rule="evenodd"/>
        <path id="Fill-5" d="M142.239.375a3.675,3.675,0,0,1,3.511,3.048l8.743,57.936a2.559,2.559,0,0,1-2.59,3.049H66.187a3.674,3.674,0,0,1-3.509-3.049L53.935,3.423A2.557,2.557,0,0,1,56.524.375Z" fill="#e0f4f5" fill-rule="evenodd"/>
        <path id="Stroke-6" d="M142.239.375a3.675,3.675,0,0,1,3.511,3.048l8.743,57.936a2.559,2.559,0,0,1-2.59,3.049H66.187a3.674,3.674,0,0,1-3.509-3.049L53.935,3.423A2.557,2.557,0,0,1,56.524.375Z" fill="none" stroke="#2db7ba" stroke-linecap="round" stroke-linejoin="round" stroke-width="0.75" fill-rule="evenodd"/>
        <path id="Fill-7" d="M145.683.375a3.676,3.676,0,0,1,3.511,3.048l8.743,57.936a2.558,2.558,0,0,1-2.59,3.049H69.63a3.674,3.674,0,0,1-3.508-3.049L57.377,3.423A2.558,2.558,0,0,1,59.965.375Z" fill="#fff" fill-rule="evenodd"/>
        <path id="Stroke-8" d="M145.683.375a3.676,3.676,0,0,1,3.511,3.048l8.743,57.936a2.558,2.558,0,0,1-2.59,3.049H69.63a3.674,3.674,0,0,1-3.508-3.049L57.377,3.423A2.558,2.558,0,0,1,59.965.375Z" fill="none" stroke="#2db7ba" stroke-linecap="round" stroke-linejoin="round" stroke-width="0.75" fill-rule="evenodd"/>
        <path id="Fill-9" d="M70.184,62.641h81.191l-9.132-60.5H61.053Z" fill="#2db7ba" fill-rule="evenodd"/>
        <path id="Fill-10" d="M147.606,31.632l.23,1.517a1.828,1.828,0,0,0,1.745,1.52H151.1a1.274,1.274,0,0,0,1.289-1.52l-.228-1.517a1.833,1.833,0,0,0-1.748-1.52h-1.519A1.275,1.275,0,0,0,147.606,31.632Z" fill="#e0f4f5" fill-rule="evenodd"/>
        <path id="Stroke-11" d="M147.606,31.632l.23,1.517a1.828,1.828,0,0,0,1.745,1.52H151.1a1.274,1.274,0,0,0,1.289-1.52l-.228-1.517a1.833,1.833,0,0,0-1.748-1.52h-1.519A1.275,1.275,0,0,0,147.606,31.632Z" fill="none" stroke="#2db7ba" stroke-linecap="round" stroke-linejoin="round" stroke-width="0.5" fill-rule="evenodd"/>
        <path id="Fill-12" d="M88.662,66.849V83.456a3.916,3.916,0,0,1-.452.024H30.048V66.825H88.21A4.153,4.153,0,0,1,88.662,66.849Z" fill="#fff" fill-rule="evenodd"/>
        <line id="Stroke-13" x2="58.614" transform="translate(30.048 67.919)" fill="none" stroke="#b9d9f2" stroke-linecap="round" stroke-linejoin="round" stroke-width="0.25"/>
        <line id="Stroke-14" x2="58.614" transform="translate(30.048 68.879)" fill="none" stroke="#b9d9f2" stroke-linecap="round" stroke-linejoin="round" stroke-width="0.25"/>
        <line id="Stroke-15" x2="58.614" transform="translate(30.048 69.839)" fill="none" stroke="#b9d9f2" stroke-linecap="round" stroke-linejoin="round" stroke-width="0.25"/>
        <line id="Stroke-16" x2="58.614" transform="translate(30.048 70.799)" fill="none" stroke="#b9d9f2" stroke-linecap="round" stroke-linejoin="round" stroke-width="0.25"/>
        <line id="Stroke-17" x2="58.614" transform="translate(30.048 71.76)" fill="none" stroke="#b9d9f2" stroke-linecap="round" stroke-linejoin="round" stroke-width="0.25"/>
        <line id="Stroke-18" x2="58.614" transform="translate(30.048 72.72)" fill="none" stroke="#b9d9f2" stroke-linecap="round" stroke-linejoin="round" stroke-width="0.25"/>
        <line id="Stroke-19" x2="58.614" transform="translate(30.048 73.68)" fill="none" stroke="#b9d9f2" stroke-linecap="round" stroke-linejoin="round" stroke-width="0.25"/>
        <line id="Stroke-20" x2="58.614" transform="translate(30.048 74.64)" fill="none" stroke="#b9d9f2" stroke-linecap="round" stroke-linejoin="round" stroke-width="0.25"/>
        <line id="Stroke-21" x2="58.614" transform="translate(30.048 75.601)" fill="none" stroke="#b9d9f2" stroke-linecap="round" stroke-linejoin="round" stroke-width="0.25"/>
        <line id="Stroke-22" x2="58.614" transform="translate(30.048 76.56)" fill="none" stroke="#b9d9f2" stroke-linecap="round" stroke-linejoin="round" stroke-width="0.25"/>
        <line id="Stroke-23" x2="58.614" transform="translate(30.048 77.52)" fill="none" stroke="#b9d9f2" stroke-linecap="round" stroke-linejoin="round" stroke-width="0.25"/>
        <line id="Stroke-24" x2="58.614" transform="translate(30.048 78.481)" fill="none" stroke="#b9d9f2" stroke-linecap="round" stroke-linejoin="round" stroke-width="0.25"/>
        <line id="Stroke-25" x2="58.614" transform="translate(30.048 79.441)" fill="none" stroke="#b9d9f2" stroke-linecap="round" stroke-linejoin="round" stroke-width="0.25"/>
        <line id="Stroke-26" x2="58.614" transform="translate(30.048 80.401)" fill="none" stroke="#b9d9f2" stroke-linecap="round" stroke-linejoin="round" stroke-width="0.25"/>
        <line id="Stroke-27" x2="58.614" transform="translate(30.048 81.362)" fill="none" stroke="#b9d9f2" stroke-linecap="round" stroke-linejoin="round" stroke-width="0.25"/>
        <line id="Stroke-28" x2="58.614" transform="translate(30.048 82.322)" fill="none" stroke="#b9d9f2" stroke-linecap="round" stroke-linejoin="round" stroke-width="0.25"/>
        <path id="Fill-29" d="M93.3,71.918a5.093,5.093,0,0,0-4.641-5.069,4.153,4.153,0,0,0-.452-.024H26.961V64.407H88.21a7.508,7.508,0,0,1,7.511,7.511v6.469A7.507,7.507,0,0,1,88.21,85.9H26.961V83.48H88.21a3.916,3.916,0,0,0,.452-.024A5.094,5.094,0,0,0,93.3,78.387Z" fill="#e0f4f5" fill-rule="evenodd"/>
        <path id="Fill-30" d="M93.3,71.918v6.469a5.094,5.094,0,0,1-4.641,5.069V66.849A5.093,5.093,0,0,1,93.3,71.918Z" fill="#e0f4f5" fill-rule="evenodd"/>
        <path id="Fill-31" d="M173.818,71.918v6.469a7.5,7.5,0,0,1-7.5,7.511H88.21a7.507,7.507,0,0,0,7.511-7.511V71.918a7.508,7.508,0,0,0-7.511-7.511h78.106A7.506,7.506,0,0,1,173.818,71.918Z" fill="#fff" fill-rule="evenodd"/>
        <path id="Fill-32" d="M104.944,64.407a7.509,7.509,0,0,1,7.512,7.511v6.469a7.508,7.508,0,0,1-7.512,7.511H98.011a7.508,7.508,0,0,0,7.512-7.511V71.918a7.508,7.508,0,0,0-7.512-7.511Z" fill="#e0f4f5" fill-rule="evenodd"/>
        <path id="Fill-33" d="M161.866,85.9h5.47V64.191h-5.47Z" fill="#e0f4f5" fill-rule="evenodd"/>
        <path id="Stroke-34" d="M88.21,85.9a7.507,7.507,0,0,0,7.511-7.511V71.918a7.508,7.508,0,0,0-7.511-7.511" fill="none" stroke="#2db7ba" stroke-linecap="round" stroke-linejoin="round" stroke-width="0.75" fill-rule="evenodd"/>
        <path id="Stroke-35" d="M98.011,85.9a7.508,7.508,0,0,0,7.512-7.511V71.918a7.508,7.508,0,0,0-7.512-7.511" fill="none" stroke="#2db7ba" stroke-linecap="round" stroke-linejoin="round" stroke-width="0.75" fill-rule="evenodd"/>
        <path id="Stroke-36" d="M104.944,85.9a7.508,7.508,0,0,0,7.512-7.511V71.918a7.509,7.509,0,0,0-7.512-7.511" fill="none" stroke="#2db7ba" stroke-linecap="round" stroke-linejoin="round" stroke-width="0.75" fill-rule="evenodd"/>
        <path id="Stroke-37" d="M87.663,64.407h-60.7v2.418H88.21a4.153,4.153,0,0,1,.452.024A5.093,5.093,0,0,1,93.3,71.918v6.469a5.094,5.094,0,0,1-4.641,5.069,3.916,3.916,0,0,1-.452.024H26.961V85.9h60.7" fill="none" stroke="#2db7ba" stroke-linecap="round" stroke-linejoin="round" stroke-width="0.75" fill-rule="evenodd"/>
        <path id="Stroke-38" d="M87.663,85.9h78.653a7.5,7.5,0,0,0,7.5-7.511V71.918a7.506,7.506,0,0,0-7.5-7.511H87.663" fill="none" stroke="#2db7ba" stroke-linecap="round" stroke-linejoin="round" stroke-width="0.75" fill-rule="evenodd"/>
        <line id="Stroke-39" y2="16.607" transform="translate(88.662 66.849)" fill="none" stroke="#2db7ba" stroke-linecap="round" stroke-linejoin="round" stroke-width="0.75"/>
        <line id="Stroke-40" y2="16.655" transform="translate(30.048 66.825)" fill="none" stroke="#2db7ba" stroke-linecap="round" stroke-linejoin="round" stroke-width="0.75"/>
        <path id="Fill-41" d="M98.463,88.448v16.606a3.679,3.679,0,0,1-.452.025H39.85V88.424H98.011A3.892,3.892,0,0,1,98.463,88.448Z" fill="#fff" fill-rule="evenodd"/>
        <line id="Stroke-42" x2="58.613" transform="translate(39.85 89.517)" fill="none" stroke="#b9d9f2" stroke-linecap="round" stroke-linejoin="round" stroke-width="0.25"/>
        <line id="Stroke-43" x2="58.613" transform="translate(39.85 90.477)" fill="none" stroke="#b9d9f2" stroke-linecap="round" stroke-linejoin="round" stroke-width="0.25"/>
        <line id="Stroke-44" x2="58.613" transform="translate(39.85 91.437)" fill="none" stroke="#b9d9f2" stroke-linecap="round" stroke-linejoin="round" stroke-width="0.25"/>
        <line id="Stroke-45" x2="58.613" transform="translate(39.85 92.397)" fill="none" stroke="#b9d9f2" stroke-linecap="round" stroke-linejoin="round" stroke-width="0.25"/>
        <line id="Stroke-46" x2="58.613" transform="translate(39.85 93.358)" fill="none" stroke="#b9d9f2" stroke-linecap="round" stroke-linejoin="round" stroke-width="0.25"/>
        <line id="Stroke-47" x2="58.613" transform="translate(39.85 94.318)" fill="none" stroke="#b9d9f2" stroke-linecap="round" stroke-linejoin="round" stroke-width="0.25"/>
        <line id="Stroke-48" x2="58.613" transform="translate(39.85 95.279)" fill="none" stroke="#b9d9f2" stroke-linecap="round" stroke-linejoin="round" stroke-width="0.25"/>
        <line id="Stroke-49" x2="58.613" transform="translate(39.85 96.239)" fill="none" stroke="#b9d9f2" stroke-linecap="round" stroke-linejoin="round" stroke-width="0.25"/>
        <line id="Stroke-50" x2="58.613" transform="translate(39.85 97.2)" fill="none" stroke="#b9d9f2" stroke-linecap="round" stroke-linejoin="round" stroke-width="0.25"/>
        <line id="Stroke-51" x2="58.613" transform="translate(39.85 98.159)" fill="none" stroke="#b9d9f2" stroke-linecap="round" stroke-linejoin="round" stroke-width="0.25"/>
        <line id="Stroke-52" x2="58.613" transform="translate(39.85 99.119)" fill="none" stroke="#b9d9f2" stroke-linecap="round" stroke-linejoin="round" stroke-width="0.25"/>
        <line id="Stroke-53" x2="58.613" transform="translate(39.85 100.08)" fill="none" stroke="#b9d9f2" stroke-linecap="round" stroke-linejoin="round" stroke-width="0.25"/>
        <line id="Stroke-54" x2="58.613" transform="translate(39.85 101.04)" fill="none" stroke="#b9d9f2" stroke-linecap="round" stroke-linejoin="round" stroke-width="0.25"/>
        <line id="Stroke-55" x2="58.613" transform="translate(39.85 102)" fill="none" stroke="#b9d9f2" stroke-linecap="round" stroke-linejoin="round" stroke-width="0.25"/>
        <line id="Stroke-56" x2="58.613" transform="translate(39.85 102.961)" fill="none" stroke="#b9d9f2" stroke-linecap="round" stroke-linejoin="round" stroke-width="0.25"/>
        <line id="Stroke-57" x2="58.613" transform="translate(39.85 103.921)" fill="none" stroke="#b9d9f2" stroke-linecap="round" stroke-linejoin="round" stroke-width="0.25"/>
        <path id="Fill-58" d="M103.105,93.516a5.093,5.093,0,0,0-4.642-5.068,3.892,3.892,0,0,0-.452-.024H36.763V86.006H98.011a7.508,7.508,0,0,1,7.512,7.51v6.47a7.508,7.508,0,0,1-7.512,7.511H36.763v-2.418H98.011a3.679,3.679,0,0,0,.452-.025,5.092,5.092,0,0,0,4.642-5.068Z" fill="#e0f4f5" fill-rule="evenodd"/>
        <path id="Fill-59" d="M103.105,93.516v6.47a5.092,5.092,0,0,1-4.642,5.068V88.448A5.093,5.093,0,0,1,103.105,93.516Z" fill="#e0f4f5" fill-rule="evenodd"/>
        <path id="Fill-60" d="M183.62,93.516v6.47a7.506,7.506,0,0,1-7.5,7.511H98.011a7.508,7.508,0,0,0,7.512-7.511v-6.47a7.508,7.508,0,0,0-7.512-7.51h78.107A7.506,7.506,0,0,1,183.62,93.516Z" fill="#fff" fill-rule="evenodd"/>
        <path id="Fill-61" d="M114.746,86.006a7.508,7.508,0,0,1,7.511,7.51v6.47a7.508,7.508,0,0,1-7.511,7.511h-6.933a7.509,7.509,0,0,0,7.512-7.511v-6.47a7.509,7.509,0,0,0-7.512-7.51Z" fill="#e0f4f5" fill-rule="evenodd"/>
        <path id="Fill-62" d="M163.132,107.5h5.47V85.789h-5.47Z" fill="#e0f4f5" fill-rule="evenodd"/>
        <path id="Stroke-63" d="M98.011,107.5a7.508,7.508,0,0,0,7.512-7.511v-6.47a7.508,7.508,0,0,0-7.512-7.51" fill="none" stroke="#2db7ba" stroke-linecap="round" stroke-linejoin="round" stroke-width="0.75" fill-rule="evenodd"/>
        <path id="Stroke-64" d="M107.813,107.5a7.509,7.509,0,0,0,7.512-7.511v-6.47a7.509,7.509,0,0,0-7.512-7.51" fill="none" stroke="#2db7ba" stroke-linecap="round" stroke-linejoin="round" stroke-width="0.75" fill-rule="evenodd"/>
        <path id="Stroke-65" d="M114.746,107.5a7.508,7.508,0,0,0,7.511-7.511v-6.47a7.508,7.508,0,0,0-7.511-7.51" fill="none" stroke="#2db7ba" stroke-linecap="round" stroke-linejoin="round" stroke-width="0.75" fill-rule="evenodd"/>
        <path id="Stroke-66" d="M97.464,86.006h-60.7v2.418H98.011a3.892,3.892,0,0,1,.452.024,5.093,5.093,0,0,1,4.642,5.068v6.47a5.092,5.092,0,0,1-4.642,5.068,3.679,3.679,0,0,1-.452.025H36.763V107.5h60.7" fill="none" stroke="#2db7ba" stroke-linecap="round" stroke-linejoin="round" stroke-width="0.75" fill-rule="evenodd"/>
        <path id="Stroke-67" d="M97.464,107.5h78.654a7.506,7.506,0,0,0,7.5-7.511v-6.47a7.506,7.506,0,0,0-7.5-7.51H97.464" fill="none" stroke="#2db7ba" stroke-linecap="round" stroke-linejoin="round" stroke-width="0.75" fill-rule="evenodd"/>
        <line id="Stroke-68" y2="16.606" transform="translate(98.463 88.448)" fill="none" stroke="#2db7ba" stroke-linecap="round" stroke-linejoin="round" stroke-width="0.75"/>
        <line id="Stroke-69" y2="16.655" transform="translate(39.85 88.424)" fill="none" stroke="#2db7ba" stroke-linecap="round" stroke-linejoin="round" stroke-width="0.75"/>
        <path id="Fill-70" d="M158.409,48.7a1.809,1.809,0,0,1,.167-.217c.018-.023.043-.049.062-.072s.052-.057.081-.089a3.05,3.05,0,0,1,.72-.541c.063-.036.231-.118.295-.145a3.581,3.581,0,0,1,.453-.161,3.536,3.536,0,0,1,.8-.126,3.289,3.289,0,0,1,.7.047,2.7,2.7,0,0,1,1.212.554,2.3,2.3,0,0,1,.446.487,2.224,2.224,0,0,1,.317.672L164.776,53a1.468,1.468,0,0,1-.51,1.4,4.544,4.544,0,0,1-3.965,1.11,1.441,1.441,0,0,1-1.12-.905c-.335-1.167-.782-2.723-1.119-3.888-.03-.125-.051-.223-.066-.323a2.61,2.61,0,0,1-.024-.323,2.321,2.321,0,0,1,.069-.557c.007-.028.017-.063.029-.1s.023-.073.036-.112c0-.013.006-.021.011-.036s.02-.049.029-.075.029-.071.049-.109c0-.012.011-.025.016-.037a.825.825,0,0,1,.047-.094.24.24,0,0,1,.021-.038.252.252,0,0,1,.016-.029A1.916,1.916,0,0,1,158.409,48.7Z" fill="#f5a623" fill-rule="evenodd"/>
        <path id="Stroke-71" d="M158.409,48.7a1.809,1.809,0,0,1,.167-.217c.018-.023.043-.049.062-.072s.052-.057.081-.089a3.05,3.05,0,0,1,.72-.541c.063-.036.231-.118.295-.145a3.581,3.581,0,0,1,.453-.161,3.536,3.536,0,0,1,.8-.126,3.289,3.289,0,0,1,.7.047,2.7,2.7,0,0,1,1.212.554,2.3,2.3,0,0,1,.446.487,2.224,2.224,0,0,1,.317.672L164.776,53a1.468,1.468,0,0,1-.51,1.4,4.544,4.544,0,0,1-3.965,1.11,1.441,1.441,0,0,1-1.12-.905c-.335-1.167-.782-2.723-1.119-3.888-.03-.125-.051-.223-.066-.323a2.61,2.61,0,0,1-.024-.323,2.321,2.321,0,0,1,.069-.557c.007-.028.017-.063.029-.1s.023-.073.036-.112c0-.013.006-.021.011-.036s.02-.049.029-.075.029-.071.049-.109c0-.012.011-.025.016-.037a.825.825,0,0,1,.047-.094.24.24,0,0,1,.021-.038.252.252,0,0,1,.016-.029A1.916,1.916,0,0,1,158.409,48.7Z" fill="none" stroke="#2db7ba" stroke-linecap="round" stroke-linejoin="round" stroke-width="0.75" fill-rule="evenodd"/>
        <path id="Fill-72" d="M179.18,107.793a2.716,2.716,0,0,0-2.893.954c.791,1.137,1.505,2.145,1.726,2.412.557.675,1.154.4,1.175-.4.014-.45.008-1.629,0-2.963Z" fill="#2db7ba" fill-rule="evenodd"/>
        <path id="Fill-73" d="M176.662,101.757l-2.738,1.277-.274,1.888s1.4,2.062,2.637,3.825a2.716,2.716,0,0,1,2.893-.954h.006c-.023-2.447-.063-5.433-.063-5.433Z" fill="#e0f4f5" fill-rule="evenodd"/>
        <path id="Fill-74" d="M162.651,53.308l0,0,14.014,48.445,2.461.6-14.03-48.48Z" fill="#fff" fill-rule="evenodd"/>
        <path id="Fill-75" d="M162.648,53.312l-2.733,1.276V54.6l14.01,48.43,2.738-1.277Z" fill="#fff" fill-rule="evenodd"/>
        <path id="Fill-76" d="M159.914,54.6l-.785-2.726-.275,1.884.776,2.7h.008Z" fill="#e0f4f5" fill-rule="evenodd"/>
        <path id="Fill-77" d="M161.866,50.6l.782,2.714,0,0,2.442.571-.766-2.673Z" fill="#e0f4f5" fill-rule="evenodd"/>
        <path id="Fill-78" d="M159.129,51.878l.785,2.726v-.016l2.733-1.276-.782-2.714Z" fill="#e0f4f5" fill-rule="evenodd"/>
        <path id="Fill-79" d="M159.63,56.466l14.02,48.456.274-1.888L159.914,54.6l-.276,1.861Z" fill="#e0f4f5" fill-rule="evenodd"/>
        <path id="Stroke-80" d="M159.129,51.878l-.275,1.884.776,2.7,14.02,48.456" fill="none" stroke="#2db7ba" stroke-linecap="round" stroke-linejoin="round" stroke-width="0.75" fill-rule="evenodd"/>
        <path id="Stroke-81" d="M161.866,50.6l-2.737,1.28.785,2.726,14.01,48.43" fill="none" stroke="#2db7ba" stroke-linecap="round" stroke-linejoin="round" stroke-width="0.75" fill-rule="evenodd"/>
        <path id="Stroke-82" d="M179.123,102.359l-14.03-48.48-.766-2.673-2.461-.608.782,2.714,14.014,48.445" fill="none" stroke="#2db7ba" stroke-linecap="round" stroke-linejoin="round" stroke-width="0.75" fill-rule="evenodd"/>
        <path id="Stroke-83" d="M179.123,102.359s.04,2.986.063,5.433c.01,1.334.016,2.513,0,2.963-.021.8-.618,1.079-1.175.4-.221-.267-.935-1.275-1.726-2.412-1.233-1.763-2.637-3.825-2.637-3.825l.274-1.888,2.738-1.277Z" fill="none" stroke="#2db7ba" stroke-linecap="round" stroke-linejoin="round" stroke-width="0.75" fill-rule="evenodd"/>
        <path id="Stroke-84" d="M179.18,107.793a2.716,2.716,0,0,0-2.893.954l0,0" fill="none" stroke="#2db7ba" stroke-linecap="round" stroke-linejoin="round" stroke-width="0.75" fill-rule="evenodd"/>
        <path id="Stroke-85" d="M165.093,53.879l-2.442-.571,0,0-2.733,1.276V54.6l-.276,1.861" fill="none" stroke="#2db7ba" stroke-linecap="round" stroke-linejoin="round" stroke-width="0.75" fill-rule="evenodd"/>
        <path id="Fill-86" d="M47.838,112.716H8.9l-4.6-55.552H52.449Z" fill="#fff" fill-rule="evenodd"/>
        <path id="Stroke-87" d="M47.838,112.716H8.9l-4.6-55.552H52.449Z" fill="none" stroke="#2db7ba" stroke-linecap="round" stroke-linejoin="round" stroke-width="0.75" fill-rule="evenodd"/>
        <path id="Fill-88" d="M53.018,56.56H3.718l4.962-13H48.047Z" fill="#e0f4f5" fill-rule="evenodd"/>
        <path id="Stroke-89" d="M53.018,56.56H3.718l4.962-13H48.047Z" fill="none" stroke="#2db7ba" stroke-linecap="round" stroke-linejoin="round" stroke-width="0.75" fill-rule="evenodd"/>
        <path id="Fill-90" d="M.375,63.13H56.369v-10.2H.375Z" fill="#e0f4f5" fill-rule="evenodd"/>
        <path id="Stroke-91" d="M.375,63.13H56.369v-10.2H.375Z" fill="none" stroke="#2db7ba" stroke-linecap="round" stroke-linejoin="round" stroke-width="0.75" fill-rule="evenodd"/>
        <line id="Stroke-92" y2="5.702" transform="translate(3.136 55.176)" fill="none" stroke="#2db7ba" stroke-linecap="round" stroke-linejoin="round" stroke-width="0.75"/>
        <line id="Stroke-93" y2="5.704" transform="translate(8.174 55.176)" fill="none" stroke="#2db7ba" stroke-linecap="round" stroke-linejoin="round" stroke-width="0.75"/>
        <line id="Stroke-94" y2="5.702" transform="translate(13.211 55.176)" fill="none" stroke="#2db7ba" stroke-linecap="round" stroke-linejoin="round" stroke-width="0.75"/>
        <line id="Stroke-95" y2="5.7" transform="translate(18.248 55.176)" fill="none" stroke="#2db7ba" stroke-linecap="round" stroke-linejoin="round" stroke-width="0.75"/>
        <line id="Stroke-96" y2="5.702" transform="translate(23.285 55.176)" fill="none" stroke="#2db7ba" stroke-linecap="round" stroke-linejoin="round" stroke-width="0.75"/>
        <line id="Stroke-97" y2="5.702" transform="translate(28.322 55.176)" fill="none" stroke="#2db7ba" stroke-linecap="round" stroke-linejoin="round" stroke-width="0.75"/>
        <line id="Stroke-98" y2="5.702" transform="translate(33.359 55.176)" fill="none" stroke="#2db7ba" stroke-linecap="round" stroke-linejoin="round" stroke-width="0.75"/>
        <line id="Stroke-99" y2="5.702" transform="translate(38.398 55.176)" fill="none" stroke="#2db7ba" stroke-linecap="round" stroke-linejoin="round" stroke-width="0.75"/>
        <line id="Stroke-100" y2="5.702" transform="translate(43.435 55.176)" fill="none" stroke="#2db7ba" stroke-linecap="round" stroke-linejoin="round" stroke-width="0.75"/>
        <line id="Stroke-101" y2="5.702" transform="translate(48.471 55.176)" fill="none" stroke="#2db7ba" stroke-linecap="round" stroke-linejoin="round" stroke-width="0.75"/>
        <line id="Stroke-102" y2="5.702" transform="translate(53.509 55.176)" fill="none" stroke="#2db7ba" stroke-linecap="round" stroke-linejoin="round" stroke-width="0.75"/>
        <path id="Fill-103" d="M54.873,52.924h-53l1.722-3.477H53.152Z" fill="#e0f4f5" fill-rule="evenodd"/>
        <path id="Stroke-104" d="M54.873,52.924h-53l1.722-3.477H53.152Z" fill="none" stroke="#2db7ba" stroke-linecap="round" stroke-linejoin="round" stroke-width="0.75" fill-rule="evenodd"/>
        <path id="Fill-105" d="M49.966,101.351,52.6,71.263H4.134l2.639,30.088Z" fill="#e0f4f5" fill-rule="evenodd"/>
        <path id="Stroke-106" d="M49.966,101.351,52.6,71.263H4.134l2.639,30.088Z" fill="none" stroke="#2db7ba" stroke-linecap="round" stroke-linejoin="round" stroke-width="0.75" fill-rule="evenodd"/>
        <path id="Fill-107" d="M27.506,78.555c-3.231.506-5.729,3.8-5.729,7.79s2.5,7.284,5.729,7.79Z" fill="#14bc7d" fill-rule="evenodd"/>
        <path id="Fill-108" d="M29.232,78.555v15.58c3.232-.506,5.729-3.8,5.729-7.79S32.464,79.061,29.232,78.555Z" fill="#14bc7d" fill-rule="evenodd"/>
        <path id="Path_7" data-name="Path 7" d="M93.347,60.908l-.987-1.581a2.31,2.31,0,0,1,0-2.27l2.986-5.728,1.765,2.858a2.307,2.307,0,0,1,0,2.258l-2.179,4.206a1.109,1.109,0,0,1-.792.6A.76.76,0,0,1,93.347,60.908Zm-5.109-8.181a2.069,2.069,0,0,1-.3-1.1,2.564,2.564,0,0,1,.3-1.188l1.38-2.618h0a2.69,2.69,0,0,1,1.945-1.416l5.962-.845-5.847,11.2a3.573,3.573,0,0,0-.335.935ZM95.65,38.638l2.7-.356a1.891,1.891,0,0,1,1.9.873l2.922,4.814L91.564,45.6a3.239,3.239,0,0,0-.921.276l3.083-5.852A2.621,2.621,0,0,1,95.65,38.638Zm10.673-1.406a1.843,1.843,0,0,1,1.857.867l1.307,2.178a2.305,2.305,0,0,1,0,2.217l-2.87,5.579-5.7-9.4a2.5,2.5,0,0,0-.57-.652Zm7.049,9.523a2.062,2.062,0,0,1,.281,1.062,2.538,2.538,0,0,1-.281,1.145l-4.829,9.483a1.065,1.065,0,0,1-.762.582.727.727,0,0,1-.764-.334l-2.12-3.467a2.3,2.3,0,0,1,0-2.234l5.239-10.2a3.465,3.465,0,0,0,.318-.9l2.918,4.864Z" transform="translate(58.968 134.238) rotate(-90)" fill="#fff" fill-rule="evenodd"/>
      </g>
    </g>
  </g>
</svg>
