<?xml version="1.0" encoding="utf-8"?>
<!-- Generator: Adobe Illustrator 23.1.0, SVG Export Plug-In . SVG Version: 6.00 Build 0)  -->
<svg version="1.1" id="Layer_1" xmlns="http://www.w3.org/2000/svg" xmlns:xlink="http://www.w3.org/1999/xlink" x="0px" y="0px"
	 viewBox="0 0 24.8 24" style="enable-background:new 0 0 24.8 24;" xml:space="preserve">
<style type="text/css">
	.st0{fill:#51606E;}
</style>
<path class="st0" d="M22.8,6.1H2.1c-0.9,0-1.6,0.7-1.6,1.6V17c0,0.9,0.7,1.6,1.6,1.6h20.7c0.9,0,1.6-0.7,1.6-1.6V7.7
	C24.4,6.8,23.7,6.1,22.8,6.1z M12.8,16.2h-2v-1.9l0.2-4l-2,6H7.6l-2-6.1l0.2,4v1.9h-2V7.8h2.6l1.9,5.8l1.8-5.8h2.6v8.4H12.8z
	 M18.1,16.2l-3-4.2h2V7.8H19V12h2L18.1,16.2z"/>
</svg>
