<?xml version="1.0" encoding="UTF-8"?>
<svg width="308px" height="506px" viewBox="0 0 308 506" version="1.1" xmlns="http://www.w3.org/2000/svg" xmlns:xlink="http://www.w3.org/1999/xlink">
    <title>Primary Space / Rocket</title>
    <g id="Primary-Space-/-Rocket" stroke="none" stroke-width="1" fill="none" fill-rule="evenodd">
        <g id="Group-33">
            <path d="M111.007,304.338 C113.341,304.338 115.269,305.954 115.269,307.944 C115.269,309.903 113.341,311.519 111.007,311.519 C108.634,311.519 106.708,309.903 106.708,307.944 C106.708,305.954 108.634,304.338 111.007,304.338" id="Fill-1" fill="#76BDD3"></path>
            <path d="M125.192,346.205 C122.267,324.691 116.029,286.39 105.869,259.61 C103.529,258.999 96.9017,257.119 88.1267,253.361 C85.6397,252.317 82.9779,251.123 80.1947,249.77 C64.5744,242.176 45.0572,229.515 30.2327,209.518 L12.7299,208.321 L2.9912,208.321 C2.9912,208.321 -13.5043,380.683 30.9789,506.7261 L37.4477,506.7261 C37.4492,506.7299 37.4499,506.7344 37.4514,506.7381 L45.7269,506.7381 C45.7269,506.7381 35.0214,361.544 52.8054,335.695 C59.0784,326.542 70.0884,325.259 81.6842,327.407 C86.8187,328.358 92.0672,329.98 97.0712,331.892 L97.0712,331.928 C110.471,337.028 122.129,344.244 125.192,346.205" id="Fill-2" fill="#FC9344"></path>
            <path d="M12.7301,208.32 L2.9914,208.32 C2.9914,208.32 -13.5041,380.683 30.9791,506.7267 L38.0876,506.7267 L12.7301,208.32 Z" id="Fill-3" fill="#ED7921"></path>
            <path d="M84.2417,362.481 L213.491,362.291 L213.292594,362.802356 L213.292594,362.802356 L213.082067,363.314121 L213.082067,363.314121 L212.793104,363.985493 L212.793104,363.985493 L212.555813,364.516289 L212.555813,364.516289 L212.282052,365.109836 L212.282052,365.109836 L211.971177,365.762862 L211.971177,365.762862 L211.622545,366.472091 L211.622545,366.472091 L211.235511,367.23425 C206.019418,377.340922 191.157562,399.714704 160.526931,403.21693 L158.189,506.7267 L146.217,506.7267 L146.46714,403.466928 C113.871547,401.004491 94.5797039,378.03365 87.4297629,367.597326 L86.8971789,366.810055 L86.8971789,366.810055 L86.4136219,366.076996 L86.4136219,366.076996 L85.9789698,365.401623 L85.9789698,365.401623 L85.5931005,364.787412 L85.5931005,364.787412 L85.2558917,364.237835 L85.2558917,364.237835 L84.7269673,363.346484 L84.7269673,363.346484 L84.2417,362.481 Z" id="Path" fill="#32C896"></path>
            <path d="M81.6842,327.407 C86.8187,328.358 92.0672,329.98 97.0712,331.892 L97.0712,331.928 L98.1116949,332.329556 L98.1116949,332.329556 L99.1444185,332.738903 L99.1444185,332.738903 L100.16865,333.155264 C100.338608,333.2252 100.508182,333.295395 100.677357,333.365834 L101.6875,333.791266 L101.6875,333.791266 L102.68735,334.221776 L102.68735,334.221776 L103.676187,334.656588 L103.676187,334.656588 L104.653289,335.094929 L104.653289,335.094929 L106.095365,335.757359 L106.095365,335.757359 L107.03998,336.201129 L107.03998,336.201129 L107.970338,336.645714 L107.970338,336.645714 L109.337569,337.312426 L109.337569,337.312426 L110.229135,337.755659 L110.229135,337.755659 L111.103923,338.196996 L111.103923,338.196996 L112.38307,338.853748 L112.38307,338.853748 L113.620413,339.501873 L113.620413,339.501873 L114.81352,340.138755 L114.81352,340.138755 L116.331316,340.96592 L116.331316,340.96592 L118.103112,341.955785 L118.103112,341.955785 L119.413162,342.704848 L119.413162,342.704848 L120.907037,343.577467 L120.907037,343.577467 L122.23075,344.367996 L122.23075,344.367996 L123.373041,345.064327 L123.373041,345.064327 L124.646027,345.857879 L124.646027,345.857879 L125.192,346.205 L125.192,346.205 L125.6871,349.917852 L125.6871,349.917852 L126.089156,353.059583 L126.089156,353.059583 L126.538048,356.726612 L126.538048,356.726612 L127.187,362.481 L84.2417,362.481 L83.849966,358.311464 L83.849966,358.311464 L83.5388141,354.701299 L83.5388141,354.701299 L83.1967532,350.458179 L83.1967532,350.458179 L82.7838002,344.930243 L82.7838002,344.930243 L82.4472458,340.055028 L82.4472458,340.055028 L82.2068018,336.33606 L82.2068018,336.33606 L81.8969455,331.20063 L81.8969455,331.20063 L81.6842,327.407 Z M80.7212,230.473 C82.4019,229.871 84.2417,230.028 86.3034,230.949 C91.792771,233.446382 96.6729451,239.751605 100.977086,248.32591 L101.49082,249.365619 C101.746307,249.890821 101.999725,250.423971 102.251081,250.964735 L102.751046,252.056317 L102.751046,252.056317 L103.245525,253.167615 C103.409439,253.541267 103.572441,253.918107 103.734532,254.298036 L104.21808,255.446992 L104.21808,255.446992 L104.69618,256.613889 C104.77541,256.809834 104.854413,257.006503 104.933191,257.203882 L105.403144,258.396585 C105.558892,258.79693 105.713737,259.200019 105.867682,259.605753 L104.581551,259.258313 L104.581551,259.258313 L103.518828,258.954124 L103.518828,258.954124 L102.533139,258.660342 L102.533139,258.660342 L101.432349,258.320221 L101.432349,258.320221 L100.221399,257.932365 L100.221399,257.932365 L99.2438666,257.609307 L99.2438666,257.609307 L98.2092337,257.258024 L98.2092337,257.258024 L96.7445029,256.744724 L96.7445029,256.744724 L95.5847419,256.325293 L95.5847419,256.325293 L94.3748289,255.875674 L94.3748289,255.875674 L93.1168487,255.395278 L93.1168487,255.395278 L91.8128857,254.883517 L91.8128857,254.883517 L90.9190605,254.524627 L90.9190605,254.524627 L90.0063427,254.15136 L90.0063427,254.15136 L88.6031935,253.564123 L88.6031935,253.564123 L88.1267,253.361 C85.6397,252.317 82.9779,251.123 80.1947,249.77 L80.1987576,249.501181 C80.3080621,243.273293 80.478533,236.91862 80.7212,230.473 Z" id="Shape" fill="#374858"></path>
            <path d="M224.353,226.884 C223.532,108.501 193.952,43.054 193.952,43.054 C156.684,-11.436 124.11,40.548 124.11,40.548 C93.5982,86.856 83.2587,163.549 80.7215,230.473 C82.4022,229.87 84.242,230.028 86.3037,230.949 C115.166,244.08 127.187,362.481 127.187,362.481 L177.285,362.481 C179.48,347.567 197.623,229.985 224.353,226.884" id="Fill-6" fill="#F5A623"></path>
            <path d="M218.257169,329.092677 C217.02332,339.054015 215.581505,349.250753 213.91289,359.679092 L213.459,362.481 L177.285,362.481 L177.940768,358.152983 L177.940768,358.152983 L178.394878,355.267414 L178.394878,355.267414 L179.167925,350.513423 L179.167925,350.513423 L179.747993,347.057953 C179.777228,346.886002 179.806693,346.713025 179.836386,346.539035 L181.34481,345.615344 L181.34481,345.615344 L182.914468,344.683753 L182.914468,344.683753 L184.361942,343.845825 L184.361942,343.845825 L186.320757,342.740644 L186.320757,342.740644 L187.561807,342.056512 L187.561807,342.056512 L188.885695,341.339963 L188.885695,341.339963 L190.28787,340.595666 L190.28787,340.595666 L191.016891,340.214571 L191.016891,340.214571 L192.527959,339.437409 L192.527959,339.437409 L193.705415,338.843733 L193.705415,338.843733 L194.918585,338.242986 L194.918585,338.242986 L196.165547,337.637138 L196.165547,337.637138 L197.014681,337.231378 L197.014681,337.231378 L197.877411,336.82481 L197.877411,336.82481 L199.195755,336.21472 L199.195755,336.21472 L200.089986,335.808686 L200.089986,335.808686 L200.995823,335.403887 L200.995823,335.403887 L201.912695,335.000907 L201.912695,335.000907 L203.307451,334.401123 L203.307451,334.401123 L204.723835,333.808715 L204.723835,333.808715 L205.67916,333.418847 L205.67916,333.418847 L206.642675,333.033716 L206.642675,333.033716 L207.613811,332.653905 L207.613811,332.653905 L208.592,332.28 L208.592,332.28 C211.679,331.11378 214.861839,330.0422 218.059809,329.147428 L218.257169,329.092677 Z M224.353,226.885 L224.369,229.014 L224.369,229.014 C224.404545,236.25659 224.331308,243.694648 224.13622,251.325536 C222.828988,251.923694 221.555425,252.484295 220.321202,253.009602 L219.403,253.397 L219.368,253.397 L218.405773,253.79824 L218.405773,253.79824 L216.99633,254.372665 L216.99633,254.372665 L216.080226,254.737576 L216.080226,254.737576 L215.183681,255.088254 L215.183681,255.088254 L214.30733,255.424872 L214.30733,255.424872 L213.032053,255.90381 L213.032053,255.90381 L211.80578,256.352076 L211.80578,256.352076 L210.630649,256.770249 L210.630649,256.770249 L209.147066,257.282 L209.147066,257.282 L208.099596,257.632205 L208.099596,257.632205 L207.110404,257.954244 L207.110404,257.954244 L205.315421,258.51614 L205.315421,258.51614 L203.779241,258.972318 L203.779241,258.972318 L202.709142,259.275048 L202.709142,259.275048 L201.420283,259.62008 L201.420283,259.62008 L200.885652,259.755066 L200.885652,259.755066 L201.289241,258.665314 L201.289241,258.665314 L201.69572,257.58715 L201.69572,257.58715 L202.310827,255.992461 L202.310827,255.992461 L202.724472,254.944925 L202.724472,254.944925 L203.140962,253.910302 L203.140962,253.910302 L203.560282,252.888972 L203.560282,252.888972 L203.982422,251.881313 L203.982422,251.881313 L204.407367,250.887703 C204.478425,250.723294 204.549598,250.559485 204.620888,250.396286 L205.050018,249.424461 L205.050018,249.424461 L205.481921,248.467632 C205.554136,248.309432 205.626465,248.151872 205.698909,247.99496 L206.134949,247.061336 L206.134949,247.061336 L206.573731,246.143655 L206.573731,246.143655 L207.015242,245.242296 L207.015242,245.242296 L207.459468,244.357637 C207.533732,244.211606 207.608108,244.066287 207.682596,243.921688 L208.130873,243.06279 L208.130873,243.06279 L208.581833,242.221538 L208.581833,242.221538 L209.035465,241.398312 L209.035465,241.398312 L209.491755,240.593491 C209.644294,240.328326 209.797273,240.066292 209.950691,239.807452 L210.412259,239.040575 L210.412259,239.040575 L210.876447,238.293238 C212.117764,236.326731 213.38689,234.572692 214.68273,233.063434 L215.16992,232.509 C218.10055,229.251995 221.16573,227.254642 224.353,226.885 Z" id="Shape" fill="#374858"></path>
            <path d="M295.16,208.306 L304.899,208.306 C304.899,208.306 319.801,380.683 275.318,506.7267 L268.209,506.7267 L295.16,208.306 Z" id="Fill-9" fill="#E07012"></path>
            <path d="M268.212,506.7381 L262.155,506.7381 C262.155,506.7381 272.86,361.544 255.077,335.695 C245.85,322.243 225.742,325.801 208.592,332.28 C192.745,338.266 179.433,346.789 179.433,346.789 C179.433,346.789 186.829,287.239 200.528,259.841 C200.528,259.841 208.24,258.08 219.368,253.397 L219.403,253.397 C235.99,246.46 260.183,233.042 277.65,209.518 L295.152,208.321 C295.152,208.321 314.31,364.89 268.212,506.7381" id="Fill-11" fill="#F6921E"></path>
            <path d="M125.192,346.205 C122.267,324.691 116.029,286.39 105.869,259.61 C103.529,258.999 96.9017,257.119 88.1267,253.361 C85.6397,252.317 82.9779,251.123 80.1947,249.77 C64.5744,242.176 45.0572,229.515 30.2327,209.518 L12.7299,208.321 C12.7299,208.321 -8.6458,364.89 37.4514,506.7381 L45.7269,506.7381 C45.7269,506.7381 35.0214,361.544 52.8054,335.695 C59.0784,326.542 70.0884,325.259 81.6842,327.407 C86.8187,328.358 92.0672,329.98 97.0712,331.892 L97.0712,331.928 C110.471,337.028 122.129,344.244 125.192,346.205" id="Fill-12" fill="#F6921E"></path>
            <path d="M98.6945,99.585 L210.913,99.585 C210.913,99.585 194.956,0 159.516,0 C124.077,0 98.6945,99.585 98.6945,99.585" id="Fill-13" fill="#374858"></path>
            <path d="M208.592,87.409 C208.592,87.409 217.49,90.745 219.158,97.417 C220.826,104.09 213.381,111.45 213.381,111.45 L208.592,87.409 Z" id="Fill-14" fill="#14DE2D"></path>
            <path d="M102.391,87.409 C102.391,87.409 92.2638,90.745 90.5951,97.417 C88.9271,104.09 95.6403,111.117 95.6403,111.117 L102.391,87.409 Z" id="Fill-15" fill="#14DE2D"></path>
            <path d="M157.328,84.497 C164.521599,84.497 170.413046,91.0132503 170.910923,99.2663022 L190.038233,99.3839569 L190.038233,99.3839569 L210.913,99.585 C197.894368,100.743189 184.148937,101.305597 170.911811,101.502079 C170.428265,109.770821 164.530892,116.303 157.328,116.303 C150.108177,116.303 144.20059,109.74182 143.739031,101.44679 L139.167395,101.355024 L139.167395,101.355024 L135.477951,101.265072 L135.477951,101.265072 L130.51554,101.122113 L130.51554,101.122113 L126.468154,100.987076 L126.468154,100.987076 L123.253206,100.868064 L123.253206,100.868064 L118.432843,100.670045 L118.432843,100.670045 L113.019828,100.419126 L113.019828,100.419126 L107.117645,100.109137 L107.117645,100.109137 L103.239097,99.8823022 L103.239097,99.8823022 L98.6945,99.585 L98.6945,99.585 L102.20998,99.5246313 L102.20998,99.5246313 L105.797461,99.4704666 L105.797461,99.4704666 L109.448381,99.4222603 L109.448381,99.4222603 L113.154175,99.3797671 L113.154175,99.3797671 L116.906281,99.3427416 L116.906281,99.3427416 L122.602542,99.2969182 L122.602542,99.2969182 L130.279722,99.2526663 L130.279722,99.2526663 L137.988008,99.2258672 L137.988008,99.2258672 L143.748424,99.2160401 L143.748424,99.2160401 C144.265744,90.9869719 150.147966,84.497 157.328,84.497 Z" id="Path" fill="#FFFFFF"></path>
            <path d="M168.278,100.4 C168.278,107.463 163.376,113.189 157.328,113.189 C151.28,113.189 146.376,107.463 146.376,100.4 C146.376,93.338 151.28,87.611 157.328,87.611 C163.376,87.611 168.278,93.338 168.278,100.4" id="Fill-18" fill="#14DE2D"></path>
            <path d="M81.1727,218.229 C81.1727,218.229 94.0502,108.806 112.733,109.115023 C131.416,109.429 132.08,360.481 132.08,360.481 C132.08,360.481 129.521,301.603 113.12,264.234 C96.7195,226.864 92.0511072,227.713985 90.3287,226.349 C87.7465006,224.638482 84.5440006,225.346482 80.7212,228.473 L81.1727,218.229 Z" id="Fill-20" fill-opacity="0.12" fill="#FFFFFF"></path>
            <path d="M224.342,225.237 C224.342,225.237 217.496,118.035 208.592,108.751 C199.688,99.467 202.453,244.401 202.453,244.401 C202.453,244.401 210.288,226.504 224.342,225.237 Z" id="Fill-21" fill-opacity="0.12" fill="#FFFFFF"></path>
            <path d="M211.792,116.303 C211.792,116.303 220.869,193.142 219.402,225.237 L224.342,225.237 C224.342,225.237 222.997,152.315 211.792,116.303 Z" id="Fill-22" fill-opacity="0.12" fill="#FFFFFF"></path>
            <path d="M144.868,9.119 C144.868,9.119 118.404,36.698 109.506,95.416 C109.506,95.416 135.75,58.94 144.868,9.119" id="Fill-23" fill-opacity="0.12" fill="#FFFFFF"></path>
            <path d="M97.0598,93.858 C97.0598,93.858 93.1395,95.149 92.4938,97.731 C91.848,100.314 94.4468,103.035 94.4468,103.035 L97.0598,93.858 Z" id="Fill-24" fill-opacity="0.12" fill="#FFFFFF"></path>
            <path d="M154.43,96.449 C154.43,97.88 153.436,99.041 152.211,99.041 C150.985,99.041 149.991,97.88 149.991,96.449 C149.991,95.018 150.985,93.857 152.211,93.857 C153.436,93.857 154.43,95.018 154.43,96.449" id="Fill-25" fill-opacity="0.12" fill="#FFFFFF"></path>
            <path d="M210.913,99.585 L210.913,99.585 C197.539,101.722 184.789,102.952 173,103.565 C171.712,112.309 165.181,118.972 157.327,118.972 C149.564,118.972 143.093,112.462 141.701,103.864 C137.986,103.742 134.466,103.57 131.157,103.363 C110.985,102.104 98.6942,99.585 98.6942,99.585 L98.6966,99.585 C98.9256,99.602 118.085,100.994 143.739,101.446 C144.2,109.741 150.108,116.303 157.328,116.303 C164.531,116.303 170.428,109.771 170.912,101.502 C184.15,101.306 197.895,100.743 210.913,99.585 Z" id="Fill-26" fill-opacity="0.12" fill="#FFFFFF"></path>
            <path d="M141.456,99.219 C141.979,89.518 148.89,81.828 157.327,81.828 C165.782,81.828 172.705,89.55 173.201,99.278 C172.445,99.275 171.681,99.271 170.911,99.268 C170.413,91.013 164.522,84.497 157.328,84.497 C150.147,84.497 144.265,90.987 143.747,99.216 C142.985,99.217 142.221,99.218 141.456,99.219 Z" id="Fill-27" fill-opacity="0.12" fill="#14283B"></path>
            <path d="M46.1208,505.2549 C46.1208,505.2549 55.863,509.5783 67.5684,513.8227 C86.5693,511.1929 120.738,508.9761 155.238,510.9481 C151.45,508.9303 146.66,506.756 146.66,506.756 L158.331,506.0461 C158.331,506.0461 162.514,507.5104 166.129,508.3994 C196.468,506.4402 260.285,511.2631 282.156,515.2274 C271.876,510.2782 263.621,506.9157 263.621,506.9157 L276.387,506.3324 C276.387,506.3324 295.946,511.8462 312.987,518.2929 C365.396,532.3888 366.815,559.7982 356.117,570.2957 C339.795,584.4115 284.924,585.2234 248.803,581.2775 C144.927,568.726 120.008,555.3106 76.4813,527.6857 C60.5072,520.9146 31.0411,506.6074 31.0411,506.6074 L46.1208,505.2549 Z" id="Fill-28" fill-opacity="0.12" fill="#14283B"></path>
            <path d="M160.524,403.218 L160.524,403.218 L160.252,415.271 L146.434,417.438 L146.48,403.468 C148.348,403.609 150.257,403.682 152.21,403.682 C155.103,403.682 157.873,403.521 160.524,403.218 Z" id="Fill-29" fill-opacity="0.12" fill="#14283B"></path>
            <path d="M208.592,332.28 C192.745,338.266 179.433,346.789 179.433,346.789 C179.433,346.789 186.829,287.239 200.528,259.841 C200.528,259.841 208.24,258.08 219.368,253.397 L219.404,253.397 C219.404,253.397 199.683,284.281 208.592,332.28" id="Fill-30" fill-opacity="0.12" fill="#14283B"></path>
            <path d="M89.7132,367.984 C89.7132,367.984 110.398,401.347 148.866,402.904 C178.453,404.101 196.139,382.987 196.139,382.987 C196.139,382.987 185.304,392.495 146.217,388.002 C107.13,383.509 89.7132,367.984 89.7132,367.984" id="Fill-31" fill-opacity="0.12" fill="#14283B"></path>
            <path d="M88.0565,253.397 C88.0565,253.397 101.72,305.059 97.0715,331.892 L97.0715,331.928 C110.471,337.028 122.13,344.244 125.193,346.205 C122.267,324.692 116.029,286.39 105.869,259.61 C103.529,258.999 96.9012,257.119 88.127,253.361 L88.0565,253.397 Z" id="Fill-32" fill-opacity="0.12" fill="#14283B"></path>
        </g>
    </g>
</svg>